G04 #@! TF.GenerationSoftware,KiCad,Pcbnew,(7.0.0)*
G04 #@! TF.CreationDate,2024-09-24T22:27:57+02:00*
G04 #@! TF.ProjectId,FPGA_dev_board,46504741-5f64-4657-965f-626f6172642e,rev?*
G04 #@! TF.SameCoordinates,Original*
G04 #@! TF.FileFunction,Paste,Bot*
G04 #@! TF.FilePolarity,Positive*
%FSLAX46Y46*%
G04 Gerber Fmt 4.6, Leading zero omitted, Abs format (unit mm)*
G04 Created by KiCad (PCBNEW (7.0.0)) date 2024-09-24 22:27:57*
%MOMM*%
%LPD*%
G01*
G04 APERTURE LIST*
%ADD10R,1.420000X1.080000*%
%ADD11R,0.711200X0.711200*%
%ADD12R,0.560000X0.600000*%
%ADD13R,0.700000X0.600000*%
%ADD14R,0.508000X0.609600*%
%ADD15R,1.100000X1.000000*%
%ADD16R,0.549999X0.249999*%
%ADD17R,0.600000X0.560000*%
%ADD18R,0.600000X0.700000*%
%ADD19R,2.489200X1.066800*%
%ADD20R,1.080000X1.420000*%
%ADD21R,0.812800X0.863600*%
%ADD22R,0.540000X0.600000*%
%ADD23R,0.900000X0.700000*%
%ADD24R,0.600000X0.540000*%
%ADD25R,0.609600X0.508000*%
%ADD26R,0.475000X0.500000*%
%ADD27R,0.965200X0.939800*%
%ADD28R,3.400000X0.980000*%
%ADD29R,0.490000X0.600000*%
%ADD30R,1.066800X2.489200*%
%ADD31R,0.755599X0.799998*%
%ADD32R,0.939800X0.965200*%
%ADD33R,2.499995X2.560396*%
%ADD34R,0.650000X0.900000*%
%ADD35R,0.700000X0.900000*%
%ADD36R,1.000000X1.100000*%
%ADD37R,0.660400X0.508000*%
G04 #@! TA.AperFunction,Profile*
%ADD38C,0.100000*%
G04 #@! TD*
G04 #@! TA.AperFunction,Profile*
%ADD39C,0.010000*%
G04 #@! TD*
G04 APERTURE END LIST*
D10*
X113009999Y-189704999D03*
X113009999Y-191494999D03*
D11*
X53869999Y-170568799D03*
X53869999Y-169374999D03*
D12*
X101194999Y-198329999D03*
X102064999Y-198329999D03*
D13*
X83869999Y-197269999D03*
X82769999Y-197269999D03*
D12*
X96664999Y-198729999D03*
X97534999Y-198729999D03*
D10*
X112279999Y-195024999D03*
X112279999Y-193234999D03*
D14*
X79189999Y-196063899D03*
X79189999Y-197156099D03*
D15*
X80489997Y-171830001D03*
X78789997Y-171830001D03*
D16*
X61174999Y-163609998D03*
X61174999Y-164109997D03*
X61174999Y-164609999D03*
X61174999Y-165109997D03*
X59824999Y-165109997D03*
X59824999Y-164609999D03*
X59824999Y-164109997D03*
X59824999Y-163609998D03*
D17*
X101469999Y-207514999D03*
X101469999Y-206644999D03*
D18*
X75169999Y-204219999D03*
X75169999Y-203119999D03*
D17*
X108509999Y-198534999D03*
X108509999Y-197664999D03*
D19*
X91529999Y-215202399D03*
X91529999Y-212357599D03*
D10*
X112019999Y-201534999D03*
X112019999Y-199744999D03*
D20*
X95844999Y-212539999D03*
X94054999Y-212539999D03*
D21*
X117709999Y-144348899D03*
X117709999Y-142901099D03*
D10*
X95839999Y-177314999D03*
X95839999Y-175524999D03*
D22*
X98118999Y-160914999D03*
X97254999Y-160914999D03*
D18*
X72649999Y-204209999D03*
X72649999Y-203109999D03*
D16*
X125709999Y-152214000D03*
X125709999Y-152713999D03*
X125709999Y-153214001D03*
X125709999Y-153713999D03*
X124359999Y-153713999D03*
X124359999Y-153214001D03*
X124359999Y-152713999D03*
X124359999Y-152214000D03*
D20*
X102289999Y-155434999D03*
X104079999Y-155434999D03*
D23*
X78409999Y-210169999D03*
X78409999Y-208869999D03*
D20*
X95854999Y-214649999D03*
X94064999Y-214649999D03*
D24*
X98354999Y-166406999D03*
X98354999Y-165542999D03*
D13*
X78899999Y-189099999D03*
X77799999Y-189099999D03*
X78879999Y-190309999D03*
X77779999Y-190309999D03*
D24*
X113072197Y-160998999D03*
X113072197Y-160134999D03*
D10*
X110522197Y-159981999D03*
X110522197Y-158191999D03*
D12*
X100354999Y-190849999D03*
X99484999Y-190849999D03*
X104444999Y-200799999D03*
X103574999Y-200799999D03*
D24*
X99644999Y-166406999D03*
X99644999Y-165542999D03*
D11*
X125709999Y-145624999D03*
X124516199Y-145624999D03*
D20*
X77999999Y-131924999D03*
X76209999Y-131924999D03*
D25*
X99296099Y-187669999D03*
X98203899Y-187669999D03*
D20*
X107694999Y-209789999D03*
X105904999Y-209789999D03*
D24*
X114522197Y-160950999D03*
X114522197Y-160086999D03*
D12*
X96014999Y-195309999D03*
X95144999Y-195309999D03*
D26*
X75547999Y-196739999D03*
X76571999Y-196739999D03*
D24*
X97074999Y-166416999D03*
X97074999Y-165552999D03*
D12*
X97014999Y-206019999D03*
X97884999Y-206019999D03*
X79654997Y-170010001D03*
X80524997Y-170010001D03*
D21*
X84999999Y-135372799D03*
X84999999Y-133924999D03*
D18*
X73329999Y-187509999D03*
X73329999Y-188609999D03*
D10*
X103679999Y-185164999D03*
X103679999Y-183374999D03*
D27*
X110909297Y-163134999D03*
X112407897Y-163134999D03*
D20*
X96084999Y-179279999D03*
X94294999Y-179279999D03*
D12*
X100354999Y-189629999D03*
X99484999Y-189629999D03*
D20*
X97804999Y-182419999D03*
X99594999Y-182419999D03*
D28*
X56869999Y-168189999D03*
X56869999Y-170559999D03*
D16*
X125384999Y-140874998D03*
X125384999Y-141374997D03*
X125384999Y-141874999D03*
X125384999Y-142374997D03*
X124034999Y-142374997D03*
X124034999Y-141874999D03*
X124034999Y-141374997D03*
X124034999Y-140874998D03*
D13*
X66369999Y-196409999D03*
X67469999Y-196409999D03*
D17*
X96009999Y-201084999D03*
X96009999Y-200214999D03*
D12*
X90784999Y-199419999D03*
X91654999Y-199419999D03*
D13*
X80529999Y-192439999D03*
X79429999Y-192439999D03*
D17*
X100649999Y-205034999D03*
X100649999Y-204164999D03*
X105389999Y-193734999D03*
X105389999Y-194604999D03*
D20*
X121604999Y-139624999D03*
X119814999Y-139624999D03*
D10*
X96149999Y-210594999D03*
X96149999Y-208804999D03*
D18*
X71349999Y-204889999D03*
X71349999Y-203789999D03*
D15*
X125559999Y-157713999D03*
X123859999Y-157713999D03*
D28*
X76999999Y-133739999D03*
X76999999Y-136109999D03*
X76639997Y-167645001D03*
X76639997Y-170015001D03*
D18*
X71479999Y-190489999D03*
X71479999Y-191589999D03*
D29*
X61783999Y-169374999D03*
X60869999Y-169374999D03*
D10*
X93719999Y-208754999D03*
X93719999Y-210544999D03*
D12*
X98644999Y-201439999D03*
X97774999Y-201439999D03*
D20*
X77534997Y-165830001D03*
X75744997Y-165830001D03*
D30*
X97072399Y-217569999D03*
X94227599Y-217569999D03*
D17*
X68679999Y-191334999D03*
X68679999Y-192204999D03*
D10*
X66979999Y-189474999D03*
X66979999Y-187684999D03*
D19*
X117209999Y-195712399D03*
X117209999Y-192867599D03*
X64219999Y-189822399D03*
X64219999Y-186977599D03*
D13*
X80539999Y-194839999D03*
X79439999Y-194839999D03*
D10*
X107649999Y-202984999D03*
X107649999Y-201194999D03*
D12*
X102254999Y-196589999D03*
X103124999Y-196589999D03*
D17*
X88549999Y-201864999D03*
X88549999Y-200994999D03*
D30*
X113087599Y-186349999D03*
X115932399Y-186349999D03*
D12*
X106384999Y-206429999D03*
X105514999Y-206429999D03*
D13*
X82359999Y-199759999D03*
X81259999Y-199759999D03*
D10*
X114379999Y-195054999D03*
X114379999Y-193264999D03*
D13*
X83849999Y-198609999D03*
X82749999Y-198609999D03*
D18*
X73899999Y-204209999D03*
X73899999Y-203109999D03*
D10*
X93689999Y-177334999D03*
X93689999Y-175544999D03*
D31*
X124138608Y-155713999D03*
X125694206Y-155713999D03*
D10*
X114109999Y-201534999D03*
X114109999Y-199744999D03*
D18*
X70129999Y-204889999D03*
X70129999Y-203789999D03*
D32*
X102174999Y-157485699D03*
X102174999Y-158984299D03*
D23*
X83499999Y-210229999D03*
X83499999Y-208929999D03*
D13*
X66339999Y-200199999D03*
X67439999Y-200199999D03*
D12*
X77354999Y-187239999D03*
X76484999Y-187239999D03*
D24*
X99064999Y-164356999D03*
X99064999Y-163492999D03*
D20*
X77834999Y-185569999D03*
X76044999Y-185569999D03*
D18*
X68789999Y-204189999D03*
X68789999Y-203089999D03*
D20*
X57094999Y-164359999D03*
X55304999Y-164359999D03*
D14*
X80469999Y-196063899D03*
X80469999Y-197156099D03*
D17*
X93499999Y-203574999D03*
X93499999Y-202704999D03*
D30*
X108182399Y-212569999D03*
X105337599Y-212569999D03*
D12*
X97284999Y-193699999D03*
X98154999Y-193699999D03*
X99436999Y-160924999D03*
X100306999Y-160924999D03*
D17*
X68679999Y-188904999D03*
X68679999Y-188034999D03*
D20*
X97759999Y-168074999D03*
X95969999Y-168074999D03*
D22*
X99454999Y-162304999D03*
X100318999Y-162304999D03*
D20*
X99654999Y-184689999D03*
X97864999Y-184689999D03*
D11*
X117709999Y-155907799D03*
X117709999Y-154713999D03*
D16*
X81999999Y-132924998D03*
X81999999Y-133424997D03*
X81999999Y-133924999D03*
X81999999Y-134424997D03*
X80649999Y-134424997D03*
X80649999Y-133924999D03*
X80649999Y-133424997D03*
X80649999Y-132924998D03*
D18*
X76399999Y-204229999D03*
X76399999Y-203129999D03*
D17*
X94599999Y-203534999D03*
X94599999Y-204404999D03*
X99399999Y-196394999D03*
X99399999Y-197264999D03*
D12*
X98224999Y-197499999D03*
X97354999Y-197499999D03*
D20*
X96094999Y-183519999D03*
X94304999Y-183519999D03*
D17*
X110449999Y-194344999D03*
X110449999Y-193474999D03*
D33*
X89939999Y-176652193D03*
X89939999Y-171307805D03*
D14*
X97189999Y-203736099D03*
X97189999Y-202643899D03*
D12*
X100294999Y-201509999D03*
X101164999Y-201509999D03*
D21*
X64869999Y-169374999D03*
X64869999Y-167927199D03*
D20*
X109794999Y-205839999D03*
X108004999Y-205839999D03*
D23*
X96649999Y-189509999D03*
X96649999Y-190809999D03*
D13*
X80539999Y-193629999D03*
X79439999Y-193629999D03*
D17*
X68769999Y-200514999D03*
X68769999Y-199644999D03*
D10*
X101569999Y-187434999D03*
X101569999Y-185644999D03*
D14*
X98419999Y-190656099D03*
X98419999Y-189563899D03*
D11*
X73639997Y-170023801D03*
X73639997Y-168830001D03*
D17*
X95784999Y-166409999D03*
X95784999Y-165539999D03*
D20*
X96084999Y-181399999D03*
X94294999Y-181399999D03*
D14*
X101439999Y-191646099D03*
X101439999Y-190553899D03*
D15*
X61719999Y-171374999D03*
X60019999Y-171374999D03*
D12*
X94634999Y-193599999D03*
X93764999Y-193599999D03*
D10*
X105749999Y-185154999D03*
X105749999Y-183364999D03*
D17*
X89449999Y-191374999D03*
X89449999Y-190504999D03*
D19*
X108449999Y-185072399D03*
X108449999Y-182227599D03*
D22*
X98118999Y-162334999D03*
X97254999Y-162334999D03*
D34*
X80274999Y-135924999D03*
X81724999Y-135924999D03*
D23*
X86449999Y-212799999D03*
X86449999Y-214099999D03*
D12*
X100494999Y-199489999D03*
X101364999Y-199489999D03*
D17*
X90639999Y-207504999D03*
X90639999Y-206634999D03*
D35*
X101369999Y-215489999D03*
X100069999Y-215489999D03*
D36*
X128709999Y-141624999D03*
X128709999Y-143324999D03*
D11*
X73999999Y-135521899D03*
X73999999Y-134328099D03*
D13*
X66349999Y-198939999D03*
X67449999Y-198939999D03*
D35*
X105209999Y-199339999D03*
X106509999Y-199339999D03*
D12*
X98414999Y-192509999D03*
X99284999Y-192509999D03*
D13*
X66359999Y-195199999D03*
X67459999Y-195199999D03*
D20*
X99021999Y-157884999D03*
X97231999Y-157884999D03*
D17*
X100439999Y-194664999D03*
X100439999Y-193794999D03*
D12*
X98136999Y-159534999D03*
X97266999Y-159534999D03*
D14*
X103399999Y-187776099D03*
X103399999Y-186683899D03*
D37*
X113951199Y-204459999D03*
X115068799Y-204459999D03*
D17*
X103399999Y-197904999D03*
X103399999Y-198774999D03*
D22*
X104017999Y-159839999D03*
X104881999Y-159839999D03*
D15*
X81999999Y-137924999D03*
X80299999Y-137924999D03*
D25*
X99286099Y-186389999D03*
X98193899Y-186389999D03*
D12*
X104041615Y-157274999D03*
X104911615Y-157274999D03*
D17*
X110199999Y-191794999D03*
X110199999Y-190924999D03*
D19*
X98729999Y-180152399D03*
X98729999Y-177307599D03*
D13*
X66359999Y-193929999D03*
X67459999Y-193929999D03*
X80709999Y-201929999D03*
X79609999Y-201929999D03*
D16*
X80639997Y-166830000D03*
X80639997Y-167329999D03*
X80639997Y-167830001D03*
X80639997Y-168329999D03*
X79289997Y-168329999D03*
X79289997Y-167830001D03*
X79289997Y-167329999D03*
X79289997Y-166830000D03*
D12*
X107314999Y-186789999D03*
X106444999Y-186789999D03*
D21*
X83259997Y-169203901D03*
X83259997Y-167756101D03*
D23*
X80869999Y-210209999D03*
X80869999Y-208909999D03*
D20*
X121604999Y-151713999D03*
X119814999Y-151713999D03*
D24*
X100324999Y-164366999D03*
X100324999Y-163502999D03*
D12*
X110354999Y-208409999D03*
X109484999Y-208409999D03*
D18*
X78859999Y-204239999D03*
X78859999Y-203139999D03*
X77629999Y-204249999D03*
X77629999Y-203149999D03*
D13*
X66369999Y-197679999D03*
X67469999Y-197679999D03*
D17*
X110269999Y-198574999D03*
X110269999Y-199444999D03*
D12*
X110094999Y-195489999D03*
X109224999Y-195489999D03*
D20*
X96114999Y-185669999D03*
X94324999Y-185669999D03*
D28*
X120709999Y-153528999D03*
X120709999Y-155898999D03*
D13*
X79939999Y-200749999D03*
X78839999Y-200749999D03*
D12*
X109484999Y-201779999D03*
X110354999Y-201779999D03*
D22*
X104032999Y-158624999D03*
X104896999Y-158624999D03*
D12*
X92364999Y-204399999D03*
X91494999Y-204399999D03*
D17*
X95349999Y-190684999D03*
X95349999Y-189814999D03*
D28*
X120709999Y-142439999D03*
X120709999Y-144809999D03*
D15*
X125559999Y-143624999D03*
X123859999Y-143624999D03*
D12*
X99436999Y-159534999D03*
X100306999Y-159534999D03*
D30*
X115077599Y-190159999D03*
X117922399Y-190159999D03*
D17*
X106339999Y-196474999D03*
X106339999Y-197344999D03*
X97639999Y-195704999D03*
X97639999Y-194834999D03*
D21*
X128709999Y-154437899D03*
X128709999Y-152990099D03*
D19*
X117039999Y-202142399D03*
X117039999Y-199297599D03*
D38*
X152700000Y-235280000D02*
X152630000Y-204100000D01*
X96204000Y-119620000D02*
X45860000Y-119590000D01*
X45540000Y-228990000D02*
X50225000Y-228990000D01*
X135440000Y-119660000D02*
X135410000Y-152050000D01*
X135440000Y-119660000D02*
X113624000Y-119620000D01*
X50225000Y-228990000D02*
X50225000Y-240910000D01*
X45540000Y-208690000D02*
X45400000Y-119590000D01*
X154470000Y-186520000D02*
X152470000Y-184520000D01*
X152700000Y-235280000D02*
X148580000Y-240850000D01*
X135410000Y-152050000D02*
X152350000Y-152040000D01*
X152630000Y-204100000D02*
X154470000Y-201520000D01*
X148580000Y-240850000D02*
X50225000Y-240910000D01*
X45400000Y-119590000D02*
X45860000Y-119590000D01*
X152470000Y-184520000D02*
X152450000Y-152170000D01*
X152450000Y-152040000D02*
X152450000Y-152170000D01*
X152350000Y-152040000D02*
X152450000Y-152040000D01*
X154470000Y-201520000D02*
X154470000Y-186520000D01*
D39*
X113624000Y-119620000D02*
X113624000Y-122410000D01*
X112634000Y-123400000D02*
X109994000Y-123400000D01*
X109994000Y-123400000D02*
X109994000Y-138410000D01*
X109004000Y-139400000D02*
X100824000Y-139400000D01*
X99834000Y-138410000D02*
X99834000Y-123400000D01*
X99834000Y-123400000D02*
X97194000Y-123400000D01*
X96204000Y-122410000D02*
X96204000Y-119620000D01*
X112634000Y-123400000D02*
G75*
G03*
X113624000Y-122410000I1J989999D01*
G01*
X109004000Y-139400000D02*
G75*
G03*
X109994000Y-138410000I1J989999D01*
G01*
X99834000Y-138410000D02*
G75*
G03*
X100824000Y-139400000I990000J0D01*
G01*
X96204000Y-122410000D02*
G75*
G03*
X97194000Y-123400000I990000J0D01*
G01*
D38*
X45540000Y-208690000D02*
X37640000Y-208690000D01*
X37640000Y-208690000D02*
X37140000Y-209190000D01*
X37140000Y-209190000D02*
X37140000Y-219390000D01*
X44590000Y-219890000D02*
X37640000Y-219890000D01*
X37640000Y-219890000D02*
X37140000Y-219390000D01*
X44590000Y-221790000D02*
X37640000Y-221790000D01*
X37640000Y-221790000D02*
X37140000Y-222290000D01*
X37140000Y-222290000D02*
X37140000Y-228490000D01*
X45540000Y-228990000D02*
X37640000Y-228990000D01*
X37640000Y-228990000D02*
X37140000Y-228490000D01*
X44590000Y-221790000D02*
G75*
G03*
X44590000Y-219890000I0J950000D01*
G01*
M02*
