G04 #@! TF.GenerationSoftware,KiCad,Pcbnew,(7.0.0)*
G04 #@! TF.CreationDate,2024-09-24T22:27:57+02:00*
G04 #@! TF.ProjectId,FPGA_dev_board,46504741-5f64-4657-965f-626f6172642e,rev?*
G04 #@! TF.SameCoordinates,Original*
G04 #@! TF.FileFunction,Paste,Top*
G04 #@! TF.FilePolarity,Positive*
%FSLAX46Y46*%
G04 Gerber Fmt 4.6, Leading zero omitted, Abs format (unit mm)*
G04 Created by KiCad (PCBNEW (7.0.0)) date 2024-09-24 22:27:57*
%MOMM*%
%LPD*%
G01*
G04 APERTURE LIST*
G04 Aperture macros list*
%AMRoundRect*
0 Rectangle with rounded corners*
0 $1 Rounding radius*
0 $2 $3 $4 $5 $6 $7 $8 $9 X,Y pos of 4 corners*
0 Add a 4 corners polygon primitive as box body*
4,1,4,$2,$3,$4,$5,$6,$7,$8,$9,$2,$3,0*
0 Add four circle primitives for the rounded corners*
1,1,$1+$1,$2,$3*
1,1,$1+$1,$4,$5*
1,1,$1+$1,$6,$7*
1,1,$1+$1,$8,$9*
0 Add four rect primitives between the rounded corners*
20,1,$1+$1,$2,$3,$4,$5,0*
20,1,$1+$1,$4,$5,$6,$7,0*
20,1,$1+$1,$6,$7,$8,$9,0*
20,1,$1+$1,$8,$9,$2,$3,0*%
G04 Aperture macros list end*
%ADD10C,0.010000*%
%ADD11R,0.508000X0.609600*%
%ADD12R,0.711200X0.711200*%
%ADD13R,0.600000X0.540000*%
%ADD14R,0.965200X0.889000*%
%ADD15R,0.939800X0.762000*%
%ADD16R,0.540000X0.600000*%
%ADD17R,0.609600X0.508000*%
%ADD18RoundRect,0.098750X0.296250X-0.336250X0.296250X0.336250X-0.296250X0.336250X-0.296250X-0.336250X0*%
%ADD19C,0.400000*%
%ADD20R,0.508000X0.660400*%
%ADD21R,1.040000X1.020000*%
%ADD22R,1.100000X1.000000*%
%ADD23R,1.420000X1.080000*%
%ADD24R,0.900000X0.800000*%
%ADD25RoundRect,0.232500X0.232500X0.232500X-0.232500X0.232500X-0.232500X-0.232500X0.232500X-0.232500X0*%
%ADD26RoundRect,0.062500X0.375000X0.062500X-0.375000X0.062500X-0.375000X-0.062500X0.375000X-0.062500X0*%
%ADD27RoundRect,0.062500X0.062500X0.375000X-0.062500X0.375000X-0.062500X-0.375000X0.062500X-0.375000X0*%
%ADD28R,1.168400X0.457200*%
%ADD29C,0.500000*%
%ADD30C,0.280000*%
%ADD31R,0.710000X0.280000*%
%ADD32R,0.280000X0.700000*%
%ADD33R,1.650000X2.400000*%
%ADD34R,0.711200X0.508000*%
%ADD35R,0.558800X0.711200*%
%ADD36R,0.600000X0.750000*%
%ADD37R,0.600000X0.560000*%
%ADD38R,1.020000X1.040000*%
%ADD39R,0.660400X0.508000*%
%ADD40R,0.790000X0.930000*%
%ADD41R,1.080000X1.420000*%
%ADD42R,0.700000X0.900000*%
%ADD43R,3.098800X5.207000*%
%ADD44R,0.990600X1.143000*%
%ADD45R,1.066800X2.489200*%
%ADD46R,0.660400X0.254000*%
%ADD47RoundRect,0.024000X-0.996000X-0.276000X0.996000X-0.276000X0.996000X0.276000X-0.996000X0.276000X0*%
%ADD48R,0.475000X0.500000*%
%ADD49RoundRect,0.025000X-0.257500X-0.075000X0.257500X-0.075000X0.257500X0.075000X-0.257500X0.075000X0*%
%ADD50R,0.304800X0.812800*%
%ADD51R,3.098800X2.692400*%
%ADD52R,1.200000X1.200000*%
%ADD53R,0.930000X0.790000*%
%ADD54R,1.900000X0.300000*%
%ADD55R,0.560000X0.600000*%
%ADD56R,0.508000X0.711200*%
%ADD57R,1.350000X0.400000*%
%ADD58R,1.600000X2.100000*%
%ADD59R,1.900000X1.800000*%
%ADD60R,1.900000X1.900000*%
%ADD61R,1.200000X1.400000*%
%ADD62R,0.900000X0.700000*%
%ADD63R,0.590000X0.600000*%
%ADD64R,1.250000X0.600000*%
%ADD65R,0.965200X0.939800*%
%ADD66R,0.558800X1.270000*%
%ADD67O,0.449999X1.699999*%
%ADD68R,1.300000X1.050000*%
%ADD69R,3.149600X2.667000*%
%ADD70R,1.400000X1.200000*%
%ADD71R,1.143000X2.997200*%
%ADD72R,0.807999X0.254800*%
%ADD73R,0.254800X0.807999*%
%ADD74R,5.943600X5.943600*%
%ADD75R,1.000000X1.100000*%
%ADD76RoundRect,0.033750X-0.101250X0.371250X-0.101250X-0.371250X0.101250X-0.371250X0.101250X0.371250X0*%
%ADD77RoundRect,0.033750X-0.371250X-0.101250X0.371250X-0.101250X0.371250X0.101250X-0.371250X0.101250X0*%
G04 #@! TA.AperFunction,Profile*
%ADD78C,0.100000*%
G04 #@! TD*
G04 #@! TA.AperFunction,Profile*
%ADD79C,0.010000*%
G04 #@! TD*
G04 APERTURE END LIST*
G36*
X137003000Y-162491000D02*
G01*
X137005000Y-162491000D01*
X137008000Y-162492000D01*
X137010000Y-162492000D01*
X137013000Y-162493000D01*
X137015000Y-162494000D01*
X137018000Y-162495000D01*
X137020000Y-162497000D01*
X137022000Y-162498000D01*
X137024000Y-162500000D01*
X137026000Y-162501000D01*
X137028000Y-162503000D01*
X137030000Y-162505000D01*
X137032000Y-162507000D01*
X137034000Y-162509000D01*
X137035000Y-162511000D01*
X137037000Y-162513000D01*
X137038000Y-162515000D01*
X137040000Y-162517000D01*
X137041000Y-162520000D01*
X137042000Y-162522000D01*
X137043000Y-162525000D01*
X137043000Y-162527000D01*
X137044000Y-162530000D01*
X137044000Y-162532000D01*
X137045000Y-162535000D01*
X137045000Y-162537000D01*
X137045000Y-162540000D01*
X137045000Y-162800000D01*
X137045000Y-162803000D01*
X137045000Y-162805000D01*
X137044000Y-162808000D01*
X137044000Y-162810000D01*
X137043000Y-162813000D01*
X137043000Y-162815000D01*
X137042000Y-162818000D01*
X137041000Y-162820000D01*
X137040000Y-162823000D01*
X137038000Y-162825000D01*
X137037000Y-162827000D01*
X137035000Y-162829000D01*
X137034000Y-162831000D01*
X137032000Y-162833000D01*
X137030000Y-162835000D01*
X137028000Y-162837000D01*
X137026000Y-162839000D01*
X137024000Y-162840000D01*
X137022000Y-162842000D01*
X137020000Y-162843000D01*
X137018000Y-162845000D01*
X137015000Y-162846000D01*
X137013000Y-162847000D01*
X137010000Y-162848000D01*
X137008000Y-162848000D01*
X137005000Y-162849000D01*
X137003000Y-162849000D01*
X137000000Y-162850000D01*
X136998000Y-162850000D01*
X136995000Y-162850000D01*
X136530000Y-162850000D01*
X136527000Y-162850000D01*
X136525000Y-162850000D01*
X136522000Y-162849000D01*
X136520000Y-162849000D01*
X136517000Y-162848000D01*
X136515000Y-162848000D01*
X136512000Y-162847000D01*
X136510000Y-162846000D01*
X136507000Y-162845000D01*
X136505000Y-162843000D01*
X136503000Y-162842000D01*
X136501000Y-162840000D01*
X136499000Y-162839000D01*
X136497000Y-162837000D01*
X136495000Y-162835000D01*
X136493000Y-162833000D01*
X136491000Y-162831000D01*
X136490000Y-162829000D01*
X136488000Y-162827000D01*
X136487000Y-162825000D01*
X136485000Y-162823000D01*
X136484000Y-162820000D01*
X136483000Y-162818000D01*
X136482000Y-162815000D01*
X136482000Y-162813000D01*
X136481000Y-162810000D01*
X136481000Y-162808000D01*
X136480000Y-162805000D01*
X136480000Y-162803000D01*
X136480000Y-162800000D01*
X136480000Y-162540000D01*
X136480000Y-162537000D01*
X136480000Y-162535000D01*
X136481000Y-162532000D01*
X136481000Y-162530000D01*
X136482000Y-162527000D01*
X136482000Y-162525000D01*
X136483000Y-162522000D01*
X136484000Y-162520000D01*
X136485000Y-162517000D01*
X136487000Y-162515000D01*
X136488000Y-162513000D01*
X136490000Y-162511000D01*
X136491000Y-162509000D01*
X136493000Y-162507000D01*
X136495000Y-162505000D01*
X136497000Y-162503000D01*
X136499000Y-162501000D01*
X136501000Y-162500000D01*
X136503000Y-162498000D01*
X136505000Y-162497000D01*
X136507000Y-162495000D01*
X136510000Y-162494000D01*
X136512000Y-162493000D01*
X136515000Y-162492000D01*
X136517000Y-162492000D01*
X136520000Y-162491000D01*
X136522000Y-162491000D01*
X136525000Y-162490000D01*
X136527000Y-162490000D01*
X136530000Y-162490000D01*
X136995000Y-162490000D01*
X136998000Y-162490000D01*
X137000000Y-162490000D01*
X137003000Y-162491000D01*
G37*
D10*
X137003000Y-162491000D02*
X137005000Y-162491000D01*
X137008000Y-162492000D01*
X137010000Y-162492000D01*
X137013000Y-162493000D01*
X137015000Y-162494000D01*
X137018000Y-162495000D01*
X137020000Y-162497000D01*
X137022000Y-162498000D01*
X137024000Y-162500000D01*
X137026000Y-162501000D01*
X137028000Y-162503000D01*
X137030000Y-162505000D01*
X137032000Y-162507000D01*
X137034000Y-162509000D01*
X137035000Y-162511000D01*
X137037000Y-162513000D01*
X137038000Y-162515000D01*
X137040000Y-162517000D01*
X137041000Y-162520000D01*
X137042000Y-162522000D01*
X137043000Y-162525000D01*
X137043000Y-162527000D01*
X137044000Y-162530000D01*
X137044000Y-162532000D01*
X137045000Y-162535000D01*
X137045000Y-162537000D01*
X137045000Y-162540000D01*
X137045000Y-162800000D01*
X137045000Y-162803000D01*
X137045000Y-162805000D01*
X137044000Y-162808000D01*
X137044000Y-162810000D01*
X137043000Y-162813000D01*
X137043000Y-162815000D01*
X137042000Y-162818000D01*
X137041000Y-162820000D01*
X137040000Y-162823000D01*
X137038000Y-162825000D01*
X137037000Y-162827000D01*
X137035000Y-162829000D01*
X137034000Y-162831000D01*
X137032000Y-162833000D01*
X137030000Y-162835000D01*
X137028000Y-162837000D01*
X137026000Y-162839000D01*
X137024000Y-162840000D01*
X137022000Y-162842000D01*
X137020000Y-162843000D01*
X137018000Y-162845000D01*
X137015000Y-162846000D01*
X137013000Y-162847000D01*
X137010000Y-162848000D01*
X137008000Y-162848000D01*
X137005000Y-162849000D01*
X137003000Y-162849000D01*
X137000000Y-162850000D01*
X136998000Y-162850000D01*
X136995000Y-162850000D01*
X136530000Y-162850000D01*
X136527000Y-162850000D01*
X136525000Y-162850000D01*
X136522000Y-162849000D01*
X136520000Y-162849000D01*
X136517000Y-162848000D01*
X136515000Y-162848000D01*
X136512000Y-162847000D01*
X136510000Y-162846000D01*
X136507000Y-162845000D01*
X136505000Y-162843000D01*
X136503000Y-162842000D01*
X136501000Y-162840000D01*
X136499000Y-162839000D01*
X136497000Y-162837000D01*
X136495000Y-162835000D01*
X136493000Y-162833000D01*
X136491000Y-162831000D01*
X136490000Y-162829000D01*
X136488000Y-162827000D01*
X136487000Y-162825000D01*
X136485000Y-162823000D01*
X136484000Y-162820000D01*
X136483000Y-162818000D01*
X136482000Y-162815000D01*
X136482000Y-162813000D01*
X136481000Y-162810000D01*
X136481000Y-162808000D01*
X136480000Y-162805000D01*
X136480000Y-162803000D01*
X136480000Y-162800000D01*
X136480000Y-162540000D01*
X136480000Y-162537000D01*
X136480000Y-162535000D01*
X136481000Y-162532000D01*
X136481000Y-162530000D01*
X136482000Y-162527000D01*
X136482000Y-162525000D01*
X136483000Y-162522000D01*
X136484000Y-162520000D01*
X136485000Y-162517000D01*
X136487000Y-162515000D01*
X136488000Y-162513000D01*
X136490000Y-162511000D01*
X136491000Y-162509000D01*
X136493000Y-162507000D01*
X136495000Y-162505000D01*
X136497000Y-162503000D01*
X136499000Y-162501000D01*
X136501000Y-162500000D01*
X136503000Y-162498000D01*
X136505000Y-162497000D01*
X136507000Y-162495000D01*
X136510000Y-162494000D01*
X136512000Y-162493000D01*
X136515000Y-162492000D01*
X136517000Y-162492000D01*
X136520000Y-162491000D01*
X136522000Y-162491000D01*
X136525000Y-162490000D01*
X136527000Y-162490000D01*
X136530000Y-162490000D01*
X136995000Y-162490000D01*
X136998000Y-162490000D01*
X137000000Y-162490000D01*
X137003000Y-162491000D01*
G36*
X137838000Y-162491000D02*
G01*
X137840000Y-162491000D01*
X137843000Y-162492000D01*
X137845000Y-162492000D01*
X137848000Y-162493000D01*
X137850000Y-162494000D01*
X137853000Y-162495000D01*
X137855000Y-162497000D01*
X137857000Y-162498000D01*
X137859000Y-162500000D01*
X137861000Y-162501000D01*
X137863000Y-162503000D01*
X137865000Y-162505000D01*
X137867000Y-162507000D01*
X137869000Y-162509000D01*
X137870000Y-162511000D01*
X137872000Y-162513000D01*
X137873000Y-162515000D01*
X137875000Y-162517000D01*
X137876000Y-162520000D01*
X137877000Y-162522000D01*
X137878000Y-162525000D01*
X137878000Y-162527000D01*
X137879000Y-162530000D01*
X137879000Y-162532000D01*
X137880000Y-162535000D01*
X137880000Y-162537000D01*
X137880000Y-162540000D01*
X137880000Y-162800000D01*
X137880000Y-162803000D01*
X137880000Y-162805000D01*
X137879000Y-162808000D01*
X137879000Y-162810000D01*
X137878000Y-162813000D01*
X137878000Y-162815000D01*
X137877000Y-162818000D01*
X137876000Y-162820000D01*
X137875000Y-162823000D01*
X137873000Y-162825000D01*
X137872000Y-162827000D01*
X137870000Y-162829000D01*
X137869000Y-162831000D01*
X137867000Y-162833000D01*
X137865000Y-162835000D01*
X137863000Y-162837000D01*
X137861000Y-162839000D01*
X137859000Y-162840000D01*
X137857000Y-162842000D01*
X137855000Y-162843000D01*
X137853000Y-162845000D01*
X137850000Y-162846000D01*
X137848000Y-162847000D01*
X137845000Y-162848000D01*
X137843000Y-162848000D01*
X137840000Y-162849000D01*
X137838000Y-162849000D01*
X137835000Y-162850000D01*
X137833000Y-162850000D01*
X137830000Y-162850000D01*
X137365000Y-162850000D01*
X137362000Y-162850000D01*
X137360000Y-162850000D01*
X137357000Y-162849000D01*
X137355000Y-162849000D01*
X137352000Y-162848000D01*
X137350000Y-162848000D01*
X137347000Y-162847000D01*
X137345000Y-162846000D01*
X137342000Y-162845000D01*
X137340000Y-162843000D01*
X137338000Y-162842000D01*
X137336000Y-162840000D01*
X137334000Y-162839000D01*
X137332000Y-162837000D01*
X137330000Y-162835000D01*
X137328000Y-162833000D01*
X137326000Y-162831000D01*
X137325000Y-162829000D01*
X137323000Y-162827000D01*
X137322000Y-162825000D01*
X137320000Y-162823000D01*
X137319000Y-162820000D01*
X137318000Y-162818000D01*
X137317000Y-162815000D01*
X137317000Y-162813000D01*
X137316000Y-162810000D01*
X137316000Y-162808000D01*
X137315000Y-162805000D01*
X137315000Y-162803000D01*
X137315000Y-162800000D01*
X137315000Y-162540000D01*
X137315000Y-162537000D01*
X137315000Y-162535000D01*
X137316000Y-162532000D01*
X137316000Y-162530000D01*
X137317000Y-162527000D01*
X137317000Y-162525000D01*
X137318000Y-162522000D01*
X137319000Y-162520000D01*
X137320000Y-162517000D01*
X137322000Y-162515000D01*
X137323000Y-162513000D01*
X137325000Y-162511000D01*
X137326000Y-162509000D01*
X137328000Y-162507000D01*
X137330000Y-162505000D01*
X137332000Y-162503000D01*
X137334000Y-162501000D01*
X137336000Y-162500000D01*
X137338000Y-162498000D01*
X137340000Y-162497000D01*
X137342000Y-162495000D01*
X137345000Y-162494000D01*
X137347000Y-162493000D01*
X137350000Y-162492000D01*
X137352000Y-162492000D01*
X137355000Y-162491000D01*
X137357000Y-162491000D01*
X137360000Y-162490000D01*
X137362000Y-162490000D01*
X137365000Y-162490000D01*
X137830000Y-162490000D01*
X137833000Y-162490000D01*
X137835000Y-162490000D01*
X137838000Y-162491000D01*
G37*
X137838000Y-162491000D02*
X137840000Y-162491000D01*
X137843000Y-162492000D01*
X137845000Y-162492000D01*
X137848000Y-162493000D01*
X137850000Y-162494000D01*
X137853000Y-162495000D01*
X137855000Y-162497000D01*
X137857000Y-162498000D01*
X137859000Y-162500000D01*
X137861000Y-162501000D01*
X137863000Y-162503000D01*
X137865000Y-162505000D01*
X137867000Y-162507000D01*
X137869000Y-162509000D01*
X137870000Y-162511000D01*
X137872000Y-162513000D01*
X137873000Y-162515000D01*
X137875000Y-162517000D01*
X137876000Y-162520000D01*
X137877000Y-162522000D01*
X137878000Y-162525000D01*
X137878000Y-162527000D01*
X137879000Y-162530000D01*
X137879000Y-162532000D01*
X137880000Y-162535000D01*
X137880000Y-162537000D01*
X137880000Y-162540000D01*
X137880000Y-162800000D01*
X137880000Y-162803000D01*
X137880000Y-162805000D01*
X137879000Y-162808000D01*
X137879000Y-162810000D01*
X137878000Y-162813000D01*
X137878000Y-162815000D01*
X137877000Y-162818000D01*
X137876000Y-162820000D01*
X137875000Y-162823000D01*
X137873000Y-162825000D01*
X137872000Y-162827000D01*
X137870000Y-162829000D01*
X137869000Y-162831000D01*
X137867000Y-162833000D01*
X137865000Y-162835000D01*
X137863000Y-162837000D01*
X137861000Y-162839000D01*
X137859000Y-162840000D01*
X137857000Y-162842000D01*
X137855000Y-162843000D01*
X137853000Y-162845000D01*
X137850000Y-162846000D01*
X137848000Y-162847000D01*
X137845000Y-162848000D01*
X137843000Y-162848000D01*
X137840000Y-162849000D01*
X137838000Y-162849000D01*
X137835000Y-162850000D01*
X137833000Y-162850000D01*
X137830000Y-162850000D01*
X137365000Y-162850000D01*
X137362000Y-162850000D01*
X137360000Y-162850000D01*
X137357000Y-162849000D01*
X137355000Y-162849000D01*
X137352000Y-162848000D01*
X137350000Y-162848000D01*
X137347000Y-162847000D01*
X137345000Y-162846000D01*
X137342000Y-162845000D01*
X137340000Y-162843000D01*
X137338000Y-162842000D01*
X137336000Y-162840000D01*
X137334000Y-162839000D01*
X137332000Y-162837000D01*
X137330000Y-162835000D01*
X137328000Y-162833000D01*
X137326000Y-162831000D01*
X137325000Y-162829000D01*
X137323000Y-162827000D01*
X137322000Y-162825000D01*
X137320000Y-162823000D01*
X137319000Y-162820000D01*
X137318000Y-162818000D01*
X137317000Y-162815000D01*
X137317000Y-162813000D01*
X137316000Y-162810000D01*
X137316000Y-162808000D01*
X137315000Y-162805000D01*
X137315000Y-162803000D01*
X137315000Y-162800000D01*
X137315000Y-162540000D01*
X137315000Y-162537000D01*
X137315000Y-162535000D01*
X137316000Y-162532000D01*
X137316000Y-162530000D01*
X137317000Y-162527000D01*
X137317000Y-162525000D01*
X137318000Y-162522000D01*
X137319000Y-162520000D01*
X137320000Y-162517000D01*
X137322000Y-162515000D01*
X137323000Y-162513000D01*
X137325000Y-162511000D01*
X137326000Y-162509000D01*
X137328000Y-162507000D01*
X137330000Y-162505000D01*
X137332000Y-162503000D01*
X137334000Y-162501000D01*
X137336000Y-162500000D01*
X137338000Y-162498000D01*
X137340000Y-162497000D01*
X137342000Y-162495000D01*
X137345000Y-162494000D01*
X137347000Y-162493000D01*
X137350000Y-162492000D01*
X137352000Y-162492000D01*
X137355000Y-162491000D01*
X137357000Y-162491000D01*
X137360000Y-162490000D01*
X137362000Y-162490000D01*
X137365000Y-162490000D01*
X137830000Y-162490000D01*
X137833000Y-162490000D01*
X137835000Y-162490000D01*
X137838000Y-162491000D01*
G36*
X67359400Y-147800000D02*
G01*
X66010000Y-147800000D01*
X66010000Y-146653800D01*
X67359400Y-146653800D01*
X67359400Y-147800000D01*
G37*
G36*
X65810000Y-147800000D02*
G01*
X64460600Y-147800000D01*
X64460600Y-146653800D01*
X65810000Y-146653800D01*
X65810000Y-147800000D01*
G37*
G36*
X67359400Y-149146200D02*
G01*
X66010000Y-149146200D01*
X66010000Y-148000000D01*
X67359400Y-148000000D01*
X67359400Y-149146200D01*
G37*
G36*
X65810000Y-149146200D02*
G01*
X64460600Y-149146200D01*
X64460600Y-148000000D01*
X65810000Y-148000000D01*
X65810000Y-149146200D01*
G37*
G36*
X138423000Y-166091000D02*
G01*
X138425000Y-166091000D01*
X138428000Y-166092000D01*
X138430000Y-166092000D01*
X138433000Y-166093000D01*
X138435000Y-166094000D01*
X138438000Y-166095000D01*
X138440000Y-166097000D01*
X138442000Y-166098000D01*
X138444000Y-166100000D01*
X138446000Y-166101000D01*
X138448000Y-166103000D01*
X138450000Y-166105000D01*
X138452000Y-166107000D01*
X138454000Y-166109000D01*
X138455000Y-166111000D01*
X138457000Y-166113000D01*
X138458000Y-166115000D01*
X138460000Y-166117000D01*
X138461000Y-166120000D01*
X138462000Y-166122000D01*
X138463000Y-166125000D01*
X138463000Y-166127000D01*
X138464000Y-166130000D01*
X138464000Y-166132000D01*
X138465000Y-166135000D01*
X138465000Y-166137000D01*
X138465000Y-166140000D01*
X138465000Y-166400000D01*
X138465000Y-166403000D01*
X138465000Y-166405000D01*
X138464000Y-166408000D01*
X138464000Y-166410000D01*
X138463000Y-166413000D01*
X138463000Y-166415000D01*
X138462000Y-166418000D01*
X138461000Y-166420000D01*
X138460000Y-166423000D01*
X138458000Y-166425000D01*
X138457000Y-166427000D01*
X138455000Y-166429000D01*
X138454000Y-166431000D01*
X138452000Y-166433000D01*
X138450000Y-166435000D01*
X138448000Y-166437000D01*
X138446000Y-166439000D01*
X138444000Y-166440000D01*
X138442000Y-166442000D01*
X138440000Y-166443000D01*
X138438000Y-166445000D01*
X138435000Y-166446000D01*
X138433000Y-166447000D01*
X138430000Y-166448000D01*
X138428000Y-166448000D01*
X138425000Y-166449000D01*
X138423000Y-166449000D01*
X138420000Y-166450000D01*
X138418000Y-166450000D01*
X138415000Y-166450000D01*
X137950000Y-166450000D01*
X137947000Y-166450000D01*
X137945000Y-166450000D01*
X137942000Y-166449000D01*
X137940000Y-166449000D01*
X137937000Y-166448000D01*
X137935000Y-166448000D01*
X137932000Y-166447000D01*
X137930000Y-166446000D01*
X137927000Y-166445000D01*
X137925000Y-166443000D01*
X137923000Y-166442000D01*
X137921000Y-166440000D01*
X137919000Y-166439000D01*
X137917000Y-166437000D01*
X137915000Y-166435000D01*
X137913000Y-166433000D01*
X137911000Y-166431000D01*
X137910000Y-166429000D01*
X137908000Y-166427000D01*
X137907000Y-166425000D01*
X137905000Y-166423000D01*
X137904000Y-166420000D01*
X137903000Y-166418000D01*
X137902000Y-166415000D01*
X137902000Y-166413000D01*
X137901000Y-166410000D01*
X137901000Y-166408000D01*
X137900000Y-166405000D01*
X137900000Y-166403000D01*
X137900000Y-166400000D01*
X137900000Y-166140000D01*
X137900000Y-166137000D01*
X137900000Y-166135000D01*
X137901000Y-166132000D01*
X137901000Y-166130000D01*
X137902000Y-166127000D01*
X137902000Y-166125000D01*
X137903000Y-166122000D01*
X137904000Y-166120000D01*
X137905000Y-166117000D01*
X137907000Y-166115000D01*
X137908000Y-166113000D01*
X137910000Y-166111000D01*
X137911000Y-166109000D01*
X137913000Y-166107000D01*
X137915000Y-166105000D01*
X137917000Y-166103000D01*
X137919000Y-166101000D01*
X137921000Y-166100000D01*
X137923000Y-166098000D01*
X137925000Y-166097000D01*
X137927000Y-166095000D01*
X137930000Y-166094000D01*
X137932000Y-166093000D01*
X137935000Y-166092000D01*
X137937000Y-166092000D01*
X137940000Y-166091000D01*
X137942000Y-166091000D01*
X137945000Y-166090000D01*
X137947000Y-166090000D01*
X137950000Y-166090000D01*
X138415000Y-166090000D01*
X138418000Y-166090000D01*
X138420000Y-166090000D01*
X138423000Y-166091000D01*
G37*
X138423000Y-166091000D02*
X138425000Y-166091000D01*
X138428000Y-166092000D01*
X138430000Y-166092000D01*
X138433000Y-166093000D01*
X138435000Y-166094000D01*
X138438000Y-166095000D01*
X138440000Y-166097000D01*
X138442000Y-166098000D01*
X138444000Y-166100000D01*
X138446000Y-166101000D01*
X138448000Y-166103000D01*
X138450000Y-166105000D01*
X138452000Y-166107000D01*
X138454000Y-166109000D01*
X138455000Y-166111000D01*
X138457000Y-166113000D01*
X138458000Y-166115000D01*
X138460000Y-166117000D01*
X138461000Y-166120000D01*
X138462000Y-166122000D01*
X138463000Y-166125000D01*
X138463000Y-166127000D01*
X138464000Y-166130000D01*
X138464000Y-166132000D01*
X138465000Y-166135000D01*
X138465000Y-166137000D01*
X138465000Y-166140000D01*
X138465000Y-166400000D01*
X138465000Y-166403000D01*
X138465000Y-166405000D01*
X138464000Y-166408000D01*
X138464000Y-166410000D01*
X138463000Y-166413000D01*
X138463000Y-166415000D01*
X138462000Y-166418000D01*
X138461000Y-166420000D01*
X138460000Y-166423000D01*
X138458000Y-166425000D01*
X138457000Y-166427000D01*
X138455000Y-166429000D01*
X138454000Y-166431000D01*
X138452000Y-166433000D01*
X138450000Y-166435000D01*
X138448000Y-166437000D01*
X138446000Y-166439000D01*
X138444000Y-166440000D01*
X138442000Y-166442000D01*
X138440000Y-166443000D01*
X138438000Y-166445000D01*
X138435000Y-166446000D01*
X138433000Y-166447000D01*
X138430000Y-166448000D01*
X138428000Y-166448000D01*
X138425000Y-166449000D01*
X138423000Y-166449000D01*
X138420000Y-166450000D01*
X138418000Y-166450000D01*
X138415000Y-166450000D01*
X137950000Y-166450000D01*
X137947000Y-166450000D01*
X137945000Y-166450000D01*
X137942000Y-166449000D01*
X137940000Y-166449000D01*
X137937000Y-166448000D01*
X137935000Y-166448000D01*
X137932000Y-166447000D01*
X137930000Y-166446000D01*
X137927000Y-166445000D01*
X137925000Y-166443000D01*
X137923000Y-166442000D01*
X137921000Y-166440000D01*
X137919000Y-166439000D01*
X137917000Y-166437000D01*
X137915000Y-166435000D01*
X137913000Y-166433000D01*
X137911000Y-166431000D01*
X137910000Y-166429000D01*
X137908000Y-166427000D01*
X137907000Y-166425000D01*
X137905000Y-166423000D01*
X137904000Y-166420000D01*
X137903000Y-166418000D01*
X137902000Y-166415000D01*
X137902000Y-166413000D01*
X137901000Y-166410000D01*
X137901000Y-166408000D01*
X137900000Y-166405000D01*
X137900000Y-166403000D01*
X137900000Y-166400000D01*
X137900000Y-166140000D01*
X137900000Y-166137000D01*
X137900000Y-166135000D01*
X137901000Y-166132000D01*
X137901000Y-166130000D01*
X137902000Y-166127000D01*
X137902000Y-166125000D01*
X137903000Y-166122000D01*
X137904000Y-166120000D01*
X137905000Y-166117000D01*
X137907000Y-166115000D01*
X137908000Y-166113000D01*
X137910000Y-166111000D01*
X137911000Y-166109000D01*
X137913000Y-166107000D01*
X137915000Y-166105000D01*
X137917000Y-166103000D01*
X137919000Y-166101000D01*
X137921000Y-166100000D01*
X137923000Y-166098000D01*
X137925000Y-166097000D01*
X137927000Y-166095000D01*
X137930000Y-166094000D01*
X137932000Y-166093000D01*
X137935000Y-166092000D01*
X137937000Y-166092000D01*
X137940000Y-166091000D01*
X137942000Y-166091000D01*
X137945000Y-166090000D01*
X137947000Y-166090000D01*
X137950000Y-166090000D01*
X138415000Y-166090000D01*
X138418000Y-166090000D01*
X138420000Y-166090000D01*
X138423000Y-166091000D01*
G36*
X139258000Y-166091000D02*
G01*
X139260000Y-166091000D01*
X139263000Y-166092000D01*
X139265000Y-166092000D01*
X139268000Y-166093000D01*
X139270000Y-166094000D01*
X139273000Y-166095000D01*
X139275000Y-166097000D01*
X139277000Y-166098000D01*
X139279000Y-166100000D01*
X139281000Y-166101000D01*
X139283000Y-166103000D01*
X139285000Y-166105000D01*
X139287000Y-166107000D01*
X139289000Y-166109000D01*
X139290000Y-166111000D01*
X139292000Y-166113000D01*
X139293000Y-166115000D01*
X139295000Y-166117000D01*
X139296000Y-166120000D01*
X139297000Y-166122000D01*
X139298000Y-166125000D01*
X139298000Y-166127000D01*
X139299000Y-166130000D01*
X139299000Y-166132000D01*
X139300000Y-166135000D01*
X139300000Y-166137000D01*
X139300000Y-166140000D01*
X139300000Y-166400000D01*
X139300000Y-166403000D01*
X139300000Y-166405000D01*
X139299000Y-166408000D01*
X139299000Y-166410000D01*
X139298000Y-166413000D01*
X139298000Y-166415000D01*
X139297000Y-166418000D01*
X139296000Y-166420000D01*
X139295000Y-166423000D01*
X139293000Y-166425000D01*
X139292000Y-166427000D01*
X139290000Y-166429000D01*
X139289000Y-166431000D01*
X139287000Y-166433000D01*
X139285000Y-166435000D01*
X139283000Y-166437000D01*
X139281000Y-166439000D01*
X139279000Y-166440000D01*
X139277000Y-166442000D01*
X139275000Y-166443000D01*
X139273000Y-166445000D01*
X139270000Y-166446000D01*
X139268000Y-166447000D01*
X139265000Y-166448000D01*
X139263000Y-166448000D01*
X139260000Y-166449000D01*
X139258000Y-166449000D01*
X139255000Y-166450000D01*
X139253000Y-166450000D01*
X139250000Y-166450000D01*
X138785000Y-166450000D01*
X138782000Y-166450000D01*
X138780000Y-166450000D01*
X138777000Y-166449000D01*
X138775000Y-166449000D01*
X138772000Y-166448000D01*
X138770000Y-166448000D01*
X138767000Y-166447000D01*
X138765000Y-166446000D01*
X138762000Y-166445000D01*
X138760000Y-166443000D01*
X138758000Y-166442000D01*
X138756000Y-166440000D01*
X138754000Y-166439000D01*
X138752000Y-166437000D01*
X138750000Y-166435000D01*
X138748000Y-166433000D01*
X138746000Y-166431000D01*
X138745000Y-166429000D01*
X138743000Y-166427000D01*
X138742000Y-166425000D01*
X138740000Y-166423000D01*
X138739000Y-166420000D01*
X138738000Y-166418000D01*
X138737000Y-166415000D01*
X138737000Y-166413000D01*
X138736000Y-166410000D01*
X138736000Y-166408000D01*
X138735000Y-166405000D01*
X138735000Y-166403000D01*
X138735000Y-166400000D01*
X138735000Y-166140000D01*
X138735000Y-166137000D01*
X138735000Y-166135000D01*
X138736000Y-166132000D01*
X138736000Y-166130000D01*
X138737000Y-166127000D01*
X138737000Y-166125000D01*
X138738000Y-166122000D01*
X138739000Y-166120000D01*
X138740000Y-166117000D01*
X138742000Y-166115000D01*
X138743000Y-166113000D01*
X138745000Y-166111000D01*
X138746000Y-166109000D01*
X138748000Y-166107000D01*
X138750000Y-166105000D01*
X138752000Y-166103000D01*
X138754000Y-166101000D01*
X138756000Y-166100000D01*
X138758000Y-166098000D01*
X138760000Y-166097000D01*
X138762000Y-166095000D01*
X138765000Y-166094000D01*
X138767000Y-166093000D01*
X138770000Y-166092000D01*
X138772000Y-166092000D01*
X138775000Y-166091000D01*
X138777000Y-166091000D01*
X138780000Y-166090000D01*
X138782000Y-166090000D01*
X138785000Y-166090000D01*
X139250000Y-166090000D01*
X139253000Y-166090000D01*
X139255000Y-166090000D01*
X139258000Y-166091000D01*
G37*
X139258000Y-166091000D02*
X139260000Y-166091000D01*
X139263000Y-166092000D01*
X139265000Y-166092000D01*
X139268000Y-166093000D01*
X139270000Y-166094000D01*
X139273000Y-166095000D01*
X139275000Y-166097000D01*
X139277000Y-166098000D01*
X139279000Y-166100000D01*
X139281000Y-166101000D01*
X139283000Y-166103000D01*
X139285000Y-166105000D01*
X139287000Y-166107000D01*
X139289000Y-166109000D01*
X139290000Y-166111000D01*
X139292000Y-166113000D01*
X139293000Y-166115000D01*
X139295000Y-166117000D01*
X139296000Y-166120000D01*
X139297000Y-166122000D01*
X139298000Y-166125000D01*
X139298000Y-166127000D01*
X139299000Y-166130000D01*
X139299000Y-166132000D01*
X139300000Y-166135000D01*
X139300000Y-166137000D01*
X139300000Y-166140000D01*
X139300000Y-166400000D01*
X139300000Y-166403000D01*
X139300000Y-166405000D01*
X139299000Y-166408000D01*
X139299000Y-166410000D01*
X139298000Y-166413000D01*
X139298000Y-166415000D01*
X139297000Y-166418000D01*
X139296000Y-166420000D01*
X139295000Y-166423000D01*
X139293000Y-166425000D01*
X139292000Y-166427000D01*
X139290000Y-166429000D01*
X139289000Y-166431000D01*
X139287000Y-166433000D01*
X139285000Y-166435000D01*
X139283000Y-166437000D01*
X139281000Y-166439000D01*
X139279000Y-166440000D01*
X139277000Y-166442000D01*
X139275000Y-166443000D01*
X139273000Y-166445000D01*
X139270000Y-166446000D01*
X139268000Y-166447000D01*
X139265000Y-166448000D01*
X139263000Y-166448000D01*
X139260000Y-166449000D01*
X139258000Y-166449000D01*
X139255000Y-166450000D01*
X139253000Y-166450000D01*
X139250000Y-166450000D01*
X138785000Y-166450000D01*
X138782000Y-166450000D01*
X138780000Y-166450000D01*
X138777000Y-166449000D01*
X138775000Y-166449000D01*
X138772000Y-166448000D01*
X138770000Y-166448000D01*
X138767000Y-166447000D01*
X138765000Y-166446000D01*
X138762000Y-166445000D01*
X138760000Y-166443000D01*
X138758000Y-166442000D01*
X138756000Y-166440000D01*
X138754000Y-166439000D01*
X138752000Y-166437000D01*
X138750000Y-166435000D01*
X138748000Y-166433000D01*
X138746000Y-166431000D01*
X138745000Y-166429000D01*
X138743000Y-166427000D01*
X138742000Y-166425000D01*
X138740000Y-166423000D01*
X138739000Y-166420000D01*
X138738000Y-166418000D01*
X138737000Y-166415000D01*
X138737000Y-166413000D01*
X138736000Y-166410000D01*
X138736000Y-166408000D01*
X138735000Y-166405000D01*
X138735000Y-166403000D01*
X138735000Y-166400000D01*
X138735000Y-166140000D01*
X138735000Y-166137000D01*
X138735000Y-166135000D01*
X138736000Y-166132000D01*
X138736000Y-166130000D01*
X138737000Y-166127000D01*
X138737000Y-166125000D01*
X138738000Y-166122000D01*
X138739000Y-166120000D01*
X138740000Y-166117000D01*
X138742000Y-166115000D01*
X138743000Y-166113000D01*
X138745000Y-166111000D01*
X138746000Y-166109000D01*
X138748000Y-166107000D01*
X138750000Y-166105000D01*
X138752000Y-166103000D01*
X138754000Y-166101000D01*
X138756000Y-166100000D01*
X138758000Y-166098000D01*
X138760000Y-166097000D01*
X138762000Y-166095000D01*
X138765000Y-166094000D01*
X138767000Y-166093000D01*
X138770000Y-166092000D01*
X138772000Y-166092000D01*
X138775000Y-166091000D01*
X138777000Y-166091000D01*
X138780000Y-166090000D01*
X138782000Y-166090000D01*
X138785000Y-166090000D01*
X139250000Y-166090000D01*
X139253000Y-166090000D01*
X139255000Y-166090000D01*
X139258000Y-166091000D01*
G36*
X128931800Y-228491800D02*
G01*
X127645900Y-228491800D01*
X127645900Y-227205900D01*
X128931800Y-227205900D01*
X128931800Y-228491800D01*
G37*
G36*
X128931800Y-227005900D02*
G01*
X127645900Y-227005900D01*
X127645900Y-225720000D01*
X128931800Y-225720000D01*
X128931800Y-227005900D01*
G37*
G36*
X128931800Y-225520000D02*
G01*
X127645900Y-225520000D01*
X127645900Y-224234100D01*
X128931800Y-224234100D01*
X128931800Y-225520000D01*
G37*
G36*
X128931800Y-224034100D02*
G01*
X127645900Y-224034100D01*
X127645900Y-222748200D01*
X128931800Y-222748200D01*
X128931800Y-224034100D01*
G37*
G36*
X127445900Y-228491800D02*
G01*
X126160000Y-228491800D01*
X126160000Y-227205900D01*
X127445900Y-227205900D01*
X127445900Y-228491800D01*
G37*
G36*
X127445900Y-227005900D02*
G01*
X126160000Y-227005900D01*
X126160000Y-225720000D01*
X127445900Y-225720000D01*
X127445900Y-227005900D01*
G37*
G36*
X127445900Y-225520000D02*
G01*
X126160000Y-225520000D01*
X126160000Y-224234100D01*
X127445900Y-224234100D01*
X127445900Y-225520000D01*
G37*
G36*
X127445900Y-224034100D02*
G01*
X126160000Y-224034100D01*
X126160000Y-222748200D01*
X127445900Y-222748200D01*
X127445900Y-224034100D01*
G37*
G36*
X125960000Y-228491800D02*
G01*
X124674100Y-228491800D01*
X124674100Y-227205900D01*
X125960000Y-227205900D01*
X125960000Y-228491800D01*
G37*
G36*
X125960000Y-227005900D02*
G01*
X124674100Y-227005900D01*
X124674100Y-225720000D01*
X125960000Y-225720000D01*
X125960000Y-227005900D01*
G37*
G36*
X125960000Y-225520000D02*
G01*
X124674100Y-225520000D01*
X124674100Y-224234100D01*
X125960000Y-224234100D01*
X125960000Y-225520000D01*
G37*
G36*
X125960000Y-224034100D02*
G01*
X124674100Y-224034100D01*
X124674100Y-222748200D01*
X125960000Y-222748200D01*
X125960000Y-224034100D01*
G37*
G36*
X124474100Y-228491800D02*
G01*
X123188200Y-228491800D01*
X123188200Y-227205900D01*
X124474100Y-227205900D01*
X124474100Y-228491800D01*
G37*
G36*
X124474100Y-227005900D02*
G01*
X123188200Y-227005900D01*
X123188200Y-225720000D01*
X124474100Y-225720000D01*
X124474100Y-227005900D01*
G37*
G36*
X124474100Y-225520000D02*
G01*
X123188200Y-225520000D01*
X123188200Y-224234100D01*
X124474100Y-224234100D01*
X124474100Y-225520000D01*
G37*
G36*
X124474100Y-224034100D02*
G01*
X123188200Y-224034100D01*
X123188200Y-222748200D01*
X124474100Y-222748200D01*
X124474100Y-224034100D01*
G37*
G36*
X106295000Y-167385000D02*
G01*
X105295000Y-167385000D01*
X105295000Y-166385000D01*
X106295000Y-166385000D01*
X106295000Y-167385000D01*
G37*
X106295000Y-167385000D02*
X105295000Y-167385000D01*
X105295000Y-166385000D01*
X106295000Y-166385000D01*
X106295000Y-167385000D01*
G36*
X105045000Y-167385000D02*
G01*
X104045000Y-167385000D01*
X104045000Y-166385000D01*
X105045000Y-166385000D01*
X105045000Y-167385000D01*
G37*
X105045000Y-167385000D02*
X104045000Y-167385000D01*
X104045000Y-166385000D01*
X105045000Y-166385000D01*
X105045000Y-167385000D01*
G36*
X106295000Y-168635000D02*
G01*
X105295000Y-168635000D01*
X105295000Y-167635000D01*
X106295000Y-167635000D01*
X106295000Y-168635000D01*
G37*
X106295000Y-168635000D02*
X105295000Y-168635000D01*
X105295000Y-167635000D01*
X106295000Y-167635000D01*
X106295000Y-168635000D01*
G36*
X105045000Y-168635000D02*
G01*
X104045000Y-168635000D01*
X104045000Y-167635000D01*
X105045000Y-167635000D01*
X105045000Y-168635000D01*
G37*
X105045000Y-168635000D02*
X104045000Y-168635000D01*
X104045000Y-167635000D01*
X105045000Y-167635000D01*
X105045000Y-168635000D01*
D11*
X135479999Y-170186099D03*
X135479999Y-169093899D03*
D12*
X59250399Y-195629999D03*
X59250399Y-194436199D03*
X122869999Y-165663099D03*
X122869999Y-166856899D03*
D13*
X126359999Y-207938999D03*
X126359999Y-207074999D03*
X132359999Y-207074999D03*
X132359999Y-207938999D03*
D14*
X67198799Y-142709499D03*
X68646599Y-142709499D03*
D15*
X58459999Y-149728199D03*
X58459999Y-148051799D03*
D16*
X113794999Y-159134999D03*
X114658999Y-159134999D03*
D17*
X128056099Y-201199999D03*
X126963899Y-201199999D03*
D18*
X109841500Y-214710000D03*
X109841500Y-216470000D03*
D11*
X101696199Y-148207899D03*
X101696199Y-149300099D03*
D19*
X70165000Y-188030000D03*
X70965000Y-188030000D03*
X71765000Y-188030000D03*
X74965000Y-188030000D03*
X75765000Y-188030000D03*
X76565000Y-188030000D03*
X70165000Y-188830000D03*
X70965000Y-188830000D03*
X71765000Y-188830000D03*
X74965000Y-188830000D03*
X75765000Y-188830000D03*
X76565000Y-188830000D03*
X70165000Y-189630000D03*
X70965000Y-189630000D03*
X71765000Y-189630000D03*
X74965000Y-189630000D03*
X75765000Y-189630000D03*
X76565000Y-189630000D03*
X70165000Y-190430000D03*
X70965000Y-190430000D03*
X71765000Y-190430000D03*
X74965000Y-190430000D03*
X75765000Y-190430000D03*
X76565000Y-190430000D03*
X70165000Y-191230000D03*
X70965000Y-191230000D03*
X71765000Y-191230000D03*
X74965000Y-191230000D03*
X75765000Y-191230000D03*
X76565000Y-191230000D03*
X70165000Y-192030000D03*
X70965000Y-192030000D03*
X71765000Y-192030000D03*
X74965000Y-192030000D03*
X75765000Y-192030000D03*
X76565000Y-192030000D03*
X70165000Y-192830000D03*
X70965000Y-192830000D03*
X71765000Y-192830000D03*
X74965000Y-192830000D03*
X75765000Y-192830000D03*
X76565000Y-192830000D03*
X70165000Y-193630000D03*
X70965000Y-193630000D03*
X71765000Y-193630000D03*
X74965000Y-193630000D03*
X75765000Y-193630000D03*
X76565000Y-193630000D03*
X70165000Y-194430000D03*
X70965000Y-194430000D03*
X71765000Y-194430000D03*
X74965000Y-194430000D03*
X75765000Y-194430000D03*
X76565000Y-194430000D03*
X70165000Y-195230000D03*
X70965000Y-195230000D03*
X71765000Y-195230000D03*
X74965000Y-195230000D03*
X75765000Y-195230000D03*
X76565000Y-195230000D03*
X70165000Y-196030000D03*
X70965000Y-196030000D03*
X71765000Y-196030000D03*
X74965000Y-196030000D03*
X75765000Y-196030000D03*
X76565000Y-196030000D03*
X70165000Y-196830000D03*
X70965000Y-196830000D03*
X71765000Y-196830000D03*
X74965000Y-196830000D03*
X75765000Y-196830000D03*
X76565000Y-196830000D03*
X70165000Y-197630000D03*
X70965000Y-197630000D03*
X71765000Y-197630000D03*
X74965000Y-197630000D03*
X75765000Y-197630000D03*
X76565000Y-197630000D03*
X70165000Y-198430000D03*
X70965000Y-198430000D03*
X71765000Y-198430000D03*
X74965000Y-198430000D03*
X75765000Y-198430000D03*
X76565000Y-198430000D03*
X70165000Y-199230000D03*
X70965000Y-199230000D03*
X71765000Y-199230000D03*
X74965000Y-199230000D03*
X75765000Y-199230000D03*
X76565000Y-199230000D03*
X70165000Y-200030000D03*
X70965000Y-200030000D03*
X71765000Y-200030000D03*
X74965000Y-200030000D03*
X75765000Y-200030000D03*
X76565000Y-200030000D03*
D18*
X87350000Y-139000000D03*
X87350000Y-140760000D03*
D11*
X107029999Y-148153899D03*
X107029999Y-149246099D03*
D20*
X132279999Y-219998799D03*
X132279999Y-218881199D03*
D21*
X109816499Y-212169999D03*
X111286499Y-212169999D03*
X136214999Y-221909999D03*
X134744999Y-221909999D03*
D13*
X117489999Y-163221999D03*
X117489999Y-162357999D03*
D17*
X128026099Y-220199999D03*
X126933899Y-220199999D03*
D22*
X52295001Y-142519999D03*
X50595001Y-142519999D03*
D23*
X133739999Y-228694999D03*
X133739999Y-230484999D03*
D17*
X126059999Y-233787243D03*
X124967799Y-233787243D03*
X126126099Y-199509999D03*
X125033899Y-199509999D03*
D24*
X89069999Y-215289999D03*
X90919999Y-215289999D03*
X90919999Y-213839999D03*
X89069999Y-213839999D03*
D11*
X130509999Y-202199999D03*
X130509999Y-203292199D03*
D25*
X131660000Y-197350000D03*
X131660000Y-196200000D03*
X131660000Y-195050000D03*
X130510000Y-197350000D03*
X130510000Y-196200000D03*
X130510000Y-195050000D03*
X129360000Y-197350000D03*
X129360000Y-196200000D03*
X129360000Y-195050000D03*
D26*
X132947500Y-197950000D03*
X132947500Y-197450000D03*
X132947500Y-196950000D03*
X132947500Y-196450000D03*
X132947500Y-195950000D03*
X132947500Y-195450000D03*
X132947500Y-194950000D03*
X132947500Y-194450000D03*
D27*
X132260000Y-193762500D03*
X131760000Y-193762500D03*
X131260000Y-193762500D03*
X130760000Y-193762500D03*
X130260000Y-193762500D03*
X129760000Y-193762500D03*
X129260000Y-193762500D03*
X128760000Y-193762500D03*
D26*
X128072500Y-194450000D03*
X128072500Y-194950000D03*
X128072500Y-195450000D03*
X128072500Y-195950000D03*
X128072500Y-196450000D03*
X128072500Y-196950000D03*
X128072500Y-197450000D03*
X128072500Y-197950000D03*
D27*
X128760000Y-198637500D03*
X129260000Y-198637500D03*
X129760000Y-198637500D03*
X130260000Y-198637500D03*
X130760000Y-198637500D03*
X131260000Y-198637500D03*
X131760000Y-198637500D03*
X132260000Y-198637500D03*
D11*
X103079999Y-148203899D03*
X103079999Y-149296099D03*
D28*
X91349999Y-142179997D03*
X91349999Y-140879999D03*
X89597399Y-141529998D03*
D29*
X89910000Y-188100000D03*
X90910000Y-188100000D03*
X91910000Y-188100000D03*
X92910000Y-188100000D03*
X93910000Y-188100000D03*
X94910000Y-188100000D03*
X95910000Y-188100000D03*
X96910000Y-188100000D03*
X97910000Y-188100000D03*
X98910000Y-188100000D03*
X99910000Y-188100000D03*
X100910000Y-188100000D03*
X101910000Y-188100000D03*
X102910000Y-188100000D03*
X103910000Y-188100000D03*
X104910000Y-188100000D03*
X105910000Y-188100000D03*
X106910000Y-188100000D03*
X107910000Y-188100000D03*
X108910000Y-188100000D03*
X109910000Y-188100000D03*
X110910000Y-188100000D03*
X89910000Y-208100000D03*
X90910000Y-208100000D03*
X91910000Y-208100000D03*
X92910000Y-208100000D03*
X93910000Y-208100000D03*
X94910000Y-208100000D03*
X95910000Y-208100000D03*
X96910000Y-208100000D03*
X97910000Y-208100000D03*
X98910000Y-208100000D03*
X99910000Y-208100000D03*
X100910000Y-208100000D03*
X101910000Y-208100000D03*
X102910000Y-208100000D03*
X103910000Y-208100000D03*
X104910000Y-208100000D03*
X105910000Y-208100000D03*
X106910000Y-208100000D03*
X107910000Y-208100000D03*
X108910000Y-208100000D03*
X109910000Y-208100000D03*
X110910000Y-208100000D03*
X89910000Y-209100000D03*
X90910000Y-209100000D03*
X91910000Y-209100000D03*
X92910000Y-209100000D03*
X93910000Y-209100000D03*
X94910000Y-209100000D03*
X95910000Y-209100000D03*
X96910000Y-209100000D03*
X97910000Y-209100000D03*
X98910000Y-209100000D03*
X99910000Y-209100000D03*
X100910000Y-209100000D03*
X101910000Y-209100000D03*
X102910000Y-209100000D03*
X103910000Y-209100000D03*
X104910000Y-209100000D03*
X105910000Y-209100000D03*
X106910000Y-209100000D03*
X107910000Y-209100000D03*
X108910000Y-209100000D03*
X109910000Y-209100000D03*
X110910000Y-209100000D03*
X89910000Y-189100000D03*
X90910000Y-189100000D03*
X91910000Y-189100000D03*
X92910000Y-189100000D03*
X93910000Y-189100000D03*
X94910000Y-189100000D03*
X95910000Y-189100000D03*
X96910000Y-189100000D03*
X97910000Y-189100000D03*
X98910000Y-189100000D03*
X99910000Y-189100000D03*
X100910000Y-189100000D03*
X101910000Y-189100000D03*
X102910000Y-189100000D03*
X103910000Y-189100000D03*
X104910000Y-189100000D03*
X105910000Y-189100000D03*
X106910000Y-189100000D03*
X107910000Y-189100000D03*
X108910000Y-189100000D03*
X109910000Y-189100000D03*
X110910000Y-189100000D03*
X89910000Y-190100000D03*
X90910000Y-190100000D03*
X91910000Y-190100000D03*
X92910000Y-190100000D03*
X93910000Y-190100000D03*
X94910000Y-190100000D03*
X95910000Y-190100000D03*
X96910000Y-190100000D03*
X97910000Y-190100000D03*
X98910000Y-190100000D03*
X99910000Y-190100000D03*
X100910000Y-190100000D03*
X101910000Y-190100000D03*
X102910000Y-190100000D03*
X103910000Y-190100000D03*
X104910000Y-190100000D03*
X105910000Y-190100000D03*
X106910000Y-190100000D03*
X107910000Y-190100000D03*
X108910000Y-190100000D03*
X109910000Y-190100000D03*
X110910000Y-190100000D03*
X89910000Y-191100000D03*
X90910000Y-191100000D03*
X91910000Y-191100000D03*
X92910000Y-191100000D03*
X93910000Y-191100000D03*
X94910000Y-191100000D03*
X95910000Y-191100000D03*
X96910000Y-191100000D03*
X97910000Y-191100000D03*
X98910000Y-191100000D03*
X99910000Y-191100000D03*
X100910000Y-191100000D03*
X101910000Y-191100000D03*
X102910000Y-191100000D03*
X103910000Y-191100000D03*
X104910000Y-191100000D03*
X105910000Y-191100000D03*
X106910000Y-191100000D03*
X107910000Y-191100000D03*
X108910000Y-191100000D03*
X109910000Y-191100000D03*
X110910000Y-191100000D03*
X89910000Y-192100000D03*
X90910000Y-192100000D03*
X91910000Y-192100000D03*
X92910000Y-192100000D03*
X93910000Y-192100000D03*
X94910000Y-192100000D03*
X95910000Y-192100000D03*
X96910000Y-192100000D03*
X97910000Y-192100000D03*
X98910000Y-192100000D03*
X99910000Y-192100000D03*
X100910000Y-192100000D03*
X101910000Y-192100000D03*
X102910000Y-192100000D03*
X103910000Y-192100000D03*
X104910000Y-192100000D03*
X105910000Y-192100000D03*
X106910000Y-192100000D03*
X107910000Y-192100000D03*
X108910000Y-192100000D03*
X109910000Y-192100000D03*
X110910000Y-192100000D03*
X89910000Y-193100000D03*
X90910000Y-193100000D03*
X91910000Y-193100000D03*
X92910000Y-193100000D03*
X93910000Y-193100000D03*
X94910000Y-193100000D03*
X95910000Y-193100000D03*
X96910000Y-193100000D03*
X97910000Y-193100000D03*
X98910000Y-193100000D03*
X99910000Y-193100000D03*
X100910000Y-193100000D03*
X101910000Y-193100000D03*
X102910000Y-193100000D03*
X103910000Y-193100000D03*
X104910000Y-193100000D03*
X105910000Y-193100000D03*
X106910000Y-193100000D03*
X107910000Y-193100000D03*
X108910000Y-193100000D03*
X109910000Y-193100000D03*
X110910000Y-193100000D03*
X89910000Y-194100000D03*
X90910000Y-194100000D03*
X91910000Y-194100000D03*
X92910000Y-194100000D03*
X93910000Y-194100000D03*
X94910000Y-194100000D03*
X95910000Y-194100000D03*
X96910000Y-194100000D03*
X97910000Y-194100000D03*
X98910000Y-194100000D03*
X99910000Y-194100000D03*
X100910000Y-194100000D03*
X101910000Y-194100000D03*
X102910000Y-194100000D03*
X103910000Y-194100000D03*
X104910000Y-194100000D03*
X105910000Y-194100000D03*
X106910000Y-194100000D03*
X107910000Y-194100000D03*
X108910000Y-194100000D03*
X109910000Y-194100000D03*
X110910000Y-194100000D03*
X89910000Y-195100000D03*
X90910000Y-195100000D03*
X91910000Y-195100000D03*
X92910000Y-195100000D03*
X93910000Y-195100000D03*
X94910000Y-195100000D03*
X95910000Y-195100000D03*
X96910000Y-195100000D03*
X97910000Y-195100000D03*
X98910000Y-195100000D03*
X99910000Y-195100000D03*
X100910000Y-195100000D03*
X101910000Y-195100000D03*
X102910000Y-195100000D03*
X103910000Y-195100000D03*
X104910000Y-195100000D03*
X105910000Y-195100000D03*
X106910000Y-195100000D03*
X107910000Y-195100000D03*
X108910000Y-195100000D03*
X109910000Y-195100000D03*
X110910000Y-195100000D03*
X89910000Y-196100000D03*
X90910000Y-196100000D03*
X91910000Y-196100000D03*
X92910000Y-196100000D03*
X93910000Y-196100000D03*
X94910000Y-196100000D03*
X95910000Y-196100000D03*
X96910000Y-196100000D03*
X97910000Y-196100000D03*
X98910000Y-196100000D03*
X99910000Y-196100000D03*
X100910000Y-196100000D03*
X101910000Y-196100000D03*
X102910000Y-196100000D03*
X103910000Y-196100000D03*
X104910000Y-196100000D03*
X105910000Y-196100000D03*
X106910000Y-196100000D03*
X107910000Y-196100000D03*
X108910000Y-196100000D03*
X109910000Y-196100000D03*
X110910000Y-196100000D03*
X89910000Y-197100000D03*
X90910000Y-197100000D03*
X91910000Y-197100000D03*
X92910000Y-197100000D03*
X93910000Y-197100000D03*
X94910000Y-197100000D03*
X95910000Y-197100000D03*
X96910000Y-197100000D03*
X97910000Y-197100000D03*
X98910000Y-197100000D03*
X99910000Y-197100000D03*
X100910000Y-197100000D03*
X101910000Y-197100000D03*
X102910000Y-197100000D03*
X103910000Y-197100000D03*
X104910000Y-197100000D03*
X105910000Y-197100000D03*
X106910000Y-197100000D03*
X107910000Y-197100000D03*
X108910000Y-197100000D03*
X109910000Y-197100000D03*
X110910000Y-197100000D03*
X89910000Y-198100000D03*
X90910000Y-198100000D03*
X91910000Y-198100000D03*
X92910000Y-198100000D03*
X93910000Y-198100000D03*
X94910000Y-198100000D03*
X95910000Y-198100000D03*
X96910000Y-198100000D03*
X97910000Y-198100000D03*
X98910000Y-198100000D03*
X99910000Y-198100000D03*
X100910000Y-198100000D03*
X101910000Y-198100000D03*
X102910000Y-198100000D03*
X103910000Y-198100000D03*
X104910000Y-198100000D03*
X105910000Y-198100000D03*
X106910000Y-198100000D03*
X107910000Y-198100000D03*
X108910000Y-198100000D03*
X109910000Y-198100000D03*
X110910000Y-198100000D03*
X89910000Y-199100000D03*
X90910000Y-199100000D03*
X91910000Y-199100000D03*
X92910000Y-199100000D03*
X93910000Y-199100000D03*
X94910000Y-199100000D03*
X95910000Y-199100000D03*
X96910000Y-199100000D03*
X97910000Y-199100000D03*
X98910000Y-199100000D03*
X99910000Y-199100000D03*
X100910000Y-199100000D03*
X101910000Y-199100000D03*
X102910000Y-199100000D03*
X103910000Y-199100000D03*
X104910000Y-199100000D03*
X105910000Y-199100000D03*
X106910000Y-199100000D03*
X107910000Y-199100000D03*
X108910000Y-199100000D03*
X109910000Y-199100000D03*
X110910000Y-199100000D03*
X89910000Y-200100000D03*
X90910000Y-200100000D03*
X91910000Y-200100000D03*
X92910000Y-200100000D03*
X93910000Y-200100000D03*
X94910000Y-200100000D03*
X95910000Y-200100000D03*
X96910000Y-200100000D03*
X97910000Y-200100000D03*
X98910000Y-200100000D03*
X99910000Y-200100000D03*
X100910000Y-200100000D03*
X101910000Y-200100000D03*
X102910000Y-200100000D03*
X103910000Y-200100000D03*
X104910000Y-200100000D03*
X105910000Y-200100000D03*
X106910000Y-200100000D03*
X107910000Y-200100000D03*
X108910000Y-200100000D03*
X109910000Y-200100000D03*
X110910000Y-200100000D03*
X89910000Y-201100000D03*
X90910000Y-201100000D03*
X91910000Y-201100000D03*
X92910000Y-201100000D03*
X93910000Y-201100000D03*
X94910000Y-201100000D03*
X95910000Y-201100000D03*
X96910000Y-201100000D03*
X97910000Y-201100000D03*
X98910000Y-201100000D03*
X99910000Y-201100000D03*
X100910000Y-201100000D03*
X101910000Y-201100000D03*
X102910000Y-201100000D03*
X103910000Y-201100000D03*
X104910000Y-201100000D03*
X105910000Y-201100000D03*
X106910000Y-201100000D03*
X107910000Y-201100000D03*
X108910000Y-201100000D03*
X109910000Y-201100000D03*
X110910000Y-201100000D03*
X89910000Y-202100000D03*
X90910000Y-202100000D03*
X91910000Y-202100000D03*
X92910000Y-202100000D03*
X93910000Y-202100000D03*
X94910000Y-202100000D03*
X95910000Y-202100000D03*
X96910000Y-202100000D03*
X97910000Y-202100000D03*
X98910000Y-202100000D03*
X99910000Y-202100000D03*
X100910000Y-202100000D03*
X101910000Y-202100000D03*
X102910000Y-202100000D03*
X103910000Y-202100000D03*
X104910000Y-202100000D03*
X105910000Y-202100000D03*
X106910000Y-202100000D03*
X107910000Y-202100000D03*
X108910000Y-202100000D03*
X109910000Y-202100000D03*
X110910000Y-202100000D03*
X89910000Y-203100000D03*
X90910000Y-203100000D03*
X91910000Y-203100000D03*
X92910000Y-203100000D03*
X93910000Y-203100000D03*
X94910000Y-203100000D03*
X95910000Y-203100000D03*
X96910000Y-203100000D03*
X97910000Y-203100000D03*
X98910000Y-203100000D03*
X99910000Y-203100000D03*
X100910000Y-203100000D03*
X101910000Y-203100000D03*
X102910000Y-203100000D03*
X103910000Y-203100000D03*
X104910000Y-203100000D03*
X105910000Y-203100000D03*
X106910000Y-203100000D03*
X107910000Y-203100000D03*
X108910000Y-203100000D03*
X109910000Y-203100000D03*
X110910000Y-203100000D03*
X89910000Y-204100000D03*
X90910000Y-204100000D03*
X91910000Y-204100000D03*
X92910000Y-204100000D03*
X93910000Y-204100000D03*
X94910000Y-204100000D03*
X95910000Y-204100000D03*
X96910000Y-204100000D03*
X97910000Y-204100000D03*
X98910000Y-204100000D03*
X99910000Y-204100000D03*
X100910000Y-204100000D03*
X101910000Y-204100000D03*
X102910000Y-204100000D03*
X103910000Y-204100000D03*
X104910000Y-204100000D03*
X105910000Y-204100000D03*
X106910000Y-204100000D03*
X107910000Y-204100000D03*
X108910000Y-204100000D03*
X109910000Y-204100000D03*
X110910000Y-204100000D03*
X89910000Y-205100000D03*
X90910000Y-205100000D03*
X91910000Y-205100000D03*
X92910000Y-205100000D03*
X93910000Y-205100000D03*
X94910000Y-205100000D03*
X95910000Y-205100000D03*
X96910000Y-205100000D03*
X97910000Y-205100000D03*
X98910000Y-205100000D03*
X99910000Y-205100000D03*
X100910000Y-205100000D03*
X101910000Y-205100000D03*
X102910000Y-205100000D03*
X103910000Y-205100000D03*
X104910000Y-205100000D03*
X105910000Y-205100000D03*
X106910000Y-205100000D03*
X107910000Y-205100000D03*
X108910000Y-205100000D03*
X109910000Y-205100000D03*
X110910000Y-205100000D03*
X89910000Y-206100000D03*
X90910000Y-206100000D03*
X91910000Y-206100000D03*
X92910000Y-206100000D03*
X93910000Y-206100000D03*
X94910000Y-206100000D03*
X95910000Y-206100000D03*
X96910000Y-206100000D03*
X97910000Y-206100000D03*
X98910000Y-206100000D03*
X99910000Y-206100000D03*
X100910000Y-206100000D03*
X101910000Y-206100000D03*
X102910000Y-206100000D03*
X103910000Y-206100000D03*
X104910000Y-206100000D03*
X105910000Y-206100000D03*
X106910000Y-206100000D03*
X107910000Y-206100000D03*
X108910000Y-206100000D03*
X109910000Y-206100000D03*
X110910000Y-206100000D03*
X89910000Y-207100000D03*
X90910000Y-207100000D03*
X91910000Y-207100000D03*
X92910000Y-207100000D03*
X93910000Y-207100000D03*
X94910000Y-207100000D03*
X95910000Y-207100000D03*
X96910000Y-207100000D03*
X97910000Y-207100000D03*
X98910000Y-207100000D03*
X99910000Y-207100000D03*
X100910000Y-207100000D03*
X101910000Y-207100000D03*
X102910000Y-207100000D03*
X103910000Y-207100000D03*
X104910000Y-207100000D03*
X105910000Y-207100000D03*
X106910000Y-207100000D03*
X107910000Y-207100000D03*
X108910000Y-207100000D03*
X109910000Y-207100000D03*
X110910000Y-207100000D03*
D30*
X57110000Y-198840000D03*
D31*
X57459999Y-198839999D03*
D30*
X57110000Y-198340000D03*
D31*
X57459999Y-198339999D03*
D30*
X57110000Y-197840000D03*
D31*
X57459999Y-197839999D03*
D30*
X57110000Y-197340000D03*
D31*
X57459999Y-197339999D03*
D30*
X57110000Y-196840000D03*
D31*
X57459999Y-196839999D03*
X54379999Y-196839999D03*
D30*
X54730000Y-196840000D03*
D31*
X54379999Y-197339999D03*
D30*
X54730000Y-197340000D03*
D31*
X54379999Y-197839999D03*
D30*
X54730000Y-197840000D03*
D31*
X54379999Y-198339999D03*
D30*
X54730000Y-198340000D03*
D31*
X54379999Y-198839999D03*
D30*
X54730000Y-198840000D03*
D32*
X55669999Y-199389999D03*
X56169999Y-199389999D03*
D33*
X55919999Y-197839999D03*
D32*
X55669999Y-196289999D03*
X56169999Y-196289999D03*
D34*
X119399999Y-161507999D03*
X119399999Y-165571999D03*
D12*
X55848101Y-152519999D03*
X57041901Y-152519999D03*
D22*
X52279999Y-140669999D03*
X50579999Y-140669999D03*
D11*
X137509999Y-197199999D03*
X137509999Y-198292199D03*
X131469999Y-179614999D03*
X131469999Y-180707199D03*
D35*
X57079999Y-200779299D03*
X57079999Y-201820699D03*
D36*
X113794999Y-147584999D03*
X113794999Y-148684999D03*
D13*
X109559999Y-162571999D03*
X109559999Y-161707999D03*
D37*
X55679999Y-201724999D03*
X55679999Y-200854999D03*
D14*
X67186099Y-140449399D03*
X68633899Y-140449399D03*
D17*
X135223899Y-195839999D03*
X136316099Y-195839999D03*
D12*
X59889999Y-198333099D03*
X59889999Y-199526899D03*
D38*
X91349999Y-159914997D03*
X91349999Y-158444997D03*
D11*
X128059999Y-231619999D03*
X128059999Y-232712199D03*
D12*
X61479999Y-198363099D03*
X61479999Y-199556899D03*
D39*
X118958799Y-223839999D03*
X117841199Y-223839999D03*
D40*
X62089999Y-153899999D03*
X63729999Y-153899999D03*
D23*
X116324999Y-168899999D03*
X116324999Y-170689999D03*
D41*
X66014999Y-153899999D03*
X67804999Y-153899999D03*
D28*
X91349999Y-131179997D03*
X91349999Y-129879999D03*
X89597399Y-130529998D03*
D37*
X108794999Y-174004999D03*
X108794999Y-173134999D03*
X105649999Y-174004999D03*
X105649999Y-173134999D03*
D42*
X53145001Y-152519999D03*
X54445001Y-152519999D03*
D37*
X111794999Y-169569999D03*
X111794999Y-168699999D03*
D11*
X114574999Y-168688899D03*
X114574999Y-169781099D03*
D43*
X73909999Y-146899999D03*
D44*
X74830000Y-142912199D03*
X72989998Y-142912199D03*
D39*
X122068799Y-232459999D03*
X120951199Y-232459999D03*
D37*
X107146999Y-174004999D03*
X107146999Y-173134999D03*
D20*
X129699999Y-219998799D03*
X129699999Y-218881199D03*
D45*
X68212399Y-164329999D03*
X65367599Y-164329999D03*
D28*
X91349999Y-152179997D03*
X91349999Y-150879999D03*
X89597399Y-151529998D03*
D13*
X113224999Y-168612999D03*
X113224999Y-169476999D03*
D22*
X52289999Y-138719999D03*
X50589999Y-138719999D03*
D11*
X64909999Y-143992199D03*
X64909999Y-142899999D03*
D46*
X138868799Y-211415999D03*
X138868799Y-211923999D03*
X138868799Y-212431999D03*
X138868799Y-212939999D03*
X138868799Y-213447999D03*
X138868799Y-213955999D03*
X138868799Y-214463999D03*
X140291199Y-214463999D03*
X140291199Y-213955999D03*
X140291199Y-213447999D03*
X140291199Y-212939999D03*
X140291199Y-212431999D03*
X140291199Y-211923999D03*
X140291199Y-211415999D03*
D47*
X119815000Y-175075000D03*
X119815000Y-176345000D03*
X119815000Y-177615000D03*
X119815000Y-178885000D03*
X119815000Y-180155000D03*
X119815000Y-181425000D03*
X119815000Y-182695000D03*
X119815000Y-183965000D03*
X129125000Y-183965000D03*
X129125000Y-182695000D03*
X129125000Y-181425000D03*
X129125000Y-180155000D03*
X129125000Y-178885000D03*
X129125000Y-177615000D03*
X129125000Y-176345000D03*
X129125000Y-175075000D03*
D37*
X100554999Y-174004999D03*
X100554999Y-173134999D03*
D17*
X126059999Y-232452754D03*
X124967799Y-232452754D03*
D48*
X138057999Y-171519999D03*
X139081999Y-171519999D03*
D49*
X136762500Y-161670000D03*
X136762500Y-162170000D03*
X136762500Y-163170000D03*
X136762500Y-163670000D03*
X137597500Y-163670000D03*
X137597500Y-163170000D03*
X137597500Y-162170000D03*
X137597500Y-161670000D03*
D50*
X67509998Y-145956899D03*
X66709997Y-145956899D03*
X65909999Y-145956899D03*
X65109998Y-145956899D03*
X64310000Y-145956899D03*
X64310000Y-149843099D03*
X65110001Y-149843099D03*
X65909999Y-149843099D03*
X66710000Y-149843099D03*
X67509998Y-149843099D03*
D51*
X65909999Y-147899999D03*
D17*
X145059999Y-220119999D03*
X143967799Y-220119999D03*
D11*
X120263199Y-222166099D03*
X120263199Y-221073899D03*
D13*
X132059999Y-235483999D03*
X132059999Y-234619999D03*
D41*
X127404999Y-203199999D03*
X125614999Y-203199999D03*
D17*
X126059999Y-231118265D03*
X124967799Y-231118265D03*
D12*
X62480399Y-195649999D03*
X62480399Y-194456199D03*
D52*
X60257499Y-134509999D03*
X57457499Y-134509999D03*
D53*
X111844999Y-161924999D03*
X111844999Y-163564999D03*
D54*
X142469999Y-162019999D03*
X142469999Y-162519999D03*
X142469999Y-163019999D03*
X142469999Y-163519999D03*
X142469999Y-164019999D03*
X142469999Y-164519999D03*
X142469999Y-165019999D03*
X142469999Y-165519999D03*
X142469999Y-166019999D03*
X142469999Y-166519999D03*
X142469999Y-167019999D03*
X142469999Y-167519999D03*
X142469999Y-168019999D03*
X142469999Y-168519999D03*
X142469999Y-169019999D03*
X142469999Y-169519999D03*
X142469999Y-170019999D03*
X142469999Y-170519999D03*
X142469999Y-171019999D03*
D11*
X92349999Y-181906099D03*
X92349999Y-180813899D03*
D17*
X131773399Y-199996799D03*
X132865599Y-199996799D03*
D39*
X94080399Y-212974199D03*
X95197999Y-212974199D03*
D17*
X94054999Y-217304199D03*
X95147199Y-217304199D03*
D23*
X138169999Y-224574999D03*
X138169999Y-222784999D03*
D55*
X91349999Y-143879999D03*
X92219999Y-143879999D03*
D28*
X91349999Y-163179997D03*
X91349999Y-161879999D03*
X89597399Y-162529998D03*
D36*
X96724999Y-147584999D03*
X96724999Y-148684999D03*
D56*
X120127999Y-169799999D03*
X124191999Y-169799999D03*
D39*
X87969999Y-217519999D03*
X89087599Y-217519999D03*
D57*
X148644999Y-227439999D03*
X148644999Y-226789999D03*
X148644999Y-226139999D03*
X148644999Y-225489999D03*
X148644999Y-224839999D03*
D58*
X148769999Y-229239999D03*
X148769999Y-223039999D03*
D59*
X151319999Y-229939999D03*
D60*
X151319999Y-227339999D03*
X151319999Y-224939999D03*
D59*
X151319999Y-222339999D03*
D42*
X68649999Y-202289999D03*
X67349999Y-202289999D03*
D11*
X128469999Y-192066099D03*
X128469999Y-190973899D03*
D18*
X87350000Y-128000000D03*
X87350000Y-129760000D03*
D38*
X91349999Y-127349999D03*
X91349999Y-125879999D03*
D11*
X109029999Y-148193899D03*
X109029999Y-149286099D03*
D37*
X121299999Y-164654999D03*
X121299999Y-165524999D03*
D21*
X109804999Y-218379999D03*
X111274999Y-218379999D03*
D20*
X133579999Y-220008799D03*
X133579999Y-218891199D03*
D16*
X133131999Y-226999999D03*
X132267999Y-226999999D03*
D12*
X60859999Y-195626899D03*
X60859999Y-194433099D03*
D61*
X113944999Y-161034999D03*
X113944999Y-163234999D03*
X115644999Y-163234999D03*
X115644999Y-161034999D03*
D11*
X69289999Y-147096099D03*
X69289999Y-146003899D03*
D62*
X117469999Y-175019999D03*
X117469999Y-176319999D03*
D38*
X91349999Y-138879999D03*
X91349999Y-137409999D03*
D63*
X138049999Y-168569999D03*
X138889999Y-168569999D03*
D18*
X87350000Y-149299998D03*
X87350000Y-151059998D03*
D55*
X50764999Y-196769999D03*
X51634999Y-196769999D03*
D20*
X130973332Y-219981333D03*
X130973332Y-218863733D03*
D37*
X102202999Y-174004999D03*
X102202999Y-173134999D03*
D64*
X141819999Y-225499999D03*
X141819999Y-227399999D03*
X143919999Y-226449999D03*
D65*
X113465699Y-167174999D03*
X114964299Y-167174999D03*
D13*
X136239999Y-223977999D03*
X136239999Y-224841999D03*
D17*
X64817799Y-151899999D03*
X65909999Y-151899999D03*
D38*
X91349999Y-148914997D03*
X91349999Y-147444997D03*
D16*
X135181999Y-199189999D03*
X134317999Y-199189999D03*
D62*
X110794999Y-173134999D03*
X110794999Y-171834999D03*
D22*
X49339999Y-198599999D03*
X51039999Y-198599999D03*
D37*
X98794999Y-168004999D03*
X98794999Y-167134999D03*
D62*
X117469999Y-182679999D03*
X117469999Y-181379999D03*
D17*
X126059999Y-235121732D03*
X124967799Y-235121732D03*
D49*
X138182500Y-165270000D03*
X138182500Y-165770000D03*
X138182500Y-166770000D03*
X138182500Y-167270000D03*
X139017500Y-167270000D03*
X139017500Y-166770000D03*
X139017500Y-165770000D03*
X139017500Y-165270000D03*
D45*
X68212399Y-157079999D03*
X65367599Y-157079999D03*
D55*
X135944999Y-197199999D03*
X135074999Y-197199999D03*
D11*
X134773199Y-224786099D03*
X134773199Y-223693899D03*
X52879999Y-195886099D03*
X52879999Y-194793899D03*
D55*
X90914999Y-154179997D03*
X91784999Y-154179997D03*
D11*
X129559999Y-231619999D03*
X129559999Y-232712199D03*
D18*
X109850000Y-220610000D03*
X109850000Y-222370000D03*
D66*
X115112499Y-214168599D03*
X113207499Y-214168599D03*
X114159999Y-216251399D03*
D67*
X53469999Y-149619997D03*
X54120000Y-149619997D03*
X54769999Y-149619997D03*
X55420000Y-149619997D03*
X55420000Y-145419998D03*
X54769999Y-145419998D03*
X54120000Y-145419998D03*
X53469999Y-145419998D03*
D68*
X128209999Y-207949999D03*
X130509999Y-207949999D03*
X130509999Y-206199999D03*
X128209999Y-206199999D03*
D11*
X110039999Y-235273899D03*
X110039999Y-236366099D03*
D69*
X77909999Y-161116399D03*
X77909999Y-152683599D03*
D53*
X62909999Y-143719999D03*
X62909999Y-142079999D03*
D39*
X118978799Y-225229999D03*
X117861199Y-225229999D03*
D70*
X133959999Y-235469999D03*
X136159999Y-235469999D03*
X136159999Y-233769999D03*
X133959999Y-233769999D03*
D62*
X117469999Y-184009999D03*
X117469999Y-185309999D03*
D23*
X51919999Y-200944999D03*
X51919999Y-202734999D03*
D66*
X114992499Y-220558599D03*
X113087499Y-220558599D03*
X114039999Y-222641399D03*
D45*
X68212399Y-160789999D03*
X65367599Y-160789999D03*
D11*
X91109999Y-181916099D03*
X91109999Y-180823899D03*
D39*
X119568799Y-228609999D03*
X118451199Y-228609999D03*
D53*
X62029999Y-149789999D03*
X62029999Y-148149999D03*
D62*
X131469999Y-183949999D03*
X131469999Y-185249999D03*
D13*
X55719999Y-143419999D03*
X55719999Y-142555999D03*
D71*
X66909999Y-132808299D03*
X66909999Y-126991699D03*
D14*
X67186099Y-138112599D03*
X68633899Y-138112599D03*
D55*
X98924999Y-165134999D03*
X99794999Y-165134999D03*
D13*
X138059999Y-233755999D03*
X138059999Y-234619999D03*
D17*
X126525099Y-193066399D03*
X125432899Y-193066399D03*
D11*
X131059999Y-231619999D03*
X131059999Y-232712199D03*
D23*
X139209999Y-230094999D03*
X139209999Y-228304999D03*
D37*
X103969999Y-173974999D03*
X103969999Y-173104999D03*
D23*
X132509999Y-202304999D03*
X132509999Y-204094999D03*
D13*
X137099999Y-229431999D03*
X137099999Y-228567999D03*
D62*
X112794999Y-172134999D03*
X112794999Y-170834999D03*
D39*
X131911199Y-175049999D03*
X133028799Y-175049999D03*
D14*
X67186099Y-135899999D03*
X68633899Y-135899999D03*
D55*
X91908699Y-133314999D03*
X91038699Y-133314999D03*
D72*
X129956499Y-228870000D03*
X129956499Y-228369999D03*
X129956499Y-227870000D03*
X129956499Y-227369998D03*
X129956499Y-226869999D03*
X129956499Y-226370000D03*
X129956499Y-225869999D03*
X129956499Y-225369999D03*
X129956499Y-224869998D03*
X129956499Y-224369999D03*
X129956499Y-223870000D03*
X129956499Y-223369998D03*
X129956499Y-222869999D03*
X129956499Y-222369998D03*
D73*
X129310000Y-221723499D03*
X128809999Y-221723499D03*
X128310000Y-221723499D03*
X127809998Y-221723499D03*
X127309999Y-221723499D03*
X126810000Y-221723499D03*
X126309999Y-221723499D03*
X125809999Y-221723499D03*
X125309998Y-221723499D03*
X124809999Y-221723499D03*
X124310000Y-221723499D03*
X123809998Y-221723499D03*
X123309999Y-221723499D03*
X122809998Y-221723499D03*
D72*
X122163499Y-222369998D03*
X122163499Y-222869999D03*
X122163499Y-223369998D03*
X122163499Y-223870000D03*
X122163499Y-224369999D03*
X122163499Y-224869998D03*
X122163499Y-225369999D03*
X122163499Y-225869999D03*
X122163499Y-226370000D03*
X122163499Y-226869999D03*
X122163499Y-227369998D03*
X122163499Y-227870000D03*
X122163499Y-228369999D03*
X122163499Y-228870000D03*
D73*
X122809998Y-229516499D03*
X123309999Y-229516499D03*
X123809998Y-229516499D03*
X124310000Y-229516499D03*
X124809999Y-229516499D03*
X125309998Y-229516499D03*
X125809999Y-229516499D03*
X126309999Y-229516499D03*
X126810000Y-229516499D03*
X127309999Y-229516499D03*
X127809998Y-229516499D03*
X128310000Y-229516499D03*
X128809999Y-229516499D03*
X129310000Y-229516499D03*
D74*
X126059999Y-225619999D03*
D55*
X90914999Y-164914997D03*
X91784999Y-164914997D03*
D48*
X138007999Y-170069999D03*
X139031999Y-170069999D03*
D18*
X87350000Y-160299998D03*
X87350000Y-162059998D03*
D62*
X131469999Y-176359999D03*
X131469999Y-177659999D03*
D37*
X58419999Y-201634999D03*
X58419999Y-200764999D03*
D75*
X60369999Y-148119999D03*
X60369999Y-149819999D03*
D11*
X135739999Y-228589999D03*
X135739999Y-229682199D03*
D76*
X107920000Y-164065000D03*
X107420000Y-164065000D03*
X106920000Y-164065000D03*
X106420000Y-164065000D03*
X105920000Y-164065000D03*
X105420000Y-164065000D03*
X104920000Y-164065000D03*
X104420000Y-164065000D03*
X103920000Y-164065000D03*
X103420000Y-164065000D03*
X102920000Y-164065000D03*
X102420000Y-164065000D03*
D77*
X101725000Y-164760000D03*
X101725000Y-165260000D03*
X101725000Y-165760000D03*
X101725000Y-166260000D03*
X101725000Y-166760000D03*
X101725000Y-167260000D03*
X101725000Y-167760000D03*
X101725000Y-168260000D03*
X101725000Y-168760000D03*
X101725000Y-169260000D03*
X101725000Y-169760000D03*
X101725000Y-170260000D03*
D76*
X102420000Y-170955000D03*
X102920000Y-170955000D03*
X103420000Y-170955000D03*
X103920000Y-170955000D03*
X104420000Y-170955000D03*
X104920000Y-170955000D03*
X105420000Y-170955000D03*
X105920000Y-170955000D03*
X106420000Y-170955000D03*
X106920000Y-170955000D03*
X107420000Y-170955000D03*
X107920000Y-170955000D03*
D77*
X108615000Y-170260000D03*
X108615000Y-169760000D03*
X108615000Y-169260000D03*
X108615000Y-168760000D03*
X108615000Y-168260000D03*
X108615000Y-167760000D03*
X108615000Y-167260000D03*
X108615000Y-166760000D03*
X108615000Y-166260000D03*
X108615000Y-165760000D03*
X108615000Y-165260000D03*
X108615000Y-164760000D03*
D78*
X152700000Y-235280000D02*
X152630000Y-204100000D01*
X96204000Y-119620000D02*
X45860000Y-119590000D01*
X45540000Y-228990000D02*
X50225000Y-228990000D01*
X135440000Y-119660000D02*
X135410000Y-152050000D01*
X135440000Y-119660000D02*
X113624000Y-119620000D01*
X50225000Y-228990000D02*
X50225000Y-240910000D01*
X45540000Y-208690000D02*
X45400000Y-119590000D01*
X154470000Y-186520000D02*
X152470000Y-184520000D01*
X152700000Y-235280000D02*
X148580000Y-240850000D01*
X135410000Y-152050000D02*
X152350000Y-152040000D01*
X152630000Y-204100000D02*
X154470000Y-201520000D01*
X148580000Y-240850000D02*
X50225000Y-240910000D01*
X45400000Y-119590000D02*
X45860000Y-119590000D01*
X152470000Y-184520000D02*
X152450000Y-152170000D01*
X152450000Y-152040000D02*
X152450000Y-152170000D01*
X152350000Y-152040000D02*
X152450000Y-152040000D01*
X154470000Y-201520000D02*
X154470000Y-186520000D01*
D79*
X113624000Y-119620000D02*
X113624000Y-122410000D01*
X112634000Y-123400000D02*
X109994000Y-123400000D01*
X109994000Y-123400000D02*
X109994000Y-138410000D01*
X109004000Y-139400000D02*
X100824000Y-139400000D01*
X99834000Y-138410000D02*
X99834000Y-123400000D01*
X99834000Y-123400000D02*
X97194000Y-123400000D01*
X96204000Y-122410000D02*
X96204000Y-119620000D01*
X112634000Y-123400000D02*
G75*
G03*
X113624000Y-122410000I1J989999D01*
G01*
X109004000Y-139400000D02*
G75*
G03*
X109994000Y-138410000I1J989999D01*
G01*
X99834000Y-138410000D02*
G75*
G03*
X100824000Y-139400000I990000J0D01*
G01*
X96204000Y-122410000D02*
G75*
G03*
X97194000Y-123400000I990000J0D01*
G01*
D78*
X45540000Y-208690000D02*
X37640000Y-208690000D01*
X37640000Y-208690000D02*
X37140000Y-209190000D01*
X37140000Y-209190000D02*
X37140000Y-219390000D01*
X44590000Y-219890000D02*
X37640000Y-219890000D01*
X37640000Y-219890000D02*
X37140000Y-219390000D01*
X44590000Y-221790000D02*
X37640000Y-221790000D01*
X37640000Y-221790000D02*
X37140000Y-222290000D01*
X37140000Y-222290000D02*
X37140000Y-228490000D01*
X45540000Y-228990000D02*
X37640000Y-228990000D01*
X37640000Y-228990000D02*
X37140000Y-228490000D01*
X44590000Y-221790000D02*
G75*
G03*
X44590000Y-219890000I0J950000D01*
G01*
M02*
