M48
; DRILL file {KiCad (7.0.0)} date Tue Sep 24 22:27:59 2024
; FORMAT={-:-/ absolute / inch / decimal}
; #@! TF.CreationDate,2024-09-24T22:27:59+02:00
; #@! TF.GenerationSoftware,Kicad,Pcbnew,(7.0.0)
; #@! TF.FileFunction,Plated,1,8,PTH
FMAT,2
INCH
; #@! TA.AperFunction,Plated,PTH,ViaDrill
T1C0.0079
; #@! TA.AperFunction,Plated,PTH,ComponentDrill
T2C0.0118
; #@! TA.AperFunction,Plated,PTH,ComponentDrill
T3C0.0138
; #@! TA.AperFunction,Plated,PTH,ViaDrill
T4C0.0157
; #@! TA.AperFunction,Plated,PTH,ComponentDrill
T5C0.0280
; #@! TA.AperFunction,Plated,PTH,ComponentDrill
T6C0.0300
; #@! TA.AperFunction,Plated,PTH,ComponentDrill
T7C0.0362
; #@! TA.AperFunction,Plated,PTH,ComponentDrill
T8C0.0394
; #@! TA.AperFunction,Plated,PTH,ComponentDrill
T9C0.0402
; #@! TA.AperFunction,Plated,PTH,ComponentDrill
T10C0.0433
; #@! TA.AperFunction,Plated,PTH,ComponentDrill
T11C0.0453
; #@! TA.AperFunction,Plated,PTH,ComponentDrill
T12C0.0524
; #@! TA.AperFunction,Plated,PTH,ComponentDrill
T13C0.0551
; #@! TA.AperFunction,Plated,PTH,ComponentDrill
T14C0.0917
; #@! TA.AperFunction,Plated,PTH,ComponentDrill
T15C0.1063
%
G90
G05
T1
X1.7102Y-8.5862
X1.7114Y-8.5401
X1.7176Y-8.9889
X1.7184Y-8.4984
X1.7212Y-8.3594
X1.7377Y-8.2409
X1.7402Y-8.2976
X1.7567Y-8.7795
X1.7689Y-8.8894
X1.8122Y-8.7445
X1.8252Y-8.2016
X1.826Y-7.989
X1.8264Y-8.0886
X1.8272Y-7.7661
X1.8272Y-7.876
X1.828Y-7.5535
X1.8283Y-7.6531
X1.8291Y-7.4406
X1.8295Y-7.3331
X1.8303Y-7.1205
X1.8307Y-6.8882
X1.8307Y-7.2201
X1.8315Y-6.6756
X1.8315Y-7.0075
X1.8319Y-6.7752
X1.8323Y-6.463
X1.8327Y-6.5626
X1.8331Y-6.2504
X1.8335Y-6.0224
X1.8335Y-6.35
X1.8343Y-5.8098
X1.8343Y-6.1374
X1.8346Y-5.9094
X1.8354Y-5.6969
X1.8362Y-5.6024
X1.837Y-5.3898
X1.8374Y-5.4894
X1.8382Y-5.2768
X1.839Y-5.1551
X1.8398Y-4.9425
X1.8402Y-5.0421
X1.8409Y-4.7535
X1.8409Y-4.8295
X1.8591Y-8.2996
X1.8676Y-8.6992
X1.8698Y-8.8005
X1.8906Y-8.7797
X1.8952Y-8.6992
X1.9468Y-8.8347
X1.9539Y-4.7535
X1.9543Y-7.7476
X1.9663Y-8.8542
X1.9665Y-7.8827
X2.0441Y-8.0335
X2.0535Y-4.7535
X2.0583Y-5.6555
X2.0596Y-9.4433
X2.0654Y-7.7898
X2.0827Y-7.6272
X2.0885Y-8.5696
X2.0917Y-6.0504
X2.1067Y-5.4614
X2.1101Y-8.4602
X2.1101Y-8.5161
X2.1205Y-6.6232
X2.1209Y-6.7598
X2.1217Y-6.4705
X2.1626Y-7.6843
X2.1665Y-4.7535
X2.1682Y-9.4433
X2.1803Y-5.9563
X2.1925Y-7.9866
X2.1949Y-5.5783
X2.1957Y-8.6295
X2.1988Y-6.0504
X2.2031Y-8.3799
X2.2102Y-5.9543
X2.2268Y-5.7945
X2.239Y-6.7587
X2.2469Y-7.9909
X2.248Y-6.4102
X2.2606Y-4.7535
X2.2768Y-9.4433
X2.2949Y-6.0047
X2.3Y-7.9894
X2.3008Y-5.9437
X2.3106Y-6.4488
X2.3142Y-7.0343
X2.3142Y-7.1917
X2.3142Y-7.3098
X2.3142Y-7.428
X2.3224Y-6.5004
X2.3291Y-7.7555
X2.3335Y-7.6079
X2.3579Y-7.8996
X2.363Y-6.7933
X2.3736Y-4.7535
X2.3815Y-6.4091
X2.3819Y-5.4287
X2.3854Y-9.4433
X2.3929Y-7.113
X2.3929Y-7.2311
X2.3929Y-7.3492
X2.3929Y-7.4673
X2.3961Y-7.6098
X2.4201Y-7.7654
X2.4213Y-7.8992
X2.4413Y-5.7846
X2.4425Y-6.4799
X2.4461Y-6.4417
X2.4587Y-7.613
X2.4602Y-7.7402
X2.4602Y-7.7713
X2.4602Y-7.8028
X2.4602Y-7.837
X2.4724Y-6.6681
X2.4732Y-4.7535
X2.4772Y-5.5461
X2.494Y-9.4433
X2.5102Y-5.8224
X2.511Y-8.7665
X2.5195Y-6.3311
X2.5228Y-6.4708
X2.5232Y-6.1839
X2.5543Y-6.7185
X2.5559Y-5.5752
X2.5862Y-4.7535
X2.5898Y-8.8453
X2.5957Y-5.9406
X2.6026Y-9.4433
X2.6057Y-7.9656
X2.6287Y-5.9803
X2.6291Y-8.7665
X2.6343Y-4.9091
X2.6823Y-4.7535
X2.7016Y-5.8528
X2.7079Y-8.8453
X2.7112Y-9.4433
X2.7134Y-6.0583
X2.7327Y-6.3331
X2.7339Y-7.4982
X2.7339Y-7.5287
X2.7343Y-6.1862
X2.7343Y-6.4709
X2.7348Y-7.4657
X2.7358Y-7.4028
X2.7358Y-7.4343
X2.7358Y-7.5602
X2.7358Y-7.5917
X2.7358Y-7.6222
X2.7358Y-7.7492
X2.7358Y-7.8437
X2.7358Y-7.8762
X2.7363Y-7.8154
X2.7373Y-7.7807
X2.7378Y-7.6862
X2.7472Y-8.7665
X2.7504Y-5.6193
X2.7539Y-5.3508
X2.7539Y-5.5295
X2.7555Y-5.4378
X2.7622Y-5.8634
X2.7701Y-7.8996
X2.7781Y-7.5445
X2.7781Y-7.6075
X2.7781Y-7.639
X2.7781Y-7.6705
X2.7783Y-7.45
X2.7791Y-7.577
X2.7872Y-7.0725
X2.7939Y-7.3781
X2.7953Y-4.7535
X2.8067Y-7.8945
X2.8096Y-7.7335
X2.8096Y-7.765
X2.8096Y-7.7965
X2.8096Y-7.828
X2.8096Y-7.8594
X2.8198Y-9.4433
X2.826Y-8.8453
X2.85Y-7.4657
X2.85Y-7.6232
X2.85Y-7.6547
X2.85Y-7.6862
X2.851Y-7.4028
X2.851Y-7.4343
X2.851Y-7.5287
X2.851Y-7.7177
X2.851Y-7.8447
X2.8513Y-7.5622
X2.8513Y-7.5898
X2.852Y-7.4972
X2.852Y-7.7492
X2.852Y-7.7807
X2.852Y-7.8122
X2.8654Y-8.7665
X2.8659Y-7.1513
X2.872Y-5.5764
X2.8949Y-4.7535
X2.8992Y-6.6083
X2.9037Y-7.5621
X2.9047Y-7.0736
X2.9051Y-7.7728
X2.9067Y-7.7492
X2.9126Y-5.2406
X2.9134Y-5.3776
X2.9194Y-7.4362
X2.9194Y-7.4638
X2.9249Y-7.6567
X2.9249Y-7.6843
X2.9258Y-7.4972
X2.9258Y-7.6232
X2.9258Y-7.7177
X2.9258Y-7.8132
X2.9258Y-7.8437
X2.9258Y-7.8742
X2.9276Y-7.5602
X2.9284Y-9.4433
X2.9284Y-7.5287
X2.9307Y-7.7807
X2.9327Y-6.5287
X2.9433Y-5.1941
X2.9453Y-5.578
X2.9457Y-8.8453
X2.9504Y-7.3732
X2.9543Y-7.9039
X2.9671Y-7.4815
X2.9673Y-7.45
X2.9823Y-7.9419
X2.9829Y-7.3732
X2.9835Y-7.1524
X2.9835Y-8.7665
X2.9976Y-7.7955
X2.9984Y-7.5756
X2.9986Y-7.6075
X2.9986Y-7.639
X2.9986Y-7.6705
X2.9986Y-7.828
X2.9986Y-7.8594
X2.9988Y-7.45
X3.0079Y-4.7535
X3.0177Y-6.7425
X3.0228Y-7.0736
X3.0283Y-6.4362
X3.0307Y-8.2228
X3.0311Y-5.4
X3.0323Y-7.6713
X3.037Y-9.4433
X3.04Y-7.7807
X3.0409Y-7.4028
X3.0437Y-7.6213
X3.05Y-6.7642
X3.0504Y-7.7343
X3.0622Y-8.8453
X3.0701Y-5.1343
X3.0785Y-7.5287
X3.0795Y-7.7799
X3.0965Y-7.7981
X3.1008Y-6.5228
X3.1016Y-7.1524
X3.1016Y-8.7665
X3.1083Y-4.7535
X3.1114Y-6.4374
X3.1398Y-5.2921
X3.1409Y-7.0736
X3.1456Y-9.4433
X3.1476Y-6.5461
X3.1618Y-5.4764
X3.1803Y-8.8453
X3.2004Y-5.2051
X3.2039Y-6.5441
X3.2197Y-7.1524
X3.2197Y-8.7665
X3.2213Y-4.7535
X3.2213Y-6.5965
X3.2542Y-9.4433
X3.2591Y-7.0736
X3.2642Y-5.2331
X3.2748Y-5.287
X3.2783Y-6.713
X3.2984Y-8.8453
X3.3209Y-4.7535
X3.3378Y-8.7665
X3.3461Y-5.3756
X3.3628Y-9.4433
X3.4031Y-8.3287
X3.4031Y-8.4736
X3.4165Y-8.8453
X3.4209Y-8.5646
X3.4339Y-4.7535
X3.4559Y-8.7665
X3.4618Y-8.1909
X3.4714Y-9.4433
X3.4839Y-7.7199
X3.4865Y-7.5276
X3.4865Y-7.5591
X3.4933Y-6.1697
X3.4969Y-8.1559
X3.502Y-5.8039
X3.5039Y-5.4087
X3.5067Y-7.0417
X3.5067Y-8.3358
X3.5138Y-7.976
X3.5183Y-7.4234
X3.5185Y-6.6577
X3.5193Y-7.8969
X3.5195Y-7.3853
X3.5195Y-7.6216
X3.5195Y-7.7397
X3.5195Y-7.779
X3.5195Y-7.9375
X3.52Y-7.8573
X3.52Y-8.0935
X3.5205Y-7.5822
X3.5205Y-7.7003
X3.5213Y-7.4657
X3.5268Y-6.4925
X3.5363Y-8.8453
X3.5366Y-4.7535
X3.5433Y-6.0697
X3.5445Y-5.2484
X3.5587Y-7.5823
X3.5587Y-7.7797
X3.5588Y-7.5025
X3.5588Y-7.6609
X3.5593Y-7.3848
X3.5593Y-7.4242
X3.5593Y-7.8189
X3.5593Y-7.937
X3.5596Y-7.8978
X3.5598Y-7.7406
X3.5601Y-7.543
X3.561Y-5.6638
X3.5646Y-6.6573
X3.574Y-8.7665
X3.5799Y-8.5591
X3.58Y-9.4433
X3.5957Y-7.0764
X3.5961Y-7.2122
X3.5965Y-4.9051
X3.5977Y-8.1742
X3.5987Y-7.3839
X3.5987Y-7.5827
X3.5987Y-7.7008
X3.5987Y-7.7392
X3.5987Y-8.0157
X3.5987Y-8.1339
X3.599Y-7.8959
X3.5992Y-7.6216
X3.5992Y-7.6619
X3.5992Y-7.8185
X3.5997Y-7.4248
X3.5997Y-7.4657
X3.5997Y-7.5433
X3.5997Y-7.7805
X3.6268Y-7.0756
X3.6272Y-7.2126
X3.6311Y-5.7024
X3.6376Y-7.8575
X3.6378Y-7.5429
X3.6381Y-7.7411
X3.6381Y-7.8189
X3.6381Y-8.0157
X3.6386Y-7.6216
X3.6386Y-8.2524
X3.6391Y-7.4262
X3.6391Y-7.5049
X3.6391Y-7.5837
X3.6391Y-7.7008
X3.6391Y-7.7795
X3.6395Y-7.6629
X3.6406Y-7.0319
X3.6418Y-7.3862
X3.6476Y-5.9913
X3.6484Y-8.5504
X3.6492Y-6.0693
X3.6496Y-4.7535
X3.6496Y-5.9406
X3.6504Y-5.5457
X3.6504Y-6.3732
X3.6524Y-5.1142
X3.6528Y-8.8453
X3.6565Y-5.2486
X3.6575Y-6.4933
X3.6583Y-8.6
X3.6594Y-7.2661
X3.6646Y-7.2256
X3.6657Y-7.0591
X3.6689Y-7.1421
X3.6765Y-7.5829
X3.6769Y-7.779
X3.6772Y-7.465
X3.6774Y-7.7402
X3.6774Y-7.8189
X3.6774Y-8.1722
X3.6783Y-7.5429
X3.6784Y-7.6624
X3.6784Y-7.7008
X3.6787Y-7.8978
X3.6787Y-7.936
X3.6882Y-6.8665
X3.6886Y-9.4433
X3.7158Y-7.9754
X3.7168Y-7.8583
X3.7173Y-7.7003
X3.7177Y-7.8189
X3.7178Y-7.5837
X3.7178Y-7.6624
X3.7178Y-7.937
X3.7181Y-7.8978
X3.7183Y-7.466
X3.7183Y-7.5054
X3.7205Y-6.6157
X3.722Y-6.5161
X3.7358Y-6.5516
X3.7562Y-7.4252
X3.7562Y-7.5827
X3.7562Y-7.8583
X3.7562Y-7.937
X3.7562Y-8.0551
X3.7563Y-7.6614
X3.7567Y-7.778
X3.7572Y-7.3868
X3.7572Y-7.6211
X3.7572Y-7.9764
X3.7572Y-8.0148
X3.7575Y-7.7393
X3.7626Y-6.3409
X3.7736Y-6.8441
X3.7846Y-6.2165
X3.7909Y-6.2807
X3.7913Y-6.3343
X3.7916Y-7.3843
X3.7929Y-6.3906
X3.7933Y-8.1748
X3.7956Y-7.4252
X3.7956Y-7.9764
X3.7956Y-8.0551
X3.7961Y-7.7386
X3.7961Y-8.1335
X3.7965Y-7.5837
X3.7965Y-7.624
X3.7965Y-7.6624
X3.7965Y-7.8573
X3.7965Y-8.0148
X3.7972Y-9.4433
X3.8081Y-5.8972
X3.8217Y-8.6437
X3.8327Y-8.3406
X3.8349Y-7.4252
X3.8349Y-7.5433
X3.8349Y-7.5827
X3.8349Y-7.7402
X3.8349Y-7.8583
X3.8354Y-6.428
X3.8354Y-6.4661
X3.8359Y-8.0541
X3.8366Y-8.2504
X3.837Y-8.4795
X3.8413Y-8.439
X3.8594Y-6.4382
X3.861Y-6.4854
X3.8717Y-9.0437
X3.8733Y-7.8593
X3.8733Y-7.8976
X3.874Y-8.0161
X3.8743Y-7.6614
X3.8743Y-7.7008
X3.8753Y-7.4252
X3.8753Y-7.5423
X3.8753Y-8.0541
X3.8753Y-8.1348
X3.8753Y-7.7414
X3.8763Y-7.8179
X3.8799Y-9.0709
X3.8974Y-6.6844
X3.9039Y-6.8169
X3.9051Y-6.7118
X3.9051Y-6.7409
X3.9058Y-9.4433
X3.9127Y-7.8986
X3.9131Y-7.8577
X3.9134Y-7.9756
X3.9137Y-7.7008
X3.9137Y-7.937
X3.9137Y-8.0551
X3.9146Y-7.4262
X3.9146Y-7.5443
X3.9146Y-7.623
X3.9146Y-7.6624
X3.9146Y-8.0935
X3.9146Y-8.1339
X3.924Y-6.7902
X3.9291Y-6.6138
X3.9319Y-6.924
X3.94Y-7.3323
X3.9449Y-6.7398
X3.948Y-9.1098
X3.9508Y-6.2157
X3.952Y-7.7805
X3.9528Y-7.8972
X3.953Y-7.5827
X3.953Y-7.6998
X3.953Y-7.7411
X3.953Y-7.9764
X3.9535Y-7.3863
X3.9535Y-7.8194
X3.954Y-7.4262
X3.954Y-7.5433
X3.955Y-8.1752
X3.9594Y-6.8886
X3.9661Y-6.5055
X3.9685Y-9.0421
X3.9701Y-6.2417
X3.9815Y-5.9248
X3.9815Y-9.1024
X3.9854Y-6.3894
X3.9906Y-7.4265
X3.9909Y-7.4642
X3.9914Y-7.623
X3.9914Y-7.7411
X3.9917Y-8.4362
X3.9921Y-6.8161
X3.9924Y-7.5827
X3.9924Y-7.7795
X3.9924Y-8.0157
X3.9924Y-8.0945
X3.9929Y-7.9761
X3.993Y-7.6609
X4.0Y-6.4465
X4.0087Y-6.763
X4.0122Y-7.2555
X4.013Y-9.174
X4.0144Y-9.4433
X4.0307Y-6.3059
X4.0308Y-7.5837
X4.0308Y-7.6614
X4.0308Y-8.1722
X4.031Y-6.4145
X4.0313Y-7.5448
X4.0313Y-7.9759
X4.0318Y-7.4252
X4.0318Y-7.4656
X4.0318Y-7.5039
X4.0318Y-7.622
X4.0318Y-7.937
X4.0318Y-8.1339
X4.0323Y-8.0556
X4.0327Y-7.8576
X4.0328Y-7.6998
X4.0328Y-8.0167
X4.0378Y-9.1921
X4.039Y-9.1457
X4.0398Y-6.8917
X4.0413Y-7.3362
X4.0441Y-6.5858
X4.0453Y-6.5075
X4.0488Y-8.3201
X4.0496Y-8.6177
X4.0499Y-6.3955
X4.05Y-8.4657
X4.0505Y-8.2682
X4.0543Y-9.0579
X4.0579Y-5.926
X4.0591Y-5.7933
X4.0598Y-6.6811
X4.065Y-6.8161
X4.0673Y-9.0236
X4.0677Y-8.9787
X4.0697Y-7.5054
X4.0697Y-7.8578
X4.0702Y-7.5443
X4.0702Y-7.623
X4.0702Y-8.1722
X4.0709Y-7.4236
X4.0711Y-7.7008
X4.0711Y-8.0946
X4.0711Y-8.1339
X4.0713Y-7.4646
X4.0721Y-7.5817
X4.0721Y-7.937
X4.0727Y-7.662
X4.091Y-6.4267
X4.0933Y-6.889
X4.0981Y-6.3892
X4.1094Y-7.3496
X4.1095Y-7.3858
X4.1095Y-7.623
X4.1095Y-7.7018
X4.11Y-7.5054
X4.1105Y-7.4262
X4.1105Y-7.6614
X4.1105Y-7.7795
X4.1106Y-7.7398
X4.111Y-6.7709
X4.1115Y-7.4656
X4.1115Y-7.5837
X4.117Y-6.3702
X4.123Y-9.4433
X4.1256Y-6.8161
X4.1264Y-6.6846
X4.1366Y-6.337
X4.1465Y-6.0961
X4.1469Y-6.1594
X4.1469Y-8.4484
X4.1489Y-7.4262
X4.1489Y-8.0935
X4.1489Y-8.1722
X4.1491Y-7.8968
X4.1494Y-7.5044
X4.1494Y-7.5438
X4.1499Y-7.3858
X4.1499Y-7.5827
X4.1499Y-7.6998
X4.1499Y-7.7402
X4.1499Y-7.7795
X4.1499Y-7.4645
X4.1576Y-6.366
X4.1765Y-6.3849
X4.1878Y-7.6235
X4.1883Y-7.5049
X4.1883Y-7.6634
X4.1885Y-7.3859
X4.1888Y-7.4651
X4.1888Y-8.2121
X4.1893Y-7.5827
X4.1893Y-7.9764
X4.1898Y-6.4248
X4.1902Y-7.5423
X4.1902Y-7.7008
X4.1902Y-7.936
X4.1902Y-8.0955
X4.2094Y-6.7768
X4.2106Y-6.6866
X4.2122Y-5.7921
X4.2138Y-5.9177
X4.2192Y-6.9247
X4.2236Y-8.4953
X4.2269Y-6.3888
X4.2271Y-7.6235
X4.2276Y-7.5827
X4.2276Y-7.6624
X4.2281Y-7.5438
X4.2286Y-7.3848
X4.2286Y-7.4656
X4.2291Y-8.2131
X4.2296Y-7.4262
X4.2296Y-7.5049
X4.2296Y-7.7008
X4.2301Y-7.8193
X4.2316Y-9.4433
X4.2459Y-6.4077
X4.2516Y-6.8154
X4.2602Y-7.3539
X4.266Y-7.6988
X4.267Y-7.5827
X4.2675Y-7.5438
X4.268Y-7.3848
X4.268Y-7.4646
X4.268Y-7.5039
X4.268Y-7.6614
X4.268Y-8.0551
X4.2768Y-6.7724
X4.2799Y-6.4437
X4.2823Y-6.9102
X4.2839Y-7.3449
X4.2898Y-6.3228
X4.3064Y-7.5817
X4.3064Y-7.7785
X4.3064Y-7.9754
X4.3074Y-7.4646
X4.3074Y-7.622
X4.3074Y-8.1732
X4.3074Y-7.6615
X4.3083Y-7.3848
X4.3083Y-7.4252
X4.3083Y-7.5039
X4.3083Y-7.8593
X4.3083Y-8.0561
X4.3134Y-6.815
X4.3157Y-8.4051
X4.3193Y-6.6642
X4.3197Y-5.9268
X4.3339Y-6.6047
X4.3402Y-9.4433
X4.3467Y-7.4262
X4.3472Y-7.7791
X4.3477Y-7.5837
X4.3477Y-7.9774
X4.3477Y-8.1742
X4.3516Y-6.1823
X4.3547Y-6.6555
X4.3618Y-5.872
X4.3634Y-7.174
X4.3665Y-5.1075
X4.3787Y-9.0327
X4.3807Y-8.6449
X4.3811Y-8.3079
X4.3856Y-7.3863
X4.3861Y-7.4252
X4.3861Y-7.4646
X4.3871Y-7.5433
X4.398Y-7.8079
X4.4Y-6.7146
X4.4098Y-7.9811
X4.4126Y-8.6697
X4.413Y-8.4118
X4.4394Y-8.0457
X4.4413Y-6.2697
X4.4488Y-9.4433
X4.4807Y-5.8969
X4.4835Y-6.7776
X4.485Y-6.7386
X4.4917Y-7.9799
X4.4929Y-7.176
X4.4929Y-7.761
X4.5154Y-7.8102
X4.524Y-4.7563
X4.528Y-8.6272
X4.5311Y-5.8051
X4.5524Y-6.2654
X4.5574Y-9.4433
X4.5654Y-7.265
X4.5728Y-8.0484
X4.5764Y-6.2913
X4.5768Y-6.5827
X4.5787Y-7.1929
X4.5795Y-6.7709
X4.5795Y-7.2449
X4.5803Y-6.9248
X4.5807Y-7.1398
X4.5815Y-6.8913
X4.5823Y-6.9921
X4.5854Y-8.8669
X4.5886Y-8.4106
X4.5898Y-8.8091
X4.5956Y-7.7577
X4.5976Y-5.1051
X4.5976Y-5.3413
X4.6059Y-6.328
X4.6083Y-8.0071
X4.6256Y-6.3508
X4.6272Y-6.5343
X4.63Y-4.7563
X4.6339Y-6.1779
X4.6343Y-5.7287
X4.6343Y-6.0484
X4.6622Y-7.2756
X4.663Y-5.9728
X4.665Y-5.4972
X4.666Y-9.4433
X4.6732Y-7.8902
X4.6764Y-4.987
X4.6764Y-5.2232
X4.687Y-7.5701
X4.6874Y-8.011
X4.6894Y-7.4783
X4.6965Y-6.685
X4.7008Y-6.328
X4.7142Y-9.1516
X4.715Y-8.011
X4.7288Y-7.8962
X4.7339Y-8.6563
X4.7359Y-4.7563
X4.7483Y-7.9156
X4.7524Y-5.7567
X4.7531Y-6.1795
X4.7654Y-8.8925
X4.7654Y-8.9661
X4.7746Y-9.4433
X4.7752Y-6.4465
X4.7783Y-9.0587
X4.7803Y-6.9681
X4.7945Y-5.1051
X4.7945Y-5.3413
X4.7972Y-9.1024
X4.8028Y-7.8205
X4.8028Y-7.848
X4.8071Y-7.9359
X4.8106Y-8.6756
X4.828Y-7.915
X4.8299Y-9.1059
X4.8339Y-6.2086
X4.8362Y-5.4969
X4.8378Y-6.613
X4.8398Y-5.9732
X4.8419Y-4.7563
X4.8437Y-6.1311
X4.85Y-5.5661
X4.8512Y-5.6051
X4.8516Y-5.5295
X4.8583Y-6.0516
X4.8602Y-6.0118
X4.8614Y-5.7323
X4.8681Y-5.9744
X4.8697Y-7.6004
X4.8732Y-4.987
X4.8732Y-5.2232
X4.8748Y-9.2044
X4.8748Y-9.2572
X4.8752Y-9.0992
X4.8764Y-9.1524
X4.8832Y-9.4433
X4.8872Y-7.8551
X4.8957Y-8.0004
X4.9346Y-8.1524
X4.9406Y-7.8165
X4.9479Y-4.7563
X4.9634Y-7.9217
X4.9642Y-5.585
X4.9713Y-7.7551
X4.972Y-7.7165
X4.9724Y-7.676
X4.9724Y-7.7941
X4.9748Y-5.5283
X4.9764Y-5.9724
X4.9807Y-7.5654
X4.9862Y-6.0319
X4.9878Y-7.5043
X4.9898Y-5.6551
X4.9913Y-5.1051
X4.9913Y-5.3413
X4.9918Y-9.4433
X4.9949Y-7.735
X4.9949Y-7.7748
X4.9953Y-7.6961
X4.9965Y-7.6559
X4.9969Y-5.7098
X4.9969Y-8.6319
X5.0008Y-9.2031
X5.0028Y-9.1512
X5.0031Y-9.2575
X5.0039Y-9.0992
X5.0118Y-7.1012
X5.0146Y-7.5244
X5.0177Y-7.1913
X5.0248Y-6.7972
X5.0402Y-8.6327
X5.0417Y-9.0811
X5.0421Y-9.2004
X5.048Y-8.0669
X5.0538Y-4.7563
X5.0551Y-6.8236
X5.0642Y-7.8831
X5.0665Y-6.1232
X5.0681Y-5.6898
X5.0992Y-9.0819
X5.1005Y-9.4433
X5.1016Y-9.2004
X5.1071Y-8.5004
X5.1087Y-7.5846
X5.1094Y-5.2232
X5.1283Y-7.5642
X5.1386Y-8.0429
X5.1394Y-8.237
X5.1413Y-6.6031
X5.1413Y-6.6307
X5.1476Y-7.5846
X5.1575Y-8.5087
X5.1598Y-4.7563
X5.1602Y-9.2
X5.1626Y-8.8331
X5.1677Y-7.5654
X5.1752Y-7.163
X5.1756Y-7.0319
X5.1917Y-7.3319
X5.1992Y-9.2051
X5.2Y-7.913
X5.2053Y-6.5243
X5.2053Y-6.5519
X5.2075Y-7.5783
X5.2087Y-8.5276
X5.2091Y-9.4433
X5.211Y-8.2217
X5.2185Y-8.0823
X5.2197Y-6.9945
X5.2591Y-7.913
X5.2591Y-8.5264
X5.2642Y-7.2417
X5.2657Y-4.7563
X5.2657Y-4.8408
X5.2657Y-4.9468
X5.2657Y-5.0528
X5.2657Y-5.4487
X5.2657Y-5.5547
X5.2657Y-5.6606
X5.2657Y-9.1157
X5.2665Y-5.1511
X5.2665Y-5.257
X5.2665Y-5.363
X5.2665Y-5.7463
X5.2665Y-5.8523
X5.2665Y-5.9583
X5.2673Y-6.0457
X5.2677Y-8.8067
X5.272Y-6.9437
X5.272Y-7.8748
X5.2728Y-6.8917
X5.2738Y-6.4447
X5.274Y-9.1591
X5.2807Y-7.7965
X5.2846Y-7.7098
X5.2909Y-8.9547
X5.2947Y-6.4656
X5.3063Y-7.6248
X5.313Y-6.4047
X5.3134Y-6.3772
X5.3177Y-9.4433
X5.3346Y-6.7469
X5.3433Y-9.0744
X5.3457Y-7.6248
X5.3559Y-6.4039
X5.3602Y-7.8421
X5.3606Y-9.3197
X5.363Y-8.6909
X5.3634Y-8.7827
X5.3642Y-6.6122
X5.3658Y-6.0457
X5.3768Y-6.7185
X5.385Y-7.6248
X5.3965Y-6.6366
X5.3976Y-9.0744
X5.3988Y-6.7535
X5.4016Y-6.5453
X5.4067Y-7.7102
X5.4138Y-7.8504
X5.4244Y-7.6248
X5.4263Y-9.4433
X5.4283Y-8.4035
X5.4358Y-9.2736
X5.4402Y-8.7248
X5.4528Y-6.4043
X5.4638Y-7.6248
X5.4638Y-7.7429
X5.4643Y-6.0457
X5.4815Y-9.1094
X5.5031Y-7.6248
X5.5031Y-7.7429
X5.5106Y-6.5461
X5.5295Y-8.9894
X5.5299Y-6.6988
X5.5319Y-6.6551
X5.5331Y-6.615
X5.5349Y-9.4433
X5.5425Y-7.6248
X5.5425Y-7.7429
X5.5628Y-6.0457
X5.5658Y-8.4035
X5.5819Y-7.6248
X5.5819Y-7.7429
X5.6213Y-7.6248
X5.6213Y-7.7429
X5.6224Y-8.9157
X5.628Y-8.6654
X5.6435Y-9.4433
X5.6606Y-7.6248
X5.6606Y-7.7429
X5.6612Y-6.0457
X5.6701Y-6.576
X5.6717Y-6.5173
X5.6717Y-6.6941
X5.672Y-6.3988
X5.672Y-6.4579
X5.7496Y-8.6661
X5.7521Y-9.4433
X5.7597Y-6.0457
X5.7925Y-8.7811
X5.7961Y-9.0248
X5.8582Y-6.0457
X5.9559Y-8.6902
X5.9567Y-6.0457
X5.9579Y-9.1189
X5.9583Y-6.1406
X5.9583Y-6.239
X5.9583Y-6.3375
X5.9583Y-6.436
X5.9583Y-6.5345
X5.9583Y-6.633
X5.9583Y-6.7314
X5.9583Y-6.8299
X5.9591Y-6.9106
X5.9591Y-7.0091
X5.9591Y-7.1075
X5.9591Y-7.206
T2
X2.1819Y-7.7594
X2.1819Y-7.8185
X2.2016Y-7.789
X2.2213Y-7.7594
X2.2213Y-7.8185
T3
X4.1159Y-6.5703
X4.1159Y-6.6195
X4.1652Y-6.5703
X4.1652Y-6.6195
T4
X1.9276Y-5.6091
X1.9283Y-5.4606
X1.9291Y-5.5378
X3.8283Y-8.3831
T5
X3.813Y-9.261
X3.813Y-9.311
X3.863Y-9.261
X3.863Y-9.311
X3.913Y-9.261
X3.913Y-9.311
X3.963Y-9.261
X3.963Y-9.311
X4.013Y-9.261
X4.013Y-9.311
X4.063Y-9.261
X4.063Y-9.311
X4.113Y-9.261
X4.113Y-9.311
X4.163Y-9.261
X4.163Y-9.311
X4.213Y-9.261
X4.213Y-9.311
X4.263Y-9.261
X4.263Y-9.311
T6
X5.8031Y-8.2134
X5.8031Y-8.2921
X5.8031Y-8.3709
X5.8031Y-8.4496
X5.8031Y-8.5283
X5.8819Y-8.2134
X5.8819Y-8.2921
X5.8819Y-8.3709
X5.8819Y-8.4496
X5.8819Y-8.5283
T7
X5.7862Y-7.5189
X5.7862Y-7.6173
X5.7862Y-7.6961
X5.7862Y-7.7945
T9
X3.8905Y-5.6732
X3.9305Y-5.5732
X3.9705Y-5.6732
X4.0105Y-5.5732
X4.0505Y-5.6732
X4.0905Y-5.5732
X4.1705Y-5.5732
X4.2105Y-5.6732
X4.2505Y-5.5732
X4.2905Y-5.6732
X4.3305Y-5.5732
X4.3705Y-5.6732
T10
X3.0854Y-8.3697
X3.0854Y-8.5307
X3.1854Y-8.3697
X3.1854Y-8.5307
X3.2854Y-8.3697
X3.2854Y-8.5307
T11
X3.8539Y-4.9232
X3.8539Y-5.0232
X4.407Y-4.9232
X4.407Y-5.0232
T12
X5.6445Y-6.2803
X5.6445Y-6.8512
X5.8394Y-6.2567
X5.8394Y-6.8748
T13
X3.8094Y-5.3083
X4.4515Y-5.3634
T14
X5.9043Y-7.398
X5.9043Y-7.9154
T15
X2.2189Y-9.2118
X3.2142Y-4.9307
X5.1287Y-4.9295
X5.7193Y-9.2311
T8
G00X2.0732Y-5.0819
M15
G01X2.0732Y-4.9953
M16
G05
G00X2.3055Y-4.9047
M15
G01X2.2189Y-4.9047
M16
G05
G00X2.3134Y-5.1528
M15
G01X2.211Y-5.1528
M16
G05
T0
M30
