G04 #@! TF.GenerationSoftware,KiCad,Pcbnew,(7.0.0)*
G04 #@! TF.CreationDate,2024-09-24T22:27:57+02:00*
G04 #@! TF.ProjectId,FPGA_dev_board,46504741-5f64-4657-965f-626f6172642e,rev?*
G04 #@! TF.SameCoordinates,Original*
G04 #@! TF.FileFunction,Copper,L7,Inr*
G04 #@! TF.FilePolarity,Positive*
%FSLAX46Y46*%
G04 Gerber Fmt 4.6, Leading zero omitted, Abs format (unit mm)*
G04 Created by KiCad (PCBNEW (7.0.0)) date 2024-09-24 22:27:57*
%MOMM*%
%LPD*%
G01*
G04 APERTURE LIST*
G04 #@! TA.AperFunction,ComponentPad*
%ADD10C,4.500000*%
G04 #@! TD*
G04 #@! TA.AperFunction,ComponentPad*
%ADD11C,0.300000*%
G04 #@! TD*
G04 #@! TA.AperFunction,ComponentPad*
%ADD12C,2.100000*%
G04 #@! TD*
G04 #@! TA.AperFunction,ComponentPad*
%ADD13R,1.530000X1.530000*%
G04 #@! TD*
G04 #@! TA.AperFunction,ComponentPad*
%ADD14C,1.530000*%
G04 #@! TD*
G04 #@! TA.AperFunction,ComponentPad*
%ADD15C,1.725000*%
G04 #@! TD*
G04 #@! TA.AperFunction,ComponentPad*
%ADD16R,4.600000X2.000000*%
G04 #@! TD*
G04 #@! TA.AperFunction,ComponentPad*
%ADD17O,4.200000X2.000000*%
G04 #@! TD*
G04 #@! TA.AperFunction,ComponentPad*
%ADD18O,2.000000X4.200000*%
G04 #@! TD*
G04 #@! TA.AperFunction,ComponentPad*
%ADD19R,1.060000X1.060000*%
G04 #@! TD*
G04 #@! TA.AperFunction,ComponentPad*
%ADD20C,1.060000*%
G04 #@! TD*
G04 #@! TA.AperFunction,ComponentPad*
%ADD21C,1.995000*%
G04 #@! TD*
G04 #@! TA.AperFunction,ComponentPad*
%ADD22C,1.270000*%
G04 #@! TD*
G04 #@! TA.AperFunction,ComponentPad*
%ADD23R,1.428000X1.428000*%
G04 #@! TD*
G04 #@! TA.AperFunction,ComponentPad*
%ADD24C,1.428000*%
G04 #@! TD*
G04 #@! TA.AperFunction,ComponentPad*
%ADD25C,3.346000*%
G04 #@! TD*
G04 #@! TA.AperFunction,ComponentPad*
%ADD26C,0.550000*%
G04 #@! TD*
G04 #@! TA.AperFunction,ViaPad*
%ADD27C,0.500000*%
G04 #@! TD*
G04 #@! TA.AperFunction,ViaPad*
%ADD28C,0.800000*%
G04 #@! TD*
G04 #@! TA.AperFunction,Profile*
%ADD29C,0.100000*%
G04 #@! TD*
G04 #@! TA.AperFunction,Profile*
%ADD30C,0.010000*%
G04 #@! TD*
G04 APERTURE END LIST*
D10*
X81640000Y-125240000D03*
D11*
X55420000Y-198590000D03*
X56420000Y-198590000D03*
X55920000Y-197840000D03*
X55420000Y-197090000D03*
X56420000Y-197090000D03*
D12*
X78370000Y-212590000D03*
X80910000Y-212590000D03*
X83450000Y-212590000D03*
D13*
X99833999Y-141559999D03*
D14*
X101866000Y-141560000D03*
X103898000Y-141560000D03*
X105930000Y-141560000D03*
X107962000Y-141560000D03*
X109994000Y-141560000D03*
X98818000Y-144100000D03*
X100850000Y-144100000D03*
X102882000Y-144100000D03*
X106946000Y-144100000D03*
X108978000Y-144100000D03*
X111010000Y-144100000D03*
D15*
X97889000Y-127590000D03*
X97889000Y-125050000D03*
X111939000Y-127590000D03*
X111939000Y-125050000D03*
D12*
X113069000Y-136230000D03*
X96759000Y-134830000D03*
D16*
X57459999Y-130879999D03*
D17*
X57459999Y-124579999D03*
D18*
X52659999Y-127979999D03*
D10*
X56360000Y-233980000D03*
D19*
X108279999Y-235229999D03*
D20*
X108280000Y-236500000D03*
X107010000Y-235230000D03*
X107010000Y-236500000D03*
X105740000Y-235230000D03*
X105740000Y-236500000D03*
X104470000Y-235230000D03*
X104470000Y-236500000D03*
X103200000Y-235230000D03*
X103200000Y-236500000D03*
X101930000Y-235230000D03*
X101930000Y-236500000D03*
X100660000Y-235230000D03*
X100660000Y-236500000D03*
X99390000Y-235230000D03*
X99390000Y-236500000D03*
X98120000Y-235230000D03*
X98120000Y-236500000D03*
X96850000Y-235230000D03*
X96850000Y-236500000D03*
D21*
X143370000Y-174020000D03*
X143370000Y-159520000D03*
X148320000Y-174620000D03*
X148320000Y-158920000D03*
D22*
X149400000Y-216620000D03*
X149400000Y-214620001D03*
X149400000Y-212620000D03*
X149400000Y-210619999D03*
X149400000Y-208620001D03*
X147399999Y-216620000D03*
X147399999Y-214620001D03*
X147399999Y-212620000D03*
X147399999Y-210619999D03*
X147399999Y-208620001D03*
D10*
X145270000Y-234470000D03*
D23*
X146969999Y-197979999D03*
D24*
X146970000Y-195480000D03*
X146970000Y-193480000D03*
X146970000Y-190980000D03*
D25*
X149970000Y-201050000D03*
X149970000Y-187910000D03*
D12*
X78370000Y-216680000D03*
X80910000Y-216680000D03*
X83450000Y-216680000D03*
D10*
X130270000Y-125210000D03*
D26*
X105795000Y-166885000D03*
X105795000Y-168135000D03*
X104545000Y-166885000D03*
X104545000Y-168135000D03*
D27*
X142810000Y-226460000D03*
X121780000Y-135670000D03*
X126780000Y-135670000D03*
X116780000Y-135670000D03*
X123780000Y-132670000D03*
X129780000Y-132670000D03*
X118780000Y-132670000D03*
X72794713Y-181642756D03*
X70794713Y-179642756D03*
X76780000Y-179670000D03*
X79780000Y-179670000D03*
X81780000Y-181670000D03*
X73780000Y-179670000D03*
X75780000Y-181670000D03*
X78780000Y-181670000D03*
X82780000Y-179670000D03*
X142780000Y-196670000D03*
X143780000Y-196670000D03*
X139780000Y-196670000D03*
X138780000Y-196670000D03*
X141780000Y-196670000D03*
X140780000Y-196670000D03*
X141780000Y-193670000D03*
X136780000Y-193670000D03*
X139780000Y-193670000D03*
X142780000Y-193670000D03*
X135780000Y-193670000D03*
X138780000Y-193670000D03*
X134780000Y-193670000D03*
X137780000Y-193670000D03*
X140780000Y-193670000D03*
X143780000Y-193670000D03*
X87780000Y-222670000D03*
X90780000Y-222670000D03*
X80780000Y-224670000D03*
X86780000Y-224670000D03*
X83780000Y-224670000D03*
X84780000Y-222670000D03*
X89821644Y-224669844D03*
X81780000Y-222670000D03*
X92780000Y-224670000D03*
X78780000Y-222670000D03*
X77780000Y-224670000D03*
X75780000Y-222670000D03*
X74821644Y-224669844D03*
X71780000Y-224670000D03*
X68780000Y-224670000D03*
X65780000Y-224670000D03*
X72780000Y-222670000D03*
X69780000Y-222670000D03*
X66780000Y-222670000D03*
X63780000Y-222670000D03*
X58780000Y-178670000D03*
X58780000Y-182670000D03*
X58780000Y-185670000D03*
X58780000Y-188670000D03*
X60780000Y-180670000D03*
X60780000Y-189670000D03*
X60780000Y-186670000D03*
X60780000Y-183670000D03*
X116780000Y-129670000D03*
X126780000Y-129670000D03*
X121780000Y-129670000D03*
X123780000Y-126670000D03*
X118780000Y-126670000D03*
X95407000Y-201600000D03*
X95432000Y-193575000D03*
X99407000Y-195600000D03*
X100382000Y-197625000D03*
X83270000Y-170510000D03*
X96432000Y-203575000D03*
X76650000Y-171260000D03*
X94444500Y-190637500D03*
X96432000Y-199575000D03*
X96432000Y-194625000D03*
X99382000Y-200625000D03*
X97407000Y-192600000D03*
X89070000Y-178860000D03*
X92470000Y-178610000D03*
X98400000Y-203610000D03*
X96307500Y-187560000D03*
X98432000Y-191575000D03*
X98407000Y-195600000D03*
X131070000Y-233680000D03*
X79750000Y-134420000D03*
X46760000Y-120740000D03*
X66910000Y-124690000D03*
X109620000Y-213490000D03*
X92700000Y-120740000D03*
X46660000Y-136900000D03*
X99432000Y-205575000D03*
X146102659Y-239860000D03*
X122984284Y-120810000D03*
X110432000Y-207625000D03*
X102407000Y-201600000D03*
X144060000Y-165540000D03*
X133770000Y-151340000D03*
X58990000Y-165110000D03*
X69502324Y-198512324D03*
X90407000Y-187575000D03*
X102432000Y-203625000D03*
X110420000Y-197590000D03*
X116240000Y-159800000D03*
X123480000Y-145600000D03*
X96432000Y-193650000D03*
X121040000Y-227740000D03*
X91382000Y-207625000D03*
X92950000Y-184560000D03*
X46620000Y-144700000D03*
X96130000Y-157900000D03*
X108210000Y-186790000D03*
X62450000Y-193370000D03*
X43647220Y-215858580D03*
X66105304Y-239860000D03*
X127450000Y-182660000D03*
X125675712Y-120810000D03*
X46550000Y-166690000D03*
X92700000Y-150890000D03*
X46590000Y-155890000D03*
X74810000Y-141680000D03*
X97450000Y-209560000D03*
X59160000Y-196990000D03*
X57829717Y-239860000D03*
X123860233Y-232471734D03*
X126920000Y-219250000D03*
X44930000Y-225790000D03*
X133960000Y-232640000D03*
X87220000Y-120740000D03*
X106432000Y-195600000D03*
X93407000Y-207575000D03*
X89407000Y-205575000D03*
X97407000Y-191600000D03*
X73754500Y-192076088D03*
X134130000Y-198030000D03*
X46690000Y-134030000D03*
X105387500Y-200577500D03*
X95432000Y-187625000D03*
X78950000Y-120740000D03*
X112010000Y-202720000D03*
X93190000Y-181410000D03*
X151280000Y-220730000D03*
X134390000Y-227450000D03*
X104410000Y-196590000D03*
X46570000Y-161290000D03*
X59270000Y-193240000D03*
X104407000Y-197600000D03*
X66770000Y-151900000D03*
X123690000Y-193050000D03*
X136291428Y-153560000D03*
X46590000Y-147570000D03*
X91432000Y-189630000D03*
X104432000Y-189625000D03*
X109382000Y-192575000D03*
X133770000Y-145957140D03*
X89370000Y-169106097D03*
X44620000Y-223000000D03*
X118490000Y-139630000D03*
X112080000Y-220210000D03*
X101130000Y-150490000D03*
X97407000Y-199600000D03*
X95432000Y-203575000D03*
X60020000Y-172550000D03*
X143795712Y-153560000D03*
X96300000Y-160890000D03*
X128220000Y-204900000D03*
X46560000Y-158760000D03*
X117490000Y-161310000D03*
X81820000Y-167550000D03*
X120292856Y-120810000D03*
X92720000Y-161880000D03*
X69440000Y-191230000D03*
X78220000Y-197610000D03*
X151360000Y-180531428D03*
X151330000Y-231620000D03*
X62820000Y-120740000D03*
X141372000Y-213448000D03*
X129580000Y-233690000D03*
X109432000Y-204625000D03*
X46640000Y-142300000D03*
X118517355Y-239860000D03*
X46760000Y-122670000D03*
X126690000Y-190610000D03*
X49630000Y-120740000D03*
X133750000Y-143780000D03*
X68863833Y-239860000D03*
X77470000Y-171810000D03*
X88173536Y-239860000D03*
X94444500Y-189637500D03*
X140450000Y-228330000D03*
X106407000Y-192600000D03*
X100419500Y-187612500D03*
X138180000Y-221610000D03*
X46730000Y-125540000D03*
X116320000Y-171980000D03*
X128070000Y-233690000D03*
X133750000Y-128340000D03*
X98382000Y-200600000D03*
X101966181Y-239860000D03*
X132550000Y-205290000D03*
X132310000Y-239860000D03*
X95432000Y-202600000D03*
X123400000Y-153710000D03*
X135068529Y-239860000D03*
X46520000Y-177990000D03*
X110530000Y-157030000D03*
X116727794Y-197046264D03*
X137510000Y-199400000D03*
X117050000Y-203380000D03*
X58290000Y-152520000D03*
X126070000Y-201210000D03*
X46500000Y-174960000D03*
X90930000Y-217400000D03*
X107483239Y-239860000D03*
X68130000Y-120740000D03*
X128730000Y-144520000D03*
X43717220Y-212328580D03*
X55380000Y-151290000D03*
X130540000Y-209220000D03*
X46410000Y-200050000D03*
X135720000Y-230490000D03*
X151340000Y-165975716D03*
X95850000Y-173840000D03*
X73530000Y-120740000D03*
X114120000Y-197130000D03*
X100407000Y-192600000D03*
X123820233Y-233791734D03*
X151340000Y-158471432D03*
X46670000Y-139430000D03*
X68920000Y-153880000D03*
X106407000Y-202600000D03*
X133750000Y-141088572D03*
X106432000Y-205625000D03*
X75365000Y-190030000D03*
X151360000Y-183032856D03*
X72415000Y-188830000D03*
X124034413Y-239860000D03*
X95410000Y-194600000D03*
X51920000Y-204050000D03*
X66184122Y-202325878D03*
X69440000Y-190455000D03*
X105070000Y-160960000D03*
X144070000Y-164030000D03*
X107432000Y-188625000D03*
X133750000Y-125648572D03*
X105320000Y-154840000D03*
X99432000Y-191625000D03*
X110241768Y-239860000D03*
X98432000Y-188600000D03*
X140585587Y-239860000D03*
X131058568Y-120810000D03*
X52460000Y-197860000D03*
X85415007Y-239860000D03*
X133750000Y-122957140D03*
X151360000Y-175528572D03*
X52900000Y-193730000D03*
X72950000Y-141640000D03*
X99407000Y-201600000D03*
X77139420Y-239860000D03*
X98070000Y-164730000D03*
X126650000Y-153210000D03*
X96290000Y-159530000D03*
X88490500Y-196085522D03*
X73639998Y-167850000D03*
X107419500Y-208612500D03*
X144070000Y-162530000D03*
X98407000Y-194600000D03*
X46540000Y-164160000D03*
X43627220Y-228318580D03*
X114910000Y-120810000D03*
X94500000Y-168040000D03*
X91432000Y-191600000D03*
X133770000Y-133528572D03*
X109382000Y-202575000D03*
X136250000Y-167950000D03*
X133770000Y-130837140D03*
X132060000Y-233810000D03*
X125340000Y-207070000D03*
X102430000Y-199583388D03*
X65690000Y-120740000D03*
X110830000Y-182220000D03*
X100457000Y-207650000D03*
X105330000Y-156450000D03*
X133790000Y-153560000D03*
X60290000Y-120740000D03*
X104724710Y-239860000D03*
X126090000Y-141860000D03*
X63760000Y-147890000D03*
X100432000Y-188625000D03*
X116990000Y-160730000D03*
X93680000Y-174410000D03*
X137330000Y-195840000D03*
X137827058Y-239860000D03*
X46490000Y-180860000D03*
X107444000Y-198611000D03*
X136150000Y-199190000D03*
X99870000Y-175870000D03*
X74380891Y-239860000D03*
X64090000Y-157070000D03*
X133770000Y-136220000D03*
X151300000Y-153560000D03*
X136160000Y-236720000D03*
X133750000Y-231540000D03*
X52160000Y-120740000D03*
X115960000Y-184530000D03*
X62040000Y-164590000D03*
X52312659Y-239860000D03*
X139970000Y-166270000D03*
X133910000Y-200020000D03*
X147220000Y-229230000D03*
X142950000Y-220100000D03*
X104380000Y-186680000D03*
X55071188Y-239860000D03*
X46500000Y-183390000D03*
X98457000Y-198575000D03*
X128367140Y-120810000D03*
X151340000Y-173480000D03*
X147130000Y-223040000D03*
X69490000Y-196830000D03*
X96420000Y-206590000D03*
X129551471Y-239860000D03*
X74760000Y-131930000D03*
X90932065Y-239860000D03*
X76400000Y-120740000D03*
X96420000Y-196560000D03*
X93080000Y-183530000D03*
X90390000Y-197605000D03*
X137200000Y-166250000D03*
X123220000Y-142370000D03*
X124136100Y-199520000D03*
X46390000Y-205450000D03*
X122680000Y-231290000D03*
X60860000Y-193290000D03*
X138500000Y-162670000D03*
X46360000Y-208320000D03*
X98382000Y-199625000D03*
X64079904Y-164357712D03*
X151340000Y-170978572D03*
X46710000Y-130940000D03*
X133750000Y-138397140D03*
X122780000Y-157699000D03*
X46570000Y-152970000D03*
X151340000Y-155970000D03*
X141294284Y-153560000D03*
X146297140Y-153560000D03*
X124350000Y-203210000D03*
X73829500Y-196829500D03*
X144060000Y-170030000D03*
X138792856Y-153560000D03*
X46380000Y-202920000D03*
X55750000Y-141690000D03*
X103382000Y-193625000D03*
X80310000Y-139100000D03*
X64920000Y-141610000D03*
X94540000Y-165510000D03*
X143344116Y-239860000D03*
X91407000Y-187550000D03*
X46530000Y-172090000D03*
X97350000Y-211850000D03*
X57070000Y-202970000D03*
X92670000Y-217180000D03*
X137880000Y-213448000D03*
X123830000Y-231120000D03*
X103070000Y-150520000D03*
X131130000Y-224360000D03*
X69490000Y-200055000D03*
X62010000Y-146930000D03*
X151340000Y-160972860D03*
X132360000Y-208830000D03*
X82656478Y-239860000D03*
X46460000Y-188990000D03*
X55030000Y-120740000D03*
X122880000Y-167970000D03*
X60588246Y-239860000D03*
X101370000Y-189590000D03*
X102650000Y-186340000D03*
X93407000Y-196600000D03*
X148798568Y-153560000D03*
X96340000Y-162320000D03*
X46600000Y-150100000D03*
X104420000Y-171980000D03*
X90390000Y-192590000D03*
X126792942Y-239860000D03*
X65930000Y-150890000D03*
X69860000Y-142730000D03*
X96407000Y-202600000D03*
X58420000Y-202930000D03*
X71000000Y-120740000D03*
X136040000Y-162660000D03*
X92770000Y-129900000D03*
X76165000Y-194030000D03*
X46430000Y-191860000D03*
X90540000Y-169096097D03*
X92720000Y-140860000D03*
X74490000Y-165830002D03*
X100407000Y-202600000D03*
X71622362Y-239860000D03*
X111394500Y-187612500D03*
X53860000Y-168230000D03*
X81820000Y-120740000D03*
X123820233Y-235131734D03*
X97072400Y-219550500D03*
X57420000Y-120740000D03*
X70565000Y-194030000D03*
X95407000Y-199600000D03*
X84350000Y-120740000D03*
X83180000Y-134290000D03*
X151340000Y-168477144D03*
X101382000Y-193625000D03*
X62920000Y-140870000D03*
X46520000Y-169560000D03*
X103407000Y-206600000D03*
X63996200Y-160810000D03*
X69490000Y-188830000D03*
X115758826Y-239860000D03*
X151360000Y-178030000D03*
X114090000Y-202690000D03*
X101230000Y-162290000D03*
X133770000Y-148648572D03*
X63346775Y-239860000D03*
X53890000Y-164350000D03*
X100407000Y-196625000D03*
X112810000Y-159250000D03*
X113000297Y-239860000D03*
X91432000Y-188590000D03*
X109720000Y-150540000D03*
X69490000Y-192830000D03*
X69990000Y-138120000D03*
X77240000Y-188030000D03*
X115630000Y-159140000D03*
X56140000Y-151240000D03*
X59890000Y-200650000D03*
X93110000Y-179300000D03*
X46440000Y-194390000D03*
X133800000Y-223690000D03*
X99394000Y-199586000D03*
X144020000Y-167030000D03*
X79897949Y-239860000D03*
X46470000Y-186260000D03*
X99432000Y-194625000D03*
X107030000Y-150310000D03*
X117710000Y-153629000D03*
X108960000Y-160600000D03*
X112090000Y-213660000D03*
X89830000Y-120740000D03*
X69950000Y-135910000D03*
X121275884Y-239860000D03*
X93430000Y-191590000D03*
X61500000Y-200640000D03*
X138070000Y-235550000D03*
X75750500Y-201725521D03*
X97407000Y-196600000D03*
X92432000Y-190625000D03*
X100840000Y-158540000D03*
X118440000Y-151709000D03*
X109408500Y-194601500D03*
X92407000Y-203600000D03*
X46410000Y-197260000D03*
X46740000Y-128070000D03*
X131450000Y-181940000D03*
X69950000Y-140450000D03*
X73980000Y-133110000D03*
X130520000Y-204290000D03*
X151340000Y-163474288D03*
X117601428Y-120810000D03*
X133750000Y-120810000D03*
X120240000Y-219870000D03*
X128630000Y-200230000D03*
X121370000Y-230090000D03*
X128690000Y-155529000D03*
X108810000Y-186559500D03*
X122190000Y-220360000D03*
X128060000Y-230660000D03*
X101382000Y-196625000D03*
X99400000Y-202580000D03*
X98432500Y-196632500D03*
X127370000Y-191120000D03*
X117700000Y-156919000D03*
X100407000Y-195575000D03*
X101361921Y-188633502D03*
X120730000Y-156959000D03*
X129520000Y-230680000D03*
X100419500Y-198612500D03*
X123030000Y-155729000D03*
X100432000Y-191600000D03*
X132080000Y-200990000D03*
X78760000Y-165680000D03*
X90450000Y-143860000D03*
X58690000Y-163800000D03*
X69410000Y-160860000D03*
D28*
X49000000Y-140660000D03*
D27*
X69450000Y-157130000D03*
X79030000Y-163510000D03*
X122930000Y-151719000D03*
X123190000Y-141380000D03*
X123450000Y-152699000D03*
X69450000Y-164360000D03*
X122840000Y-139620000D03*
X135500000Y-171370000D03*
D28*
X48980000Y-138700000D03*
D27*
X53130000Y-153680000D03*
X76920000Y-163480000D03*
X77980000Y-130410000D03*
X89580000Y-164910000D03*
X57100000Y-162820000D03*
X79950000Y-166270000D03*
X90000000Y-154170000D03*
D28*
X48960000Y-142470000D03*
D27*
X92875000Y-133315000D03*
X58440000Y-150970000D03*
X88950000Y-147420000D03*
X119050000Y-192280000D03*
X111270000Y-219580000D03*
X121850000Y-231200000D03*
X121420000Y-176990000D03*
X137070000Y-168570000D03*
X114120000Y-182270000D03*
X136570000Y-170650000D03*
X103432000Y-201600000D03*
X111280000Y-211020000D03*
X102610000Y-175050000D03*
X106920000Y-172130000D03*
X116340000Y-175890000D03*
X131870000Y-186230000D03*
X106432000Y-191575000D03*
X119400000Y-160730000D03*
X146040000Y-220120000D03*
X103970000Y-174980000D03*
X107166847Y-175888173D03*
X136220000Y-220750000D03*
X131460000Y-178610000D03*
X121290000Y-163740000D03*
X108770000Y-175520000D03*
X102407000Y-206600000D03*
X96725000Y-149790000D03*
X109407000Y-207600000D03*
X119110000Y-189950000D03*
X109432000Y-199625000D03*
X114690000Y-198380000D03*
X121040000Y-225870000D03*
X106394500Y-208587500D03*
X91350000Y-124590000D03*
X102750000Y-165290000D03*
X105330000Y-214590000D03*
X116150000Y-204430000D03*
X101407000Y-192600000D03*
X94890000Y-166410000D03*
X127020000Y-233760000D03*
X137100000Y-230490000D03*
X126510500Y-192160000D03*
X43470000Y-216919080D03*
X113880000Y-172150000D03*
X103369500Y-199587500D03*
X105407000Y-197600000D03*
X106388500Y-187601500D03*
X132580000Y-177660000D03*
X139230000Y-231380000D03*
X97460000Y-215380000D03*
X98432000Y-206625000D03*
X111710000Y-198320000D03*
X101407000Y-203600000D03*
X113810000Y-149780000D03*
X108407000Y-194600000D03*
X137130000Y-171540000D03*
X125490000Y-198540000D03*
X76980000Y-208860000D03*
X84990000Y-136540000D03*
X108407000Y-204600000D03*
X110432000Y-192625000D03*
X109432000Y-190600000D03*
X111760000Y-170550000D03*
X128020000Y-219270000D03*
X109382000Y-197575000D03*
X118700000Y-200410000D03*
X43440000Y-218090000D03*
X103400000Y-188560000D03*
X118420000Y-184800000D03*
X49950000Y-200220000D03*
X110432000Y-202625000D03*
X74000000Y-136590000D03*
X86440000Y-215230000D03*
X105382000Y-205575000D03*
X99800000Y-167990000D03*
X105407000Y-195575000D03*
X89000000Y-137380000D03*
X127080000Y-235140000D03*
X89070000Y-211730000D03*
X88730000Y-156710000D03*
X127070000Y-232440000D03*
X76990000Y-137160000D03*
X136230000Y-223080000D03*
X106432000Y-201575000D03*
X102883485Y-210012077D03*
X103432000Y-192575000D03*
X127100000Y-231120000D03*
X100570000Y-174970000D03*
X133580000Y-200990000D03*
X134230000Y-195830000D03*
X116350000Y-181350000D03*
X49640000Y-196790000D03*
X44200000Y-210760000D03*
X46030000Y-222110000D03*
X47220000Y-210810000D03*
X60500000Y-137890000D03*
X55850000Y-153680000D03*
X68620000Y-148660000D03*
X70160000Y-148930000D03*
X95407000Y-204600000D03*
X62800000Y-169370000D03*
X91407000Y-192600000D03*
X92920000Y-218440000D03*
X94382000Y-202575000D03*
X69465000Y-189630000D03*
X69527500Y-197630000D03*
X94432000Y-194625000D03*
X77215000Y-197630000D03*
X69490000Y-192030000D03*
X53870000Y-171700000D03*
X76165000Y-194830000D03*
X91407000Y-203600000D03*
X75765000Y-187280000D03*
X91407000Y-195600000D03*
X92407000Y-198600000D03*
X78650000Y-198070500D03*
X70565000Y-193230000D03*
X56870000Y-171670000D03*
X89440000Y-189630000D03*
X91407000Y-206600000D03*
X55690000Y-202860000D03*
X69490000Y-199230000D03*
X70565000Y-194830000D03*
X77310000Y-193580000D03*
X92420000Y-209610000D03*
X89390000Y-200580000D03*
X96350000Y-207640000D03*
X61470000Y-197240000D03*
X69490000Y-188030000D03*
X78194479Y-191229500D03*
X64880000Y-170650000D03*
X100075715Y-186239500D03*
X102720000Y-167280000D03*
X109710000Y-169270000D03*
X100350000Y-157880000D03*
X100740000Y-165240000D03*
X98030000Y-163530000D03*
X116250000Y-167200000D03*
X126920000Y-145030000D03*
X102380000Y-160170000D03*
X126740000Y-143640000D03*
X117710000Y-145510000D03*
X101820000Y-171780000D03*
X106950000Y-169840000D03*
X120710000Y-146220000D03*
X100200000Y-171190000D03*
X93400000Y-189610000D03*
X95407000Y-188600000D03*
X97420000Y-163270000D03*
X99432000Y-188625000D03*
X54930000Y-195180000D03*
X69490000Y-193605000D03*
X77480000Y-196450000D03*
X62490000Y-196600000D03*
X62490000Y-199060000D03*
X62490000Y-198190000D03*
X62490000Y-197390000D03*
X92130000Y-183200000D03*
X92432000Y-188625000D03*
X92120000Y-179720000D03*
X49449732Y-224401092D03*
X91340000Y-183190000D03*
X92502000Y-187610000D03*
X91330000Y-179740000D03*
X49944708Y-224896068D03*
X110080000Y-167760000D03*
X117530000Y-165970000D03*
X106990000Y-147120000D03*
X103100000Y-147150000D03*
X108710000Y-163670000D03*
X101600000Y-163740000D03*
X103910853Y-163238917D03*
X106420000Y-163190609D03*
X116370000Y-175040000D03*
X102407000Y-188600000D03*
X104407000Y-188625000D03*
X116390000Y-177600000D03*
X105407000Y-187600000D03*
X116300000Y-182700000D03*
X116320000Y-184020000D03*
X105382000Y-188625000D03*
X102407000Y-189625000D03*
X133710000Y-183940000D03*
X133910000Y-176370000D03*
X104382000Y-187600000D03*
X44137220Y-209318580D03*
X107280000Y-215780000D03*
X102394500Y-202587500D03*
X55960000Y-212850000D03*
X132300000Y-216600000D03*
X131000000Y-216120000D03*
X102419500Y-204612500D03*
X102860000Y-218890000D03*
X55770000Y-219190000D03*
X129720000Y-215910000D03*
X53597220Y-214888580D03*
X97570000Y-214350000D03*
X101420500Y-202593139D03*
X53047220Y-217668580D03*
X102407000Y-193600000D03*
X102870000Y-215030000D03*
X48022386Y-223003414D03*
X94432000Y-192625000D03*
X95407000Y-192600000D03*
X47492054Y-223533746D03*
X96407000Y-188600000D03*
X48137220Y-220958580D03*
X47437220Y-220958580D03*
X97407000Y-188600000D03*
X133580000Y-216570000D03*
X53597220Y-216308580D03*
X101407000Y-205600000D03*
X102840000Y-211330000D03*
X107845269Y-162755984D03*
X105603285Y-161696560D03*
X107364435Y-162275150D03*
X106084119Y-162177394D03*
X97420000Y-164240000D03*
X95570000Y-161060000D03*
X110790000Y-149150000D03*
X115090000Y-147450000D03*
X110910000Y-129730000D03*
X104090487Y-162284697D03*
X104571321Y-161803863D03*
X102867295Y-162446461D03*
X102386461Y-162927295D03*
X119060000Y-203480000D03*
X134960000Y-161980000D03*
X102382000Y-194600000D03*
X121990000Y-199340000D03*
X130587967Y-167719859D03*
X107432000Y-195600000D03*
X108357000Y-195550000D03*
X130587967Y-168419859D03*
X121990000Y-198640000D03*
X127300000Y-180370000D03*
X140540000Y-168020000D03*
X105407000Y-196600000D03*
X140510000Y-169040000D03*
X127630000Y-172650000D03*
X106369500Y-193637500D03*
X140460000Y-170150000D03*
X128400000Y-173320000D03*
X107369500Y-193637500D03*
X105382000Y-207575000D03*
X102590000Y-232300000D03*
X102560000Y-233480000D03*
X103310000Y-229200000D03*
X101930000Y-233020000D03*
X100280000Y-231390000D03*
X102382000Y-207575000D03*
X103320000Y-228060000D03*
X96449123Y-239860000D03*
X99207652Y-239860000D03*
X93690594Y-239860000D03*
X103407000Y-205603000D03*
X103382000Y-207575000D03*
X102980000Y-230070000D03*
X101130000Y-231200000D03*
X98340000Y-229710000D03*
X98550000Y-230400000D03*
X100800000Y-229670000D03*
X101421000Y-194586000D03*
X134950000Y-162680000D03*
X119760000Y-203480000D03*
X122631799Y-201041467D03*
X133954834Y-163694834D03*
X104382000Y-193625000D03*
X104407000Y-194600000D03*
X134485166Y-164225166D03*
X122101467Y-201571799D03*
X92230000Y-144840000D03*
X123650000Y-151750000D03*
X92650000Y-152180000D03*
X92690000Y-154160000D03*
X123230000Y-140450000D03*
X60490000Y-162790000D03*
X90030000Y-133310000D03*
X116550000Y-213630000D03*
X101390000Y-214280000D03*
X115010000Y-219130000D03*
X99432000Y-193625000D03*
X112760000Y-204360000D03*
X81380000Y-166220000D03*
X52280000Y-143650000D03*
X56560000Y-147180000D03*
X126400000Y-151700000D03*
X126360000Y-140420000D03*
X62130000Y-163620000D03*
X53510000Y-138720000D03*
X82910000Y-132920000D03*
X72440000Y-197630000D03*
X95420000Y-197560000D03*
X90415000Y-200605000D03*
X74315000Y-198455000D03*
X93407000Y-198600000D03*
X72440000Y-198430000D03*
X71365000Y-198030000D03*
X94407000Y-199600000D03*
X90407000Y-201600000D03*
X76165000Y-198830000D03*
X95440000Y-196577000D03*
X71365000Y-198830000D03*
X76165000Y-199630000D03*
X92395000Y-199580000D03*
X71365000Y-199630000D03*
X89250000Y-202590000D03*
X94440000Y-200605000D03*
X75040000Y-200760000D03*
X72415000Y-199255000D03*
X94430000Y-198600000D03*
X74315000Y-196030000D03*
X93394500Y-197587500D03*
X89394500Y-201612500D03*
X74315000Y-199230000D03*
X74440000Y-197630500D03*
X89407000Y-199575000D03*
X71290000Y-200520000D03*
X90407000Y-198600000D03*
X74315000Y-200005000D03*
X94432000Y-201600000D03*
X71365000Y-197230000D03*
X94419500Y-195587500D03*
X91415000Y-200555000D03*
X76140000Y-198005000D03*
X91420000Y-198590000D03*
X72440000Y-196830000D03*
X91432000Y-197625000D03*
X77020000Y-194850000D03*
X70360000Y-200650000D03*
X93382500Y-192605000D03*
X71365000Y-196430000D03*
X72390000Y-194430000D03*
X89394500Y-197587500D03*
X72390000Y-195230000D03*
X92432000Y-197600000D03*
X92432000Y-195600000D03*
X72415000Y-196030000D03*
X69540000Y-195230000D03*
X92407000Y-196625000D03*
X108407000Y-189600000D03*
X110610000Y-169050000D03*
X108394500Y-191612500D03*
X107990000Y-173110000D03*
X103382000Y-191625000D03*
X101910000Y-184290000D03*
X107382000Y-192600000D03*
X113920000Y-171160000D03*
X104394500Y-190637500D03*
X104790000Y-173130000D03*
X96432000Y-192625000D03*
X103369500Y-190637500D03*
X103250000Y-173130000D03*
X105394500Y-190612500D03*
X101400000Y-173130000D03*
X105394500Y-191612500D03*
X99160000Y-173150000D03*
X109560000Y-173100000D03*
X106394500Y-189612500D03*
X133930000Y-175050000D03*
X101407000Y-197600000D03*
X105408500Y-189598500D03*
X100400000Y-200590000D03*
X86440000Y-211550000D03*
X88820000Y-207160000D03*
X96407000Y-204600000D03*
X116580000Y-223750000D03*
X107382000Y-194625000D03*
X106382000Y-194650000D03*
X116470000Y-225220000D03*
X119740000Y-232450000D03*
X104382000Y-195625000D03*
X103446000Y-194614000D03*
X111220000Y-229430000D03*
X74360000Y-192030000D03*
X93432000Y-195600000D03*
X91419500Y-193587500D03*
X72415000Y-191230000D03*
X93440000Y-200605000D03*
X74293434Y-194480000D03*
X74293434Y-195180000D03*
X93440000Y-201575500D03*
X74315000Y-193630000D03*
X91419500Y-194612500D03*
X92444500Y-194637500D03*
X70590000Y-192455000D03*
X75370000Y-189230000D03*
X92400000Y-191590000D03*
X89394500Y-193587500D03*
X74315000Y-190430000D03*
X90394500Y-194587500D03*
X74381811Y-191230000D03*
X72440000Y-190430000D03*
X89419500Y-192587500D03*
X89419500Y-195587500D03*
X76160000Y-192420000D03*
X92419500Y-193587500D03*
X70565000Y-191630000D03*
X89394500Y-196587500D03*
X76165000Y-193230000D03*
X72390000Y-193630500D03*
X93432000Y-194625000D03*
X92432000Y-192625000D03*
X70965000Y-187405000D03*
X74940000Y-187280000D03*
X90407000Y-188575000D03*
X74152875Y-188880000D03*
X88557000Y-191200000D03*
X88557000Y-192000000D03*
X74152875Y-189580000D03*
X70570000Y-189230000D03*
X90394500Y-190562500D03*
X89365000Y-188555000D03*
X72390000Y-189630000D03*
X89394500Y-187587500D03*
X72415000Y-188030000D03*
X76170000Y-189230000D03*
X90426000Y-191591000D03*
X120112512Y-200562512D03*
X132215194Y-165717338D03*
X103407000Y-195600000D03*
X132215194Y-166417338D03*
X102432000Y-195575000D03*
X120607488Y-201057488D03*
X102394500Y-191637500D03*
X99670000Y-172470000D03*
X102382000Y-192625000D03*
X97432000Y-204575000D03*
X87930000Y-208050000D03*
X102407000Y-190600000D03*
X98995000Y-169785000D03*
X103120000Y-169700000D03*
X103410000Y-189600000D03*
X98432000Y-204575000D03*
X99407000Y-204600000D03*
X104432000Y-192625000D03*
X99190000Y-171220000D03*
X129760000Y-192650000D03*
X106382000Y-190625000D03*
X99190000Y-170480000D03*
X105407000Y-192600000D03*
X86890000Y-217540000D03*
X81290000Y-132210000D03*
X92900000Y-164930000D03*
X126880000Y-195480000D03*
X111407000Y-189600000D03*
X107407000Y-189625000D03*
X104810000Y-169790000D03*
X119290000Y-169800000D03*
X107394500Y-191612500D03*
X126290000Y-196000000D03*
X109407000Y-189600000D03*
X107432000Y-190625000D03*
X108630000Y-172020000D03*
X108407000Y-190600000D03*
X126870000Y-196470000D03*
X99432000Y-206600000D03*
D28*
X97240000Y-212930000D03*
D27*
X110407000Y-188625000D03*
X126300000Y-194970000D03*
X126910000Y-194460000D03*
X111407000Y-188600000D03*
X109407000Y-193600000D03*
X126300000Y-197970000D03*
X108382000Y-192600000D03*
X126870000Y-197480000D03*
X111432000Y-191600000D03*
X126270000Y-196980000D03*
X109432000Y-188600000D03*
X130260000Y-192130000D03*
X130750000Y-192650000D03*
X109432000Y-187575000D03*
X108407000Y-187575000D03*
X131260000Y-192160000D03*
X107407000Y-187575000D03*
X132270000Y-192490000D03*
X72421858Y-192780000D03*
X90419500Y-196612500D03*
X91407000Y-196575000D03*
X72421858Y-192080000D03*
X73790000Y-197430000D03*
D29*
X152700000Y-235280000D02*
X152630000Y-204100000D01*
X96204000Y-119620000D02*
X45860000Y-119590000D01*
X45540000Y-228990000D02*
X50225000Y-228990000D01*
X135440000Y-119660000D02*
X135410000Y-152050000D01*
X135440000Y-119660000D02*
X113624000Y-119620000D01*
X50225000Y-228990000D02*
X50225000Y-240910000D01*
X45540000Y-208690000D02*
X45400000Y-119590000D01*
X154470000Y-186520000D02*
X152470000Y-184520000D01*
X152700000Y-235280000D02*
X148580000Y-240850000D01*
X135410000Y-152050000D02*
X152350000Y-152040000D01*
X152630000Y-204100000D02*
X154470000Y-201520000D01*
X148580000Y-240850000D02*
X50225000Y-240910000D01*
X45400000Y-119590000D02*
X45860000Y-119590000D01*
X152470000Y-184520000D02*
X152450000Y-152170000D01*
X152450000Y-152040000D02*
X152450000Y-152170000D01*
X152350000Y-152040000D02*
X152450000Y-152040000D01*
X154470000Y-201520000D02*
X154470000Y-186520000D01*
D30*
X113624000Y-119620000D02*
X113624000Y-122410000D01*
X112634000Y-123400000D02*
X109994000Y-123400000D01*
X109994000Y-123400000D02*
X109994000Y-138410000D01*
X109004000Y-139400000D02*
X100824000Y-139400000D01*
X99834000Y-138410000D02*
X99834000Y-123400000D01*
X99834000Y-123400000D02*
X97194000Y-123400000D01*
X96204000Y-122410000D02*
X96204000Y-119620000D01*
X112634000Y-123400000D02*
G75*
G03*
X113624000Y-122410000I1J989999D01*
G01*
X109004000Y-139400000D02*
G75*
G03*
X109994000Y-138410000I1J989999D01*
G01*
X99834000Y-138410000D02*
G75*
G03*
X100824000Y-139400000I990000J0D01*
G01*
X96204000Y-122410000D02*
G75*
G03*
X97194000Y-123400000I990000J0D01*
G01*
D29*
X45540000Y-208690000D02*
X37640000Y-208690000D01*
X37640000Y-208690000D02*
X37140000Y-209190000D01*
X37140000Y-209190000D02*
X37140000Y-219390000D01*
X44590000Y-219890000D02*
X37640000Y-219890000D01*
X37640000Y-219890000D02*
X37140000Y-219390000D01*
X44590000Y-221790000D02*
X37640000Y-221790000D01*
X37640000Y-221790000D02*
X37140000Y-222290000D01*
X37140000Y-222290000D02*
X37140000Y-228490000D01*
X45540000Y-228990000D02*
X37640000Y-228990000D01*
X37640000Y-228990000D02*
X37140000Y-228490000D01*
X44590000Y-221790000D02*
G75*
G03*
X44590000Y-219890000I0J950000D01*
G01*
M02*
