%TF.GenerationSoftware,KiCad,Pcbnew,(7.0.0)*%
%TF.CreationDate,2024-09-25T23:02:12+02:00*%
%TF.ProjectId,FPGA_dev_board,46504741-5f64-4657-965f-626f6172642e,rev?*%
%TF.SameCoordinates,Original*%
%TF.FileFunction,Drillmap*%
%TF.FilePolarity,Positive*%
%FSLAX45Y45*%
G04 Gerber Fmt 4.5, Leading zero omitted, Abs format (unit mm)*
G04 Created by KiCad (PCBNEW (7.0.0)) date 2024-09-25 23:02:12*
%MOMM*%
%LPD*%
G01*
G04 APERTURE LIST*
%ADD10C,0.100000*%
%ADD11C,0.200000*%
%ADD12C,0.231000*%
G04 APERTURE END LIST*
D10*
X15270000Y-23528000D02*
X15263000Y-20410000D01*
X9620400Y-11962000D02*
X4586000Y-11959000D01*
X4554000Y-22899000D02*
X5022500Y-22899000D01*
X13544000Y-11966000D02*
X13541000Y-15205000D01*
X13544000Y-11966000D02*
X11362400Y-11962000D01*
X5022500Y-22899000D02*
X5022500Y-24091000D01*
X4554000Y-20869000D02*
X4540000Y-11959000D01*
X15447000Y-18652000D02*
X15247000Y-18452000D01*
X15270000Y-23528000D02*
X14858000Y-24085000D01*
X13541000Y-15205000D02*
X15235000Y-15204000D01*
X15263000Y-20410000D02*
X15447000Y-20152000D01*
X14858000Y-24085000D02*
X5022500Y-24091000D01*
X4540000Y-11959000D02*
X4586000Y-11959000D01*
X15247000Y-18452000D02*
X15245000Y-15217000D01*
X15245000Y-15204000D02*
X15245000Y-15217000D01*
X15235000Y-15204000D02*
X15245000Y-15204000D01*
X15447000Y-20152000D02*
X15447000Y-18652000D01*
D11*
D12*
X9560400Y-12935700D02*
X9791400Y-13166700D01*
X9791400Y-12935700D02*
X9560400Y-13166700D01*
X9560400Y-13697500D02*
X9791400Y-13928500D01*
X9791400Y-13697500D02*
X9560400Y-13928500D01*
X11191400Y-13177500D02*
X11422400Y-13408500D01*
X11422400Y-13177500D02*
X11191400Y-13408500D01*
X11191400Y-13939500D02*
X11422400Y-14170500D01*
X11422400Y-13939500D02*
X11191400Y-14170500D01*
D11*
X3956619Y-24389476D02*
X3956619Y-24189476D01*
X3956619Y-24189476D02*
X4004238Y-24189476D01*
X4004238Y-24189476D02*
X4032809Y-24199000D01*
X4032809Y-24199000D02*
X4051857Y-24218048D01*
X4051857Y-24218048D02*
X4061381Y-24237095D01*
X4061381Y-24237095D02*
X4070905Y-24275190D01*
X4070905Y-24275190D02*
X4070905Y-24303762D01*
X4070905Y-24303762D02*
X4061381Y-24341857D01*
X4061381Y-24341857D02*
X4051857Y-24360905D01*
X4051857Y-24360905D02*
X4032809Y-24379952D01*
X4032809Y-24379952D02*
X4004238Y-24389476D01*
X4004238Y-24389476D02*
X3956619Y-24389476D01*
X4156619Y-24389476D02*
X4156619Y-24256143D01*
X4156619Y-24294238D02*
X4166143Y-24275190D01*
X4166143Y-24275190D02*
X4175667Y-24265667D01*
X4175667Y-24265667D02*
X4194714Y-24256143D01*
X4194714Y-24256143D02*
X4213762Y-24256143D01*
X4280429Y-24389476D02*
X4280429Y-24256143D01*
X4280429Y-24189476D02*
X4270905Y-24199000D01*
X4270905Y-24199000D02*
X4280429Y-24208524D01*
X4280429Y-24208524D02*
X4289952Y-24199000D01*
X4289952Y-24199000D02*
X4280429Y-24189476D01*
X4280429Y-24189476D02*
X4280429Y-24208524D01*
X4404238Y-24389476D02*
X4385190Y-24379952D01*
X4385190Y-24379952D02*
X4375667Y-24360905D01*
X4375667Y-24360905D02*
X4375667Y-24189476D01*
X4509000Y-24389476D02*
X4489952Y-24379952D01*
X4489952Y-24379952D02*
X4480429Y-24360905D01*
X4480429Y-24360905D02*
X4480429Y-24189476D01*
X4705190Y-24389476D02*
X4705190Y-24189476D01*
X4705190Y-24189476D02*
X4771857Y-24332333D01*
X4771857Y-24332333D02*
X4838524Y-24189476D01*
X4838524Y-24189476D02*
X4838524Y-24389476D01*
X5019476Y-24389476D02*
X5019476Y-24284714D01*
X5019476Y-24284714D02*
X5009952Y-24265667D01*
X5009952Y-24265667D02*
X4990905Y-24256143D01*
X4990905Y-24256143D02*
X4952809Y-24256143D01*
X4952809Y-24256143D02*
X4933762Y-24265667D01*
X5019476Y-24379952D02*
X5000429Y-24389476D01*
X5000429Y-24389476D02*
X4952809Y-24389476D01*
X4952809Y-24389476D02*
X4933762Y-24379952D01*
X4933762Y-24379952D02*
X4924238Y-24360905D01*
X4924238Y-24360905D02*
X4924238Y-24341857D01*
X4924238Y-24341857D02*
X4933762Y-24322809D01*
X4933762Y-24322809D02*
X4952809Y-24313286D01*
X4952809Y-24313286D02*
X5000429Y-24313286D01*
X5000429Y-24313286D02*
X5019476Y-24303762D01*
X5114714Y-24256143D02*
X5114714Y-24456143D01*
X5114714Y-24265667D02*
X5133762Y-24256143D01*
X5133762Y-24256143D02*
X5171857Y-24256143D01*
X5171857Y-24256143D02*
X5190905Y-24265667D01*
X5190905Y-24265667D02*
X5200429Y-24275190D01*
X5200429Y-24275190D02*
X5209952Y-24294238D01*
X5209952Y-24294238D02*
X5209952Y-24351381D01*
X5209952Y-24351381D02*
X5200429Y-24370428D01*
X5200429Y-24370428D02*
X5190905Y-24379952D01*
X5190905Y-24379952D02*
X5171857Y-24389476D01*
X5171857Y-24389476D02*
X5133762Y-24389476D01*
X5133762Y-24389476D02*
X5114714Y-24379952D01*
X5295667Y-24370428D02*
X5305190Y-24379952D01*
X5305190Y-24379952D02*
X5295667Y-24389476D01*
X5295667Y-24389476D02*
X5286143Y-24379952D01*
X5286143Y-24379952D02*
X5295667Y-24370428D01*
X5295667Y-24370428D02*
X5295667Y-24389476D01*
X5295667Y-24265667D02*
X5305190Y-24275190D01*
X5305190Y-24275190D02*
X5295667Y-24284714D01*
X5295667Y-24284714D02*
X5286143Y-24275190D01*
X5286143Y-24275190D02*
X5295667Y-24265667D01*
X5295667Y-24265667D02*
X5295667Y-24284714D01*
X3509000Y-24636000D02*
X3709000Y-24836000D01*
X3709000Y-24636000D02*
X3509000Y-24836000D01*
X3947095Y-24628524D02*
X3956619Y-24619000D01*
X3956619Y-24619000D02*
X3975667Y-24609476D01*
X3975667Y-24609476D02*
X4023286Y-24609476D01*
X4023286Y-24609476D02*
X4042333Y-24619000D01*
X4042333Y-24619000D02*
X4051857Y-24628524D01*
X4051857Y-24628524D02*
X4061381Y-24647571D01*
X4061381Y-24647571D02*
X4061381Y-24666619D01*
X4061381Y-24666619D02*
X4051857Y-24695190D01*
X4051857Y-24695190D02*
X3937571Y-24809476D01*
X3937571Y-24809476D02*
X4061381Y-24809476D01*
X4147095Y-24790428D02*
X4156619Y-24799952D01*
X4156619Y-24799952D02*
X4147095Y-24809476D01*
X4147095Y-24809476D02*
X4137571Y-24799952D01*
X4137571Y-24799952D02*
X4147095Y-24790428D01*
X4147095Y-24790428D02*
X4147095Y-24809476D01*
X4223286Y-24609476D02*
X4347095Y-24609476D01*
X4347095Y-24609476D02*
X4280429Y-24685667D01*
X4280429Y-24685667D02*
X4309000Y-24685667D01*
X4309000Y-24685667D02*
X4328048Y-24695190D01*
X4328048Y-24695190D02*
X4337571Y-24704714D01*
X4337571Y-24704714D02*
X4347095Y-24723762D01*
X4347095Y-24723762D02*
X4347095Y-24771381D01*
X4347095Y-24771381D02*
X4337571Y-24790428D01*
X4337571Y-24790428D02*
X4328048Y-24799952D01*
X4328048Y-24799952D02*
X4309000Y-24809476D01*
X4309000Y-24809476D02*
X4251857Y-24809476D01*
X4251857Y-24809476D02*
X4232810Y-24799952D01*
X4232810Y-24799952D02*
X4223286Y-24790428D01*
X4537571Y-24809476D02*
X4423286Y-24809476D01*
X4480429Y-24809476D02*
X4480429Y-24609476D01*
X4480429Y-24609476D02*
X4461381Y-24638048D01*
X4461381Y-24638048D02*
X4442333Y-24657095D01*
X4442333Y-24657095D02*
X4423286Y-24666619D01*
X4661381Y-24609476D02*
X4680429Y-24609476D01*
X4680429Y-24609476D02*
X4699476Y-24619000D01*
X4699476Y-24619000D02*
X4709000Y-24628524D01*
X4709000Y-24628524D02*
X4718524Y-24647571D01*
X4718524Y-24647571D02*
X4728048Y-24685667D01*
X4728048Y-24685667D02*
X4728048Y-24733286D01*
X4728048Y-24733286D02*
X4718524Y-24771381D01*
X4718524Y-24771381D02*
X4709000Y-24790428D01*
X4709000Y-24790428D02*
X4699476Y-24799952D01*
X4699476Y-24799952D02*
X4680429Y-24809476D01*
X4680429Y-24809476D02*
X4661381Y-24809476D01*
X4661381Y-24809476D02*
X4642333Y-24799952D01*
X4642333Y-24799952D02*
X4632810Y-24790428D01*
X4632810Y-24790428D02*
X4623286Y-24771381D01*
X4623286Y-24771381D02*
X4613762Y-24733286D01*
X4613762Y-24733286D02*
X4613762Y-24685667D01*
X4613762Y-24685667D02*
X4623286Y-24647571D01*
X4623286Y-24647571D02*
X4632810Y-24628524D01*
X4632810Y-24628524D02*
X4642333Y-24619000D01*
X4642333Y-24619000D02*
X4661381Y-24609476D01*
X4813762Y-24809476D02*
X4813762Y-24676143D01*
X4813762Y-24695190D02*
X4823286Y-24685667D01*
X4823286Y-24685667D02*
X4842333Y-24676143D01*
X4842333Y-24676143D02*
X4870905Y-24676143D01*
X4870905Y-24676143D02*
X4889952Y-24685667D01*
X4889952Y-24685667D02*
X4899476Y-24704714D01*
X4899476Y-24704714D02*
X4899476Y-24809476D01*
X4899476Y-24704714D02*
X4909000Y-24685667D01*
X4909000Y-24685667D02*
X4928048Y-24676143D01*
X4928048Y-24676143D02*
X4956619Y-24676143D01*
X4956619Y-24676143D02*
X4975667Y-24685667D01*
X4975667Y-24685667D02*
X4985191Y-24704714D01*
X4985191Y-24704714D02*
X4985191Y-24809476D01*
X5080429Y-24809476D02*
X5080429Y-24676143D01*
X5080429Y-24695190D02*
X5089952Y-24685667D01*
X5089952Y-24685667D02*
X5109000Y-24676143D01*
X5109000Y-24676143D02*
X5137572Y-24676143D01*
X5137572Y-24676143D02*
X5156619Y-24685667D01*
X5156619Y-24685667D02*
X5166143Y-24704714D01*
X5166143Y-24704714D02*
X5166143Y-24809476D01*
X5166143Y-24704714D02*
X5175667Y-24685667D01*
X5175667Y-24685667D02*
X5194714Y-24676143D01*
X5194714Y-24676143D02*
X5223286Y-24676143D01*
X5223286Y-24676143D02*
X5242333Y-24685667D01*
X5242333Y-24685667D02*
X5251857Y-24704714D01*
X5251857Y-24704714D02*
X5251857Y-24809476D01*
X5609952Y-24599952D02*
X5438524Y-24857095D01*
X5834714Y-24609476D02*
X5853762Y-24609476D01*
X5853762Y-24609476D02*
X5872810Y-24619000D01*
X5872810Y-24619000D02*
X5882333Y-24628524D01*
X5882333Y-24628524D02*
X5891857Y-24647571D01*
X5891857Y-24647571D02*
X5901381Y-24685667D01*
X5901381Y-24685667D02*
X5901381Y-24733286D01*
X5901381Y-24733286D02*
X5891857Y-24771381D01*
X5891857Y-24771381D02*
X5882333Y-24790428D01*
X5882333Y-24790428D02*
X5872810Y-24799952D01*
X5872810Y-24799952D02*
X5853762Y-24809476D01*
X5853762Y-24809476D02*
X5834714Y-24809476D01*
X5834714Y-24809476D02*
X5815667Y-24799952D01*
X5815667Y-24799952D02*
X5806143Y-24790428D01*
X5806143Y-24790428D02*
X5796619Y-24771381D01*
X5796619Y-24771381D02*
X5787095Y-24733286D01*
X5787095Y-24733286D02*
X5787095Y-24685667D01*
X5787095Y-24685667D02*
X5796619Y-24647571D01*
X5796619Y-24647571D02*
X5806143Y-24628524D01*
X5806143Y-24628524D02*
X5815667Y-24619000D01*
X5815667Y-24619000D02*
X5834714Y-24609476D01*
X5987095Y-24790428D02*
X5996619Y-24799952D01*
X5996619Y-24799952D02*
X5987095Y-24809476D01*
X5987095Y-24809476D02*
X5977571Y-24799952D01*
X5977571Y-24799952D02*
X5987095Y-24790428D01*
X5987095Y-24790428D02*
X5987095Y-24809476D01*
X6120429Y-24609476D02*
X6139476Y-24609476D01*
X6139476Y-24609476D02*
X6158524Y-24619000D01*
X6158524Y-24619000D02*
X6168048Y-24628524D01*
X6168048Y-24628524D02*
X6177571Y-24647571D01*
X6177571Y-24647571D02*
X6187095Y-24685667D01*
X6187095Y-24685667D02*
X6187095Y-24733286D01*
X6187095Y-24733286D02*
X6177571Y-24771381D01*
X6177571Y-24771381D02*
X6168048Y-24790428D01*
X6168048Y-24790428D02*
X6158524Y-24799952D01*
X6158524Y-24799952D02*
X6139476Y-24809476D01*
X6139476Y-24809476D02*
X6120429Y-24809476D01*
X6120429Y-24809476D02*
X6101381Y-24799952D01*
X6101381Y-24799952D02*
X6091857Y-24790428D01*
X6091857Y-24790428D02*
X6082333Y-24771381D01*
X6082333Y-24771381D02*
X6072810Y-24733286D01*
X6072810Y-24733286D02*
X6072810Y-24685667D01*
X6072810Y-24685667D02*
X6082333Y-24647571D01*
X6082333Y-24647571D02*
X6091857Y-24628524D01*
X6091857Y-24628524D02*
X6101381Y-24619000D01*
X6101381Y-24619000D02*
X6120429Y-24609476D01*
X6282333Y-24809476D02*
X6320429Y-24809476D01*
X6320429Y-24809476D02*
X6339476Y-24799952D01*
X6339476Y-24799952D02*
X6349000Y-24790428D01*
X6349000Y-24790428D02*
X6368048Y-24761857D01*
X6368048Y-24761857D02*
X6377571Y-24723762D01*
X6377571Y-24723762D02*
X6377571Y-24647571D01*
X6377571Y-24647571D02*
X6368048Y-24628524D01*
X6368048Y-24628524D02*
X6358524Y-24619000D01*
X6358524Y-24619000D02*
X6339476Y-24609476D01*
X6339476Y-24609476D02*
X6301381Y-24609476D01*
X6301381Y-24609476D02*
X6282333Y-24619000D01*
X6282333Y-24619000D02*
X6272810Y-24628524D01*
X6272810Y-24628524D02*
X6263286Y-24647571D01*
X6263286Y-24647571D02*
X6263286Y-24695190D01*
X6263286Y-24695190D02*
X6272810Y-24714238D01*
X6272810Y-24714238D02*
X6282333Y-24723762D01*
X6282333Y-24723762D02*
X6301381Y-24733286D01*
X6301381Y-24733286D02*
X6339476Y-24733286D01*
X6339476Y-24733286D02*
X6358524Y-24723762D01*
X6358524Y-24723762D02*
X6368048Y-24714238D01*
X6368048Y-24714238D02*
X6377571Y-24695190D01*
X6501381Y-24609476D02*
X6520429Y-24609476D01*
X6520429Y-24609476D02*
X6539476Y-24619000D01*
X6539476Y-24619000D02*
X6549000Y-24628524D01*
X6549000Y-24628524D02*
X6558524Y-24647571D01*
X6558524Y-24647571D02*
X6568048Y-24685667D01*
X6568048Y-24685667D02*
X6568048Y-24733286D01*
X6568048Y-24733286D02*
X6558524Y-24771381D01*
X6558524Y-24771381D02*
X6549000Y-24790428D01*
X6549000Y-24790428D02*
X6539476Y-24799952D01*
X6539476Y-24799952D02*
X6520429Y-24809476D01*
X6520429Y-24809476D02*
X6501381Y-24809476D01*
X6501381Y-24809476D02*
X6482333Y-24799952D01*
X6482333Y-24799952D02*
X6472810Y-24790428D01*
X6472810Y-24790428D02*
X6463286Y-24771381D01*
X6463286Y-24771381D02*
X6453762Y-24733286D01*
X6453762Y-24733286D02*
X6453762Y-24685667D01*
X6453762Y-24685667D02*
X6463286Y-24647571D01*
X6463286Y-24647571D02*
X6472810Y-24628524D01*
X6472810Y-24628524D02*
X6482333Y-24619000D01*
X6482333Y-24619000D02*
X6501381Y-24609476D01*
X6663286Y-24809476D02*
X6701381Y-24809476D01*
X6701381Y-24809476D02*
X6720429Y-24799952D01*
X6720429Y-24799952D02*
X6729952Y-24790428D01*
X6729952Y-24790428D02*
X6749000Y-24761857D01*
X6749000Y-24761857D02*
X6758524Y-24723762D01*
X6758524Y-24723762D02*
X6758524Y-24647571D01*
X6758524Y-24647571D02*
X6749000Y-24628524D01*
X6749000Y-24628524D02*
X6739476Y-24619000D01*
X6739476Y-24619000D02*
X6720429Y-24609476D01*
X6720429Y-24609476D02*
X6682333Y-24609476D01*
X6682333Y-24609476D02*
X6663286Y-24619000D01*
X6663286Y-24619000D02*
X6653762Y-24628524D01*
X6653762Y-24628524D02*
X6644238Y-24647571D01*
X6644238Y-24647571D02*
X6644238Y-24695190D01*
X6644238Y-24695190D02*
X6653762Y-24714238D01*
X6653762Y-24714238D02*
X6663286Y-24723762D01*
X6663286Y-24723762D02*
X6682333Y-24733286D01*
X6682333Y-24733286D02*
X6720429Y-24733286D01*
X6720429Y-24733286D02*
X6739476Y-24723762D01*
X6739476Y-24723762D02*
X6749000Y-24714238D01*
X6749000Y-24714238D02*
X6758524Y-24695190D01*
X6834714Y-24609476D02*
X6834714Y-24647571D01*
X6910905Y-24609476D02*
X6910905Y-24647571D01*
X7173762Y-24885667D02*
X7164238Y-24876143D01*
X7164238Y-24876143D02*
X7145191Y-24847571D01*
X7145191Y-24847571D02*
X7135667Y-24828524D01*
X7135667Y-24828524D02*
X7126143Y-24799952D01*
X7126143Y-24799952D02*
X7116619Y-24752333D01*
X7116619Y-24752333D02*
X7116619Y-24714238D01*
X7116619Y-24714238D02*
X7126143Y-24666619D01*
X7126143Y-24666619D02*
X7135667Y-24638048D01*
X7135667Y-24638048D02*
X7145191Y-24619000D01*
X7145191Y-24619000D02*
X7164238Y-24590428D01*
X7164238Y-24590428D02*
X7173762Y-24580905D01*
X7335667Y-24676143D02*
X7335667Y-24809476D01*
X7288048Y-24599952D02*
X7240429Y-24742809D01*
X7240429Y-24742809D02*
X7364238Y-24742809D01*
X7560429Y-24809476D02*
X7560429Y-24609476D01*
X7646143Y-24809476D02*
X7646143Y-24704714D01*
X7646143Y-24704714D02*
X7636619Y-24685667D01*
X7636619Y-24685667D02*
X7617572Y-24676143D01*
X7617572Y-24676143D02*
X7589000Y-24676143D01*
X7589000Y-24676143D02*
X7569952Y-24685667D01*
X7569952Y-24685667D02*
X7560429Y-24695190D01*
X7769952Y-24809476D02*
X7750905Y-24799952D01*
X7750905Y-24799952D02*
X7741381Y-24790428D01*
X7741381Y-24790428D02*
X7731857Y-24771381D01*
X7731857Y-24771381D02*
X7731857Y-24714238D01*
X7731857Y-24714238D02*
X7741381Y-24695190D01*
X7741381Y-24695190D02*
X7750905Y-24685667D01*
X7750905Y-24685667D02*
X7769952Y-24676143D01*
X7769952Y-24676143D02*
X7798524Y-24676143D01*
X7798524Y-24676143D02*
X7817572Y-24685667D01*
X7817572Y-24685667D02*
X7827095Y-24695190D01*
X7827095Y-24695190D02*
X7836619Y-24714238D01*
X7836619Y-24714238D02*
X7836619Y-24771381D01*
X7836619Y-24771381D02*
X7827095Y-24790428D01*
X7827095Y-24790428D02*
X7817572Y-24799952D01*
X7817572Y-24799952D02*
X7798524Y-24809476D01*
X7798524Y-24809476D02*
X7769952Y-24809476D01*
X7950905Y-24809476D02*
X7931857Y-24799952D01*
X7931857Y-24799952D02*
X7922333Y-24780905D01*
X7922333Y-24780905D02*
X7922333Y-24609476D01*
X8103286Y-24799952D02*
X8084238Y-24809476D01*
X8084238Y-24809476D02*
X8046143Y-24809476D01*
X8046143Y-24809476D02*
X8027095Y-24799952D01*
X8027095Y-24799952D02*
X8017572Y-24780905D01*
X8017572Y-24780905D02*
X8017572Y-24704714D01*
X8017572Y-24704714D02*
X8027095Y-24685667D01*
X8027095Y-24685667D02*
X8046143Y-24676143D01*
X8046143Y-24676143D02*
X8084238Y-24676143D01*
X8084238Y-24676143D02*
X8103286Y-24685667D01*
X8103286Y-24685667D02*
X8112810Y-24704714D01*
X8112810Y-24704714D02*
X8112810Y-24723762D01*
X8112810Y-24723762D02*
X8017572Y-24742809D01*
X8189000Y-24799952D02*
X8208048Y-24809476D01*
X8208048Y-24809476D02*
X8246143Y-24809476D01*
X8246143Y-24809476D02*
X8265191Y-24799952D01*
X8265191Y-24799952D02*
X8274714Y-24780905D01*
X8274714Y-24780905D02*
X8274714Y-24771381D01*
X8274714Y-24771381D02*
X8265191Y-24752333D01*
X8265191Y-24752333D02*
X8246143Y-24742809D01*
X8246143Y-24742809D02*
X8217572Y-24742809D01*
X8217572Y-24742809D02*
X8198524Y-24733286D01*
X8198524Y-24733286D02*
X8189000Y-24714238D01*
X8189000Y-24714238D02*
X8189000Y-24704714D01*
X8189000Y-24704714D02*
X8198524Y-24685667D01*
X8198524Y-24685667D02*
X8217572Y-24676143D01*
X8217572Y-24676143D02*
X8246143Y-24676143D01*
X8246143Y-24676143D02*
X8265191Y-24685667D01*
X8341381Y-24885667D02*
X8350905Y-24876143D01*
X8350905Y-24876143D02*
X8369953Y-24847571D01*
X8369953Y-24847571D02*
X8379476Y-24828524D01*
X8379476Y-24828524D02*
X8389000Y-24799952D01*
X8389000Y-24799952D02*
X8398524Y-24752333D01*
X8398524Y-24752333D02*
X8398524Y-24714238D01*
X8398524Y-24714238D02*
X8389000Y-24666619D01*
X8389000Y-24666619D02*
X8379476Y-24638048D01*
X8379476Y-24638048D02*
X8369953Y-24619000D01*
X8369953Y-24619000D02*
X8350905Y-24590428D01*
X8350905Y-24590428D02*
X8341381Y-24580905D01*
X8670905Y-24885667D02*
X8661381Y-24876143D01*
X8661381Y-24876143D02*
X8642334Y-24847571D01*
X8642334Y-24847571D02*
X8632810Y-24828524D01*
X8632810Y-24828524D02*
X8623286Y-24799952D01*
X8623286Y-24799952D02*
X8613762Y-24752333D01*
X8613762Y-24752333D02*
X8613762Y-24714238D01*
X8613762Y-24714238D02*
X8623286Y-24666619D01*
X8623286Y-24666619D02*
X8632810Y-24638048D01*
X8632810Y-24638048D02*
X8642334Y-24619000D01*
X8642334Y-24619000D02*
X8661381Y-24590428D01*
X8661381Y-24590428D02*
X8670905Y-24580905D01*
X8747095Y-24676143D02*
X8747095Y-24809476D01*
X8747095Y-24695190D02*
X8756619Y-24685667D01*
X8756619Y-24685667D02*
X8775667Y-24676143D01*
X8775667Y-24676143D02*
X8804238Y-24676143D01*
X8804238Y-24676143D02*
X8823286Y-24685667D01*
X8823286Y-24685667D02*
X8832810Y-24704714D01*
X8832810Y-24704714D02*
X8832810Y-24809476D01*
X8956619Y-24809476D02*
X8937572Y-24799952D01*
X8937572Y-24799952D02*
X8928048Y-24790428D01*
X8928048Y-24790428D02*
X8918524Y-24771381D01*
X8918524Y-24771381D02*
X8918524Y-24714238D01*
X8918524Y-24714238D02*
X8928048Y-24695190D01*
X8928048Y-24695190D02*
X8937572Y-24685667D01*
X8937572Y-24685667D02*
X8956619Y-24676143D01*
X8956619Y-24676143D02*
X8985191Y-24676143D01*
X8985191Y-24676143D02*
X9004238Y-24685667D01*
X9004238Y-24685667D02*
X9013762Y-24695190D01*
X9013762Y-24695190D02*
X9023286Y-24714238D01*
X9023286Y-24714238D02*
X9023286Y-24771381D01*
X9023286Y-24771381D02*
X9013762Y-24790428D01*
X9013762Y-24790428D02*
X9004238Y-24799952D01*
X9004238Y-24799952D02*
X8985191Y-24809476D01*
X8985191Y-24809476D02*
X8956619Y-24809476D01*
X9080429Y-24676143D02*
X9156619Y-24676143D01*
X9109000Y-24609476D02*
X9109000Y-24780905D01*
X9109000Y-24780905D02*
X9118524Y-24799952D01*
X9118524Y-24799952D02*
X9137572Y-24809476D01*
X9137572Y-24809476D02*
X9156619Y-24809476D01*
X9343286Y-24676143D02*
X9343286Y-24876143D01*
X9343286Y-24685667D02*
X9362334Y-24676143D01*
X9362334Y-24676143D02*
X9400429Y-24676143D01*
X9400429Y-24676143D02*
X9419476Y-24685667D01*
X9419476Y-24685667D02*
X9429000Y-24695190D01*
X9429000Y-24695190D02*
X9438524Y-24714238D01*
X9438524Y-24714238D02*
X9438524Y-24771381D01*
X9438524Y-24771381D02*
X9429000Y-24790428D01*
X9429000Y-24790428D02*
X9419476Y-24799952D01*
X9419476Y-24799952D02*
X9400429Y-24809476D01*
X9400429Y-24809476D02*
X9362334Y-24809476D01*
X9362334Y-24809476D02*
X9343286Y-24799952D01*
X9552810Y-24809476D02*
X9533762Y-24799952D01*
X9533762Y-24799952D02*
X9524238Y-24780905D01*
X9524238Y-24780905D02*
X9524238Y-24609476D01*
X9714715Y-24809476D02*
X9714715Y-24704714D01*
X9714715Y-24704714D02*
X9705191Y-24685667D01*
X9705191Y-24685667D02*
X9686143Y-24676143D01*
X9686143Y-24676143D02*
X9648048Y-24676143D01*
X9648048Y-24676143D02*
X9629000Y-24685667D01*
X9714715Y-24799952D02*
X9695667Y-24809476D01*
X9695667Y-24809476D02*
X9648048Y-24809476D01*
X9648048Y-24809476D02*
X9629000Y-24799952D01*
X9629000Y-24799952D02*
X9619476Y-24780905D01*
X9619476Y-24780905D02*
X9619476Y-24761857D01*
X9619476Y-24761857D02*
X9629000Y-24742809D01*
X9629000Y-24742809D02*
X9648048Y-24733286D01*
X9648048Y-24733286D02*
X9695667Y-24733286D01*
X9695667Y-24733286D02*
X9714715Y-24723762D01*
X9781381Y-24676143D02*
X9857572Y-24676143D01*
X9809953Y-24609476D02*
X9809953Y-24780905D01*
X9809953Y-24780905D02*
X9819476Y-24799952D01*
X9819476Y-24799952D02*
X9838524Y-24809476D01*
X9838524Y-24809476D02*
X9857572Y-24809476D01*
X10000429Y-24799952D02*
X9981381Y-24809476D01*
X9981381Y-24809476D02*
X9943286Y-24809476D01*
X9943286Y-24809476D02*
X9924238Y-24799952D01*
X9924238Y-24799952D02*
X9914715Y-24780905D01*
X9914715Y-24780905D02*
X9914715Y-24704714D01*
X9914715Y-24704714D02*
X9924238Y-24685667D01*
X9924238Y-24685667D02*
X9943286Y-24676143D01*
X9943286Y-24676143D02*
X9981381Y-24676143D01*
X9981381Y-24676143D02*
X10000429Y-24685667D01*
X10000429Y-24685667D02*
X10009953Y-24704714D01*
X10009953Y-24704714D02*
X10009953Y-24723762D01*
X10009953Y-24723762D02*
X9914715Y-24742809D01*
X10181381Y-24809476D02*
X10181381Y-24609476D01*
X10181381Y-24799952D02*
X10162334Y-24809476D01*
X10162334Y-24809476D02*
X10124238Y-24809476D01*
X10124238Y-24809476D02*
X10105191Y-24799952D01*
X10105191Y-24799952D02*
X10095667Y-24790428D01*
X10095667Y-24790428D02*
X10086143Y-24771381D01*
X10086143Y-24771381D02*
X10086143Y-24714238D01*
X10086143Y-24714238D02*
X10095667Y-24695190D01*
X10095667Y-24695190D02*
X10105191Y-24685667D01*
X10105191Y-24685667D02*
X10124238Y-24676143D01*
X10124238Y-24676143D02*
X10162334Y-24676143D01*
X10162334Y-24676143D02*
X10181381Y-24685667D01*
X10257572Y-24885667D02*
X10267096Y-24876143D01*
X10267096Y-24876143D02*
X10286143Y-24847571D01*
X10286143Y-24847571D02*
X10295667Y-24828524D01*
X10295667Y-24828524D02*
X10305191Y-24799952D01*
X10305191Y-24799952D02*
X10314715Y-24752333D01*
X10314715Y-24752333D02*
X10314715Y-24714238D01*
X10314715Y-24714238D02*
X10305191Y-24666619D01*
X10305191Y-24666619D02*
X10295667Y-24638048D01*
X10295667Y-24638048D02*
X10286143Y-24619000D01*
X10286143Y-24619000D02*
X10267096Y-24590428D01*
X10267096Y-24590428D02*
X10257572Y-24580905D01*
M02*
