G04 #@! TF.GenerationSoftware,KiCad,Pcbnew,(7.0.0)*
G04 #@! TF.CreationDate,2024-09-25T23:02:18+02:00*
G04 #@! TF.ProjectId,FPGA_dev_board,46504741-5f64-4657-965f-626f6172642e,rev?*
G04 #@! TF.SameCoordinates,Original*
G04 #@! TF.FileFunction,Soldermask,Top*
G04 #@! TF.FilePolarity,Negative*
%FSLAX46Y46*%
G04 Gerber Fmt 4.6, Leading zero omitted, Abs format (unit mm)*
G04 Created by KiCad (PCBNEW (7.0.0)) date 2024-09-25 23:02:18*
%MOMM*%
%LPD*%
G01*
G04 APERTURE LIST*
G04 Aperture macros list*
%AMRoundRect*
0 Rectangle with rounded corners*
0 $1 Rounding radius*
0 $2 $3 $4 $5 $6 $7 $8 $9 X,Y pos of 4 corners*
0 Add a 4 corners polygon primitive as box body*
4,1,4,$2,$3,$4,$5,$6,$7,$8,$9,$2,$3,0*
0 Add four circle primitives for the rounded corners*
1,1,$1+$1,$2,$3*
1,1,$1+$1,$4,$5*
1,1,$1+$1,$6,$7*
1,1,$1+$1,$8,$9*
0 Add four rect primitives between the rounded corners*
20,1,$1+$1,$2,$3,$4,$5,0*
20,1,$1+$1,$4,$5,$6,$7,0*
20,1,$1+$1,$6,$7,$8,$9,0*
20,1,$1+$1,$8,$9,$2,$3,0*%
G04 Aperture macros list end*
%ADD10C,0.010000*%
%ADD11R,0.508000X0.609600*%
%ADD12R,0.711200X0.711200*%
%ADD13RoundRect,0.102000X0.300000X-0.270000X0.300000X0.270000X-0.300000X0.270000X-0.300000X-0.270000X0*%
%ADD14RoundRect,0.102000X-0.300000X0.270000X-0.300000X-0.270000X0.300000X-0.270000X0.300000X0.270000X0*%
%ADD15R,0.965200X0.889000*%
%ADD16RoundRect,0.102000X0.469900X-0.381000X0.469900X0.381000X-0.469900X0.381000X-0.469900X-0.381000X0*%
%ADD17RoundRect,0.102000X-0.270000X-0.300000X0.270000X-0.300000X0.270000X0.300000X-0.270000X0.300000X0*%
%ADD18R,0.609600X0.508000*%
%ADD19RoundRect,0.200750X0.296250X-0.336250X0.296250X0.336250X-0.296250X0.336250X-0.296250X-0.336250X0*%
%ADD20C,0.400000*%
%ADD21R,0.508000X0.660400*%
%ADD22RoundRect,0.102000X-0.520000X-0.510000X0.520000X-0.510000X0.520000X0.510000X-0.520000X0.510000X0*%
%ADD23RoundRect,0.102000X0.520000X0.510000X-0.520000X0.510000X-0.520000X-0.510000X0.520000X-0.510000X0*%
%ADD24C,4.500000*%
%ADD25RoundRect,0.102000X0.550000X0.500000X-0.550000X0.500000X-0.550000X-0.500000X0.550000X-0.500000X0*%
%ADD26RoundRect,0.102000X-0.710000X0.540000X-0.710000X-0.540000X0.710000X-0.540000X0.710000X0.540000X0*%
%ADD27R,0.900000X0.800000*%
%ADD28RoundRect,0.062500X0.375000X0.062500X-0.375000X0.062500X-0.375000X-0.062500X0.375000X-0.062500X0*%
%ADD29RoundRect,0.062500X0.062500X0.375000X-0.062500X0.375000X-0.062500X-0.375000X0.062500X-0.375000X0*%
%ADD30R,3.450000X3.450000*%
%ADD31R,1.168400X0.457200*%
%ADD32C,0.704000*%
%ADD33C,0.420000*%
%ADD34RoundRect,0.070000X0.355000X-0.140000X0.355000X0.140000X-0.355000X0.140000X-0.355000X-0.140000X0*%
%ADD35RoundRect,0.070000X0.140000X-0.350000X0.140000X0.350000X-0.140000X0.350000X-0.140000X-0.350000X0*%
%ADD36C,0.300000*%
%ADD37C,0.300020*%
%ADD38RoundRect,0.070000X0.825000X-1.200000X0.825000X1.200000X-0.825000X1.200000X-0.825000X-1.200000X0*%
%ADD39RoundRect,0.102000X-0.355600X0.254000X-0.355600X-0.254000X0.355600X-0.254000X0.355600X0.254000X0*%
%ADD40C,2.100000*%
%ADD41C,2.310000*%
%ADD42RoundRect,0.102000X0.765000X0.765000X-0.765000X0.765000X-0.765000X-0.765000X0.765000X-0.765000X0*%
%ADD43C,1.734000*%
%ADD44C,1.929000*%
%ADD45C,2.304000*%
%ADD46R,0.558800X0.711200*%
%ADD47R,0.600000X0.750000*%
%ADD48RoundRect,0.102000X0.300000X-0.280000X0.300000X0.280000X-0.300000X0.280000X-0.300000X-0.280000X0*%
%ADD49RoundRect,0.102000X0.510000X-0.520000X0.510000X0.520000X-0.510000X0.520000X-0.510000X-0.520000X0*%
%ADD50C,1.000000*%
%ADD51R,0.660400X0.508000*%
%ADD52RoundRect,0.102000X-0.395000X-0.465000X0.395000X-0.465000X0.395000X0.465000X-0.395000X0.465000X0*%
%ADD53RoundRect,0.102000X-0.540000X-0.710000X0.540000X-0.710000X0.540000X0.710000X-0.540000X0.710000X0*%
%ADD54RoundRect,0.102000X-0.350000X-0.450000X0.350000X-0.450000X0.350000X0.450000X-0.350000X0.450000X0*%
%ADD55R,3.098800X5.207000*%
%ADD56R,0.990600X1.143000*%
%ADD57R,4.600000X2.000000*%
%ADD58O,4.200000X2.000000*%
%ADD59O,2.000000X4.200000*%
%ADD60R,1.066800X2.489200*%
%ADD61R,0.660400X0.254000*%
%ADD62RoundRect,0.126000X-0.996000X-0.276000X0.996000X-0.276000X0.996000X0.276000X-0.996000X0.276000X0*%
%ADD63RoundRect,0.102000X-0.237500X-0.250000X0.237500X-0.250000X0.237500X0.250000X-0.237500X0.250000X0*%
%ADD64R,0.304800X0.812800*%
%ADD65R,3.098800X2.692400*%
%ADD66RoundRect,0.102000X0.530000X0.530000X-0.530000X0.530000X-0.530000X-0.530000X0.530000X-0.530000X0*%
%ADD67C,1.264000*%
%ADD68RoundRect,0.102000X0.540000X0.710000X-0.540000X0.710000X-0.540000X-0.710000X0.540000X-0.710000X0*%
%ADD69R,1.200000X1.200000*%
%ADD70RoundRect,0.102000X-0.465000X0.395000X-0.465000X-0.395000X0.465000X-0.395000X0.465000X0.395000X0*%
%ADD71C,2.199000*%
%ADD72RoundRect,0.102000X0.710000X-0.540000X0.710000X0.540000X-0.710000X0.540000X-0.710000X-0.540000X0*%
%ADD73RoundRect,0.102000X-0.280000X-0.300000X0.280000X-0.300000X0.280000X0.300000X-0.280000X0.300000X0*%
%ADD74RoundRect,0.102000X-0.254000X-0.355600X0.254000X-0.355600X0.254000X0.355600X-0.254000X0.355600X0*%
%ADD75C,1.270000*%
%ADD76RoundRect,0.102000X0.675000X-0.200000X0.675000X0.200000X-0.675000X0.200000X-0.675000X-0.200000X0*%
%ADD77RoundRect,0.102000X0.800000X-1.050000X0.800000X1.050000X-0.800000X1.050000X-0.800000X-1.050000X0*%
%ADD78RoundRect,0.102000X0.950000X-0.900000X0.950000X0.900000X-0.950000X0.900000X-0.950000X-0.900000X0*%
%ADD79RoundRect,0.102000X0.950000X-0.950000X0.950000X0.950000X-0.950000X0.950000X-0.950000X-0.950000X0*%
%ADD80RoundRect,0.102000X0.350000X0.450000X-0.350000X0.450000X-0.350000X-0.450000X0.350000X-0.450000X0*%
%ADD81RoundRect,0.102000X-0.300000X0.280000X-0.300000X-0.280000X0.300000X-0.280000X0.300000X0.280000X0*%
%ADD82RoundRect,0.102000X0.270000X0.300000X-0.270000X0.300000X-0.270000X-0.300000X0.270000X-0.300000X0*%
%ADD83RoundRect,0.102000X-0.600000X-0.700000X0.600000X-0.700000X0.600000X0.700000X-0.600000X0.700000X0*%
%ADD84RoundRect,0.102000X-0.450000X0.350000X-0.450000X-0.350000X0.450000X-0.350000X0.450000X0.350000X0*%
%ADD85RoundRect,0.102000X-0.295000X-0.300000X0.295000X-0.300000X0.295000X0.300000X-0.295000X0.300000X0*%
%ADD86R,1.250000X0.600000*%
%ADD87R,0.965200X0.939800*%
%ADD88RoundRect,0.102000X0.450000X-0.350000X0.450000X0.350000X-0.450000X0.350000X-0.450000X-0.350000X0*%
%ADD89RoundRect,0.102000X-0.550000X-0.500000X0.550000X-0.500000X0.550000X0.500000X-0.550000X0.500000X0*%
%ADD90RoundRect,0.102000X0.280000X0.300000X-0.280000X0.300000X-0.280000X-0.300000X0.280000X-0.300000X0*%
%ADD91R,0.558800X1.270000*%
%ADD92O,0.449999X1.699999*%
%ADD93RoundRect,0.102000X0.650000X-0.525000X0.650000X0.525000X-0.650000X0.525000X-0.650000X-0.525000X0*%
%ADD94RoundRect,0.102000X0.714000X-0.714000X0.714000X0.714000X-0.714000X0.714000X-0.714000X-0.714000X0*%
%ADD95C,1.632000*%
%ADD96C,3.550000*%
%ADD97R,3.149600X2.667000*%
%ADD98RoundRect,0.102000X0.465000X-0.395000X0.465000X0.395000X-0.465000X0.395000X-0.465000X-0.395000X0*%
%ADD99RoundRect,0.102000X0.700000X-0.600000X0.700000X0.600000X-0.700000X0.600000X-0.700000X-0.600000X0*%
%ADD100R,1.143000X2.997200*%
%ADD101R,0.807999X0.254800*%
%ADD102R,0.254800X0.807999*%
%ADD103R,5.943600X5.943600*%
%ADD104R,4.300000X0.700000*%
%ADD105R,3.200000X0.700000*%
%ADD106RoundRect,0.102000X-0.500000X0.550000X-0.500000X-0.550000X0.500000X-0.550000X0.500000X0.550000X0*%
%ADD107RoundRect,0.135750X-0.101250X0.371250X-0.101250X-0.371250X0.101250X-0.371250X0.101250X0.371250X0*%
%ADD108RoundRect,0.135750X-0.371250X-0.101250X0.371250X-0.101250X0.371250X0.101250X-0.371250X0.101250X0*%
%ADD109RoundRect,0.102000X-1.750000X1.750000X-1.750000X-1.750000X1.750000X-1.750000X1.750000X1.750000X0*%
%ADD110C,0.754000*%
G04 #@! TA.AperFunction,Profile*
%ADD111C,0.100000*%
G04 #@! TD*
G04 #@! TA.AperFunction,Profile*
%ADD112C,0.010000*%
G04 #@! TD*
G04 APERTURE END LIST*
G36*
X137073000Y-163501000D02*
G01*
X137075000Y-163501000D01*
X137078000Y-163502000D01*
X137080000Y-163502000D01*
X137083000Y-163503000D01*
X137085000Y-163504000D01*
X137088000Y-163505000D01*
X137090000Y-163507000D01*
X137092000Y-163508000D01*
X137094000Y-163510000D01*
X137096000Y-163511000D01*
X137098000Y-163513000D01*
X137100000Y-163515000D01*
X137102000Y-163517000D01*
X137104000Y-163519000D01*
X137105000Y-163521000D01*
X137107000Y-163523000D01*
X137108000Y-163525000D01*
X137110000Y-163527000D01*
X137111000Y-163530000D01*
X137112000Y-163532000D01*
X137113000Y-163535000D01*
X137113000Y-163537000D01*
X137114000Y-163540000D01*
X137114000Y-163542000D01*
X137115000Y-163545000D01*
X137115000Y-163547000D01*
X137115000Y-163550000D01*
X137115000Y-163790000D01*
X137115000Y-163793000D01*
X137115000Y-163795000D01*
X137114000Y-163798000D01*
X137114000Y-163800000D01*
X137113000Y-163803000D01*
X137113000Y-163805000D01*
X137112000Y-163808000D01*
X137111000Y-163810000D01*
X137110000Y-163813000D01*
X137108000Y-163815000D01*
X137107000Y-163817000D01*
X137105000Y-163819000D01*
X137104000Y-163821000D01*
X137102000Y-163823000D01*
X137100000Y-163825000D01*
X137098000Y-163827000D01*
X137096000Y-163829000D01*
X137094000Y-163830000D01*
X137092000Y-163832000D01*
X137090000Y-163833000D01*
X137088000Y-163835000D01*
X137085000Y-163836000D01*
X137083000Y-163837000D01*
X137080000Y-163838000D01*
X137078000Y-163838000D01*
X137075000Y-163839000D01*
X137073000Y-163839000D01*
X137070000Y-163840000D01*
X137068000Y-163840000D01*
X137065000Y-163840000D01*
X136460000Y-163840000D01*
X136457000Y-163840000D01*
X136455000Y-163840000D01*
X136452000Y-163839000D01*
X136450000Y-163839000D01*
X136447000Y-163838000D01*
X136445000Y-163838000D01*
X136442000Y-163837000D01*
X136440000Y-163836000D01*
X136437000Y-163835000D01*
X136435000Y-163833000D01*
X136433000Y-163832000D01*
X136431000Y-163830000D01*
X136429000Y-163829000D01*
X136427000Y-163827000D01*
X136425000Y-163825000D01*
X136423000Y-163823000D01*
X136421000Y-163821000D01*
X136420000Y-163819000D01*
X136418000Y-163817000D01*
X136417000Y-163815000D01*
X136415000Y-163813000D01*
X136414000Y-163810000D01*
X136413000Y-163808000D01*
X136412000Y-163805000D01*
X136412000Y-163803000D01*
X136411000Y-163800000D01*
X136411000Y-163798000D01*
X136410000Y-163795000D01*
X136410000Y-163793000D01*
X136410000Y-163790000D01*
X136410000Y-163550000D01*
X136410000Y-163547000D01*
X136410000Y-163545000D01*
X136411000Y-163542000D01*
X136411000Y-163540000D01*
X136412000Y-163537000D01*
X136412000Y-163535000D01*
X136413000Y-163532000D01*
X136414000Y-163530000D01*
X136415000Y-163527000D01*
X136417000Y-163525000D01*
X136418000Y-163523000D01*
X136420000Y-163521000D01*
X136421000Y-163519000D01*
X136423000Y-163517000D01*
X136425000Y-163515000D01*
X136427000Y-163513000D01*
X136429000Y-163511000D01*
X136431000Y-163510000D01*
X136433000Y-163508000D01*
X136435000Y-163507000D01*
X136437000Y-163505000D01*
X136440000Y-163504000D01*
X136442000Y-163503000D01*
X136445000Y-163502000D01*
X136447000Y-163502000D01*
X136450000Y-163501000D01*
X136452000Y-163501000D01*
X136455000Y-163500000D01*
X136457000Y-163500000D01*
X136460000Y-163500000D01*
X137065000Y-163500000D01*
X137068000Y-163500000D01*
X137070000Y-163500000D01*
X137073000Y-163501000D01*
G37*
D10*
X137073000Y-163501000D02*
X137075000Y-163501000D01*
X137078000Y-163502000D01*
X137080000Y-163502000D01*
X137083000Y-163503000D01*
X137085000Y-163504000D01*
X137088000Y-163505000D01*
X137090000Y-163507000D01*
X137092000Y-163508000D01*
X137094000Y-163510000D01*
X137096000Y-163511000D01*
X137098000Y-163513000D01*
X137100000Y-163515000D01*
X137102000Y-163517000D01*
X137104000Y-163519000D01*
X137105000Y-163521000D01*
X137107000Y-163523000D01*
X137108000Y-163525000D01*
X137110000Y-163527000D01*
X137111000Y-163530000D01*
X137112000Y-163532000D01*
X137113000Y-163535000D01*
X137113000Y-163537000D01*
X137114000Y-163540000D01*
X137114000Y-163542000D01*
X137115000Y-163545000D01*
X137115000Y-163547000D01*
X137115000Y-163550000D01*
X137115000Y-163790000D01*
X137115000Y-163793000D01*
X137115000Y-163795000D01*
X137114000Y-163798000D01*
X137114000Y-163800000D01*
X137113000Y-163803000D01*
X137113000Y-163805000D01*
X137112000Y-163808000D01*
X137111000Y-163810000D01*
X137110000Y-163813000D01*
X137108000Y-163815000D01*
X137107000Y-163817000D01*
X137105000Y-163819000D01*
X137104000Y-163821000D01*
X137102000Y-163823000D01*
X137100000Y-163825000D01*
X137098000Y-163827000D01*
X137096000Y-163829000D01*
X137094000Y-163830000D01*
X137092000Y-163832000D01*
X137090000Y-163833000D01*
X137088000Y-163835000D01*
X137085000Y-163836000D01*
X137083000Y-163837000D01*
X137080000Y-163838000D01*
X137078000Y-163838000D01*
X137075000Y-163839000D01*
X137073000Y-163839000D01*
X137070000Y-163840000D01*
X137068000Y-163840000D01*
X137065000Y-163840000D01*
X136460000Y-163840000D01*
X136457000Y-163840000D01*
X136455000Y-163840000D01*
X136452000Y-163839000D01*
X136450000Y-163839000D01*
X136447000Y-163838000D01*
X136445000Y-163838000D01*
X136442000Y-163837000D01*
X136440000Y-163836000D01*
X136437000Y-163835000D01*
X136435000Y-163833000D01*
X136433000Y-163832000D01*
X136431000Y-163830000D01*
X136429000Y-163829000D01*
X136427000Y-163827000D01*
X136425000Y-163825000D01*
X136423000Y-163823000D01*
X136421000Y-163821000D01*
X136420000Y-163819000D01*
X136418000Y-163817000D01*
X136417000Y-163815000D01*
X136415000Y-163813000D01*
X136414000Y-163810000D01*
X136413000Y-163808000D01*
X136412000Y-163805000D01*
X136412000Y-163803000D01*
X136411000Y-163800000D01*
X136411000Y-163798000D01*
X136410000Y-163795000D01*
X136410000Y-163793000D01*
X136410000Y-163790000D01*
X136410000Y-163550000D01*
X136410000Y-163547000D01*
X136410000Y-163545000D01*
X136411000Y-163542000D01*
X136411000Y-163540000D01*
X136412000Y-163537000D01*
X136412000Y-163535000D01*
X136413000Y-163532000D01*
X136414000Y-163530000D01*
X136415000Y-163527000D01*
X136417000Y-163525000D01*
X136418000Y-163523000D01*
X136420000Y-163521000D01*
X136421000Y-163519000D01*
X136423000Y-163517000D01*
X136425000Y-163515000D01*
X136427000Y-163513000D01*
X136429000Y-163511000D01*
X136431000Y-163510000D01*
X136433000Y-163508000D01*
X136435000Y-163507000D01*
X136437000Y-163505000D01*
X136440000Y-163504000D01*
X136442000Y-163503000D01*
X136445000Y-163502000D01*
X136447000Y-163502000D01*
X136450000Y-163501000D01*
X136452000Y-163501000D01*
X136455000Y-163500000D01*
X136457000Y-163500000D01*
X136460000Y-163500000D01*
X137065000Y-163500000D01*
X137068000Y-163500000D01*
X137070000Y-163500000D01*
X137073000Y-163501000D01*
G36*
X137073000Y-161501000D02*
G01*
X137075000Y-161501000D01*
X137078000Y-161502000D01*
X137080000Y-161502000D01*
X137083000Y-161503000D01*
X137085000Y-161504000D01*
X137088000Y-161505000D01*
X137090000Y-161507000D01*
X137092000Y-161508000D01*
X137094000Y-161510000D01*
X137096000Y-161511000D01*
X137098000Y-161513000D01*
X137100000Y-161515000D01*
X137102000Y-161517000D01*
X137104000Y-161519000D01*
X137105000Y-161521000D01*
X137107000Y-161523000D01*
X137108000Y-161525000D01*
X137110000Y-161527000D01*
X137111000Y-161530000D01*
X137112000Y-161532000D01*
X137113000Y-161535000D01*
X137113000Y-161537000D01*
X137114000Y-161540000D01*
X137114000Y-161542000D01*
X137115000Y-161545000D01*
X137115000Y-161547000D01*
X137115000Y-161550000D01*
X137115000Y-161790000D01*
X137115000Y-161793000D01*
X137115000Y-161795000D01*
X137114000Y-161798000D01*
X137114000Y-161800000D01*
X137113000Y-161803000D01*
X137113000Y-161805000D01*
X137112000Y-161808000D01*
X137111000Y-161810000D01*
X137110000Y-161813000D01*
X137108000Y-161815000D01*
X137107000Y-161817000D01*
X137105000Y-161819000D01*
X137104000Y-161821000D01*
X137102000Y-161823000D01*
X137100000Y-161825000D01*
X137098000Y-161827000D01*
X137096000Y-161829000D01*
X137094000Y-161830000D01*
X137092000Y-161832000D01*
X137090000Y-161833000D01*
X137088000Y-161835000D01*
X137085000Y-161836000D01*
X137083000Y-161837000D01*
X137080000Y-161838000D01*
X137078000Y-161838000D01*
X137075000Y-161839000D01*
X137073000Y-161839000D01*
X137070000Y-161840000D01*
X137068000Y-161840000D01*
X137065000Y-161840000D01*
X136460000Y-161840000D01*
X136457000Y-161840000D01*
X136455000Y-161840000D01*
X136452000Y-161839000D01*
X136450000Y-161839000D01*
X136447000Y-161838000D01*
X136445000Y-161838000D01*
X136442000Y-161837000D01*
X136440000Y-161836000D01*
X136437000Y-161835000D01*
X136435000Y-161833000D01*
X136433000Y-161832000D01*
X136431000Y-161830000D01*
X136429000Y-161829000D01*
X136427000Y-161827000D01*
X136425000Y-161825000D01*
X136423000Y-161823000D01*
X136421000Y-161821000D01*
X136420000Y-161819000D01*
X136418000Y-161817000D01*
X136417000Y-161815000D01*
X136415000Y-161813000D01*
X136414000Y-161810000D01*
X136413000Y-161808000D01*
X136412000Y-161805000D01*
X136412000Y-161803000D01*
X136411000Y-161800000D01*
X136411000Y-161798000D01*
X136410000Y-161795000D01*
X136410000Y-161793000D01*
X136410000Y-161790000D01*
X136410000Y-161550000D01*
X136410000Y-161547000D01*
X136410000Y-161545000D01*
X136411000Y-161542000D01*
X136411000Y-161540000D01*
X136412000Y-161537000D01*
X136412000Y-161535000D01*
X136413000Y-161532000D01*
X136414000Y-161530000D01*
X136415000Y-161527000D01*
X136417000Y-161525000D01*
X136418000Y-161523000D01*
X136420000Y-161521000D01*
X136421000Y-161519000D01*
X136423000Y-161517000D01*
X136425000Y-161515000D01*
X136427000Y-161513000D01*
X136429000Y-161511000D01*
X136431000Y-161510000D01*
X136433000Y-161508000D01*
X136435000Y-161507000D01*
X136437000Y-161505000D01*
X136440000Y-161504000D01*
X136442000Y-161503000D01*
X136445000Y-161502000D01*
X136447000Y-161502000D01*
X136450000Y-161501000D01*
X136452000Y-161501000D01*
X136455000Y-161500000D01*
X136457000Y-161500000D01*
X136460000Y-161500000D01*
X137065000Y-161500000D01*
X137068000Y-161500000D01*
X137070000Y-161500000D01*
X137073000Y-161501000D01*
G37*
X137073000Y-161501000D02*
X137075000Y-161501000D01*
X137078000Y-161502000D01*
X137080000Y-161502000D01*
X137083000Y-161503000D01*
X137085000Y-161504000D01*
X137088000Y-161505000D01*
X137090000Y-161507000D01*
X137092000Y-161508000D01*
X137094000Y-161510000D01*
X137096000Y-161511000D01*
X137098000Y-161513000D01*
X137100000Y-161515000D01*
X137102000Y-161517000D01*
X137104000Y-161519000D01*
X137105000Y-161521000D01*
X137107000Y-161523000D01*
X137108000Y-161525000D01*
X137110000Y-161527000D01*
X137111000Y-161530000D01*
X137112000Y-161532000D01*
X137113000Y-161535000D01*
X137113000Y-161537000D01*
X137114000Y-161540000D01*
X137114000Y-161542000D01*
X137115000Y-161545000D01*
X137115000Y-161547000D01*
X137115000Y-161550000D01*
X137115000Y-161790000D01*
X137115000Y-161793000D01*
X137115000Y-161795000D01*
X137114000Y-161798000D01*
X137114000Y-161800000D01*
X137113000Y-161803000D01*
X137113000Y-161805000D01*
X137112000Y-161808000D01*
X137111000Y-161810000D01*
X137110000Y-161813000D01*
X137108000Y-161815000D01*
X137107000Y-161817000D01*
X137105000Y-161819000D01*
X137104000Y-161821000D01*
X137102000Y-161823000D01*
X137100000Y-161825000D01*
X137098000Y-161827000D01*
X137096000Y-161829000D01*
X137094000Y-161830000D01*
X137092000Y-161832000D01*
X137090000Y-161833000D01*
X137088000Y-161835000D01*
X137085000Y-161836000D01*
X137083000Y-161837000D01*
X137080000Y-161838000D01*
X137078000Y-161838000D01*
X137075000Y-161839000D01*
X137073000Y-161839000D01*
X137070000Y-161840000D01*
X137068000Y-161840000D01*
X137065000Y-161840000D01*
X136460000Y-161840000D01*
X136457000Y-161840000D01*
X136455000Y-161840000D01*
X136452000Y-161839000D01*
X136450000Y-161839000D01*
X136447000Y-161838000D01*
X136445000Y-161838000D01*
X136442000Y-161837000D01*
X136440000Y-161836000D01*
X136437000Y-161835000D01*
X136435000Y-161833000D01*
X136433000Y-161832000D01*
X136431000Y-161830000D01*
X136429000Y-161829000D01*
X136427000Y-161827000D01*
X136425000Y-161825000D01*
X136423000Y-161823000D01*
X136421000Y-161821000D01*
X136420000Y-161819000D01*
X136418000Y-161817000D01*
X136417000Y-161815000D01*
X136415000Y-161813000D01*
X136414000Y-161810000D01*
X136413000Y-161808000D01*
X136412000Y-161805000D01*
X136412000Y-161803000D01*
X136411000Y-161800000D01*
X136411000Y-161798000D01*
X136410000Y-161795000D01*
X136410000Y-161793000D01*
X136410000Y-161790000D01*
X136410000Y-161550000D01*
X136410000Y-161547000D01*
X136410000Y-161545000D01*
X136411000Y-161542000D01*
X136411000Y-161540000D01*
X136412000Y-161537000D01*
X136412000Y-161535000D01*
X136413000Y-161532000D01*
X136414000Y-161530000D01*
X136415000Y-161527000D01*
X136417000Y-161525000D01*
X136418000Y-161523000D01*
X136420000Y-161521000D01*
X136421000Y-161519000D01*
X136423000Y-161517000D01*
X136425000Y-161515000D01*
X136427000Y-161513000D01*
X136429000Y-161511000D01*
X136431000Y-161510000D01*
X136433000Y-161508000D01*
X136435000Y-161507000D01*
X136437000Y-161505000D01*
X136440000Y-161504000D01*
X136442000Y-161503000D01*
X136445000Y-161502000D01*
X136447000Y-161502000D01*
X136450000Y-161501000D01*
X136452000Y-161501000D01*
X136455000Y-161500000D01*
X136457000Y-161500000D01*
X136460000Y-161500000D01*
X137065000Y-161500000D01*
X137068000Y-161500000D01*
X137070000Y-161500000D01*
X137073000Y-161501000D01*
G36*
X137073000Y-162401000D02*
G01*
X137075000Y-162401000D01*
X137078000Y-162402000D01*
X137080000Y-162402000D01*
X137083000Y-162403000D01*
X137085000Y-162404000D01*
X137088000Y-162405000D01*
X137090000Y-162407000D01*
X137092000Y-162408000D01*
X137094000Y-162410000D01*
X137096000Y-162411000D01*
X137098000Y-162413000D01*
X137100000Y-162415000D01*
X137102000Y-162417000D01*
X137104000Y-162419000D01*
X137105000Y-162421000D01*
X137107000Y-162423000D01*
X137108000Y-162425000D01*
X137110000Y-162427000D01*
X137111000Y-162430000D01*
X137112000Y-162432000D01*
X137113000Y-162435000D01*
X137113000Y-162437000D01*
X137114000Y-162440000D01*
X137114000Y-162442000D01*
X137115000Y-162445000D01*
X137115000Y-162447000D01*
X137115000Y-162450000D01*
X137115000Y-162890000D01*
X137115000Y-162893000D01*
X137115000Y-162895000D01*
X137114000Y-162898000D01*
X137114000Y-162900000D01*
X137113000Y-162903000D01*
X137113000Y-162905000D01*
X137112000Y-162908000D01*
X137111000Y-162910000D01*
X137110000Y-162913000D01*
X137108000Y-162915000D01*
X137107000Y-162917000D01*
X137105000Y-162919000D01*
X137104000Y-162921000D01*
X137102000Y-162923000D01*
X137100000Y-162925000D01*
X137098000Y-162927000D01*
X137096000Y-162929000D01*
X137094000Y-162930000D01*
X137092000Y-162932000D01*
X137090000Y-162933000D01*
X137088000Y-162935000D01*
X137085000Y-162936000D01*
X137083000Y-162937000D01*
X137080000Y-162938000D01*
X137078000Y-162938000D01*
X137075000Y-162939000D01*
X137073000Y-162939000D01*
X137070000Y-162940000D01*
X137068000Y-162940000D01*
X137065000Y-162940000D01*
X136460000Y-162940000D01*
X136457000Y-162940000D01*
X136455000Y-162940000D01*
X136452000Y-162939000D01*
X136450000Y-162939000D01*
X136447000Y-162938000D01*
X136445000Y-162938000D01*
X136442000Y-162937000D01*
X136440000Y-162936000D01*
X136437000Y-162935000D01*
X136435000Y-162933000D01*
X136433000Y-162932000D01*
X136431000Y-162930000D01*
X136429000Y-162929000D01*
X136427000Y-162927000D01*
X136425000Y-162925000D01*
X136423000Y-162923000D01*
X136421000Y-162921000D01*
X136420000Y-162919000D01*
X136418000Y-162917000D01*
X136417000Y-162915000D01*
X136415000Y-162913000D01*
X136414000Y-162910000D01*
X136413000Y-162908000D01*
X136412000Y-162905000D01*
X136412000Y-162903000D01*
X136411000Y-162900000D01*
X136411000Y-162898000D01*
X136410000Y-162895000D01*
X136410000Y-162893000D01*
X136410000Y-162890000D01*
X136410000Y-162450000D01*
X136410000Y-162447000D01*
X136410000Y-162445000D01*
X136411000Y-162442000D01*
X136411000Y-162440000D01*
X136412000Y-162437000D01*
X136412000Y-162435000D01*
X136413000Y-162432000D01*
X136414000Y-162430000D01*
X136415000Y-162427000D01*
X136417000Y-162425000D01*
X136418000Y-162423000D01*
X136420000Y-162421000D01*
X136421000Y-162419000D01*
X136423000Y-162417000D01*
X136425000Y-162415000D01*
X136427000Y-162413000D01*
X136429000Y-162411000D01*
X136431000Y-162410000D01*
X136433000Y-162408000D01*
X136435000Y-162407000D01*
X136437000Y-162405000D01*
X136440000Y-162404000D01*
X136442000Y-162403000D01*
X136445000Y-162402000D01*
X136447000Y-162402000D01*
X136450000Y-162401000D01*
X136452000Y-162401000D01*
X136455000Y-162400000D01*
X136457000Y-162400000D01*
X136460000Y-162400000D01*
X137065000Y-162400000D01*
X137068000Y-162400000D01*
X137070000Y-162400000D01*
X137073000Y-162401000D01*
G37*
X137073000Y-162401000D02*
X137075000Y-162401000D01*
X137078000Y-162402000D01*
X137080000Y-162402000D01*
X137083000Y-162403000D01*
X137085000Y-162404000D01*
X137088000Y-162405000D01*
X137090000Y-162407000D01*
X137092000Y-162408000D01*
X137094000Y-162410000D01*
X137096000Y-162411000D01*
X137098000Y-162413000D01*
X137100000Y-162415000D01*
X137102000Y-162417000D01*
X137104000Y-162419000D01*
X137105000Y-162421000D01*
X137107000Y-162423000D01*
X137108000Y-162425000D01*
X137110000Y-162427000D01*
X137111000Y-162430000D01*
X137112000Y-162432000D01*
X137113000Y-162435000D01*
X137113000Y-162437000D01*
X137114000Y-162440000D01*
X137114000Y-162442000D01*
X137115000Y-162445000D01*
X137115000Y-162447000D01*
X137115000Y-162450000D01*
X137115000Y-162890000D01*
X137115000Y-162893000D01*
X137115000Y-162895000D01*
X137114000Y-162898000D01*
X137114000Y-162900000D01*
X137113000Y-162903000D01*
X137113000Y-162905000D01*
X137112000Y-162908000D01*
X137111000Y-162910000D01*
X137110000Y-162913000D01*
X137108000Y-162915000D01*
X137107000Y-162917000D01*
X137105000Y-162919000D01*
X137104000Y-162921000D01*
X137102000Y-162923000D01*
X137100000Y-162925000D01*
X137098000Y-162927000D01*
X137096000Y-162929000D01*
X137094000Y-162930000D01*
X137092000Y-162932000D01*
X137090000Y-162933000D01*
X137088000Y-162935000D01*
X137085000Y-162936000D01*
X137083000Y-162937000D01*
X137080000Y-162938000D01*
X137078000Y-162938000D01*
X137075000Y-162939000D01*
X137073000Y-162939000D01*
X137070000Y-162940000D01*
X137068000Y-162940000D01*
X137065000Y-162940000D01*
X136460000Y-162940000D01*
X136457000Y-162940000D01*
X136455000Y-162940000D01*
X136452000Y-162939000D01*
X136450000Y-162939000D01*
X136447000Y-162938000D01*
X136445000Y-162938000D01*
X136442000Y-162937000D01*
X136440000Y-162936000D01*
X136437000Y-162935000D01*
X136435000Y-162933000D01*
X136433000Y-162932000D01*
X136431000Y-162930000D01*
X136429000Y-162929000D01*
X136427000Y-162927000D01*
X136425000Y-162925000D01*
X136423000Y-162923000D01*
X136421000Y-162921000D01*
X136420000Y-162919000D01*
X136418000Y-162917000D01*
X136417000Y-162915000D01*
X136415000Y-162913000D01*
X136414000Y-162910000D01*
X136413000Y-162908000D01*
X136412000Y-162905000D01*
X136412000Y-162903000D01*
X136411000Y-162900000D01*
X136411000Y-162898000D01*
X136410000Y-162895000D01*
X136410000Y-162893000D01*
X136410000Y-162890000D01*
X136410000Y-162450000D01*
X136410000Y-162447000D01*
X136410000Y-162445000D01*
X136411000Y-162442000D01*
X136411000Y-162440000D01*
X136412000Y-162437000D01*
X136412000Y-162435000D01*
X136413000Y-162432000D01*
X136414000Y-162430000D01*
X136415000Y-162427000D01*
X136417000Y-162425000D01*
X136418000Y-162423000D01*
X136420000Y-162421000D01*
X136421000Y-162419000D01*
X136423000Y-162417000D01*
X136425000Y-162415000D01*
X136427000Y-162413000D01*
X136429000Y-162411000D01*
X136431000Y-162410000D01*
X136433000Y-162408000D01*
X136435000Y-162407000D01*
X136437000Y-162405000D01*
X136440000Y-162404000D01*
X136442000Y-162403000D01*
X136445000Y-162402000D01*
X136447000Y-162402000D01*
X136450000Y-162401000D01*
X136452000Y-162401000D01*
X136455000Y-162400000D01*
X136457000Y-162400000D01*
X136460000Y-162400000D01*
X137065000Y-162400000D01*
X137068000Y-162400000D01*
X137070000Y-162400000D01*
X137073000Y-162401000D01*
G36*
X137073000Y-162001000D02*
G01*
X137075000Y-162001000D01*
X137078000Y-162002000D01*
X137080000Y-162002000D01*
X137083000Y-162003000D01*
X137085000Y-162004000D01*
X137088000Y-162005000D01*
X137090000Y-162007000D01*
X137092000Y-162008000D01*
X137094000Y-162010000D01*
X137096000Y-162011000D01*
X137098000Y-162013000D01*
X137100000Y-162015000D01*
X137102000Y-162017000D01*
X137104000Y-162019000D01*
X137105000Y-162021000D01*
X137107000Y-162023000D01*
X137108000Y-162025000D01*
X137110000Y-162027000D01*
X137111000Y-162030000D01*
X137112000Y-162032000D01*
X137113000Y-162035000D01*
X137113000Y-162037000D01*
X137114000Y-162040000D01*
X137114000Y-162042000D01*
X137115000Y-162045000D01*
X137115000Y-162047000D01*
X137115000Y-162050000D01*
X137115000Y-162290000D01*
X137115000Y-162293000D01*
X137115000Y-162295000D01*
X137114000Y-162298000D01*
X137114000Y-162300000D01*
X137113000Y-162303000D01*
X137113000Y-162305000D01*
X137112000Y-162308000D01*
X137111000Y-162310000D01*
X137110000Y-162313000D01*
X137108000Y-162315000D01*
X137107000Y-162317000D01*
X137105000Y-162319000D01*
X137104000Y-162321000D01*
X137102000Y-162323000D01*
X137100000Y-162325000D01*
X137098000Y-162327000D01*
X137096000Y-162329000D01*
X137094000Y-162330000D01*
X137092000Y-162332000D01*
X137090000Y-162333000D01*
X137088000Y-162335000D01*
X137085000Y-162336000D01*
X137083000Y-162337000D01*
X137080000Y-162338000D01*
X137078000Y-162338000D01*
X137075000Y-162339000D01*
X137073000Y-162339000D01*
X137070000Y-162340000D01*
X137068000Y-162340000D01*
X137065000Y-162340000D01*
X136460000Y-162340000D01*
X136457000Y-162340000D01*
X136455000Y-162340000D01*
X136452000Y-162339000D01*
X136450000Y-162339000D01*
X136447000Y-162338000D01*
X136445000Y-162338000D01*
X136442000Y-162337000D01*
X136440000Y-162336000D01*
X136437000Y-162335000D01*
X136435000Y-162333000D01*
X136433000Y-162332000D01*
X136431000Y-162330000D01*
X136429000Y-162329000D01*
X136427000Y-162327000D01*
X136425000Y-162325000D01*
X136423000Y-162323000D01*
X136421000Y-162321000D01*
X136420000Y-162319000D01*
X136418000Y-162317000D01*
X136417000Y-162315000D01*
X136415000Y-162313000D01*
X136414000Y-162310000D01*
X136413000Y-162308000D01*
X136412000Y-162305000D01*
X136412000Y-162303000D01*
X136411000Y-162300000D01*
X136411000Y-162298000D01*
X136410000Y-162295000D01*
X136410000Y-162293000D01*
X136410000Y-162290000D01*
X136410000Y-162050000D01*
X136410000Y-162047000D01*
X136410000Y-162045000D01*
X136411000Y-162042000D01*
X136411000Y-162040000D01*
X136412000Y-162037000D01*
X136412000Y-162035000D01*
X136413000Y-162032000D01*
X136414000Y-162030000D01*
X136415000Y-162027000D01*
X136417000Y-162025000D01*
X136418000Y-162023000D01*
X136420000Y-162021000D01*
X136421000Y-162019000D01*
X136423000Y-162017000D01*
X136425000Y-162015000D01*
X136427000Y-162013000D01*
X136429000Y-162011000D01*
X136431000Y-162010000D01*
X136433000Y-162008000D01*
X136435000Y-162007000D01*
X136437000Y-162005000D01*
X136440000Y-162004000D01*
X136442000Y-162003000D01*
X136445000Y-162002000D01*
X136447000Y-162002000D01*
X136450000Y-162001000D01*
X136452000Y-162001000D01*
X136455000Y-162000000D01*
X136457000Y-162000000D01*
X136460000Y-162000000D01*
X137065000Y-162000000D01*
X137068000Y-162000000D01*
X137070000Y-162000000D01*
X137073000Y-162001000D01*
G37*
X137073000Y-162001000D02*
X137075000Y-162001000D01*
X137078000Y-162002000D01*
X137080000Y-162002000D01*
X137083000Y-162003000D01*
X137085000Y-162004000D01*
X137088000Y-162005000D01*
X137090000Y-162007000D01*
X137092000Y-162008000D01*
X137094000Y-162010000D01*
X137096000Y-162011000D01*
X137098000Y-162013000D01*
X137100000Y-162015000D01*
X137102000Y-162017000D01*
X137104000Y-162019000D01*
X137105000Y-162021000D01*
X137107000Y-162023000D01*
X137108000Y-162025000D01*
X137110000Y-162027000D01*
X137111000Y-162030000D01*
X137112000Y-162032000D01*
X137113000Y-162035000D01*
X137113000Y-162037000D01*
X137114000Y-162040000D01*
X137114000Y-162042000D01*
X137115000Y-162045000D01*
X137115000Y-162047000D01*
X137115000Y-162050000D01*
X137115000Y-162290000D01*
X137115000Y-162293000D01*
X137115000Y-162295000D01*
X137114000Y-162298000D01*
X137114000Y-162300000D01*
X137113000Y-162303000D01*
X137113000Y-162305000D01*
X137112000Y-162308000D01*
X137111000Y-162310000D01*
X137110000Y-162313000D01*
X137108000Y-162315000D01*
X137107000Y-162317000D01*
X137105000Y-162319000D01*
X137104000Y-162321000D01*
X137102000Y-162323000D01*
X137100000Y-162325000D01*
X137098000Y-162327000D01*
X137096000Y-162329000D01*
X137094000Y-162330000D01*
X137092000Y-162332000D01*
X137090000Y-162333000D01*
X137088000Y-162335000D01*
X137085000Y-162336000D01*
X137083000Y-162337000D01*
X137080000Y-162338000D01*
X137078000Y-162338000D01*
X137075000Y-162339000D01*
X137073000Y-162339000D01*
X137070000Y-162340000D01*
X137068000Y-162340000D01*
X137065000Y-162340000D01*
X136460000Y-162340000D01*
X136457000Y-162340000D01*
X136455000Y-162340000D01*
X136452000Y-162339000D01*
X136450000Y-162339000D01*
X136447000Y-162338000D01*
X136445000Y-162338000D01*
X136442000Y-162337000D01*
X136440000Y-162336000D01*
X136437000Y-162335000D01*
X136435000Y-162333000D01*
X136433000Y-162332000D01*
X136431000Y-162330000D01*
X136429000Y-162329000D01*
X136427000Y-162327000D01*
X136425000Y-162325000D01*
X136423000Y-162323000D01*
X136421000Y-162321000D01*
X136420000Y-162319000D01*
X136418000Y-162317000D01*
X136417000Y-162315000D01*
X136415000Y-162313000D01*
X136414000Y-162310000D01*
X136413000Y-162308000D01*
X136412000Y-162305000D01*
X136412000Y-162303000D01*
X136411000Y-162300000D01*
X136411000Y-162298000D01*
X136410000Y-162295000D01*
X136410000Y-162293000D01*
X136410000Y-162290000D01*
X136410000Y-162050000D01*
X136410000Y-162047000D01*
X136410000Y-162045000D01*
X136411000Y-162042000D01*
X136411000Y-162040000D01*
X136412000Y-162037000D01*
X136412000Y-162035000D01*
X136413000Y-162032000D01*
X136414000Y-162030000D01*
X136415000Y-162027000D01*
X136417000Y-162025000D01*
X136418000Y-162023000D01*
X136420000Y-162021000D01*
X136421000Y-162019000D01*
X136423000Y-162017000D01*
X136425000Y-162015000D01*
X136427000Y-162013000D01*
X136429000Y-162011000D01*
X136431000Y-162010000D01*
X136433000Y-162008000D01*
X136435000Y-162007000D01*
X136437000Y-162005000D01*
X136440000Y-162004000D01*
X136442000Y-162003000D01*
X136445000Y-162002000D01*
X136447000Y-162002000D01*
X136450000Y-162001000D01*
X136452000Y-162001000D01*
X136455000Y-162000000D01*
X136457000Y-162000000D01*
X136460000Y-162000000D01*
X137065000Y-162000000D01*
X137068000Y-162000000D01*
X137070000Y-162000000D01*
X137073000Y-162001000D01*
G36*
X137073000Y-163001000D02*
G01*
X137075000Y-163001000D01*
X137078000Y-163002000D01*
X137080000Y-163002000D01*
X137083000Y-163003000D01*
X137085000Y-163004000D01*
X137088000Y-163005000D01*
X137090000Y-163007000D01*
X137092000Y-163008000D01*
X137094000Y-163010000D01*
X137096000Y-163011000D01*
X137098000Y-163013000D01*
X137100000Y-163015000D01*
X137102000Y-163017000D01*
X137104000Y-163019000D01*
X137105000Y-163021000D01*
X137107000Y-163023000D01*
X137108000Y-163025000D01*
X137110000Y-163027000D01*
X137111000Y-163030000D01*
X137112000Y-163032000D01*
X137113000Y-163035000D01*
X137113000Y-163037000D01*
X137114000Y-163040000D01*
X137114000Y-163042000D01*
X137115000Y-163045000D01*
X137115000Y-163047000D01*
X137115000Y-163050000D01*
X137115000Y-163290000D01*
X137115000Y-163293000D01*
X137115000Y-163295000D01*
X137114000Y-163298000D01*
X137114000Y-163300000D01*
X137113000Y-163303000D01*
X137113000Y-163305000D01*
X137112000Y-163308000D01*
X137111000Y-163310000D01*
X137110000Y-163313000D01*
X137108000Y-163315000D01*
X137107000Y-163317000D01*
X137105000Y-163319000D01*
X137104000Y-163321000D01*
X137102000Y-163323000D01*
X137100000Y-163325000D01*
X137098000Y-163327000D01*
X137096000Y-163329000D01*
X137094000Y-163330000D01*
X137092000Y-163332000D01*
X137090000Y-163333000D01*
X137088000Y-163335000D01*
X137085000Y-163336000D01*
X137083000Y-163337000D01*
X137080000Y-163338000D01*
X137078000Y-163338000D01*
X137075000Y-163339000D01*
X137073000Y-163339000D01*
X137070000Y-163340000D01*
X137068000Y-163340000D01*
X137065000Y-163340000D01*
X136460000Y-163340000D01*
X136457000Y-163340000D01*
X136455000Y-163340000D01*
X136452000Y-163339000D01*
X136450000Y-163339000D01*
X136447000Y-163338000D01*
X136445000Y-163338000D01*
X136442000Y-163337000D01*
X136440000Y-163336000D01*
X136437000Y-163335000D01*
X136435000Y-163333000D01*
X136433000Y-163332000D01*
X136431000Y-163330000D01*
X136429000Y-163329000D01*
X136427000Y-163327000D01*
X136425000Y-163325000D01*
X136423000Y-163323000D01*
X136421000Y-163321000D01*
X136420000Y-163319000D01*
X136418000Y-163317000D01*
X136417000Y-163315000D01*
X136415000Y-163313000D01*
X136414000Y-163310000D01*
X136413000Y-163308000D01*
X136412000Y-163305000D01*
X136412000Y-163303000D01*
X136411000Y-163300000D01*
X136411000Y-163298000D01*
X136410000Y-163295000D01*
X136410000Y-163293000D01*
X136410000Y-163290000D01*
X136410000Y-163050000D01*
X136410000Y-163047000D01*
X136410000Y-163045000D01*
X136411000Y-163042000D01*
X136411000Y-163040000D01*
X136412000Y-163037000D01*
X136412000Y-163035000D01*
X136413000Y-163032000D01*
X136414000Y-163030000D01*
X136415000Y-163027000D01*
X136417000Y-163025000D01*
X136418000Y-163023000D01*
X136420000Y-163021000D01*
X136421000Y-163019000D01*
X136423000Y-163017000D01*
X136425000Y-163015000D01*
X136427000Y-163013000D01*
X136429000Y-163011000D01*
X136431000Y-163010000D01*
X136433000Y-163008000D01*
X136435000Y-163007000D01*
X136437000Y-163005000D01*
X136440000Y-163004000D01*
X136442000Y-163003000D01*
X136445000Y-163002000D01*
X136447000Y-163002000D01*
X136450000Y-163001000D01*
X136452000Y-163001000D01*
X136455000Y-163000000D01*
X136457000Y-163000000D01*
X136460000Y-163000000D01*
X137065000Y-163000000D01*
X137068000Y-163000000D01*
X137070000Y-163000000D01*
X137073000Y-163001000D01*
G37*
X137073000Y-163001000D02*
X137075000Y-163001000D01*
X137078000Y-163002000D01*
X137080000Y-163002000D01*
X137083000Y-163003000D01*
X137085000Y-163004000D01*
X137088000Y-163005000D01*
X137090000Y-163007000D01*
X137092000Y-163008000D01*
X137094000Y-163010000D01*
X137096000Y-163011000D01*
X137098000Y-163013000D01*
X137100000Y-163015000D01*
X137102000Y-163017000D01*
X137104000Y-163019000D01*
X137105000Y-163021000D01*
X137107000Y-163023000D01*
X137108000Y-163025000D01*
X137110000Y-163027000D01*
X137111000Y-163030000D01*
X137112000Y-163032000D01*
X137113000Y-163035000D01*
X137113000Y-163037000D01*
X137114000Y-163040000D01*
X137114000Y-163042000D01*
X137115000Y-163045000D01*
X137115000Y-163047000D01*
X137115000Y-163050000D01*
X137115000Y-163290000D01*
X137115000Y-163293000D01*
X137115000Y-163295000D01*
X137114000Y-163298000D01*
X137114000Y-163300000D01*
X137113000Y-163303000D01*
X137113000Y-163305000D01*
X137112000Y-163308000D01*
X137111000Y-163310000D01*
X137110000Y-163313000D01*
X137108000Y-163315000D01*
X137107000Y-163317000D01*
X137105000Y-163319000D01*
X137104000Y-163321000D01*
X137102000Y-163323000D01*
X137100000Y-163325000D01*
X137098000Y-163327000D01*
X137096000Y-163329000D01*
X137094000Y-163330000D01*
X137092000Y-163332000D01*
X137090000Y-163333000D01*
X137088000Y-163335000D01*
X137085000Y-163336000D01*
X137083000Y-163337000D01*
X137080000Y-163338000D01*
X137078000Y-163338000D01*
X137075000Y-163339000D01*
X137073000Y-163339000D01*
X137070000Y-163340000D01*
X137068000Y-163340000D01*
X137065000Y-163340000D01*
X136460000Y-163340000D01*
X136457000Y-163340000D01*
X136455000Y-163340000D01*
X136452000Y-163339000D01*
X136450000Y-163339000D01*
X136447000Y-163338000D01*
X136445000Y-163338000D01*
X136442000Y-163337000D01*
X136440000Y-163336000D01*
X136437000Y-163335000D01*
X136435000Y-163333000D01*
X136433000Y-163332000D01*
X136431000Y-163330000D01*
X136429000Y-163329000D01*
X136427000Y-163327000D01*
X136425000Y-163325000D01*
X136423000Y-163323000D01*
X136421000Y-163321000D01*
X136420000Y-163319000D01*
X136418000Y-163317000D01*
X136417000Y-163315000D01*
X136415000Y-163313000D01*
X136414000Y-163310000D01*
X136413000Y-163308000D01*
X136412000Y-163305000D01*
X136412000Y-163303000D01*
X136411000Y-163300000D01*
X136411000Y-163298000D01*
X136410000Y-163295000D01*
X136410000Y-163293000D01*
X136410000Y-163290000D01*
X136410000Y-163050000D01*
X136410000Y-163047000D01*
X136410000Y-163045000D01*
X136411000Y-163042000D01*
X136411000Y-163040000D01*
X136412000Y-163037000D01*
X136412000Y-163035000D01*
X136413000Y-163032000D01*
X136414000Y-163030000D01*
X136415000Y-163027000D01*
X136417000Y-163025000D01*
X136418000Y-163023000D01*
X136420000Y-163021000D01*
X136421000Y-163019000D01*
X136423000Y-163017000D01*
X136425000Y-163015000D01*
X136427000Y-163013000D01*
X136429000Y-163011000D01*
X136431000Y-163010000D01*
X136433000Y-163008000D01*
X136435000Y-163007000D01*
X136437000Y-163005000D01*
X136440000Y-163004000D01*
X136442000Y-163003000D01*
X136445000Y-163002000D01*
X136447000Y-163002000D01*
X136450000Y-163001000D01*
X136452000Y-163001000D01*
X136455000Y-163000000D01*
X136457000Y-163000000D01*
X136460000Y-163000000D01*
X137065000Y-163000000D01*
X137068000Y-163000000D01*
X137070000Y-163000000D01*
X137073000Y-163001000D01*
G36*
X137908000Y-162001000D02*
G01*
X137910000Y-162001000D01*
X137913000Y-162002000D01*
X137915000Y-162002000D01*
X137918000Y-162003000D01*
X137920000Y-162004000D01*
X137923000Y-162005000D01*
X137925000Y-162007000D01*
X137927000Y-162008000D01*
X137929000Y-162010000D01*
X137931000Y-162011000D01*
X137933000Y-162013000D01*
X137935000Y-162015000D01*
X137937000Y-162017000D01*
X137939000Y-162019000D01*
X137940000Y-162021000D01*
X137942000Y-162023000D01*
X137943000Y-162025000D01*
X137945000Y-162027000D01*
X137946000Y-162030000D01*
X137947000Y-162032000D01*
X137948000Y-162035000D01*
X137948000Y-162037000D01*
X137949000Y-162040000D01*
X137949000Y-162042000D01*
X137950000Y-162045000D01*
X137950000Y-162047000D01*
X137950000Y-162050000D01*
X137950000Y-162290000D01*
X137950000Y-162293000D01*
X137950000Y-162295000D01*
X137949000Y-162298000D01*
X137949000Y-162300000D01*
X137948000Y-162303000D01*
X137948000Y-162305000D01*
X137947000Y-162308000D01*
X137946000Y-162310000D01*
X137945000Y-162313000D01*
X137943000Y-162315000D01*
X137942000Y-162317000D01*
X137940000Y-162319000D01*
X137939000Y-162321000D01*
X137937000Y-162323000D01*
X137935000Y-162325000D01*
X137933000Y-162327000D01*
X137931000Y-162329000D01*
X137929000Y-162330000D01*
X137927000Y-162332000D01*
X137925000Y-162333000D01*
X137923000Y-162335000D01*
X137920000Y-162336000D01*
X137918000Y-162337000D01*
X137915000Y-162338000D01*
X137913000Y-162338000D01*
X137910000Y-162339000D01*
X137908000Y-162339000D01*
X137905000Y-162340000D01*
X137903000Y-162340000D01*
X137900000Y-162340000D01*
X137295000Y-162340000D01*
X137292000Y-162340000D01*
X137290000Y-162340000D01*
X137287000Y-162339000D01*
X137285000Y-162339000D01*
X137282000Y-162338000D01*
X137280000Y-162338000D01*
X137277000Y-162337000D01*
X137275000Y-162336000D01*
X137272000Y-162335000D01*
X137270000Y-162333000D01*
X137268000Y-162332000D01*
X137266000Y-162330000D01*
X137264000Y-162329000D01*
X137262000Y-162327000D01*
X137260000Y-162325000D01*
X137258000Y-162323000D01*
X137256000Y-162321000D01*
X137255000Y-162319000D01*
X137253000Y-162317000D01*
X137252000Y-162315000D01*
X137250000Y-162313000D01*
X137249000Y-162310000D01*
X137248000Y-162308000D01*
X137247000Y-162305000D01*
X137247000Y-162303000D01*
X137246000Y-162300000D01*
X137246000Y-162298000D01*
X137245000Y-162295000D01*
X137245000Y-162293000D01*
X137245000Y-162290000D01*
X137245000Y-162050000D01*
X137245000Y-162047000D01*
X137245000Y-162045000D01*
X137246000Y-162042000D01*
X137246000Y-162040000D01*
X137247000Y-162037000D01*
X137247000Y-162035000D01*
X137248000Y-162032000D01*
X137249000Y-162030000D01*
X137250000Y-162027000D01*
X137252000Y-162025000D01*
X137253000Y-162023000D01*
X137255000Y-162021000D01*
X137256000Y-162019000D01*
X137258000Y-162017000D01*
X137260000Y-162015000D01*
X137262000Y-162013000D01*
X137264000Y-162011000D01*
X137266000Y-162010000D01*
X137268000Y-162008000D01*
X137270000Y-162007000D01*
X137272000Y-162005000D01*
X137275000Y-162004000D01*
X137277000Y-162003000D01*
X137280000Y-162002000D01*
X137282000Y-162002000D01*
X137285000Y-162001000D01*
X137287000Y-162001000D01*
X137290000Y-162000000D01*
X137292000Y-162000000D01*
X137295000Y-162000000D01*
X137900000Y-162000000D01*
X137903000Y-162000000D01*
X137905000Y-162000000D01*
X137908000Y-162001000D01*
G37*
X137908000Y-162001000D02*
X137910000Y-162001000D01*
X137913000Y-162002000D01*
X137915000Y-162002000D01*
X137918000Y-162003000D01*
X137920000Y-162004000D01*
X137923000Y-162005000D01*
X137925000Y-162007000D01*
X137927000Y-162008000D01*
X137929000Y-162010000D01*
X137931000Y-162011000D01*
X137933000Y-162013000D01*
X137935000Y-162015000D01*
X137937000Y-162017000D01*
X137939000Y-162019000D01*
X137940000Y-162021000D01*
X137942000Y-162023000D01*
X137943000Y-162025000D01*
X137945000Y-162027000D01*
X137946000Y-162030000D01*
X137947000Y-162032000D01*
X137948000Y-162035000D01*
X137948000Y-162037000D01*
X137949000Y-162040000D01*
X137949000Y-162042000D01*
X137950000Y-162045000D01*
X137950000Y-162047000D01*
X137950000Y-162050000D01*
X137950000Y-162290000D01*
X137950000Y-162293000D01*
X137950000Y-162295000D01*
X137949000Y-162298000D01*
X137949000Y-162300000D01*
X137948000Y-162303000D01*
X137948000Y-162305000D01*
X137947000Y-162308000D01*
X137946000Y-162310000D01*
X137945000Y-162313000D01*
X137943000Y-162315000D01*
X137942000Y-162317000D01*
X137940000Y-162319000D01*
X137939000Y-162321000D01*
X137937000Y-162323000D01*
X137935000Y-162325000D01*
X137933000Y-162327000D01*
X137931000Y-162329000D01*
X137929000Y-162330000D01*
X137927000Y-162332000D01*
X137925000Y-162333000D01*
X137923000Y-162335000D01*
X137920000Y-162336000D01*
X137918000Y-162337000D01*
X137915000Y-162338000D01*
X137913000Y-162338000D01*
X137910000Y-162339000D01*
X137908000Y-162339000D01*
X137905000Y-162340000D01*
X137903000Y-162340000D01*
X137900000Y-162340000D01*
X137295000Y-162340000D01*
X137292000Y-162340000D01*
X137290000Y-162340000D01*
X137287000Y-162339000D01*
X137285000Y-162339000D01*
X137282000Y-162338000D01*
X137280000Y-162338000D01*
X137277000Y-162337000D01*
X137275000Y-162336000D01*
X137272000Y-162335000D01*
X137270000Y-162333000D01*
X137268000Y-162332000D01*
X137266000Y-162330000D01*
X137264000Y-162329000D01*
X137262000Y-162327000D01*
X137260000Y-162325000D01*
X137258000Y-162323000D01*
X137256000Y-162321000D01*
X137255000Y-162319000D01*
X137253000Y-162317000D01*
X137252000Y-162315000D01*
X137250000Y-162313000D01*
X137249000Y-162310000D01*
X137248000Y-162308000D01*
X137247000Y-162305000D01*
X137247000Y-162303000D01*
X137246000Y-162300000D01*
X137246000Y-162298000D01*
X137245000Y-162295000D01*
X137245000Y-162293000D01*
X137245000Y-162290000D01*
X137245000Y-162050000D01*
X137245000Y-162047000D01*
X137245000Y-162045000D01*
X137246000Y-162042000D01*
X137246000Y-162040000D01*
X137247000Y-162037000D01*
X137247000Y-162035000D01*
X137248000Y-162032000D01*
X137249000Y-162030000D01*
X137250000Y-162027000D01*
X137252000Y-162025000D01*
X137253000Y-162023000D01*
X137255000Y-162021000D01*
X137256000Y-162019000D01*
X137258000Y-162017000D01*
X137260000Y-162015000D01*
X137262000Y-162013000D01*
X137264000Y-162011000D01*
X137266000Y-162010000D01*
X137268000Y-162008000D01*
X137270000Y-162007000D01*
X137272000Y-162005000D01*
X137275000Y-162004000D01*
X137277000Y-162003000D01*
X137280000Y-162002000D01*
X137282000Y-162002000D01*
X137285000Y-162001000D01*
X137287000Y-162001000D01*
X137290000Y-162000000D01*
X137292000Y-162000000D01*
X137295000Y-162000000D01*
X137900000Y-162000000D01*
X137903000Y-162000000D01*
X137905000Y-162000000D01*
X137908000Y-162001000D01*
G36*
X137908000Y-163001000D02*
G01*
X137910000Y-163001000D01*
X137913000Y-163002000D01*
X137915000Y-163002000D01*
X137918000Y-163003000D01*
X137920000Y-163004000D01*
X137923000Y-163005000D01*
X137925000Y-163007000D01*
X137927000Y-163008000D01*
X137929000Y-163010000D01*
X137931000Y-163011000D01*
X137933000Y-163013000D01*
X137935000Y-163015000D01*
X137937000Y-163017000D01*
X137939000Y-163019000D01*
X137940000Y-163021000D01*
X137942000Y-163023000D01*
X137943000Y-163025000D01*
X137945000Y-163027000D01*
X137946000Y-163030000D01*
X137947000Y-163032000D01*
X137948000Y-163035000D01*
X137948000Y-163037000D01*
X137949000Y-163040000D01*
X137949000Y-163042000D01*
X137950000Y-163045000D01*
X137950000Y-163047000D01*
X137950000Y-163050000D01*
X137950000Y-163290000D01*
X137950000Y-163293000D01*
X137950000Y-163295000D01*
X137949000Y-163298000D01*
X137949000Y-163300000D01*
X137948000Y-163303000D01*
X137948000Y-163305000D01*
X137947000Y-163308000D01*
X137946000Y-163310000D01*
X137945000Y-163313000D01*
X137943000Y-163315000D01*
X137942000Y-163317000D01*
X137940000Y-163319000D01*
X137939000Y-163321000D01*
X137937000Y-163323000D01*
X137935000Y-163325000D01*
X137933000Y-163327000D01*
X137931000Y-163329000D01*
X137929000Y-163330000D01*
X137927000Y-163332000D01*
X137925000Y-163333000D01*
X137923000Y-163335000D01*
X137920000Y-163336000D01*
X137918000Y-163337000D01*
X137915000Y-163338000D01*
X137913000Y-163338000D01*
X137910000Y-163339000D01*
X137908000Y-163339000D01*
X137905000Y-163340000D01*
X137903000Y-163340000D01*
X137900000Y-163340000D01*
X137295000Y-163340000D01*
X137292000Y-163340000D01*
X137290000Y-163340000D01*
X137287000Y-163339000D01*
X137285000Y-163339000D01*
X137282000Y-163338000D01*
X137280000Y-163338000D01*
X137277000Y-163337000D01*
X137275000Y-163336000D01*
X137272000Y-163335000D01*
X137270000Y-163333000D01*
X137268000Y-163332000D01*
X137266000Y-163330000D01*
X137264000Y-163329000D01*
X137262000Y-163327000D01*
X137260000Y-163325000D01*
X137258000Y-163323000D01*
X137256000Y-163321000D01*
X137255000Y-163319000D01*
X137253000Y-163317000D01*
X137252000Y-163315000D01*
X137250000Y-163313000D01*
X137249000Y-163310000D01*
X137248000Y-163308000D01*
X137247000Y-163305000D01*
X137247000Y-163303000D01*
X137246000Y-163300000D01*
X137246000Y-163298000D01*
X137245000Y-163295000D01*
X137245000Y-163293000D01*
X137245000Y-163290000D01*
X137245000Y-163050000D01*
X137245000Y-163047000D01*
X137245000Y-163045000D01*
X137246000Y-163042000D01*
X137246000Y-163040000D01*
X137247000Y-163037000D01*
X137247000Y-163035000D01*
X137248000Y-163032000D01*
X137249000Y-163030000D01*
X137250000Y-163027000D01*
X137252000Y-163025000D01*
X137253000Y-163023000D01*
X137255000Y-163021000D01*
X137256000Y-163019000D01*
X137258000Y-163017000D01*
X137260000Y-163015000D01*
X137262000Y-163013000D01*
X137264000Y-163011000D01*
X137266000Y-163010000D01*
X137268000Y-163008000D01*
X137270000Y-163007000D01*
X137272000Y-163005000D01*
X137275000Y-163004000D01*
X137277000Y-163003000D01*
X137280000Y-163002000D01*
X137282000Y-163002000D01*
X137285000Y-163001000D01*
X137287000Y-163001000D01*
X137290000Y-163000000D01*
X137292000Y-163000000D01*
X137295000Y-163000000D01*
X137900000Y-163000000D01*
X137903000Y-163000000D01*
X137905000Y-163000000D01*
X137908000Y-163001000D01*
G37*
X137908000Y-163001000D02*
X137910000Y-163001000D01*
X137913000Y-163002000D01*
X137915000Y-163002000D01*
X137918000Y-163003000D01*
X137920000Y-163004000D01*
X137923000Y-163005000D01*
X137925000Y-163007000D01*
X137927000Y-163008000D01*
X137929000Y-163010000D01*
X137931000Y-163011000D01*
X137933000Y-163013000D01*
X137935000Y-163015000D01*
X137937000Y-163017000D01*
X137939000Y-163019000D01*
X137940000Y-163021000D01*
X137942000Y-163023000D01*
X137943000Y-163025000D01*
X137945000Y-163027000D01*
X137946000Y-163030000D01*
X137947000Y-163032000D01*
X137948000Y-163035000D01*
X137948000Y-163037000D01*
X137949000Y-163040000D01*
X137949000Y-163042000D01*
X137950000Y-163045000D01*
X137950000Y-163047000D01*
X137950000Y-163050000D01*
X137950000Y-163290000D01*
X137950000Y-163293000D01*
X137950000Y-163295000D01*
X137949000Y-163298000D01*
X137949000Y-163300000D01*
X137948000Y-163303000D01*
X137948000Y-163305000D01*
X137947000Y-163308000D01*
X137946000Y-163310000D01*
X137945000Y-163313000D01*
X137943000Y-163315000D01*
X137942000Y-163317000D01*
X137940000Y-163319000D01*
X137939000Y-163321000D01*
X137937000Y-163323000D01*
X137935000Y-163325000D01*
X137933000Y-163327000D01*
X137931000Y-163329000D01*
X137929000Y-163330000D01*
X137927000Y-163332000D01*
X137925000Y-163333000D01*
X137923000Y-163335000D01*
X137920000Y-163336000D01*
X137918000Y-163337000D01*
X137915000Y-163338000D01*
X137913000Y-163338000D01*
X137910000Y-163339000D01*
X137908000Y-163339000D01*
X137905000Y-163340000D01*
X137903000Y-163340000D01*
X137900000Y-163340000D01*
X137295000Y-163340000D01*
X137292000Y-163340000D01*
X137290000Y-163340000D01*
X137287000Y-163339000D01*
X137285000Y-163339000D01*
X137282000Y-163338000D01*
X137280000Y-163338000D01*
X137277000Y-163337000D01*
X137275000Y-163336000D01*
X137272000Y-163335000D01*
X137270000Y-163333000D01*
X137268000Y-163332000D01*
X137266000Y-163330000D01*
X137264000Y-163329000D01*
X137262000Y-163327000D01*
X137260000Y-163325000D01*
X137258000Y-163323000D01*
X137256000Y-163321000D01*
X137255000Y-163319000D01*
X137253000Y-163317000D01*
X137252000Y-163315000D01*
X137250000Y-163313000D01*
X137249000Y-163310000D01*
X137248000Y-163308000D01*
X137247000Y-163305000D01*
X137247000Y-163303000D01*
X137246000Y-163300000D01*
X137246000Y-163298000D01*
X137245000Y-163295000D01*
X137245000Y-163293000D01*
X137245000Y-163290000D01*
X137245000Y-163050000D01*
X137245000Y-163047000D01*
X137245000Y-163045000D01*
X137246000Y-163042000D01*
X137246000Y-163040000D01*
X137247000Y-163037000D01*
X137247000Y-163035000D01*
X137248000Y-163032000D01*
X137249000Y-163030000D01*
X137250000Y-163027000D01*
X137252000Y-163025000D01*
X137253000Y-163023000D01*
X137255000Y-163021000D01*
X137256000Y-163019000D01*
X137258000Y-163017000D01*
X137260000Y-163015000D01*
X137262000Y-163013000D01*
X137264000Y-163011000D01*
X137266000Y-163010000D01*
X137268000Y-163008000D01*
X137270000Y-163007000D01*
X137272000Y-163005000D01*
X137275000Y-163004000D01*
X137277000Y-163003000D01*
X137280000Y-163002000D01*
X137282000Y-163002000D01*
X137285000Y-163001000D01*
X137287000Y-163001000D01*
X137290000Y-163000000D01*
X137292000Y-163000000D01*
X137295000Y-163000000D01*
X137900000Y-163000000D01*
X137903000Y-163000000D01*
X137905000Y-163000000D01*
X137908000Y-163001000D01*
G36*
X137908000Y-161501000D02*
G01*
X137910000Y-161501000D01*
X137913000Y-161502000D01*
X137915000Y-161502000D01*
X137918000Y-161503000D01*
X137920000Y-161504000D01*
X137923000Y-161505000D01*
X137925000Y-161507000D01*
X137927000Y-161508000D01*
X137929000Y-161510000D01*
X137931000Y-161511000D01*
X137933000Y-161513000D01*
X137935000Y-161515000D01*
X137937000Y-161517000D01*
X137939000Y-161519000D01*
X137940000Y-161521000D01*
X137942000Y-161523000D01*
X137943000Y-161525000D01*
X137945000Y-161527000D01*
X137946000Y-161530000D01*
X137947000Y-161532000D01*
X137948000Y-161535000D01*
X137948000Y-161537000D01*
X137949000Y-161540000D01*
X137949000Y-161542000D01*
X137950000Y-161545000D01*
X137950000Y-161547000D01*
X137950000Y-161550000D01*
X137950000Y-161790000D01*
X137950000Y-161793000D01*
X137950000Y-161795000D01*
X137949000Y-161798000D01*
X137949000Y-161800000D01*
X137948000Y-161803000D01*
X137948000Y-161805000D01*
X137947000Y-161808000D01*
X137946000Y-161810000D01*
X137945000Y-161813000D01*
X137943000Y-161815000D01*
X137942000Y-161817000D01*
X137940000Y-161819000D01*
X137939000Y-161821000D01*
X137937000Y-161823000D01*
X137935000Y-161825000D01*
X137933000Y-161827000D01*
X137931000Y-161829000D01*
X137929000Y-161830000D01*
X137927000Y-161832000D01*
X137925000Y-161833000D01*
X137923000Y-161835000D01*
X137920000Y-161836000D01*
X137918000Y-161837000D01*
X137915000Y-161838000D01*
X137913000Y-161838000D01*
X137910000Y-161839000D01*
X137908000Y-161839000D01*
X137905000Y-161840000D01*
X137903000Y-161840000D01*
X137900000Y-161840000D01*
X137295000Y-161840000D01*
X137292000Y-161840000D01*
X137290000Y-161840000D01*
X137287000Y-161839000D01*
X137285000Y-161839000D01*
X137282000Y-161838000D01*
X137280000Y-161838000D01*
X137277000Y-161837000D01*
X137275000Y-161836000D01*
X137272000Y-161835000D01*
X137270000Y-161833000D01*
X137268000Y-161832000D01*
X137266000Y-161830000D01*
X137264000Y-161829000D01*
X137262000Y-161827000D01*
X137260000Y-161825000D01*
X137258000Y-161823000D01*
X137256000Y-161821000D01*
X137255000Y-161819000D01*
X137253000Y-161817000D01*
X137252000Y-161815000D01*
X137250000Y-161813000D01*
X137249000Y-161810000D01*
X137248000Y-161808000D01*
X137247000Y-161805000D01*
X137247000Y-161803000D01*
X137246000Y-161800000D01*
X137246000Y-161798000D01*
X137245000Y-161795000D01*
X137245000Y-161793000D01*
X137245000Y-161790000D01*
X137245000Y-161550000D01*
X137245000Y-161547000D01*
X137245000Y-161545000D01*
X137246000Y-161542000D01*
X137246000Y-161540000D01*
X137247000Y-161537000D01*
X137247000Y-161535000D01*
X137248000Y-161532000D01*
X137249000Y-161530000D01*
X137250000Y-161527000D01*
X137252000Y-161525000D01*
X137253000Y-161523000D01*
X137255000Y-161521000D01*
X137256000Y-161519000D01*
X137258000Y-161517000D01*
X137260000Y-161515000D01*
X137262000Y-161513000D01*
X137264000Y-161511000D01*
X137266000Y-161510000D01*
X137268000Y-161508000D01*
X137270000Y-161507000D01*
X137272000Y-161505000D01*
X137275000Y-161504000D01*
X137277000Y-161503000D01*
X137280000Y-161502000D01*
X137282000Y-161502000D01*
X137285000Y-161501000D01*
X137287000Y-161501000D01*
X137290000Y-161500000D01*
X137292000Y-161500000D01*
X137295000Y-161500000D01*
X137900000Y-161500000D01*
X137903000Y-161500000D01*
X137905000Y-161500000D01*
X137908000Y-161501000D01*
G37*
X137908000Y-161501000D02*
X137910000Y-161501000D01*
X137913000Y-161502000D01*
X137915000Y-161502000D01*
X137918000Y-161503000D01*
X137920000Y-161504000D01*
X137923000Y-161505000D01*
X137925000Y-161507000D01*
X137927000Y-161508000D01*
X137929000Y-161510000D01*
X137931000Y-161511000D01*
X137933000Y-161513000D01*
X137935000Y-161515000D01*
X137937000Y-161517000D01*
X137939000Y-161519000D01*
X137940000Y-161521000D01*
X137942000Y-161523000D01*
X137943000Y-161525000D01*
X137945000Y-161527000D01*
X137946000Y-161530000D01*
X137947000Y-161532000D01*
X137948000Y-161535000D01*
X137948000Y-161537000D01*
X137949000Y-161540000D01*
X137949000Y-161542000D01*
X137950000Y-161545000D01*
X137950000Y-161547000D01*
X137950000Y-161550000D01*
X137950000Y-161790000D01*
X137950000Y-161793000D01*
X137950000Y-161795000D01*
X137949000Y-161798000D01*
X137949000Y-161800000D01*
X137948000Y-161803000D01*
X137948000Y-161805000D01*
X137947000Y-161808000D01*
X137946000Y-161810000D01*
X137945000Y-161813000D01*
X137943000Y-161815000D01*
X137942000Y-161817000D01*
X137940000Y-161819000D01*
X137939000Y-161821000D01*
X137937000Y-161823000D01*
X137935000Y-161825000D01*
X137933000Y-161827000D01*
X137931000Y-161829000D01*
X137929000Y-161830000D01*
X137927000Y-161832000D01*
X137925000Y-161833000D01*
X137923000Y-161835000D01*
X137920000Y-161836000D01*
X137918000Y-161837000D01*
X137915000Y-161838000D01*
X137913000Y-161838000D01*
X137910000Y-161839000D01*
X137908000Y-161839000D01*
X137905000Y-161840000D01*
X137903000Y-161840000D01*
X137900000Y-161840000D01*
X137295000Y-161840000D01*
X137292000Y-161840000D01*
X137290000Y-161840000D01*
X137287000Y-161839000D01*
X137285000Y-161839000D01*
X137282000Y-161838000D01*
X137280000Y-161838000D01*
X137277000Y-161837000D01*
X137275000Y-161836000D01*
X137272000Y-161835000D01*
X137270000Y-161833000D01*
X137268000Y-161832000D01*
X137266000Y-161830000D01*
X137264000Y-161829000D01*
X137262000Y-161827000D01*
X137260000Y-161825000D01*
X137258000Y-161823000D01*
X137256000Y-161821000D01*
X137255000Y-161819000D01*
X137253000Y-161817000D01*
X137252000Y-161815000D01*
X137250000Y-161813000D01*
X137249000Y-161810000D01*
X137248000Y-161808000D01*
X137247000Y-161805000D01*
X137247000Y-161803000D01*
X137246000Y-161800000D01*
X137246000Y-161798000D01*
X137245000Y-161795000D01*
X137245000Y-161793000D01*
X137245000Y-161790000D01*
X137245000Y-161550000D01*
X137245000Y-161547000D01*
X137245000Y-161545000D01*
X137246000Y-161542000D01*
X137246000Y-161540000D01*
X137247000Y-161537000D01*
X137247000Y-161535000D01*
X137248000Y-161532000D01*
X137249000Y-161530000D01*
X137250000Y-161527000D01*
X137252000Y-161525000D01*
X137253000Y-161523000D01*
X137255000Y-161521000D01*
X137256000Y-161519000D01*
X137258000Y-161517000D01*
X137260000Y-161515000D01*
X137262000Y-161513000D01*
X137264000Y-161511000D01*
X137266000Y-161510000D01*
X137268000Y-161508000D01*
X137270000Y-161507000D01*
X137272000Y-161505000D01*
X137275000Y-161504000D01*
X137277000Y-161503000D01*
X137280000Y-161502000D01*
X137282000Y-161502000D01*
X137285000Y-161501000D01*
X137287000Y-161501000D01*
X137290000Y-161500000D01*
X137292000Y-161500000D01*
X137295000Y-161500000D01*
X137900000Y-161500000D01*
X137903000Y-161500000D01*
X137905000Y-161500000D01*
X137908000Y-161501000D01*
G36*
X137908000Y-162401000D02*
G01*
X137910000Y-162401000D01*
X137913000Y-162402000D01*
X137915000Y-162402000D01*
X137918000Y-162403000D01*
X137920000Y-162404000D01*
X137923000Y-162405000D01*
X137925000Y-162407000D01*
X137927000Y-162408000D01*
X137929000Y-162410000D01*
X137931000Y-162411000D01*
X137933000Y-162413000D01*
X137935000Y-162415000D01*
X137937000Y-162417000D01*
X137939000Y-162419000D01*
X137940000Y-162421000D01*
X137942000Y-162423000D01*
X137943000Y-162425000D01*
X137945000Y-162427000D01*
X137946000Y-162430000D01*
X137947000Y-162432000D01*
X137948000Y-162435000D01*
X137948000Y-162437000D01*
X137949000Y-162440000D01*
X137949000Y-162442000D01*
X137950000Y-162445000D01*
X137950000Y-162447000D01*
X137950000Y-162450000D01*
X137950000Y-162890000D01*
X137950000Y-162893000D01*
X137950000Y-162895000D01*
X137949000Y-162898000D01*
X137949000Y-162900000D01*
X137948000Y-162903000D01*
X137948000Y-162905000D01*
X137947000Y-162908000D01*
X137946000Y-162910000D01*
X137945000Y-162913000D01*
X137943000Y-162915000D01*
X137942000Y-162917000D01*
X137940000Y-162919000D01*
X137939000Y-162921000D01*
X137937000Y-162923000D01*
X137935000Y-162925000D01*
X137933000Y-162927000D01*
X137931000Y-162929000D01*
X137929000Y-162930000D01*
X137927000Y-162932000D01*
X137925000Y-162933000D01*
X137923000Y-162935000D01*
X137920000Y-162936000D01*
X137918000Y-162937000D01*
X137915000Y-162938000D01*
X137913000Y-162938000D01*
X137910000Y-162939000D01*
X137908000Y-162939000D01*
X137905000Y-162940000D01*
X137903000Y-162940000D01*
X137900000Y-162940000D01*
X137295000Y-162940000D01*
X137292000Y-162940000D01*
X137290000Y-162940000D01*
X137287000Y-162939000D01*
X137285000Y-162939000D01*
X137282000Y-162938000D01*
X137280000Y-162938000D01*
X137277000Y-162937000D01*
X137275000Y-162936000D01*
X137272000Y-162935000D01*
X137270000Y-162933000D01*
X137268000Y-162932000D01*
X137266000Y-162930000D01*
X137264000Y-162929000D01*
X137262000Y-162927000D01*
X137260000Y-162925000D01*
X137258000Y-162923000D01*
X137256000Y-162921000D01*
X137255000Y-162919000D01*
X137253000Y-162917000D01*
X137252000Y-162915000D01*
X137250000Y-162913000D01*
X137249000Y-162910000D01*
X137248000Y-162908000D01*
X137247000Y-162905000D01*
X137247000Y-162903000D01*
X137246000Y-162900000D01*
X137246000Y-162898000D01*
X137245000Y-162895000D01*
X137245000Y-162893000D01*
X137245000Y-162890000D01*
X137245000Y-162450000D01*
X137245000Y-162447000D01*
X137245000Y-162445000D01*
X137246000Y-162442000D01*
X137246000Y-162440000D01*
X137247000Y-162437000D01*
X137247000Y-162435000D01*
X137248000Y-162432000D01*
X137249000Y-162430000D01*
X137250000Y-162427000D01*
X137252000Y-162425000D01*
X137253000Y-162423000D01*
X137255000Y-162421000D01*
X137256000Y-162419000D01*
X137258000Y-162417000D01*
X137260000Y-162415000D01*
X137262000Y-162413000D01*
X137264000Y-162411000D01*
X137266000Y-162410000D01*
X137268000Y-162408000D01*
X137270000Y-162407000D01*
X137272000Y-162405000D01*
X137275000Y-162404000D01*
X137277000Y-162403000D01*
X137280000Y-162402000D01*
X137282000Y-162402000D01*
X137285000Y-162401000D01*
X137287000Y-162401000D01*
X137290000Y-162400000D01*
X137292000Y-162400000D01*
X137295000Y-162400000D01*
X137900000Y-162400000D01*
X137903000Y-162400000D01*
X137905000Y-162400000D01*
X137908000Y-162401000D01*
G37*
X137908000Y-162401000D02*
X137910000Y-162401000D01*
X137913000Y-162402000D01*
X137915000Y-162402000D01*
X137918000Y-162403000D01*
X137920000Y-162404000D01*
X137923000Y-162405000D01*
X137925000Y-162407000D01*
X137927000Y-162408000D01*
X137929000Y-162410000D01*
X137931000Y-162411000D01*
X137933000Y-162413000D01*
X137935000Y-162415000D01*
X137937000Y-162417000D01*
X137939000Y-162419000D01*
X137940000Y-162421000D01*
X137942000Y-162423000D01*
X137943000Y-162425000D01*
X137945000Y-162427000D01*
X137946000Y-162430000D01*
X137947000Y-162432000D01*
X137948000Y-162435000D01*
X137948000Y-162437000D01*
X137949000Y-162440000D01*
X137949000Y-162442000D01*
X137950000Y-162445000D01*
X137950000Y-162447000D01*
X137950000Y-162450000D01*
X137950000Y-162890000D01*
X137950000Y-162893000D01*
X137950000Y-162895000D01*
X137949000Y-162898000D01*
X137949000Y-162900000D01*
X137948000Y-162903000D01*
X137948000Y-162905000D01*
X137947000Y-162908000D01*
X137946000Y-162910000D01*
X137945000Y-162913000D01*
X137943000Y-162915000D01*
X137942000Y-162917000D01*
X137940000Y-162919000D01*
X137939000Y-162921000D01*
X137937000Y-162923000D01*
X137935000Y-162925000D01*
X137933000Y-162927000D01*
X137931000Y-162929000D01*
X137929000Y-162930000D01*
X137927000Y-162932000D01*
X137925000Y-162933000D01*
X137923000Y-162935000D01*
X137920000Y-162936000D01*
X137918000Y-162937000D01*
X137915000Y-162938000D01*
X137913000Y-162938000D01*
X137910000Y-162939000D01*
X137908000Y-162939000D01*
X137905000Y-162940000D01*
X137903000Y-162940000D01*
X137900000Y-162940000D01*
X137295000Y-162940000D01*
X137292000Y-162940000D01*
X137290000Y-162940000D01*
X137287000Y-162939000D01*
X137285000Y-162939000D01*
X137282000Y-162938000D01*
X137280000Y-162938000D01*
X137277000Y-162937000D01*
X137275000Y-162936000D01*
X137272000Y-162935000D01*
X137270000Y-162933000D01*
X137268000Y-162932000D01*
X137266000Y-162930000D01*
X137264000Y-162929000D01*
X137262000Y-162927000D01*
X137260000Y-162925000D01*
X137258000Y-162923000D01*
X137256000Y-162921000D01*
X137255000Y-162919000D01*
X137253000Y-162917000D01*
X137252000Y-162915000D01*
X137250000Y-162913000D01*
X137249000Y-162910000D01*
X137248000Y-162908000D01*
X137247000Y-162905000D01*
X137247000Y-162903000D01*
X137246000Y-162900000D01*
X137246000Y-162898000D01*
X137245000Y-162895000D01*
X137245000Y-162893000D01*
X137245000Y-162890000D01*
X137245000Y-162450000D01*
X137245000Y-162447000D01*
X137245000Y-162445000D01*
X137246000Y-162442000D01*
X137246000Y-162440000D01*
X137247000Y-162437000D01*
X137247000Y-162435000D01*
X137248000Y-162432000D01*
X137249000Y-162430000D01*
X137250000Y-162427000D01*
X137252000Y-162425000D01*
X137253000Y-162423000D01*
X137255000Y-162421000D01*
X137256000Y-162419000D01*
X137258000Y-162417000D01*
X137260000Y-162415000D01*
X137262000Y-162413000D01*
X137264000Y-162411000D01*
X137266000Y-162410000D01*
X137268000Y-162408000D01*
X137270000Y-162407000D01*
X137272000Y-162405000D01*
X137275000Y-162404000D01*
X137277000Y-162403000D01*
X137280000Y-162402000D01*
X137282000Y-162402000D01*
X137285000Y-162401000D01*
X137287000Y-162401000D01*
X137290000Y-162400000D01*
X137292000Y-162400000D01*
X137295000Y-162400000D01*
X137900000Y-162400000D01*
X137903000Y-162400000D01*
X137905000Y-162400000D01*
X137908000Y-162401000D01*
G36*
X137908000Y-163501000D02*
G01*
X137910000Y-163501000D01*
X137913000Y-163502000D01*
X137915000Y-163502000D01*
X137918000Y-163503000D01*
X137920000Y-163504000D01*
X137923000Y-163505000D01*
X137925000Y-163507000D01*
X137927000Y-163508000D01*
X137929000Y-163510000D01*
X137931000Y-163511000D01*
X137933000Y-163513000D01*
X137935000Y-163515000D01*
X137937000Y-163517000D01*
X137939000Y-163519000D01*
X137940000Y-163521000D01*
X137942000Y-163523000D01*
X137943000Y-163525000D01*
X137945000Y-163527000D01*
X137946000Y-163530000D01*
X137947000Y-163532000D01*
X137948000Y-163535000D01*
X137948000Y-163537000D01*
X137949000Y-163540000D01*
X137949000Y-163542000D01*
X137950000Y-163545000D01*
X137950000Y-163547000D01*
X137950000Y-163550000D01*
X137950000Y-163790000D01*
X137950000Y-163793000D01*
X137950000Y-163795000D01*
X137949000Y-163798000D01*
X137949000Y-163800000D01*
X137948000Y-163803000D01*
X137948000Y-163805000D01*
X137947000Y-163808000D01*
X137946000Y-163810000D01*
X137945000Y-163813000D01*
X137943000Y-163815000D01*
X137942000Y-163817000D01*
X137940000Y-163819000D01*
X137939000Y-163821000D01*
X137937000Y-163823000D01*
X137935000Y-163825000D01*
X137933000Y-163827000D01*
X137931000Y-163829000D01*
X137929000Y-163830000D01*
X137927000Y-163832000D01*
X137925000Y-163833000D01*
X137923000Y-163835000D01*
X137920000Y-163836000D01*
X137918000Y-163837000D01*
X137915000Y-163838000D01*
X137913000Y-163838000D01*
X137910000Y-163839000D01*
X137908000Y-163839000D01*
X137905000Y-163840000D01*
X137903000Y-163840000D01*
X137900000Y-163840000D01*
X137295000Y-163840000D01*
X137292000Y-163840000D01*
X137290000Y-163840000D01*
X137287000Y-163839000D01*
X137285000Y-163839000D01*
X137282000Y-163838000D01*
X137280000Y-163838000D01*
X137277000Y-163837000D01*
X137275000Y-163836000D01*
X137272000Y-163835000D01*
X137270000Y-163833000D01*
X137268000Y-163832000D01*
X137266000Y-163830000D01*
X137264000Y-163829000D01*
X137262000Y-163827000D01*
X137260000Y-163825000D01*
X137258000Y-163823000D01*
X137256000Y-163821000D01*
X137255000Y-163819000D01*
X137253000Y-163817000D01*
X137252000Y-163815000D01*
X137250000Y-163813000D01*
X137249000Y-163810000D01*
X137248000Y-163808000D01*
X137247000Y-163805000D01*
X137247000Y-163803000D01*
X137246000Y-163800000D01*
X137246000Y-163798000D01*
X137245000Y-163795000D01*
X137245000Y-163793000D01*
X137245000Y-163790000D01*
X137245000Y-163550000D01*
X137245000Y-163547000D01*
X137245000Y-163545000D01*
X137246000Y-163542000D01*
X137246000Y-163540000D01*
X137247000Y-163537000D01*
X137247000Y-163535000D01*
X137248000Y-163532000D01*
X137249000Y-163530000D01*
X137250000Y-163527000D01*
X137252000Y-163525000D01*
X137253000Y-163523000D01*
X137255000Y-163521000D01*
X137256000Y-163519000D01*
X137258000Y-163517000D01*
X137260000Y-163515000D01*
X137262000Y-163513000D01*
X137264000Y-163511000D01*
X137266000Y-163510000D01*
X137268000Y-163508000D01*
X137270000Y-163507000D01*
X137272000Y-163505000D01*
X137275000Y-163504000D01*
X137277000Y-163503000D01*
X137280000Y-163502000D01*
X137282000Y-163502000D01*
X137285000Y-163501000D01*
X137287000Y-163501000D01*
X137290000Y-163500000D01*
X137292000Y-163500000D01*
X137295000Y-163500000D01*
X137900000Y-163500000D01*
X137903000Y-163500000D01*
X137905000Y-163500000D01*
X137908000Y-163501000D01*
G37*
X137908000Y-163501000D02*
X137910000Y-163501000D01*
X137913000Y-163502000D01*
X137915000Y-163502000D01*
X137918000Y-163503000D01*
X137920000Y-163504000D01*
X137923000Y-163505000D01*
X137925000Y-163507000D01*
X137927000Y-163508000D01*
X137929000Y-163510000D01*
X137931000Y-163511000D01*
X137933000Y-163513000D01*
X137935000Y-163515000D01*
X137937000Y-163517000D01*
X137939000Y-163519000D01*
X137940000Y-163521000D01*
X137942000Y-163523000D01*
X137943000Y-163525000D01*
X137945000Y-163527000D01*
X137946000Y-163530000D01*
X137947000Y-163532000D01*
X137948000Y-163535000D01*
X137948000Y-163537000D01*
X137949000Y-163540000D01*
X137949000Y-163542000D01*
X137950000Y-163545000D01*
X137950000Y-163547000D01*
X137950000Y-163550000D01*
X137950000Y-163790000D01*
X137950000Y-163793000D01*
X137950000Y-163795000D01*
X137949000Y-163798000D01*
X137949000Y-163800000D01*
X137948000Y-163803000D01*
X137948000Y-163805000D01*
X137947000Y-163808000D01*
X137946000Y-163810000D01*
X137945000Y-163813000D01*
X137943000Y-163815000D01*
X137942000Y-163817000D01*
X137940000Y-163819000D01*
X137939000Y-163821000D01*
X137937000Y-163823000D01*
X137935000Y-163825000D01*
X137933000Y-163827000D01*
X137931000Y-163829000D01*
X137929000Y-163830000D01*
X137927000Y-163832000D01*
X137925000Y-163833000D01*
X137923000Y-163835000D01*
X137920000Y-163836000D01*
X137918000Y-163837000D01*
X137915000Y-163838000D01*
X137913000Y-163838000D01*
X137910000Y-163839000D01*
X137908000Y-163839000D01*
X137905000Y-163840000D01*
X137903000Y-163840000D01*
X137900000Y-163840000D01*
X137295000Y-163840000D01*
X137292000Y-163840000D01*
X137290000Y-163840000D01*
X137287000Y-163839000D01*
X137285000Y-163839000D01*
X137282000Y-163838000D01*
X137280000Y-163838000D01*
X137277000Y-163837000D01*
X137275000Y-163836000D01*
X137272000Y-163835000D01*
X137270000Y-163833000D01*
X137268000Y-163832000D01*
X137266000Y-163830000D01*
X137264000Y-163829000D01*
X137262000Y-163827000D01*
X137260000Y-163825000D01*
X137258000Y-163823000D01*
X137256000Y-163821000D01*
X137255000Y-163819000D01*
X137253000Y-163817000D01*
X137252000Y-163815000D01*
X137250000Y-163813000D01*
X137249000Y-163810000D01*
X137248000Y-163808000D01*
X137247000Y-163805000D01*
X137247000Y-163803000D01*
X137246000Y-163800000D01*
X137246000Y-163798000D01*
X137245000Y-163795000D01*
X137245000Y-163793000D01*
X137245000Y-163790000D01*
X137245000Y-163550000D01*
X137245000Y-163547000D01*
X137245000Y-163545000D01*
X137246000Y-163542000D01*
X137246000Y-163540000D01*
X137247000Y-163537000D01*
X137247000Y-163535000D01*
X137248000Y-163532000D01*
X137249000Y-163530000D01*
X137250000Y-163527000D01*
X137252000Y-163525000D01*
X137253000Y-163523000D01*
X137255000Y-163521000D01*
X137256000Y-163519000D01*
X137258000Y-163517000D01*
X137260000Y-163515000D01*
X137262000Y-163513000D01*
X137264000Y-163511000D01*
X137266000Y-163510000D01*
X137268000Y-163508000D01*
X137270000Y-163507000D01*
X137272000Y-163505000D01*
X137275000Y-163504000D01*
X137277000Y-163503000D01*
X137280000Y-163502000D01*
X137282000Y-163502000D01*
X137285000Y-163501000D01*
X137287000Y-163501000D01*
X137290000Y-163500000D01*
X137292000Y-163500000D01*
X137295000Y-163500000D01*
X137900000Y-163500000D01*
X137903000Y-163500000D01*
X137905000Y-163500000D01*
X137908000Y-163501000D01*
G36*
X143470000Y-171220000D02*
G01*
X141470000Y-171220000D01*
X141470000Y-170820000D01*
X143470000Y-170820000D01*
X143470000Y-171220000D01*
G37*
X143470000Y-171220000D02*
X141470000Y-171220000D01*
X141470000Y-170820000D01*
X143470000Y-170820000D01*
X143470000Y-171220000D01*
G36*
X143470000Y-170720000D02*
G01*
X141470000Y-170720000D01*
X141470000Y-170320000D01*
X143470000Y-170320000D01*
X143470000Y-170720000D01*
G37*
X143470000Y-170720000D02*
X141470000Y-170720000D01*
X141470000Y-170320000D01*
X143470000Y-170320000D01*
X143470000Y-170720000D01*
G36*
X143470000Y-170220000D02*
G01*
X141470000Y-170220000D01*
X141470000Y-169820000D01*
X143470000Y-169820000D01*
X143470000Y-170220000D01*
G37*
X143470000Y-170220000D02*
X141470000Y-170220000D01*
X141470000Y-169820000D01*
X143470000Y-169820000D01*
X143470000Y-170220000D01*
G36*
X143470000Y-169720000D02*
G01*
X141470000Y-169720000D01*
X141470000Y-169320000D01*
X143470000Y-169320000D01*
X143470000Y-169720000D01*
G37*
X143470000Y-169720000D02*
X141470000Y-169720000D01*
X141470000Y-169320000D01*
X143470000Y-169320000D01*
X143470000Y-169720000D01*
G36*
X143470000Y-169220000D02*
G01*
X141470000Y-169220000D01*
X141470000Y-168820000D01*
X143470000Y-168820000D01*
X143470000Y-169220000D01*
G37*
X143470000Y-169220000D02*
X141470000Y-169220000D01*
X141470000Y-168820000D01*
X143470000Y-168820000D01*
X143470000Y-169220000D01*
G36*
X143470000Y-168720000D02*
G01*
X141470000Y-168720000D01*
X141470000Y-168320000D01*
X143470000Y-168320000D01*
X143470000Y-168720000D01*
G37*
X143470000Y-168720000D02*
X141470000Y-168720000D01*
X141470000Y-168320000D01*
X143470000Y-168320000D01*
X143470000Y-168720000D01*
G36*
X143470000Y-168220000D02*
G01*
X141470000Y-168220000D01*
X141470000Y-167820000D01*
X143470000Y-167820000D01*
X143470000Y-168220000D01*
G37*
X143470000Y-168220000D02*
X141470000Y-168220000D01*
X141470000Y-167820000D01*
X143470000Y-167820000D01*
X143470000Y-168220000D01*
G36*
X143470000Y-167720000D02*
G01*
X141470000Y-167720000D01*
X141470000Y-167320000D01*
X143470000Y-167320000D01*
X143470000Y-167720000D01*
G37*
X143470000Y-167720000D02*
X141470000Y-167720000D01*
X141470000Y-167320000D01*
X143470000Y-167320000D01*
X143470000Y-167720000D01*
G36*
X143470000Y-167220000D02*
G01*
X141470000Y-167220000D01*
X141470000Y-166820000D01*
X143470000Y-166820000D01*
X143470000Y-167220000D01*
G37*
X143470000Y-167220000D02*
X141470000Y-167220000D01*
X141470000Y-166820000D01*
X143470000Y-166820000D01*
X143470000Y-167220000D01*
G36*
X143470000Y-166720000D02*
G01*
X141470000Y-166720000D01*
X141470000Y-166320000D01*
X143470000Y-166320000D01*
X143470000Y-166720000D01*
G37*
X143470000Y-166720000D02*
X141470000Y-166720000D01*
X141470000Y-166320000D01*
X143470000Y-166320000D01*
X143470000Y-166720000D01*
G36*
X143470000Y-166220000D02*
G01*
X141470000Y-166220000D01*
X141470000Y-165820000D01*
X143470000Y-165820000D01*
X143470000Y-166220000D01*
G37*
X143470000Y-166220000D02*
X141470000Y-166220000D01*
X141470000Y-165820000D01*
X143470000Y-165820000D01*
X143470000Y-166220000D01*
G36*
X143470000Y-165720000D02*
G01*
X141470000Y-165720000D01*
X141470000Y-165320000D01*
X143470000Y-165320000D01*
X143470000Y-165720000D01*
G37*
X143470000Y-165720000D02*
X141470000Y-165720000D01*
X141470000Y-165320000D01*
X143470000Y-165320000D01*
X143470000Y-165720000D01*
G36*
X143470000Y-165220000D02*
G01*
X141470000Y-165220000D01*
X141470000Y-164820000D01*
X143470000Y-164820000D01*
X143470000Y-165220000D01*
G37*
X143470000Y-165220000D02*
X141470000Y-165220000D01*
X141470000Y-164820000D01*
X143470000Y-164820000D01*
X143470000Y-165220000D01*
G36*
X143470000Y-164720000D02*
G01*
X141470000Y-164720000D01*
X141470000Y-164320000D01*
X143470000Y-164320000D01*
X143470000Y-164720000D01*
G37*
X143470000Y-164720000D02*
X141470000Y-164720000D01*
X141470000Y-164320000D01*
X143470000Y-164320000D01*
X143470000Y-164720000D01*
G36*
X143470000Y-164220000D02*
G01*
X141470000Y-164220000D01*
X141470000Y-163820000D01*
X143470000Y-163820000D01*
X143470000Y-164220000D01*
G37*
X143470000Y-164220000D02*
X141470000Y-164220000D01*
X141470000Y-163820000D01*
X143470000Y-163820000D01*
X143470000Y-164220000D01*
G36*
X143470000Y-163720000D02*
G01*
X141470000Y-163720000D01*
X141470000Y-163320000D01*
X143470000Y-163320000D01*
X143470000Y-163720000D01*
G37*
X143470000Y-163720000D02*
X141470000Y-163720000D01*
X141470000Y-163320000D01*
X143470000Y-163320000D01*
X143470000Y-163720000D01*
G36*
X143470000Y-163220000D02*
G01*
X141470000Y-163220000D01*
X141470000Y-162820000D01*
X143470000Y-162820000D01*
X143470000Y-163220000D01*
G37*
X143470000Y-163220000D02*
X141470000Y-163220000D01*
X141470000Y-162820000D01*
X143470000Y-162820000D01*
X143470000Y-163220000D01*
G36*
X143470000Y-162720000D02*
G01*
X141470000Y-162720000D01*
X141470000Y-162320000D01*
X143470000Y-162320000D01*
X143470000Y-162720000D01*
G37*
X143470000Y-162720000D02*
X141470000Y-162720000D01*
X141470000Y-162320000D01*
X143470000Y-162320000D01*
X143470000Y-162720000D01*
G36*
X143470000Y-162220000D02*
G01*
X141470000Y-162220000D01*
X141470000Y-161820000D01*
X143470000Y-161820000D01*
X143470000Y-162220000D01*
G37*
X143470000Y-162220000D02*
X141470000Y-162220000D01*
X141470000Y-161820000D01*
X143470000Y-161820000D01*
X143470000Y-162220000D01*
G36*
X138493000Y-167101000D02*
G01*
X138495000Y-167101000D01*
X138498000Y-167102000D01*
X138500000Y-167102000D01*
X138503000Y-167103000D01*
X138505000Y-167104000D01*
X138508000Y-167105000D01*
X138510000Y-167107000D01*
X138512000Y-167108000D01*
X138514000Y-167110000D01*
X138516000Y-167111000D01*
X138518000Y-167113000D01*
X138520000Y-167115000D01*
X138522000Y-167117000D01*
X138524000Y-167119000D01*
X138525000Y-167121000D01*
X138527000Y-167123000D01*
X138528000Y-167125000D01*
X138530000Y-167127000D01*
X138531000Y-167130000D01*
X138532000Y-167132000D01*
X138533000Y-167135000D01*
X138533000Y-167137000D01*
X138534000Y-167140000D01*
X138534000Y-167142000D01*
X138535000Y-167145000D01*
X138535000Y-167147000D01*
X138535000Y-167150000D01*
X138535000Y-167390000D01*
X138535000Y-167393000D01*
X138535000Y-167395000D01*
X138534000Y-167398000D01*
X138534000Y-167400000D01*
X138533000Y-167403000D01*
X138533000Y-167405000D01*
X138532000Y-167408000D01*
X138531000Y-167410000D01*
X138530000Y-167413000D01*
X138528000Y-167415000D01*
X138527000Y-167417000D01*
X138525000Y-167419000D01*
X138524000Y-167421000D01*
X138522000Y-167423000D01*
X138520000Y-167425000D01*
X138518000Y-167427000D01*
X138516000Y-167429000D01*
X138514000Y-167430000D01*
X138512000Y-167432000D01*
X138510000Y-167433000D01*
X138508000Y-167435000D01*
X138505000Y-167436000D01*
X138503000Y-167437000D01*
X138500000Y-167438000D01*
X138498000Y-167438000D01*
X138495000Y-167439000D01*
X138493000Y-167439000D01*
X138490000Y-167440000D01*
X138488000Y-167440000D01*
X138485000Y-167440000D01*
X137880000Y-167440000D01*
X137877000Y-167440000D01*
X137875000Y-167440000D01*
X137872000Y-167439000D01*
X137870000Y-167439000D01*
X137867000Y-167438000D01*
X137865000Y-167438000D01*
X137862000Y-167437000D01*
X137860000Y-167436000D01*
X137857000Y-167435000D01*
X137855000Y-167433000D01*
X137853000Y-167432000D01*
X137851000Y-167430000D01*
X137849000Y-167429000D01*
X137847000Y-167427000D01*
X137845000Y-167425000D01*
X137843000Y-167423000D01*
X137841000Y-167421000D01*
X137840000Y-167419000D01*
X137838000Y-167417000D01*
X137837000Y-167415000D01*
X137835000Y-167413000D01*
X137834000Y-167410000D01*
X137833000Y-167408000D01*
X137832000Y-167405000D01*
X137832000Y-167403000D01*
X137831000Y-167400000D01*
X137831000Y-167398000D01*
X137830000Y-167395000D01*
X137830000Y-167393000D01*
X137830000Y-167390000D01*
X137830000Y-167150000D01*
X137830000Y-167147000D01*
X137830000Y-167145000D01*
X137831000Y-167142000D01*
X137831000Y-167140000D01*
X137832000Y-167137000D01*
X137832000Y-167135000D01*
X137833000Y-167132000D01*
X137834000Y-167130000D01*
X137835000Y-167127000D01*
X137837000Y-167125000D01*
X137838000Y-167123000D01*
X137840000Y-167121000D01*
X137841000Y-167119000D01*
X137843000Y-167117000D01*
X137845000Y-167115000D01*
X137847000Y-167113000D01*
X137849000Y-167111000D01*
X137851000Y-167110000D01*
X137853000Y-167108000D01*
X137855000Y-167107000D01*
X137857000Y-167105000D01*
X137860000Y-167104000D01*
X137862000Y-167103000D01*
X137865000Y-167102000D01*
X137867000Y-167102000D01*
X137870000Y-167101000D01*
X137872000Y-167101000D01*
X137875000Y-167100000D01*
X137877000Y-167100000D01*
X137880000Y-167100000D01*
X138485000Y-167100000D01*
X138488000Y-167100000D01*
X138490000Y-167100000D01*
X138493000Y-167101000D01*
G37*
X138493000Y-167101000D02*
X138495000Y-167101000D01*
X138498000Y-167102000D01*
X138500000Y-167102000D01*
X138503000Y-167103000D01*
X138505000Y-167104000D01*
X138508000Y-167105000D01*
X138510000Y-167107000D01*
X138512000Y-167108000D01*
X138514000Y-167110000D01*
X138516000Y-167111000D01*
X138518000Y-167113000D01*
X138520000Y-167115000D01*
X138522000Y-167117000D01*
X138524000Y-167119000D01*
X138525000Y-167121000D01*
X138527000Y-167123000D01*
X138528000Y-167125000D01*
X138530000Y-167127000D01*
X138531000Y-167130000D01*
X138532000Y-167132000D01*
X138533000Y-167135000D01*
X138533000Y-167137000D01*
X138534000Y-167140000D01*
X138534000Y-167142000D01*
X138535000Y-167145000D01*
X138535000Y-167147000D01*
X138535000Y-167150000D01*
X138535000Y-167390000D01*
X138535000Y-167393000D01*
X138535000Y-167395000D01*
X138534000Y-167398000D01*
X138534000Y-167400000D01*
X138533000Y-167403000D01*
X138533000Y-167405000D01*
X138532000Y-167408000D01*
X138531000Y-167410000D01*
X138530000Y-167413000D01*
X138528000Y-167415000D01*
X138527000Y-167417000D01*
X138525000Y-167419000D01*
X138524000Y-167421000D01*
X138522000Y-167423000D01*
X138520000Y-167425000D01*
X138518000Y-167427000D01*
X138516000Y-167429000D01*
X138514000Y-167430000D01*
X138512000Y-167432000D01*
X138510000Y-167433000D01*
X138508000Y-167435000D01*
X138505000Y-167436000D01*
X138503000Y-167437000D01*
X138500000Y-167438000D01*
X138498000Y-167438000D01*
X138495000Y-167439000D01*
X138493000Y-167439000D01*
X138490000Y-167440000D01*
X138488000Y-167440000D01*
X138485000Y-167440000D01*
X137880000Y-167440000D01*
X137877000Y-167440000D01*
X137875000Y-167440000D01*
X137872000Y-167439000D01*
X137870000Y-167439000D01*
X137867000Y-167438000D01*
X137865000Y-167438000D01*
X137862000Y-167437000D01*
X137860000Y-167436000D01*
X137857000Y-167435000D01*
X137855000Y-167433000D01*
X137853000Y-167432000D01*
X137851000Y-167430000D01*
X137849000Y-167429000D01*
X137847000Y-167427000D01*
X137845000Y-167425000D01*
X137843000Y-167423000D01*
X137841000Y-167421000D01*
X137840000Y-167419000D01*
X137838000Y-167417000D01*
X137837000Y-167415000D01*
X137835000Y-167413000D01*
X137834000Y-167410000D01*
X137833000Y-167408000D01*
X137832000Y-167405000D01*
X137832000Y-167403000D01*
X137831000Y-167400000D01*
X137831000Y-167398000D01*
X137830000Y-167395000D01*
X137830000Y-167393000D01*
X137830000Y-167390000D01*
X137830000Y-167150000D01*
X137830000Y-167147000D01*
X137830000Y-167145000D01*
X137831000Y-167142000D01*
X137831000Y-167140000D01*
X137832000Y-167137000D01*
X137832000Y-167135000D01*
X137833000Y-167132000D01*
X137834000Y-167130000D01*
X137835000Y-167127000D01*
X137837000Y-167125000D01*
X137838000Y-167123000D01*
X137840000Y-167121000D01*
X137841000Y-167119000D01*
X137843000Y-167117000D01*
X137845000Y-167115000D01*
X137847000Y-167113000D01*
X137849000Y-167111000D01*
X137851000Y-167110000D01*
X137853000Y-167108000D01*
X137855000Y-167107000D01*
X137857000Y-167105000D01*
X137860000Y-167104000D01*
X137862000Y-167103000D01*
X137865000Y-167102000D01*
X137867000Y-167102000D01*
X137870000Y-167101000D01*
X137872000Y-167101000D01*
X137875000Y-167100000D01*
X137877000Y-167100000D01*
X137880000Y-167100000D01*
X138485000Y-167100000D01*
X138488000Y-167100000D01*
X138490000Y-167100000D01*
X138493000Y-167101000D01*
G36*
X138493000Y-165101000D02*
G01*
X138495000Y-165101000D01*
X138498000Y-165102000D01*
X138500000Y-165102000D01*
X138503000Y-165103000D01*
X138505000Y-165104000D01*
X138508000Y-165105000D01*
X138510000Y-165107000D01*
X138512000Y-165108000D01*
X138514000Y-165110000D01*
X138516000Y-165111000D01*
X138518000Y-165113000D01*
X138520000Y-165115000D01*
X138522000Y-165117000D01*
X138524000Y-165119000D01*
X138525000Y-165121000D01*
X138527000Y-165123000D01*
X138528000Y-165125000D01*
X138530000Y-165127000D01*
X138531000Y-165130000D01*
X138532000Y-165132000D01*
X138533000Y-165135000D01*
X138533000Y-165137000D01*
X138534000Y-165140000D01*
X138534000Y-165142000D01*
X138535000Y-165145000D01*
X138535000Y-165147000D01*
X138535000Y-165150000D01*
X138535000Y-165390000D01*
X138535000Y-165393000D01*
X138535000Y-165395000D01*
X138534000Y-165398000D01*
X138534000Y-165400000D01*
X138533000Y-165403000D01*
X138533000Y-165405000D01*
X138532000Y-165408000D01*
X138531000Y-165410000D01*
X138530000Y-165413000D01*
X138528000Y-165415000D01*
X138527000Y-165417000D01*
X138525000Y-165419000D01*
X138524000Y-165421000D01*
X138522000Y-165423000D01*
X138520000Y-165425000D01*
X138518000Y-165427000D01*
X138516000Y-165429000D01*
X138514000Y-165430000D01*
X138512000Y-165432000D01*
X138510000Y-165433000D01*
X138508000Y-165435000D01*
X138505000Y-165436000D01*
X138503000Y-165437000D01*
X138500000Y-165438000D01*
X138498000Y-165438000D01*
X138495000Y-165439000D01*
X138493000Y-165439000D01*
X138490000Y-165440000D01*
X138488000Y-165440000D01*
X138485000Y-165440000D01*
X137880000Y-165440000D01*
X137877000Y-165440000D01*
X137875000Y-165440000D01*
X137872000Y-165439000D01*
X137870000Y-165439000D01*
X137867000Y-165438000D01*
X137865000Y-165438000D01*
X137862000Y-165437000D01*
X137860000Y-165436000D01*
X137857000Y-165435000D01*
X137855000Y-165433000D01*
X137853000Y-165432000D01*
X137851000Y-165430000D01*
X137849000Y-165429000D01*
X137847000Y-165427000D01*
X137845000Y-165425000D01*
X137843000Y-165423000D01*
X137841000Y-165421000D01*
X137840000Y-165419000D01*
X137838000Y-165417000D01*
X137837000Y-165415000D01*
X137835000Y-165413000D01*
X137834000Y-165410000D01*
X137833000Y-165408000D01*
X137832000Y-165405000D01*
X137832000Y-165403000D01*
X137831000Y-165400000D01*
X137831000Y-165398000D01*
X137830000Y-165395000D01*
X137830000Y-165393000D01*
X137830000Y-165390000D01*
X137830000Y-165150000D01*
X137830000Y-165147000D01*
X137830000Y-165145000D01*
X137831000Y-165142000D01*
X137831000Y-165140000D01*
X137832000Y-165137000D01*
X137832000Y-165135000D01*
X137833000Y-165132000D01*
X137834000Y-165130000D01*
X137835000Y-165127000D01*
X137837000Y-165125000D01*
X137838000Y-165123000D01*
X137840000Y-165121000D01*
X137841000Y-165119000D01*
X137843000Y-165117000D01*
X137845000Y-165115000D01*
X137847000Y-165113000D01*
X137849000Y-165111000D01*
X137851000Y-165110000D01*
X137853000Y-165108000D01*
X137855000Y-165107000D01*
X137857000Y-165105000D01*
X137860000Y-165104000D01*
X137862000Y-165103000D01*
X137865000Y-165102000D01*
X137867000Y-165102000D01*
X137870000Y-165101000D01*
X137872000Y-165101000D01*
X137875000Y-165100000D01*
X137877000Y-165100000D01*
X137880000Y-165100000D01*
X138485000Y-165100000D01*
X138488000Y-165100000D01*
X138490000Y-165100000D01*
X138493000Y-165101000D01*
G37*
X138493000Y-165101000D02*
X138495000Y-165101000D01*
X138498000Y-165102000D01*
X138500000Y-165102000D01*
X138503000Y-165103000D01*
X138505000Y-165104000D01*
X138508000Y-165105000D01*
X138510000Y-165107000D01*
X138512000Y-165108000D01*
X138514000Y-165110000D01*
X138516000Y-165111000D01*
X138518000Y-165113000D01*
X138520000Y-165115000D01*
X138522000Y-165117000D01*
X138524000Y-165119000D01*
X138525000Y-165121000D01*
X138527000Y-165123000D01*
X138528000Y-165125000D01*
X138530000Y-165127000D01*
X138531000Y-165130000D01*
X138532000Y-165132000D01*
X138533000Y-165135000D01*
X138533000Y-165137000D01*
X138534000Y-165140000D01*
X138534000Y-165142000D01*
X138535000Y-165145000D01*
X138535000Y-165147000D01*
X138535000Y-165150000D01*
X138535000Y-165390000D01*
X138535000Y-165393000D01*
X138535000Y-165395000D01*
X138534000Y-165398000D01*
X138534000Y-165400000D01*
X138533000Y-165403000D01*
X138533000Y-165405000D01*
X138532000Y-165408000D01*
X138531000Y-165410000D01*
X138530000Y-165413000D01*
X138528000Y-165415000D01*
X138527000Y-165417000D01*
X138525000Y-165419000D01*
X138524000Y-165421000D01*
X138522000Y-165423000D01*
X138520000Y-165425000D01*
X138518000Y-165427000D01*
X138516000Y-165429000D01*
X138514000Y-165430000D01*
X138512000Y-165432000D01*
X138510000Y-165433000D01*
X138508000Y-165435000D01*
X138505000Y-165436000D01*
X138503000Y-165437000D01*
X138500000Y-165438000D01*
X138498000Y-165438000D01*
X138495000Y-165439000D01*
X138493000Y-165439000D01*
X138490000Y-165440000D01*
X138488000Y-165440000D01*
X138485000Y-165440000D01*
X137880000Y-165440000D01*
X137877000Y-165440000D01*
X137875000Y-165440000D01*
X137872000Y-165439000D01*
X137870000Y-165439000D01*
X137867000Y-165438000D01*
X137865000Y-165438000D01*
X137862000Y-165437000D01*
X137860000Y-165436000D01*
X137857000Y-165435000D01*
X137855000Y-165433000D01*
X137853000Y-165432000D01*
X137851000Y-165430000D01*
X137849000Y-165429000D01*
X137847000Y-165427000D01*
X137845000Y-165425000D01*
X137843000Y-165423000D01*
X137841000Y-165421000D01*
X137840000Y-165419000D01*
X137838000Y-165417000D01*
X137837000Y-165415000D01*
X137835000Y-165413000D01*
X137834000Y-165410000D01*
X137833000Y-165408000D01*
X137832000Y-165405000D01*
X137832000Y-165403000D01*
X137831000Y-165400000D01*
X137831000Y-165398000D01*
X137830000Y-165395000D01*
X137830000Y-165393000D01*
X137830000Y-165390000D01*
X137830000Y-165150000D01*
X137830000Y-165147000D01*
X137830000Y-165145000D01*
X137831000Y-165142000D01*
X137831000Y-165140000D01*
X137832000Y-165137000D01*
X137832000Y-165135000D01*
X137833000Y-165132000D01*
X137834000Y-165130000D01*
X137835000Y-165127000D01*
X137837000Y-165125000D01*
X137838000Y-165123000D01*
X137840000Y-165121000D01*
X137841000Y-165119000D01*
X137843000Y-165117000D01*
X137845000Y-165115000D01*
X137847000Y-165113000D01*
X137849000Y-165111000D01*
X137851000Y-165110000D01*
X137853000Y-165108000D01*
X137855000Y-165107000D01*
X137857000Y-165105000D01*
X137860000Y-165104000D01*
X137862000Y-165103000D01*
X137865000Y-165102000D01*
X137867000Y-165102000D01*
X137870000Y-165101000D01*
X137872000Y-165101000D01*
X137875000Y-165100000D01*
X137877000Y-165100000D01*
X137880000Y-165100000D01*
X138485000Y-165100000D01*
X138488000Y-165100000D01*
X138490000Y-165100000D01*
X138493000Y-165101000D01*
G36*
X138493000Y-166001000D02*
G01*
X138495000Y-166001000D01*
X138498000Y-166002000D01*
X138500000Y-166002000D01*
X138503000Y-166003000D01*
X138505000Y-166004000D01*
X138508000Y-166005000D01*
X138510000Y-166007000D01*
X138512000Y-166008000D01*
X138514000Y-166010000D01*
X138516000Y-166011000D01*
X138518000Y-166013000D01*
X138520000Y-166015000D01*
X138522000Y-166017000D01*
X138524000Y-166019000D01*
X138525000Y-166021000D01*
X138527000Y-166023000D01*
X138528000Y-166025000D01*
X138530000Y-166027000D01*
X138531000Y-166030000D01*
X138532000Y-166032000D01*
X138533000Y-166035000D01*
X138533000Y-166037000D01*
X138534000Y-166040000D01*
X138534000Y-166042000D01*
X138535000Y-166045000D01*
X138535000Y-166047000D01*
X138535000Y-166050000D01*
X138535000Y-166490000D01*
X138535000Y-166493000D01*
X138535000Y-166495000D01*
X138534000Y-166498000D01*
X138534000Y-166500000D01*
X138533000Y-166503000D01*
X138533000Y-166505000D01*
X138532000Y-166508000D01*
X138531000Y-166510000D01*
X138530000Y-166513000D01*
X138528000Y-166515000D01*
X138527000Y-166517000D01*
X138525000Y-166519000D01*
X138524000Y-166521000D01*
X138522000Y-166523000D01*
X138520000Y-166525000D01*
X138518000Y-166527000D01*
X138516000Y-166529000D01*
X138514000Y-166530000D01*
X138512000Y-166532000D01*
X138510000Y-166533000D01*
X138508000Y-166535000D01*
X138505000Y-166536000D01*
X138503000Y-166537000D01*
X138500000Y-166538000D01*
X138498000Y-166538000D01*
X138495000Y-166539000D01*
X138493000Y-166539000D01*
X138490000Y-166540000D01*
X138488000Y-166540000D01*
X138485000Y-166540000D01*
X137880000Y-166540000D01*
X137877000Y-166540000D01*
X137875000Y-166540000D01*
X137872000Y-166539000D01*
X137870000Y-166539000D01*
X137867000Y-166538000D01*
X137865000Y-166538000D01*
X137862000Y-166537000D01*
X137860000Y-166536000D01*
X137857000Y-166535000D01*
X137855000Y-166533000D01*
X137853000Y-166532000D01*
X137851000Y-166530000D01*
X137849000Y-166529000D01*
X137847000Y-166527000D01*
X137845000Y-166525000D01*
X137843000Y-166523000D01*
X137841000Y-166521000D01*
X137840000Y-166519000D01*
X137838000Y-166517000D01*
X137837000Y-166515000D01*
X137835000Y-166513000D01*
X137834000Y-166510000D01*
X137833000Y-166508000D01*
X137832000Y-166505000D01*
X137832000Y-166503000D01*
X137831000Y-166500000D01*
X137831000Y-166498000D01*
X137830000Y-166495000D01*
X137830000Y-166493000D01*
X137830000Y-166490000D01*
X137830000Y-166050000D01*
X137830000Y-166047000D01*
X137830000Y-166045000D01*
X137831000Y-166042000D01*
X137831000Y-166040000D01*
X137832000Y-166037000D01*
X137832000Y-166035000D01*
X137833000Y-166032000D01*
X137834000Y-166030000D01*
X137835000Y-166027000D01*
X137837000Y-166025000D01*
X137838000Y-166023000D01*
X137840000Y-166021000D01*
X137841000Y-166019000D01*
X137843000Y-166017000D01*
X137845000Y-166015000D01*
X137847000Y-166013000D01*
X137849000Y-166011000D01*
X137851000Y-166010000D01*
X137853000Y-166008000D01*
X137855000Y-166007000D01*
X137857000Y-166005000D01*
X137860000Y-166004000D01*
X137862000Y-166003000D01*
X137865000Y-166002000D01*
X137867000Y-166002000D01*
X137870000Y-166001000D01*
X137872000Y-166001000D01*
X137875000Y-166000000D01*
X137877000Y-166000000D01*
X137880000Y-166000000D01*
X138485000Y-166000000D01*
X138488000Y-166000000D01*
X138490000Y-166000000D01*
X138493000Y-166001000D01*
G37*
X138493000Y-166001000D02*
X138495000Y-166001000D01*
X138498000Y-166002000D01*
X138500000Y-166002000D01*
X138503000Y-166003000D01*
X138505000Y-166004000D01*
X138508000Y-166005000D01*
X138510000Y-166007000D01*
X138512000Y-166008000D01*
X138514000Y-166010000D01*
X138516000Y-166011000D01*
X138518000Y-166013000D01*
X138520000Y-166015000D01*
X138522000Y-166017000D01*
X138524000Y-166019000D01*
X138525000Y-166021000D01*
X138527000Y-166023000D01*
X138528000Y-166025000D01*
X138530000Y-166027000D01*
X138531000Y-166030000D01*
X138532000Y-166032000D01*
X138533000Y-166035000D01*
X138533000Y-166037000D01*
X138534000Y-166040000D01*
X138534000Y-166042000D01*
X138535000Y-166045000D01*
X138535000Y-166047000D01*
X138535000Y-166050000D01*
X138535000Y-166490000D01*
X138535000Y-166493000D01*
X138535000Y-166495000D01*
X138534000Y-166498000D01*
X138534000Y-166500000D01*
X138533000Y-166503000D01*
X138533000Y-166505000D01*
X138532000Y-166508000D01*
X138531000Y-166510000D01*
X138530000Y-166513000D01*
X138528000Y-166515000D01*
X138527000Y-166517000D01*
X138525000Y-166519000D01*
X138524000Y-166521000D01*
X138522000Y-166523000D01*
X138520000Y-166525000D01*
X138518000Y-166527000D01*
X138516000Y-166529000D01*
X138514000Y-166530000D01*
X138512000Y-166532000D01*
X138510000Y-166533000D01*
X138508000Y-166535000D01*
X138505000Y-166536000D01*
X138503000Y-166537000D01*
X138500000Y-166538000D01*
X138498000Y-166538000D01*
X138495000Y-166539000D01*
X138493000Y-166539000D01*
X138490000Y-166540000D01*
X138488000Y-166540000D01*
X138485000Y-166540000D01*
X137880000Y-166540000D01*
X137877000Y-166540000D01*
X137875000Y-166540000D01*
X137872000Y-166539000D01*
X137870000Y-166539000D01*
X137867000Y-166538000D01*
X137865000Y-166538000D01*
X137862000Y-166537000D01*
X137860000Y-166536000D01*
X137857000Y-166535000D01*
X137855000Y-166533000D01*
X137853000Y-166532000D01*
X137851000Y-166530000D01*
X137849000Y-166529000D01*
X137847000Y-166527000D01*
X137845000Y-166525000D01*
X137843000Y-166523000D01*
X137841000Y-166521000D01*
X137840000Y-166519000D01*
X137838000Y-166517000D01*
X137837000Y-166515000D01*
X137835000Y-166513000D01*
X137834000Y-166510000D01*
X137833000Y-166508000D01*
X137832000Y-166505000D01*
X137832000Y-166503000D01*
X137831000Y-166500000D01*
X137831000Y-166498000D01*
X137830000Y-166495000D01*
X137830000Y-166493000D01*
X137830000Y-166490000D01*
X137830000Y-166050000D01*
X137830000Y-166047000D01*
X137830000Y-166045000D01*
X137831000Y-166042000D01*
X137831000Y-166040000D01*
X137832000Y-166037000D01*
X137832000Y-166035000D01*
X137833000Y-166032000D01*
X137834000Y-166030000D01*
X137835000Y-166027000D01*
X137837000Y-166025000D01*
X137838000Y-166023000D01*
X137840000Y-166021000D01*
X137841000Y-166019000D01*
X137843000Y-166017000D01*
X137845000Y-166015000D01*
X137847000Y-166013000D01*
X137849000Y-166011000D01*
X137851000Y-166010000D01*
X137853000Y-166008000D01*
X137855000Y-166007000D01*
X137857000Y-166005000D01*
X137860000Y-166004000D01*
X137862000Y-166003000D01*
X137865000Y-166002000D01*
X137867000Y-166002000D01*
X137870000Y-166001000D01*
X137872000Y-166001000D01*
X137875000Y-166000000D01*
X137877000Y-166000000D01*
X137880000Y-166000000D01*
X138485000Y-166000000D01*
X138488000Y-166000000D01*
X138490000Y-166000000D01*
X138493000Y-166001000D01*
G36*
X138493000Y-165601000D02*
G01*
X138495000Y-165601000D01*
X138498000Y-165602000D01*
X138500000Y-165602000D01*
X138503000Y-165603000D01*
X138505000Y-165604000D01*
X138508000Y-165605000D01*
X138510000Y-165607000D01*
X138512000Y-165608000D01*
X138514000Y-165610000D01*
X138516000Y-165611000D01*
X138518000Y-165613000D01*
X138520000Y-165615000D01*
X138522000Y-165617000D01*
X138524000Y-165619000D01*
X138525000Y-165621000D01*
X138527000Y-165623000D01*
X138528000Y-165625000D01*
X138530000Y-165627000D01*
X138531000Y-165630000D01*
X138532000Y-165632000D01*
X138533000Y-165635000D01*
X138533000Y-165637000D01*
X138534000Y-165640000D01*
X138534000Y-165642000D01*
X138535000Y-165645000D01*
X138535000Y-165647000D01*
X138535000Y-165650000D01*
X138535000Y-165890000D01*
X138535000Y-165893000D01*
X138535000Y-165895000D01*
X138534000Y-165898000D01*
X138534000Y-165900000D01*
X138533000Y-165903000D01*
X138533000Y-165905000D01*
X138532000Y-165908000D01*
X138531000Y-165910000D01*
X138530000Y-165913000D01*
X138528000Y-165915000D01*
X138527000Y-165917000D01*
X138525000Y-165919000D01*
X138524000Y-165921000D01*
X138522000Y-165923000D01*
X138520000Y-165925000D01*
X138518000Y-165927000D01*
X138516000Y-165929000D01*
X138514000Y-165930000D01*
X138512000Y-165932000D01*
X138510000Y-165933000D01*
X138508000Y-165935000D01*
X138505000Y-165936000D01*
X138503000Y-165937000D01*
X138500000Y-165938000D01*
X138498000Y-165938000D01*
X138495000Y-165939000D01*
X138493000Y-165939000D01*
X138490000Y-165940000D01*
X138488000Y-165940000D01*
X138485000Y-165940000D01*
X137880000Y-165940000D01*
X137877000Y-165940000D01*
X137875000Y-165940000D01*
X137872000Y-165939000D01*
X137870000Y-165939000D01*
X137867000Y-165938000D01*
X137865000Y-165938000D01*
X137862000Y-165937000D01*
X137860000Y-165936000D01*
X137857000Y-165935000D01*
X137855000Y-165933000D01*
X137853000Y-165932000D01*
X137851000Y-165930000D01*
X137849000Y-165929000D01*
X137847000Y-165927000D01*
X137845000Y-165925000D01*
X137843000Y-165923000D01*
X137841000Y-165921000D01*
X137840000Y-165919000D01*
X137838000Y-165917000D01*
X137837000Y-165915000D01*
X137835000Y-165913000D01*
X137834000Y-165910000D01*
X137833000Y-165908000D01*
X137832000Y-165905000D01*
X137832000Y-165903000D01*
X137831000Y-165900000D01*
X137831000Y-165898000D01*
X137830000Y-165895000D01*
X137830000Y-165893000D01*
X137830000Y-165890000D01*
X137830000Y-165650000D01*
X137830000Y-165647000D01*
X137830000Y-165645000D01*
X137831000Y-165642000D01*
X137831000Y-165640000D01*
X137832000Y-165637000D01*
X137832000Y-165635000D01*
X137833000Y-165632000D01*
X137834000Y-165630000D01*
X137835000Y-165627000D01*
X137837000Y-165625000D01*
X137838000Y-165623000D01*
X137840000Y-165621000D01*
X137841000Y-165619000D01*
X137843000Y-165617000D01*
X137845000Y-165615000D01*
X137847000Y-165613000D01*
X137849000Y-165611000D01*
X137851000Y-165610000D01*
X137853000Y-165608000D01*
X137855000Y-165607000D01*
X137857000Y-165605000D01*
X137860000Y-165604000D01*
X137862000Y-165603000D01*
X137865000Y-165602000D01*
X137867000Y-165602000D01*
X137870000Y-165601000D01*
X137872000Y-165601000D01*
X137875000Y-165600000D01*
X137877000Y-165600000D01*
X137880000Y-165600000D01*
X138485000Y-165600000D01*
X138488000Y-165600000D01*
X138490000Y-165600000D01*
X138493000Y-165601000D01*
G37*
X138493000Y-165601000D02*
X138495000Y-165601000D01*
X138498000Y-165602000D01*
X138500000Y-165602000D01*
X138503000Y-165603000D01*
X138505000Y-165604000D01*
X138508000Y-165605000D01*
X138510000Y-165607000D01*
X138512000Y-165608000D01*
X138514000Y-165610000D01*
X138516000Y-165611000D01*
X138518000Y-165613000D01*
X138520000Y-165615000D01*
X138522000Y-165617000D01*
X138524000Y-165619000D01*
X138525000Y-165621000D01*
X138527000Y-165623000D01*
X138528000Y-165625000D01*
X138530000Y-165627000D01*
X138531000Y-165630000D01*
X138532000Y-165632000D01*
X138533000Y-165635000D01*
X138533000Y-165637000D01*
X138534000Y-165640000D01*
X138534000Y-165642000D01*
X138535000Y-165645000D01*
X138535000Y-165647000D01*
X138535000Y-165650000D01*
X138535000Y-165890000D01*
X138535000Y-165893000D01*
X138535000Y-165895000D01*
X138534000Y-165898000D01*
X138534000Y-165900000D01*
X138533000Y-165903000D01*
X138533000Y-165905000D01*
X138532000Y-165908000D01*
X138531000Y-165910000D01*
X138530000Y-165913000D01*
X138528000Y-165915000D01*
X138527000Y-165917000D01*
X138525000Y-165919000D01*
X138524000Y-165921000D01*
X138522000Y-165923000D01*
X138520000Y-165925000D01*
X138518000Y-165927000D01*
X138516000Y-165929000D01*
X138514000Y-165930000D01*
X138512000Y-165932000D01*
X138510000Y-165933000D01*
X138508000Y-165935000D01*
X138505000Y-165936000D01*
X138503000Y-165937000D01*
X138500000Y-165938000D01*
X138498000Y-165938000D01*
X138495000Y-165939000D01*
X138493000Y-165939000D01*
X138490000Y-165940000D01*
X138488000Y-165940000D01*
X138485000Y-165940000D01*
X137880000Y-165940000D01*
X137877000Y-165940000D01*
X137875000Y-165940000D01*
X137872000Y-165939000D01*
X137870000Y-165939000D01*
X137867000Y-165938000D01*
X137865000Y-165938000D01*
X137862000Y-165937000D01*
X137860000Y-165936000D01*
X137857000Y-165935000D01*
X137855000Y-165933000D01*
X137853000Y-165932000D01*
X137851000Y-165930000D01*
X137849000Y-165929000D01*
X137847000Y-165927000D01*
X137845000Y-165925000D01*
X137843000Y-165923000D01*
X137841000Y-165921000D01*
X137840000Y-165919000D01*
X137838000Y-165917000D01*
X137837000Y-165915000D01*
X137835000Y-165913000D01*
X137834000Y-165910000D01*
X137833000Y-165908000D01*
X137832000Y-165905000D01*
X137832000Y-165903000D01*
X137831000Y-165900000D01*
X137831000Y-165898000D01*
X137830000Y-165895000D01*
X137830000Y-165893000D01*
X137830000Y-165890000D01*
X137830000Y-165650000D01*
X137830000Y-165647000D01*
X137830000Y-165645000D01*
X137831000Y-165642000D01*
X137831000Y-165640000D01*
X137832000Y-165637000D01*
X137832000Y-165635000D01*
X137833000Y-165632000D01*
X137834000Y-165630000D01*
X137835000Y-165627000D01*
X137837000Y-165625000D01*
X137838000Y-165623000D01*
X137840000Y-165621000D01*
X137841000Y-165619000D01*
X137843000Y-165617000D01*
X137845000Y-165615000D01*
X137847000Y-165613000D01*
X137849000Y-165611000D01*
X137851000Y-165610000D01*
X137853000Y-165608000D01*
X137855000Y-165607000D01*
X137857000Y-165605000D01*
X137860000Y-165604000D01*
X137862000Y-165603000D01*
X137865000Y-165602000D01*
X137867000Y-165602000D01*
X137870000Y-165601000D01*
X137872000Y-165601000D01*
X137875000Y-165600000D01*
X137877000Y-165600000D01*
X137880000Y-165600000D01*
X138485000Y-165600000D01*
X138488000Y-165600000D01*
X138490000Y-165600000D01*
X138493000Y-165601000D01*
G36*
X138493000Y-166601000D02*
G01*
X138495000Y-166601000D01*
X138498000Y-166602000D01*
X138500000Y-166602000D01*
X138503000Y-166603000D01*
X138505000Y-166604000D01*
X138508000Y-166605000D01*
X138510000Y-166607000D01*
X138512000Y-166608000D01*
X138514000Y-166610000D01*
X138516000Y-166611000D01*
X138518000Y-166613000D01*
X138520000Y-166615000D01*
X138522000Y-166617000D01*
X138524000Y-166619000D01*
X138525000Y-166621000D01*
X138527000Y-166623000D01*
X138528000Y-166625000D01*
X138530000Y-166627000D01*
X138531000Y-166630000D01*
X138532000Y-166632000D01*
X138533000Y-166635000D01*
X138533000Y-166637000D01*
X138534000Y-166640000D01*
X138534000Y-166642000D01*
X138535000Y-166645000D01*
X138535000Y-166647000D01*
X138535000Y-166650000D01*
X138535000Y-166890000D01*
X138535000Y-166893000D01*
X138535000Y-166895000D01*
X138534000Y-166898000D01*
X138534000Y-166900000D01*
X138533000Y-166903000D01*
X138533000Y-166905000D01*
X138532000Y-166908000D01*
X138531000Y-166910000D01*
X138530000Y-166913000D01*
X138528000Y-166915000D01*
X138527000Y-166917000D01*
X138525000Y-166919000D01*
X138524000Y-166921000D01*
X138522000Y-166923000D01*
X138520000Y-166925000D01*
X138518000Y-166927000D01*
X138516000Y-166929000D01*
X138514000Y-166930000D01*
X138512000Y-166932000D01*
X138510000Y-166933000D01*
X138508000Y-166935000D01*
X138505000Y-166936000D01*
X138503000Y-166937000D01*
X138500000Y-166938000D01*
X138498000Y-166938000D01*
X138495000Y-166939000D01*
X138493000Y-166939000D01*
X138490000Y-166940000D01*
X138488000Y-166940000D01*
X138485000Y-166940000D01*
X137880000Y-166940000D01*
X137877000Y-166940000D01*
X137875000Y-166940000D01*
X137872000Y-166939000D01*
X137870000Y-166939000D01*
X137867000Y-166938000D01*
X137865000Y-166938000D01*
X137862000Y-166937000D01*
X137860000Y-166936000D01*
X137857000Y-166935000D01*
X137855000Y-166933000D01*
X137853000Y-166932000D01*
X137851000Y-166930000D01*
X137849000Y-166929000D01*
X137847000Y-166927000D01*
X137845000Y-166925000D01*
X137843000Y-166923000D01*
X137841000Y-166921000D01*
X137840000Y-166919000D01*
X137838000Y-166917000D01*
X137837000Y-166915000D01*
X137835000Y-166913000D01*
X137834000Y-166910000D01*
X137833000Y-166908000D01*
X137832000Y-166905000D01*
X137832000Y-166903000D01*
X137831000Y-166900000D01*
X137831000Y-166898000D01*
X137830000Y-166895000D01*
X137830000Y-166893000D01*
X137830000Y-166890000D01*
X137830000Y-166650000D01*
X137830000Y-166647000D01*
X137830000Y-166645000D01*
X137831000Y-166642000D01*
X137831000Y-166640000D01*
X137832000Y-166637000D01*
X137832000Y-166635000D01*
X137833000Y-166632000D01*
X137834000Y-166630000D01*
X137835000Y-166627000D01*
X137837000Y-166625000D01*
X137838000Y-166623000D01*
X137840000Y-166621000D01*
X137841000Y-166619000D01*
X137843000Y-166617000D01*
X137845000Y-166615000D01*
X137847000Y-166613000D01*
X137849000Y-166611000D01*
X137851000Y-166610000D01*
X137853000Y-166608000D01*
X137855000Y-166607000D01*
X137857000Y-166605000D01*
X137860000Y-166604000D01*
X137862000Y-166603000D01*
X137865000Y-166602000D01*
X137867000Y-166602000D01*
X137870000Y-166601000D01*
X137872000Y-166601000D01*
X137875000Y-166600000D01*
X137877000Y-166600000D01*
X137880000Y-166600000D01*
X138485000Y-166600000D01*
X138488000Y-166600000D01*
X138490000Y-166600000D01*
X138493000Y-166601000D01*
G37*
X138493000Y-166601000D02*
X138495000Y-166601000D01*
X138498000Y-166602000D01*
X138500000Y-166602000D01*
X138503000Y-166603000D01*
X138505000Y-166604000D01*
X138508000Y-166605000D01*
X138510000Y-166607000D01*
X138512000Y-166608000D01*
X138514000Y-166610000D01*
X138516000Y-166611000D01*
X138518000Y-166613000D01*
X138520000Y-166615000D01*
X138522000Y-166617000D01*
X138524000Y-166619000D01*
X138525000Y-166621000D01*
X138527000Y-166623000D01*
X138528000Y-166625000D01*
X138530000Y-166627000D01*
X138531000Y-166630000D01*
X138532000Y-166632000D01*
X138533000Y-166635000D01*
X138533000Y-166637000D01*
X138534000Y-166640000D01*
X138534000Y-166642000D01*
X138535000Y-166645000D01*
X138535000Y-166647000D01*
X138535000Y-166650000D01*
X138535000Y-166890000D01*
X138535000Y-166893000D01*
X138535000Y-166895000D01*
X138534000Y-166898000D01*
X138534000Y-166900000D01*
X138533000Y-166903000D01*
X138533000Y-166905000D01*
X138532000Y-166908000D01*
X138531000Y-166910000D01*
X138530000Y-166913000D01*
X138528000Y-166915000D01*
X138527000Y-166917000D01*
X138525000Y-166919000D01*
X138524000Y-166921000D01*
X138522000Y-166923000D01*
X138520000Y-166925000D01*
X138518000Y-166927000D01*
X138516000Y-166929000D01*
X138514000Y-166930000D01*
X138512000Y-166932000D01*
X138510000Y-166933000D01*
X138508000Y-166935000D01*
X138505000Y-166936000D01*
X138503000Y-166937000D01*
X138500000Y-166938000D01*
X138498000Y-166938000D01*
X138495000Y-166939000D01*
X138493000Y-166939000D01*
X138490000Y-166940000D01*
X138488000Y-166940000D01*
X138485000Y-166940000D01*
X137880000Y-166940000D01*
X137877000Y-166940000D01*
X137875000Y-166940000D01*
X137872000Y-166939000D01*
X137870000Y-166939000D01*
X137867000Y-166938000D01*
X137865000Y-166938000D01*
X137862000Y-166937000D01*
X137860000Y-166936000D01*
X137857000Y-166935000D01*
X137855000Y-166933000D01*
X137853000Y-166932000D01*
X137851000Y-166930000D01*
X137849000Y-166929000D01*
X137847000Y-166927000D01*
X137845000Y-166925000D01*
X137843000Y-166923000D01*
X137841000Y-166921000D01*
X137840000Y-166919000D01*
X137838000Y-166917000D01*
X137837000Y-166915000D01*
X137835000Y-166913000D01*
X137834000Y-166910000D01*
X137833000Y-166908000D01*
X137832000Y-166905000D01*
X137832000Y-166903000D01*
X137831000Y-166900000D01*
X137831000Y-166898000D01*
X137830000Y-166895000D01*
X137830000Y-166893000D01*
X137830000Y-166890000D01*
X137830000Y-166650000D01*
X137830000Y-166647000D01*
X137830000Y-166645000D01*
X137831000Y-166642000D01*
X137831000Y-166640000D01*
X137832000Y-166637000D01*
X137832000Y-166635000D01*
X137833000Y-166632000D01*
X137834000Y-166630000D01*
X137835000Y-166627000D01*
X137837000Y-166625000D01*
X137838000Y-166623000D01*
X137840000Y-166621000D01*
X137841000Y-166619000D01*
X137843000Y-166617000D01*
X137845000Y-166615000D01*
X137847000Y-166613000D01*
X137849000Y-166611000D01*
X137851000Y-166610000D01*
X137853000Y-166608000D01*
X137855000Y-166607000D01*
X137857000Y-166605000D01*
X137860000Y-166604000D01*
X137862000Y-166603000D01*
X137865000Y-166602000D01*
X137867000Y-166602000D01*
X137870000Y-166601000D01*
X137872000Y-166601000D01*
X137875000Y-166600000D01*
X137877000Y-166600000D01*
X137880000Y-166600000D01*
X138485000Y-166600000D01*
X138488000Y-166600000D01*
X138490000Y-166600000D01*
X138493000Y-166601000D01*
G36*
X139328000Y-165601000D02*
G01*
X139330000Y-165601000D01*
X139333000Y-165602000D01*
X139335000Y-165602000D01*
X139338000Y-165603000D01*
X139340000Y-165604000D01*
X139343000Y-165605000D01*
X139345000Y-165607000D01*
X139347000Y-165608000D01*
X139349000Y-165610000D01*
X139351000Y-165611000D01*
X139353000Y-165613000D01*
X139355000Y-165615000D01*
X139357000Y-165617000D01*
X139359000Y-165619000D01*
X139360000Y-165621000D01*
X139362000Y-165623000D01*
X139363000Y-165625000D01*
X139365000Y-165627000D01*
X139366000Y-165630000D01*
X139367000Y-165632000D01*
X139368000Y-165635000D01*
X139368000Y-165637000D01*
X139369000Y-165640000D01*
X139369000Y-165642000D01*
X139370000Y-165645000D01*
X139370000Y-165647000D01*
X139370000Y-165650000D01*
X139370000Y-165890000D01*
X139370000Y-165893000D01*
X139370000Y-165895000D01*
X139369000Y-165898000D01*
X139369000Y-165900000D01*
X139368000Y-165903000D01*
X139368000Y-165905000D01*
X139367000Y-165908000D01*
X139366000Y-165910000D01*
X139365000Y-165913000D01*
X139363000Y-165915000D01*
X139362000Y-165917000D01*
X139360000Y-165919000D01*
X139359000Y-165921000D01*
X139357000Y-165923000D01*
X139355000Y-165925000D01*
X139353000Y-165927000D01*
X139351000Y-165929000D01*
X139349000Y-165930000D01*
X139347000Y-165932000D01*
X139345000Y-165933000D01*
X139343000Y-165935000D01*
X139340000Y-165936000D01*
X139338000Y-165937000D01*
X139335000Y-165938000D01*
X139333000Y-165938000D01*
X139330000Y-165939000D01*
X139328000Y-165939000D01*
X139325000Y-165940000D01*
X139323000Y-165940000D01*
X139320000Y-165940000D01*
X138715000Y-165940000D01*
X138712000Y-165940000D01*
X138710000Y-165940000D01*
X138707000Y-165939000D01*
X138705000Y-165939000D01*
X138702000Y-165938000D01*
X138700000Y-165938000D01*
X138697000Y-165937000D01*
X138695000Y-165936000D01*
X138692000Y-165935000D01*
X138690000Y-165933000D01*
X138688000Y-165932000D01*
X138686000Y-165930000D01*
X138684000Y-165929000D01*
X138682000Y-165927000D01*
X138680000Y-165925000D01*
X138678000Y-165923000D01*
X138676000Y-165921000D01*
X138675000Y-165919000D01*
X138673000Y-165917000D01*
X138672000Y-165915000D01*
X138670000Y-165913000D01*
X138669000Y-165910000D01*
X138668000Y-165908000D01*
X138667000Y-165905000D01*
X138667000Y-165903000D01*
X138666000Y-165900000D01*
X138666000Y-165898000D01*
X138665000Y-165895000D01*
X138665000Y-165893000D01*
X138665000Y-165890000D01*
X138665000Y-165650000D01*
X138665000Y-165647000D01*
X138665000Y-165645000D01*
X138666000Y-165642000D01*
X138666000Y-165640000D01*
X138667000Y-165637000D01*
X138667000Y-165635000D01*
X138668000Y-165632000D01*
X138669000Y-165630000D01*
X138670000Y-165627000D01*
X138672000Y-165625000D01*
X138673000Y-165623000D01*
X138675000Y-165621000D01*
X138676000Y-165619000D01*
X138678000Y-165617000D01*
X138680000Y-165615000D01*
X138682000Y-165613000D01*
X138684000Y-165611000D01*
X138686000Y-165610000D01*
X138688000Y-165608000D01*
X138690000Y-165607000D01*
X138692000Y-165605000D01*
X138695000Y-165604000D01*
X138697000Y-165603000D01*
X138700000Y-165602000D01*
X138702000Y-165602000D01*
X138705000Y-165601000D01*
X138707000Y-165601000D01*
X138710000Y-165600000D01*
X138712000Y-165600000D01*
X138715000Y-165600000D01*
X139320000Y-165600000D01*
X139323000Y-165600000D01*
X139325000Y-165600000D01*
X139328000Y-165601000D01*
G37*
X139328000Y-165601000D02*
X139330000Y-165601000D01*
X139333000Y-165602000D01*
X139335000Y-165602000D01*
X139338000Y-165603000D01*
X139340000Y-165604000D01*
X139343000Y-165605000D01*
X139345000Y-165607000D01*
X139347000Y-165608000D01*
X139349000Y-165610000D01*
X139351000Y-165611000D01*
X139353000Y-165613000D01*
X139355000Y-165615000D01*
X139357000Y-165617000D01*
X139359000Y-165619000D01*
X139360000Y-165621000D01*
X139362000Y-165623000D01*
X139363000Y-165625000D01*
X139365000Y-165627000D01*
X139366000Y-165630000D01*
X139367000Y-165632000D01*
X139368000Y-165635000D01*
X139368000Y-165637000D01*
X139369000Y-165640000D01*
X139369000Y-165642000D01*
X139370000Y-165645000D01*
X139370000Y-165647000D01*
X139370000Y-165650000D01*
X139370000Y-165890000D01*
X139370000Y-165893000D01*
X139370000Y-165895000D01*
X139369000Y-165898000D01*
X139369000Y-165900000D01*
X139368000Y-165903000D01*
X139368000Y-165905000D01*
X139367000Y-165908000D01*
X139366000Y-165910000D01*
X139365000Y-165913000D01*
X139363000Y-165915000D01*
X139362000Y-165917000D01*
X139360000Y-165919000D01*
X139359000Y-165921000D01*
X139357000Y-165923000D01*
X139355000Y-165925000D01*
X139353000Y-165927000D01*
X139351000Y-165929000D01*
X139349000Y-165930000D01*
X139347000Y-165932000D01*
X139345000Y-165933000D01*
X139343000Y-165935000D01*
X139340000Y-165936000D01*
X139338000Y-165937000D01*
X139335000Y-165938000D01*
X139333000Y-165938000D01*
X139330000Y-165939000D01*
X139328000Y-165939000D01*
X139325000Y-165940000D01*
X139323000Y-165940000D01*
X139320000Y-165940000D01*
X138715000Y-165940000D01*
X138712000Y-165940000D01*
X138710000Y-165940000D01*
X138707000Y-165939000D01*
X138705000Y-165939000D01*
X138702000Y-165938000D01*
X138700000Y-165938000D01*
X138697000Y-165937000D01*
X138695000Y-165936000D01*
X138692000Y-165935000D01*
X138690000Y-165933000D01*
X138688000Y-165932000D01*
X138686000Y-165930000D01*
X138684000Y-165929000D01*
X138682000Y-165927000D01*
X138680000Y-165925000D01*
X138678000Y-165923000D01*
X138676000Y-165921000D01*
X138675000Y-165919000D01*
X138673000Y-165917000D01*
X138672000Y-165915000D01*
X138670000Y-165913000D01*
X138669000Y-165910000D01*
X138668000Y-165908000D01*
X138667000Y-165905000D01*
X138667000Y-165903000D01*
X138666000Y-165900000D01*
X138666000Y-165898000D01*
X138665000Y-165895000D01*
X138665000Y-165893000D01*
X138665000Y-165890000D01*
X138665000Y-165650000D01*
X138665000Y-165647000D01*
X138665000Y-165645000D01*
X138666000Y-165642000D01*
X138666000Y-165640000D01*
X138667000Y-165637000D01*
X138667000Y-165635000D01*
X138668000Y-165632000D01*
X138669000Y-165630000D01*
X138670000Y-165627000D01*
X138672000Y-165625000D01*
X138673000Y-165623000D01*
X138675000Y-165621000D01*
X138676000Y-165619000D01*
X138678000Y-165617000D01*
X138680000Y-165615000D01*
X138682000Y-165613000D01*
X138684000Y-165611000D01*
X138686000Y-165610000D01*
X138688000Y-165608000D01*
X138690000Y-165607000D01*
X138692000Y-165605000D01*
X138695000Y-165604000D01*
X138697000Y-165603000D01*
X138700000Y-165602000D01*
X138702000Y-165602000D01*
X138705000Y-165601000D01*
X138707000Y-165601000D01*
X138710000Y-165600000D01*
X138712000Y-165600000D01*
X138715000Y-165600000D01*
X139320000Y-165600000D01*
X139323000Y-165600000D01*
X139325000Y-165600000D01*
X139328000Y-165601000D01*
G36*
X139328000Y-166601000D02*
G01*
X139330000Y-166601000D01*
X139333000Y-166602000D01*
X139335000Y-166602000D01*
X139338000Y-166603000D01*
X139340000Y-166604000D01*
X139343000Y-166605000D01*
X139345000Y-166607000D01*
X139347000Y-166608000D01*
X139349000Y-166610000D01*
X139351000Y-166611000D01*
X139353000Y-166613000D01*
X139355000Y-166615000D01*
X139357000Y-166617000D01*
X139359000Y-166619000D01*
X139360000Y-166621000D01*
X139362000Y-166623000D01*
X139363000Y-166625000D01*
X139365000Y-166627000D01*
X139366000Y-166630000D01*
X139367000Y-166632000D01*
X139368000Y-166635000D01*
X139368000Y-166637000D01*
X139369000Y-166640000D01*
X139369000Y-166642000D01*
X139370000Y-166645000D01*
X139370000Y-166647000D01*
X139370000Y-166650000D01*
X139370000Y-166890000D01*
X139370000Y-166893000D01*
X139370000Y-166895000D01*
X139369000Y-166898000D01*
X139369000Y-166900000D01*
X139368000Y-166903000D01*
X139368000Y-166905000D01*
X139367000Y-166908000D01*
X139366000Y-166910000D01*
X139365000Y-166913000D01*
X139363000Y-166915000D01*
X139362000Y-166917000D01*
X139360000Y-166919000D01*
X139359000Y-166921000D01*
X139357000Y-166923000D01*
X139355000Y-166925000D01*
X139353000Y-166927000D01*
X139351000Y-166929000D01*
X139349000Y-166930000D01*
X139347000Y-166932000D01*
X139345000Y-166933000D01*
X139343000Y-166935000D01*
X139340000Y-166936000D01*
X139338000Y-166937000D01*
X139335000Y-166938000D01*
X139333000Y-166938000D01*
X139330000Y-166939000D01*
X139328000Y-166939000D01*
X139325000Y-166940000D01*
X139323000Y-166940000D01*
X139320000Y-166940000D01*
X138715000Y-166940000D01*
X138712000Y-166940000D01*
X138710000Y-166940000D01*
X138707000Y-166939000D01*
X138705000Y-166939000D01*
X138702000Y-166938000D01*
X138700000Y-166938000D01*
X138697000Y-166937000D01*
X138695000Y-166936000D01*
X138692000Y-166935000D01*
X138690000Y-166933000D01*
X138688000Y-166932000D01*
X138686000Y-166930000D01*
X138684000Y-166929000D01*
X138682000Y-166927000D01*
X138680000Y-166925000D01*
X138678000Y-166923000D01*
X138676000Y-166921000D01*
X138675000Y-166919000D01*
X138673000Y-166917000D01*
X138672000Y-166915000D01*
X138670000Y-166913000D01*
X138669000Y-166910000D01*
X138668000Y-166908000D01*
X138667000Y-166905000D01*
X138667000Y-166903000D01*
X138666000Y-166900000D01*
X138666000Y-166898000D01*
X138665000Y-166895000D01*
X138665000Y-166893000D01*
X138665000Y-166890000D01*
X138665000Y-166650000D01*
X138665000Y-166647000D01*
X138665000Y-166645000D01*
X138666000Y-166642000D01*
X138666000Y-166640000D01*
X138667000Y-166637000D01*
X138667000Y-166635000D01*
X138668000Y-166632000D01*
X138669000Y-166630000D01*
X138670000Y-166627000D01*
X138672000Y-166625000D01*
X138673000Y-166623000D01*
X138675000Y-166621000D01*
X138676000Y-166619000D01*
X138678000Y-166617000D01*
X138680000Y-166615000D01*
X138682000Y-166613000D01*
X138684000Y-166611000D01*
X138686000Y-166610000D01*
X138688000Y-166608000D01*
X138690000Y-166607000D01*
X138692000Y-166605000D01*
X138695000Y-166604000D01*
X138697000Y-166603000D01*
X138700000Y-166602000D01*
X138702000Y-166602000D01*
X138705000Y-166601000D01*
X138707000Y-166601000D01*
X138710000Y-166600000D01*
X138712000Y-166600000D01*
X138715000Y-166600000D01*
X139320000Y-166600000D01*
X139323000Y-166600000D01*
X139325000Y-166600000D01*
X139328000Y-166601000D01*
G37*
X139328000Y-166601000D02*
X139330000Y-166601000D01*
X139333000Y-166602000D01*
X139335000Y-166602000D01*
X139338000Y-166603000D01*
X139340000Y-166604000D01*
X139343000Y-166605000D01*
X139345000Y-166607000D01*
X139347000Y-166608000D01*
X139349000Y-166610000D01*
X139351000Y-166611000D01*
X139353000Y-166613000D01*
X139355000Y-166615000D01*
X139357000Y-166617000D01*
X139359000Y-166619000D01*
X139360000Y-166621000D01*
X139362000Y-166623000D01*
X139363000Y-166625000D01*
X139365000Y-166627000D01*
X139366000Y-166630000D01*
X139367000Y-166632000D01*
X139368000Y-166635000D01*
X139368000Y-166637000D01*
X139369000Y-166640000D01*
X139369000Y-166642000D01*
X139370000Y-166645000D01*
X139370000Y-166647000D01*
X139370000Y-166650000D01*
X139370000Y-166890000D01*
X139370000Y-166893000D01*
X139370000Y-166895000D01*
X139369000Y-166898000D01*
X139369000Y-166900000D01*
X139368000Y-166903000D01*
X139368000Y-166905000D01*
X139367000Y-166908000D01*
X139366000Y-166910000D01*
X139365000Y-166913000D01*
X139363000Y-166915000D01*
X139362000Y-166917000D01*
X139360000Y-166919000D01*
X139359000Y-166921000D01*
X139357000Y-166923000D01*
X139355000Y-166925000D01*
X139353000Y-166927000D01*
X139351000Y-166929000D01*
X139349000Y-166930000D01*
X139347000Y-166932000D01*
X139345000Y-166933000D01*
X139343000Y-166935000D01*
X139340000Y-166936000D01*
X139338000Y-166937000D01*
X139335000Y-166938000D01*
X139333000Y-166938000D01*
X139330000Y-166939000D01*
X139328000Y-166939000D01*
X139325000Y-166940000D01*
X139323000Y-166940000D01*
X139320000Y-166940000D01*
X138715000Y-166940000D01*
X138712000Y-166940000D01*
X138710000Y-166940000D01*
X138707000Y-166939000D01*
X138705000Y-166939000D01*
X138702000Y-166938000D01*
X138700000Y-166938000D01*
X138697000Y-166937000D01*
X138695000Y-166936000D01*
X138692000Y-166935000D01*
X138690000Y-166933000D01*
X138688000Y-166932000D01*
X138686000Y-166930000D01*
X138684000Y-166929000D01*
X138682000Y-166927000D01*
X138680000Y-166925000D01*
X138678000Y-166923000D01*
X138676000Y-166921000D01*
X138675000Y-166919000D01*
X138673000Y-166917000D01*
X138672000Y-166915000D01*
X138670000Y-166913000D01*
X138669000Y-166910000D01*
X138668000Y-166908000D01*
X138667000Y-166905000D01*
X138667000Y-166903000D01*
X138666000Y-166900000D01*
X138666000Y-166898000D01*
X138665000Y-166895000D01*
X138665000Y-166893000D01*
X138665000Y-166890000D01*
X138665000Y-166650000D01*
X138665000Y-166647000D01*
X138665000Y-166645000D01*
X138666000Y-166642000D01*
X138666000Y-166640000D01*
X138667000Y-166637000D01*
X138667000Y-166635000D01*
X138668000Y-166632000D01*
X138669000Y-166630000D01*
X138670000Y-166627000D01*
X138672000Y-166625000D01*
X138673000Y-166623000D01*
X138675000Y-166621000D01*
X138676000Y-166619000D01*
X138678000Y-166617000D01*
X138680000Y-166615000D01*
X138682000Y-166613000D01*
X138684000Y-166611000D01*
X138686000Y-166610000D01*
X138688000Y-166608000D01*
X138690000Y-166607000D01*
X138692000Y-166605000D01*
X138695000Y-166604000D01*
X138697000Y-166603000D01*
X138700000Y-166602000D01*
X138702000Y-166602000D01*
X138705000Y-166601000D01*
X138707000Y-166601000D01*
X138710000Y-166600000D01*
X138712000Y-166600000D01*
X138715000Y-166600000D01*
X139320000Y-166600000D01*
X139323000Y-166600000D01*
X139325000Y-166600000D01*
X139328000Y-166601000D01*
G36*
X139328000Y-165101000D02*
G01*
X139330000Y-165101000D01*
X139333000Y-165102000D01*
X139335000Y-165102000D01*
X139338000Y-165103000D01*
X139340000Y-165104000D01*
X139343000Y-165105000D01*
X139345000Y-165107000D01*
X139347000Y-165108000D01*
X139349000Y-165110000D01*
X139351000Y-165111000D01*
X139353000Y-165113000D01*
X139355000Y-165115000D01*
X139357000Y-165117000D01*
X139359000Y-165119000D01*
X139360000Y-165121000D01*
X139362000Y-165123000D01*
X139363000Y-165125000D01*
X139365000Y-165127000D01*
X139366000Y-165130000D01*
X139367000Y-165132000D01*
X139368000Y-165135000D01*
X139368000Y-165137000D01*
X139369000Y-165140000D01*
X139369000Y-165142000D01*
X139370000Y-165145000D01*
X139370000Y-165147000D01*
X139370000Y-165150000D01*
X139370000Y-165390000D01*
X139370000Y-165393000D01*
X139370000Y-165395000D01*
X139369000Y-165398000D01*
X139369000Y-165400000D01*
X139368000Y-165403000D01*
X139368000Y-165405000D01*
X139367000Y-165408000D01*
X139366000Y-165410000D01*
X139365000Y-165413000D01*
X139363000Y-165415000D01*
X139362000Y-165417000D01*
X139360000Y-165419000D01*
X139359000Y-165421000D01*
X139357000Y-165423000D01*
X139355000Y-165425000D01*
X139353000Y-165427000D01*
X139351000Y-165429000D01*
X139349000Y-165430000D01*
X139347000Y-165432000D01*
X139345000Y-165433000D01*
X139343000Y-165435000D01*
X139340000Y-165436000D01*
X139338000Y-165437000D01*
X139335000Y-165438000D01*
X139333000Y-165438000D01*
X139330000Y-165439000D01*
X139328000Y-165439000D01*
X139325000Y-165440000D01*
X139323000Y-165440000D01*
X139320000Y-165440000D01*
X138715000Y-165440000D01*
X138712000Y-165440000D01*
X138710000Y-165440000D01*
X138707000Y-165439000D01*
X138705000Y-165439000D01*
X138702000Y-165438000D01*
X138700000Y-165438000D01*
X138697000Y-165437000D01*
X138695000Y-165436000D01*
X138692000Y-165435000D01*
X138690000Y-165433000D01*
X138688000Y-165432000D01*
X138686000Y-165430000D01*
X138684000Y-165429000D01*
X138682000Y-165427000D01*
X138680000Y-165425000D01*
X138678000Y-165423000D01*
X138676000Y-165421000D01*
X138675000Y-165419000D01*
X138673000Y-165417000D01*
X138672000Y-165415000D01*
X138670000Y-165413000D01*
X138669000Y-165410000D01*
X138668000Y-165408000D01*
X138667000Y-165405000D01*
X138667000Y-165403000D01*
X138666000Y-165400000D01*
X138666000Y-165398000D01*
X138665000Y-165395000D01*
X138665000Y-165393000D01*
X138665000Y-165390000D01*
X138665000Y-165150000D01*
X138665000Y-165147000D01*
X138665000Y-165145000D01*
X138666000Y-165142000D01*
X138666000Y-165140000D01*
X138667000Y-165137000D01*
X138667000Y-165135000D01*
X138668000Y-165132000D01*
X138669000Y-165130000D01*
X138670000Y-165127000D01*
X138672000Y-165125000D01*
X138673000Y-165123000D01*
X138675000Y-165121000D01*
X138676000Y-165119000D01*
X138678000Y-165117000D01*
X138680000Y-165115000D01*
X138682000Y-165113000D01*
X138684000Y-165111000D01*
X138686000Y-165110000D01*
X138688000Y-165108000D01*
X138690000Y-165107000D01*
X138692000Y-165105000D01*
X138695000Y-165104000D01*
X138697000Y-165103000D01*
X138700000Y-165102000D01*
X138702000Y-165102000D01*
X138705000Y-165101000D01*
X138707000Y-165101000D01*
X138710000Y-165100000D01*
X138712000Y-165100000D01*
X138715000Y-165100000D01*
X139320000Y-165100000D01*
X139323000Y-165100000D01*
X139325000Y-165100000D01*
X139328000Y-165101000D01*
G37*
X139328000Y-165101000D02*
X139330000Y-165101000D01*
X139333000Y-165102000D01*
X139335000Y-165102000D01*
X139338000Y-165103000D01*
X139340000Y-165104000D01*
X139343000Y-165105000D01*
X139345000Y-165107000D01*
X139347000Y-165108000D01*
X139349000Y-165110000D01*
X139351000Y-165111000D01*
X139353000Y-165113000D01*
X139355000Y-165115000D01*
X139357000Y-165117000D01*
X139359000Y-165119000D01*
X139360000Y-165121000D01*
X139362000Y-165123000D01*
X139363000Y-165125000D01*
X139365000Y-165127000D01*
X139366000Y-165130000D01*
X139367000Y-165132000D01*
X139368000Y-165135000D01*
X139368000Y-165137000D01*
X139369000Y-165140000D01*
X139369000Y-165142000D01*
X139370000Y-165145000D01*
X139370000Y-165147000D01*
X139370000Y-165150000D01*
X139370000Y-165390000D01*
X139370000Y-165393000D01*
X139370000Y-165395000D01*
X139369000Y-165398000D01*
X139369000Y-165400000D01*
X139368000Y-165403000D01*
X139368000Y-165405000D01*
X139367000Y-165408000D01*
X139366000Y-165410000D01*
X139365000Y-165413000D01*
X139363000Y-165415000D01*
X139362000Y-165417000D01*
X139360000Y-165419000D01*
X139359000Y-165421000D01*
X139357000Y-165423000D01*
X139355000Y-165425000D01*
X139353000Y-165427000D01*
X139351000Y-165429000D01*
X139349000Y-165430000D01*
X139347000Y-165432000D01*
X139345000Y-165433000D01*
X139343000Y-165435000D01*
X139340000Y-165436000D01*
X139338000Y-165437000D01*
X139335000Y-165438000D01*
X139333000Y-165438000D01*
X139330000Y-165439000D01*
X139328000Y-165439000D01*
X139325000Y-165440000D01*
X139323000Y-165440000D01*
X139320000Y-165440000D01*
X138715000Y-165440000D01*
X138712000Y-165440000D01*
X138710000Y-165440000D01*
X138707000Y-165439000D01*
X138705000Y-165439000D01*
X138702000Y-165438000D01*
X138700000Y-165438000D01*
X138697000Y-165437000D01*
X138695000Y-165436000D01*
X138692000Y-165435000D01*
X138690000Y-165433000D01*
X138688000Y-165432000D01*
X138686000Y-165430000D01*
X138684000Y-165429000D01*
X138682000Y-165427000D01*
X138680000Y-165425000D01*
X138678000Y-165423000D01*
X138676000Y-165421000D01*
X138675000Y-165419000D01*
X138673000Y-165417000D01*
X138672000Y-165415000D01*
X138670000Y-165413000D01*
X138669000Y-165410000D01*
X138668000Y-165408000D01*
X138667000Y-165405000D01*
X138667000Y-165403000D01*
X138666000Y-165400000D01*
X138666000Y-165398000D01*
X138665000Y-165395000D01*
X138665000Y-165393000D01*
X138665000Y-165390000D01*
X138665000Y-165150000D01*
X138665000Y-165147000D01*
X138665000Y-165145000D01*
X138666000Y-165142000D01*
X138666000Y-165140000D01*
X138667000Y-165137000D01*
X138667000Y-165135000D01*
X138668000Y-165132000D01*
X138669000Y-165130000D01*
X138670000Y-165127000D01*
X138672000Y-165125000D01*
X138673000Y-165123000D01*
X138675000Y-165121000D01*
X138676000Y-165119000D01*
X138678000Y-165117000D01*
X138680000Y-165115000D01*
X138682000Y-165113000D01*
X138684000Y-165111000D01*
X138686000Y-165110000D01*
X138688000Y-165108000D01*
X138690000Y-165107000D01*
X138692000Y-165105000D01*
X138695000Y-165104000D01*
X138697000Y-165103000D01*
X138700000Y-165102000D01*
X138702000Y-165102000D01*
X138705000Y-165101000D01*
X138707000Y-165101000D01*
X138710000Y-165100000D01*
X138712000Y-165100000D01*
X138715000Y-165100000D01*
X139320000Y-165100000D01*
X139323000Y-165100000D01*
X139325000Y-165100000D01*
X139328000Y-165101000D01*
G36*
X139328000Y-166001000D02*
G01*
X139330000Y-166001000D01*
X139333000Y-166002000D01*
X139335000Y-166002000D01*
X139338000Y-166003000D01*
X139340000Y-166004000D01*
X139343000Y-166005000D01*
X139345000Y-166007000D01*
X139347000Y-166008000D01*
X139349000Y-166010000D01*
X139351000Y-166011000D01*
X139353000Y-166013000D01*
X139355000Y-166015000D01*
X139357000Y-166017000D01*
X139359000Y-166019000D01*
X139360000Y-166021000D01*
X139362000Y-166023000D01*
X139363000Y-166025000D01*
X139365000Y-166027000D01*
X139366000Y-166030000D01*
X139367000Y-166032000D01*
X139368000Y-166035000D01*
X139368000Y-166037000D01*
X139369000Y-166040000D01*
X139369000Y-166042000D01*
X139370000Y-166045000D01*
X139370000Y-166047000D01*
X139370000Y-166050000D01*
X139370000Y-166490000D01*
X139370000Y-166493000D01*
X139370000Y-166495000D01*
X139369000Y-166498000D01*
X139369000Y-166500000D01*
X139368000Y-166503000D01*
X139368000Y-166505000D01*
X139367000Y-166508000D01*
X139366000Y-166510000D01*
X139365000Y-166513000D01*
X139363000Y-166515000D01*
X139362000Y-166517000D01*
X139360000Y-166519000D01*
X139359000Y-166521000D01*
X139357000Y-166523000D01*
X139355000Y-166525000D01*
X139353000Y-166527000D01*
X139351000Y-166529000D01*
X139349000Y-166530000D01*
X139347000Y-166532000D01*
X139345000Y-166533000D01*
X139343000Y-166535000D01*
X139340000Y-166536000D01*
X139338000Y-166537000D01*
X139335000Y-166538000D01*
X139333000Y-166538000D01*
X139330000Y-166539000D01*
X139328000Y-166539000D01*
X139325000Y-166540000D01*
X139323000Y-166540000D01*
X139320000Y-166540000D01*
X138715000Y-166540000D01*
X138712000Y-166540000D01*
X138710000Y-166540000D01*
X138707000Y-166539000D01*
X138705000Y-166539000D01*
X138702000Y-166538000D01*
X138700000Y-166538000D01*
X138697000Y-166537000D01*
X138695000Y-166536000D01*
X138692000Y-166535000D01*
X138690000Y-166533000D01*
X138688000Y-166532000D01*
X138686000Y-166530000D01*
X138684000Y-166529000D01*
X138682000Y-166527000D01*
X138680000Y-166525000D01*
X138678000Y-166523000D01*
X138676000Y-166521000D01*
X138675000Y-166519000D01*
X138673000Y-166517000D01*
X138672000Y-166515000D01*
X138670000Y-166513000D01*
X138669000Y-166510000D01*
X138668000Y-166508000D01*
X138667000Y-166505000D01*
X138667000Y-166503000D01*
X138666000Y-166500000D01*
X138666000Y-166498000D01*
X138665000Y-166495000D01*
X138665000Y-166493000D01*
X138665000Y-166490000D01*
X138665000Y-166050000D01*
X138665000Y-166047000D01*
X138665000Y-166045000D01*
X138666000Y-166042000D01*
X138666000Y-166040000D01*
X138667000Y-166037000D01*
X138667000Y-166035000D01*
X138668000Y-166032000D01*
X138669000Y-166030000D01*
X138670000Y-166027000D01*
X138672000Y-166025000D01*
X138673000Y-166023000D01*
X138675000Y-166021000D01*
X138676000Y-166019000D01*
X138678000Y-166017000D01*
X138680000Y-166015000D01*
X138682000Y-166013000D01*
X138684000Y-166011000D01*
X138686000Y-166010000D01*
X138688000Y-166008000D01*
X138690000Y-166007000D01*
X138692000Y-166005000D01*
X138695000Y-166004000D01*
X138697000Y-166003000D01*
X138700000Y-166002000D01*
X138702000Y-166002000D01*
X138705000Y-166001000D01*
X138707000Y-166001000D01*
X138710000Y-166000000D01*
X138712000Y-166000000D01*
X138715000Y-166000000D01*
X139320000Y-166000000D01*
X139323000Y-166000000D01*
X139325000Y-166000000D01*
X139328000Y-166001000D01*
G37*
X139328000Y-166001000D02*
X139330000Y-166001000D01*
X139333000Y-166002000D01*
X139335000Y-166002000D01*
X139338000Y-166003000D01*
X139340000Y-166004000D01*
X139343000Y-166005000D01*
X139345000Y-166007000D01*
X139347000Y-166008000D01*
X139349000Y-166010000D01*
X139351000Y-166011000D01*
X139353000Y-166013000D01*
X139355000Y-166015000D01*
X139357000Y-166017000D01*
X139359000Y-166019000D01*
X139360000Y-166021000D01*
X139362000Y-166023000D01*
X139363000Y-166025000D01*
X139365000Y-166027000D01*
X139366000Y-166030000D01*
X139367000Y-166032000D01*
X139368000Y-166035000D01*
X139368000Y-166037000D01*
X139369000Y-166040000D01*
X139369000Y-166042000D01*
X139370000Y-166045000D01*
X139370000Y-166047000D01*
X139370000Y-166050000D01*
X139370000Y-166490000D01*
X139370000Y-166493000D01*
X139370000Y-166495000D01*
X139369000Y-166498000D01*
X139369000Y-166500000D01*
X139368000Y-166503000D01*
X139368000Y-166505000D01*
X139367000Y-166508000D01*
X139366000Y-166510000D01*
X139365000Y-166513000D01*
X139363000Y-166515000D01*
X139362000Y-166517000D01*
X139360000Y-166519000D01*
X139359000Y-166521000D01*
X139357000Y-166523000D01*
X139355000Y-166525000D01*
X139353000Y-166527000D01*
X139351000Y-166529000D01*
X139349000Y-166530000D01*
X139347000Y-166532000D01*
X139345000Y-166533000D01*
X139343000Y-166535000D01*
X139340000Y-166536000D01*
X139338000Y-166537000D01*
X139335000Y-166538000D01*
X139333000Y-166538000D01*
X139330000Y-166539000D01*
X139328000Y-166539000D01*
X139325000Y-166540000D01*
X139323000Y-166540000D01*
X139320000Y-166540000D01*
X138715000Y-166540000D01*
X138712000Y-166540000D01*
X138710000Y-166540000D01*
X138707000Y-166539000D01*
X138705000Y-166539000D01*
X138702000Y-166538000D01*
X138700000Y-166538000D01*
X138697000Y-166537000D01*
X138695000Y-166536000D01*
X138692000Y-166535000D01*
X138690000Y-166533000D01*
X138688000Y-166532000D01*
X138686000Y-166530000D01*
X138684000Y-166529000D01*
X138682000Y-166527000D01*
X138680000Y-166525000D01*
X138678000Y-166523000D01*
X138676000Y-166521000D01*
X138675000Y-166519000D01*
X138673000Y-166517000D01*
X138672000Y-166515000D01*
X138670000Y-166513000D01*
X138669000Y-166510000D01*
X138668000Y-166508000D01*
X138667000Y-166505000D01*
X138667000Y-166503000D01*
X138666000Y-166500000D01*
X138666000Y-166498000D01*
X138665000Y-166495000D01*
X138665000Y-166493000D01*
X138665000Y-166490000D01*
X138665000Y-166050000D01*
X138665000Y-166047000D01*
X138665000Y-166045000D01*
X138666000Y-166042000D01*
X138666000Y-166040000D01*
X138667000Y-166037000D01*
X138667000Y-166035000D01*
X138668000Y-166032000D01*
X138669000Y-166030000D01*
X138670000Y-166027000D01*
X138672000Y-166025000D01*
X138673000Y-166023000D01*
X138675000Y-166021000D01*
X138676000Y-166019000D01*
X138678000Y-166017000D01*
X138680000Y-166015000D01*
X138682000Y-166013000D01*
X138684000Y-166011000D01*
X138686000Y-166010000D01*
X138688000Y-166008000D01*
X138690000Y-166007000D01*
X138692000Y-166005000D01*
X138695000Y-166004000D01*
X138697000Y-166003000D01*
X138700000Y-166002000D01*
X138702000Y-166002000D01*
X138705000Y-166001000D01*
X138707000Y-166001000D01*
X138710000Y-166000000D01*
X138712000Y-166000000D01*
X138715000Y-166000000D01*
X139320000Y-166000000D01*
X139323000Y-166000000D01*
X139325000Y-166000000D01*
X139328000Y-166001000D01*
G36*
X139328000Y-167101000D02*
G01*
X139330000Y-167101000D01*
X139333000Y-167102000D01*
X139335000Y-167102000D01*
X139338000Y-167103000D01*
X139340000Y-167104000D01*
X139343000Y-167105000D01*
X139345000Y-167107000D01*
X139347000Y-167108000D01*
X139349000Y-167110000D01*
X139351000Y-167111000D01*
X139353000Y-167113000D01*
X139355000Y-167115000D01*
X139357000Y-167117000D01*
X139359000Y-167119000D01*
X139360000Y-167121000D01*
X139362000Y-167123000D01*
X139363000Y-167125000D01*
X139365000Y-167127000D01*
X139366000Y-167130000D01*
X139367000Y-167132000D01*
X139368000Y-167135000D01*
X139368000Y-167137000D01*
X139369000Y-167140000D01*
X139369000Y-167142000D01*
X139370000Y-167145000D01*
X139370000Y-167147000D01*
X139370000Y-167150000D01*
X139370000Y-167390000D01*
X139370000Y-167393000D01*
X139370000Y-167395000D01*
X139369000Y-167398000D01*
X139369000Y-167400000D01*
X139368000Y-167403000D01*
X139368000Y-167405000D01*
X139367000Y-167408000D01*
X139366000Y-167410000D01*
X139365000Y-167413000D01*
X139363000Y-167415000D01*
X139362000Y-167417000D01*
X139360000Y-167419000D01*
X139359000Y-167421000D01*
X139357000Y-167423000D01*
X139355000Y-167425000D01*
X139353000Y-167427000D01*
X139351000Y-167429000D01*
X139349000Y-167430000D01*
X139347000Y-167432000D01*
X139345000Y-167433000D01*
X139343000Y-167435000D01*
X139340000Y-167436000D01*
X139338000Y-167437000D01*
X139335000Y-167438000D01*
X139333000Y-167438000D01*
X139330000Y-167439000D01*
X139328000Y-167439000D01*
X139325000Y-167440000D01*
X139323000Y-167440000D01*
X139320000Y-167440000D01*
X138715000Y-167440000D01*
X138712000Y-167440000D01*
X138710000Y-167440000D01*
X138707000Y-167439000D01*
X138705000Y-167439000D01*
X138702000Y-167438000D01*
X138700000Y-167438000D01*
X138697000Y-167437000D01*
X138695000Y-167436000D01*
X138692000Y-167435000D01*
X138690000Y-167433000D01*
X138688000Y-167432000D01*
X138686000Y-167430000D01*
X138684000Y-167429000D01*
X138682000Y-167427000D01*
X138680000Y-167425000D01*
X138678000Y-167423000D01*
X138676000Y-167421000D01*
X138675000Y-167419000D01*
X138673000Y-167417000D01*
X138672000Y-167415000D01*
X138670000Y-167413000D01*
X138669000Y-167410000D01*
X138668000Y-167408000D01*
X138667000Y-167405000D01*
X138667000Y-167403000D01*
X138666000Y-167400000D01*
X138666000Y-167398000D01*
X138665000Y-167395000D01*
X138665000Y-167393000D01*
X138665000Y-167390000D01*
X138665000Y-167150000D01*
X138665000Y-167147000D01*
X138665000Y-167145000D01*
X138666000Y-167142000D01*
X138666000Y-167140000D01*
X138667000Y-167137000D01*
X138667000Y-167135000D01*
X138668000Y-167132000D01*
X138669000Y-167130000D01*
X138670000Y-167127000D01*
X138672000Y-167125000D01*
X138673000Y-167123000D01*
X138675000Y-167121000D01*
X138676000Y-167119000D01*
X138678000Y-167117000D01*
X138680000Y-167115000D01*
X138682000Y-167113000D01*
X138684000Y-167111000D01*
X138686000Y-167110000D01*
X138688000Y-167108000D01*
X138690000Y-167107000D01*
X138692000Y-167105000D01*
X138695000Y-167104000D01*
X138697000Y-167103000D01*
X138700000Y-167102000D01*
X138702000Y-167102000D01*
X138705000Y-167101000D01*
X138707000Y-167101000D01*
X138710000Y-167100000D01*
X138712000Y-167100000D01*
X138715000Y-167100000D01*
X139320000Y-167100000D01*
X139323000Y-167100000D01*
X139325000Y-167100000D01*
X139328000Y-167101000D01*
G37*
X139328000Y-167101000D02*
X139330000Y-167101000D01*
X139333000Y-167102000D01*
X139335000Y-167102000D01*
X139338000Y-167103000D01*
X139340000Y-167104000D01*
X139343000Y-167105000D01*
X139345000Y-167107000D01*
X139347000Y-167108000D01*
X139349000Y-167110000D01*
X139351000Y-167111000D01*
X139353000Y-167113000D01*
X139355000Y-167115000D01*
X139357000Y-167117000D01*
X139359000Y-167119000D01*
X139360000Y-167121000D01*
X139362000Y-167123000D01*
X139363000Y-167125000D01*
X139365000Y-167127000D01*
X139366000Y-167130000D01*
X139367000Y-167132000D01*
X139368000Y-167135000D01*
X139368000Y-167137000D01*
X139369000Y-167140000D01*
X139369000Y-167142000D01*
X139370000Y-167145000D01*
X139370000Y-167147000D01*
X139370000Y-167150000D01*
X139370000Y-167390000D01*
X139370000Y-167393000D01*
X139370000Y-167395000D01*
X139369000Y-167398000D01*
X139369000Y-167400000D01*
X139368000Y-167403000D01*
X139368000Y-167405000D01*
X139367000Y-167408000D01*
X139366000Y-167410000D01*
X139365000Y-167413000D01*
X139363000Y-167415000D01*
X139362000Y-167417000D01*
X139360000Y-167419000D01*
X139359000Y-167421000D01*
X139357000Y-167423000D01*
X139355000Y-167425000D01*
X139353000Y-167427000D01*
X139351000Y-167429000D01*
X139349000Y-167430000D01*
X139347000Y-167432000D01*
X139345000Y-167433000D01*
X139343000Y-167435000D01*
X139340000Y-167436000D01*
X139338000Y-167437000D01*
X139335000Y-167438000D01*
X139333000Y-167438000D01*
X139330000Y-167439000D01*
X139328000Y-167439000D01*
X139325000Y-167440000D01*
X139323000Y-167440000D01*
X139320000Y-167440000D01*
X138715000Y-167440000D01*
X138712000Y-167440000D01*
X138710000Y-167440000D01*
X138707000Y-167439000D01*
X138705000Y-167439000D01*
X138702000Y-167438000D01*
X138700000Y-167438000D01*
X138697000Y-167437000D01*
X138695000Y-167436000D01*
X138692000Y-167435000D01*
X138690000Y-167433000D01*
X138688000Y-167432000D01*
X138686000Y-167430000D01*
X138684000Y-167429000D01*
X138682000Y-167427000D01*
X138680000Y-167425000D01*
X138678000Y-167423000D01*
X138676000Y-167421000D01*
X138675000Y-167419000D01*
X138673000Y-167417000D01*
X138672000Y-167415000D01*
X138670000Y-167413000D01*
X138669000Y-167410000D01*
X138668000Y-167408000D01*
X138667000Y-167405000D01*
X138667000Y-167403000D01*
X138666000Y-167400000D01*
X138666000Y-167398000D01*
X138665000Y-167395000D01*
X138665000Y-167393000D01*
X138665000Y-167390000D01*
X138665000Y-167150000D01*
X138665000Y-167147000D01*
X138665000Y-167145000D01*
X138666000Y-167142000D01*
X138666000Y-167140000D01*
X138667000Y-167137000D01*
X138667000Y-167135000D01*
X138668000Y-167132000D01*
X138669000Y-167130000D01*
X138670000Y-167127000D01*
X138672000Y-167125000D01*
X138673000Y-167123000D01*
X138675000Y-167121000D01*
X138676000Y-167119000D01*
X138678000Y-167117000D01*
X138680000Y-167115000D01*
X138682000Y-167113000D01*
X138684000Y-167111000D01*
X138686000Y-167110000D01*
X138688000Y-167108000D01*
X138690000Y-167107000D01*
X138692000Y-167105000D01*
X138695000Y-167104000D01*
X138697000Y-167103000D01*
X138700000Y-167102000D01*
X138702000Y-167102000D01*
X138705000Y-167101000D01*
X138707000Y-167101000D01*
X138710000Y-167100000D01*
X138712000Y-167100000D01*
X138715000Y-167100000D01*
X139320000Y-167100000D01*
X139323000Y-167100000D01*
X139325000Y-167100000D01*
X139328000Y-167101000D01*
D11*
X135479999Y-170186099D03*
X135479999Y-169093899D03*
D12*
X59250399Y-195629999D03*
X59250399Y-194436199D03*
X122869999Y-165663099D03*
X122869999Y-166856899D03*
D13*
X126360000Y-207939000D03*
X126360000Y-207075000D03*
D14*
X132360000Y-207075000D03*
X132360000Y-207939000D03*
D15*
X67198799Y-142709499D03*
X68646599Y-142709499D03*
D16*
X58460000Y-149728200D03*
X58460000Y-148051800D03*
D17*
X113795000Y-159135000D03*
X114659000Y-159135000D03*
D18*
X128056099Y-201199999D03*
X126963899Y-201199999D03*
D19*
X109841500Y-214710000D03*
X109841500Y-216470000D03*
D11*
X101696199Y-148207899D03*
X101696199Y-149300099D03*
D20*
X70165000Y-188030000D03*
X70965000Y-188030000D03*
X71765000Y-188030000D03*
X74965000Y-188030000D03*
X75765000Y-188030000D03*
X76565000Y-188030000D03*
X70165000Y-188830000D03*
X70965000Y-188830000D03*
X71765000Y-188830000D03*
X74965000Y-188830000D03*
X75765000Y-188830000D03*
X76565000Y-188830000D03*
X70165000Y-189630000D03*
X70965000Y-189630000D03*
X71765000Y-189630000D03*
X74965000Y-189630000D03*
X75765000Y-189630000D03*
X76565000Y-189630000D03*
X70165000Y-190430000D03*
X70965000Y-190430000D03*
X71765000Y-190430000D03*
X74965000Y-190430000D03*
X75765000Y-190430000D03*
X76565000Y-190430000D03*
X70165000Y-191230000D03*
X70965000Y-191230000D03*
X71765000Y-191230000D03*
X74965000Y-191230000D03*
X75765000Y-191230000D03*
X76565000Y-191230000D03*
X70165000Y-192030000D03*
X70965000Y-192030000D03*
X71765000Y-192030000D03*
X74965000Y-192030000D03*
X75765000Y-192030000D03*
X76565000Y-192030000D03*
X70165000Y-192830000D03*
X70965000Y-192830000D03*
X71765000Y-192830000D03*
X74965000Y-192830000D03*
X75765000Y-192830000D03*
X76565000Y-192830000D03*
X70165000Y-193630000D03*
X70965000Y-193630000D03*
X71765000Y-193630000D03*
X74965000Y-193630000D03*
X75765000Y-193630000D03*
X76565000Y-193630000D03*
X70165000Y-194430000D03*
X70965000Y-194430000D03*
X71765000Y-194430000D03*
X74965000Y-194430000D03*
X75765000Y-194430000D03*
X76565000Y-194430000D03*
X70165000Y-195230000D03*
X70965000Y-195230000D03*
X71765000Y-195230000D03*
X74965000Y-195230000D03*
X75765000Y-195230000D03*
X76565000Y-195230000D03*
X70165000Y-196030000D03*
X70965000Y-196030000D03*
X71765000Y-196030000D03*
X74965000Y-196030000D03*
X75765000Y-196030000D03*
X76565000Y-196030000D03*
X70165000Y-196830000D03*
X70965000Y-196830000D03*
X71765000Y-196830000D03*
X74965000Y-196830000D03*
X75765000Y-196830000D03*
X76565000Y-196830000D03*
X70165000Y-197630000D03*
X70965000Y-197630000D03*
X71765000Y-197630000D03*
X74965000Y-197630000D03*
X75765000Y-197630000D03*
X76565000Y-197630000D03*
X70165000Y-198430000D03*
X70965000Y-198430000D03*
X71765000Y-198430000D03*
X74965000Y-198430000D03*
X75765000Y-198430000D03*
X76565000Y-198430000D03*
X70165000Y-199230000D03*
X70965000Y-199230000D03*
X71765000Y-199230000D03*
X74965000Y-199230000D03*
X75765000Y-199230000D03*
X76565000Y-199230000D03*
X70165000Y-200030000D03*
X70965000Y-200030000D03*
X71765000Y-200030000D03*
X74965000Y-200030000D03*
X75765000Y-200030000D03*
X76565000Y-200030000D03*
D19*
X87350000Y-139000000D03*
X87350000Y-140760000D03*
D11*
X107029999Y-148153899D03*
X107029999Y-149246099D03*
D21*
X132279999Y-219998799D03*
X132279999Y-218881199D03*
D22*
X109816500Y-212170000D03*
X111286500Y-212170000D03*
D23*
X136215000Y-221910000D03*
X134745000Y-221910000D03*
D13*
X117490000Y-163222000D03*
X117490000Y-162358000D03*
D24*
X81640000Y-125240000D03*
D18*
X128026099Y-220199999D03*
X126933899Y-220199999D03*
D25*
X52295002Y-142520000D03*
X50595002Y-142520000D03*
D26*
X133740000Y-228695000D03*
X133740000Y-230485000D03*
D18*
X126059999Y-233787243D03*
X124967799Y-233787243D03*
X126126099Y-199509999D03*
X125033899Y-199509999D03*
D27*
X89069999Y-215289999D03*
X90919999Y-215289999D03*
X90919999Y-213839999D03*
X89069999Y-213839999D03*
D11*
X130509999Y-202199999D03*
X130509999Y-203292199D03*
D28*
X132947500Y-197950000D03*
X132947500Y-197450000D03*
X132947500Y-196950000D03*
X132947500Y-196450000D03*
X132947500Y-195950000D03*
X132947500Y-195450000D03*
X132947500Y-194950000D03*
X132947500Y-194450000D03*
D29*
X132260000Y-193762500D03*
X131760000Y-193762500D03*
X131260000Y-193762500D03*
X130760000Y-193762500D03*
X130260000Y-193762500D03*
X129760000Y-193762500D03*
X129260000Y-193762500D03*
X128760000Y-193762500D03*
D28*
X128072500Y-194450000D03*
X128072500Y-194950000D03*
X128072500Y-195450000D03*
X128072500Y-195950000D03*
X128072500Y-196450000D03*
X128072500Y-196950000D03*
X128072500Y-197450000D03*
X128072500Y-197950000D03*
D29*
X128760000Y-198637500D03*
X129260000Y-198637500D03*
X129760000Y-198637500D03*
X130260000Y-198637500D03*
X130760000Y-198637500D03*
X131260000Y-198637500D03*
X131760000Y-198637500D03*
X132260000Y-198637500D03*
D30*
X130509999Y-196199999D03*
D11*
X103079999Y-148203899D03*
X103079999Y-149296099D03*
D31*
X91349999Y-142179997D03*
X91349999Y-140879999D03*
X89597399Y-141529998D03*
D32*
X89910000Y-188100000D03*
X90910000Y-188100000D03*
X91910000Y-188100000D03*
X92910000Y-188100000D03*
X93910000Y-188100000D03*
X94910000Y-188100000D03*
X95910000Y-188100000D03*
X96910000Y-188100000D03*
X97910000Y-188100000D03*
X98910000Y-188100000D03*
X99910000Y-188100000D03*
X100910000Y-188100000D03*
X101910000Y-188100000D03*
X102910000Y-188100000D03*
X103910000Y-188100000D03*
X104910000Y-188100000D03*
X105910000Y-188100000D03*
X106910000Y-188100000D03*
X107910000Y-188100000D03*
X108910000Y-188100000D03*
X109910000Y-188100000D03*
X110910000Y-188100000D03*
X89910000Y-208100000D03*
X90910000Y-208100000D03*
X91910000Y-208100000D03*
X92910000Y-208100000D03*
X93910000Y-208100000D03*
X94910000Y-208100000D03*
X95910000Y-208100000D03*
X96910000Y-208100000D03*
X97910000Y-208100000D03*
X98910000Y-208100000D03*
X99910000Y-208100000D03*
X100910000Y-208100000D03*
X101910000Y-208100000D03*
X102910000Y-208100000D03*
X103910000Y-208100000D03*
X104910000Y-208100000D03*
X105910000Y-208100000D03*
X106910000Y-208100000D03*
X107910000Y-208100000D03*
X108910000Y-208100000D03*
X109910000Y-208100000D03*
X110910000Y-208100000D03*
X89910000Y-209100000D03*
X90910000Y-209100000D03*
X91910000Y-209100000D03*
X92910000Y-209100000D03*
X93910000Y-209100000D03*
X94910000Y-209100000D03*
X95910000Y-209100000D03*
X96910000Y-209100000D03*
X97910000Y-209100000D03*
X98910000Y-209100000D03*
X99910000Y-209100000D03*
X100910000Y-209100000D03*
X101910000Y-209100000D03*
X102910000Y-209100000D03*
X103910000Y-209100000D03*
X104910000Y-209100000D03*
X105910000Y-209100000D03*
X106910000Y-209100000D03*
X107910000Y-209100000D03*
X108910000Y-209100000D03*
X109910000Y-209100000D03*
X110910000Y-209100000D03*
X89910000Y-189100000D03*
X90910000Y-189100000D03*
X91910000Y-189100000D03*
X92910000Y-189100000D03*
X93910000Y-189100000D03*
X94910000Y-189100000D03*
X95910000Y-189100000D03*
X96910000Y-189100000D03*
X97910000Y-189100000D03*
X98910000Y-189100000D03*
X99910000Y-189100000D03*
X100910000Y-189100000D03*
X101910000Y-189100000D03*
X102910000Y-189100000D03*
X103910000Y-189100000D03*
X104910000Y-189100000D03*
X105910000Y-189100000D03*
X106910000Y-189100000D03*
X107910000Y-189100000D03*
X108910000Y-189100000D03*
X109910000Y-189100000D03*
X110910000Y-189100000D03*
X89910000Y-190100000D03*
X90910000Y-190100000D03*
X91910000Y-190100000D03*
X92910000Y-190100000D03*
X93910000Y-190100000D03*
X94910000Y-190100000D03*
X95910000Y-190100000D03*
X96910000Y-190100000D03*
X97910000Y-190100000D03*
X98910000Y-190100000D03*
X99910000Y-190100000D03*
X100910000Y-190100000D03*
X101910000Y-190100000D03*
X102910000Y-190100000D03*
X103910000Y-190100000D03*
X104910000Y-190100000D03*
X105910000Y-190100000D03*
X106910000Y-190100000D03*
X107910000Y-190100000D03*
X108910000Y-190100000D03*
X109910000Y-190100000D03*
X110910000Y-190100000D03*
X89910000Y-191100000D03*
X90910000Y-191100000D03*
X91910000Y-191100000D03*
X92910000Y-191100000D03*
X93910000Y-191100000D03*
X94910000Y-191100000D03*
X95910000Y-191100000D03*
X96910000Y-191100000D03*
X97910000Y-191100000D03*
X98910000Y-191100000D03*
X99910000Y-191100000D03*
X100910000Y-191100000D03*
X101910000Y-191100000D03*
X102910000Y-191100000D03*
X103910000Y-191100000D03*
X104910000Y-191100000D03*
X105910000Y-191100000D03*
X106910000Y-191100000D03*
X107910000Y-191100000D03*
X108910000Y-191100000D03*
X109910000Y-191100000D03*
X110910000Y-191100000D03*
X89910000Y-192100000D03*
X90910000Y-192100000D03*
X91910000Y-192100000D03*
X92910000Y-192100000D03*
X93910000Y-192100000D03*
X94910000Y-192100000D03*
X95910000Y-192100000D03*
X96910000Y-192100000D03*
X97910000Y-192100000D03*
X98910000Y-192100000D03*
X99910000Y-192100000D03*
X100910000Y-192100000D03*
X101910000Y-192100000D03*
X102910000Y-192100000D03*
X103910000Y-192100000D03*
X104910000Y-192100000D03*
X105910000Y-192100000D03*
X106910000Y-192100000D03*
X107910000Y-192100000D03*
X108910000Y-192100000D03*
X109910000Y-192100000D03*
X110910000Y-192100000D03*
X89910000Y-193100000D03*
X90910000Y-193100000D03*
X91910000Y-193100000D03*
X92910000Y-193100000D03*
X93910000Y-193100000D03*
X94910000Y-193100000D03*
X95910000Y-193100000D03*
X96910000Y-193100000D03*
X97910000Y-193100000D03*
X98910000Y-193100000D03*
X99910000Y-193100000D03*
X100910000Y-193100000D03*
X101910000Y-193100000D03*
X102910000Y-193100000D03*
X103910000Y-193100000D03*
X104910000Y-193100000D03*
X105910000Y-193100000D03*
X106910000Y-193100000D03*
X107910000Y-193100000D03*
X108910000Y-193100000D03*
X109910000Y-193100000D03*
X110910000Y-193100000D03*
X89910000Y-194100000D03*
X90910000Y-194100000D03*
X91910000Y-194100000D03*
X92910000Y-194100000D03*
X93910000Y-194100000D03*
X94910000Y-194100000D03*
X95910000Y-194100000D03*
X96910000Y-194100000D03*
X97910000Y-194100000D03*
X98910000Y-194100000D03*
X99910000Y-194100000D03*
X100910000Y-194100000D03*
X101910000Y-194100000D03*
X102910000Y-194100000D03*
X103910000Y-194100000D03*
X104910000Y-194100000D03*
X105910000Y-194100000D03*
X106910000Y-194100000D03*
X107910000Y-194100000D03*
X108910000Y-194100000D03*
X109910000Y-194100000D03*
X110910000Y-194100000D03*
X89910000Y-195100000D03*
X90910000Y-195100000D03*
X91910000Y-195100000D03*
X92910000Y-195100000D03*
X93910000Y-195100000D03*
X94910000Y-195100000D03*
X95910000Y-195100000D03*
X96910000Y-195100000D03*
X97910000Y-195100000D03*
X98910000Y-195100000D03*
X99910000Y-195100000D03*
X100910000Y-195100000D03*
X101910000Y-195100000D03*
X102910000Y-195100000D03*
X103910000Y-195100000D03*
X104910000Y-195100000D03*
X105910000Y-195100000D03*
X106910000Y-195100000D03*
X107910000Y-195100000D03*
X108910000Y-195100000D03*
X109910000Y-195100000D03*
X110910000Y-195100000D03*
X89910000Y-196100000D03*
X90910000Y-196100000D03*
X91910000Y-196100000D03*
X92910000Y-196100000D03*
X93910000Y-196100000D03*
X94910000Y-196100000D03*
X95910000Y-196100000D03*
X96910000Y-196100000D03*
X97910000Y-196100000D03*
X98910000Y-196100000D03*
X99910000Y-196100000D03*
X100910000Y-196100000D03*
X101910000Y-196100000D03*
X102910000Y-196100000D03*
X103910000Y-196100000D03*
X104910000Y-196100000D03*
X105910000Y-196100000D03*
X106910000Y-196100000D03*
X107910000Y-196100000D03*
X108910000Y-196100000D03*
X109910000Y-196100000D03*
X110910000Y-196100000D03*
X89910000Y-197100000D03*
X90910000Y-197100000D03*
X91910000Y-197100000D03*
X92910000Y-197100000D03*
X93910000Y-197100000D03*
X94910000Y-197100000D03*
X95910000Y-197100000D03*
X96910000Y-197100000D03*
X97910000Y-197100000D03*
X98910000Y-197100000D03*
X99910000Y-197100000D03*
X100910000Y-197100000D03*
X101910000Y-197100000D03*
X102910000Y-197100000D03*
X103910000Y-197100000D03*
X104910000Y-197100000D03*
X105910000Y-197100000D03*
X106910000Y-197100000D03*
X107910000Y-197100000D03*
X108910000Y-197100000D03*
X109910000Y-197100000D03*
X110910000Y-197100000D03*
X89910000Y-198100000D03*
X90910000Y-198100000D03*
X91910000Y-198100000D03*
X92910000Y-198100000D03*
X93910000Y-198100000D03*
X94910000Y-198100000D03*
X95910000Y-198100000D03*
X96910000Y-198100000D03*
X97910000Y-198100000D03*
X98910000Y-198100000D03*
X99910000Y-198100000D03*
X100910000Y-198100000D03*
X101910000Y-198100000D03*
X102910000Y-198100000D03*
X103910000Y-198100000D03*
X104910000Y-198100000D03*
X105910000Y-198100000D03*
X106910000Y-198100000D03*
X107910000Y-198100000D03*
X108910000Y-198100000D03*
X109910000Y-198100000D03*
X110910000Y-198100000D03*
X89910000Y-199100000D03*
X90910000Y-199100000D03*
X91910000Y-199100000D03*
X92910000Y-199100000D03*
X93910000Y-199100000D03*
X94910000Y-199100000D03*
X95910000Y-199100000D03*
X96910000Y-199100000D03*
X97910000Y-199100000D03*
X98910000Y-199100000D03*
X99910000Y-199100000D03*
X100910000Y-199100000D03*
X101910000Y-199100000D03*
X102910000Y-199100000D03*
X103910000Y-199100000D03*
X104910000Y-199100000D03*
X105910000Y-199100000D03*
X106910000Y-199100000D03*
X107910000Y-199100000D03*
X108910000Y-199100000D03*
X109910000Y-199100000D03*
X110910000Y-199100000D03*
X89910000Y-200100000D03*
X90910000Y-200100000D03*
X91910000Y-200100000D03*
X92910000Y-200100000D03*
X93910000Y-200100000D03*
X94910000Y-200100000D03*
X95910000Y-200100000D03*
X96910000Y-200100000D03*
X97910000Y-200100000D03*
X98910000Y-200100000D03*
X99910000Y-200100000D03*
X100910000Y-200100000D03*
X101910000Y-200100000D03*
X102910000Y-200100000D03*
X103910000Y-200100000D03*
X104910000Y-200100000D03*
X105910000Y-200100000D03*
X106910000Y-200100000D03*
X107910000Y-200100000D03*
X108910000Y-200100000D03*
X109910000Y-200100000D03*
X110910000Y-200100000D03*
X89910000Y-201100000D03*
X90910000Y-201100000D03*
X91910000Y-201100000D03*
X92910000Y-201100000D03*
X93910000Y-201100000D03*
X94910000Y-201100000D03*
X95910000Y-201100000D03*
X96910000Y-201100000D03*
X97910000Y-201100000D03*
X98910000Y-201100000D03*
X99910000Y-201100000D03*
X100910000Y-201100000D03*
X101910000Y-201100000D03*
X102910000Y-201100000D03*
X103910000Y-201100000D03*
X104910000Y-201100000D03*
X105910000Y-201100000D03*
X106910000Y-201100000D03*
X107910000Y-201100000D03*
X108910000Y-201100000D03*
X109910000Y-201100000D03*
X110910000Y-201100000D03*
X89910000Y-202100000D03*
X90910000Y-202100000D03*
X91910000Y-202100000D03*
X92910000Y-202100000D03*
X93910000Y-202100000D03*
X94910000Y-202100000D03*
X95910000Y-202100000D03*
X96910000Y-202100000D03*
X97910000Y-202100000D03*
X98910000Y-202100000D03*
X99910000Y-202100000D03*
X100910000Y-202100000D03*
X101910000Y-202100000D03*
X102910000Y-202100000D03*
X103910000Y-202100000D03*
X104910000Y-202100000D03*
X105910000Y-202100000D03*
X106910000Y-202100000D03*
X107910000Y-202100000D03*
X108910000Y-202100000D03*
X109910000Y-202100000D03*
X110910000Y-202100000D03*
X89910000Y-203100000D03*
X90910000Y-203100000D03*
X91910000Y-203100000D03*
X92910000Y-203100000D03*
X93910000Y-203100000D03*
X94910000Y-203100000D03*
X95910000Y-203100000D03*
X96910000Y-203100000D03*
X97910000Y-203100000D03*
X98910000Y-203100000D03*
X99910000Y-203100000D03*
X100910000Y-203100000D03*
X101910000Y-203100000D03*
X102910000Y-203100000D03*
X103910000Y-203100000D03*
X104910000Y-203100000D03*
X105910000Y-203100000D03*
X106910000Y-203100000D03*
X107910000Y-203100000D03*
X108910000Y-203100000D03*
X109910000Y-203100000D03*
X110910000Y-203100000D03*
X89910000Y-204100000D03*
X90910000Y-204100000D03*
X91910000Y-204100000D03*
X92910000Y-204100000D03*
X93910000Y-204100000D03*
X94910000Y-204100000D03*
X95910000Y-204100000D03*
X96910000Y-204100000D03*
X97910000Y-204100000D03*
X98910000Y-204100000D03*
X99910000Y-204100000D03*
X100910000Y-204100000D03*
X101910000Y-204100000D03*
X102910000Y-204100000D03*
X103910000Y-204100000D03*
X104910000Y-204100000D03*
X105910000Y-204100000D03*
X106910000Y-204100000D03*
X107910000Y-204100000D03*
X108910000Y-204100000D03*
X109910000Y-204100000D03*
X110910000Y-204100000D03*
X89910000Y-205100000D03*
X90910000Y-205100000D03*
X91910000Y-205100000D03*
X92910000Y-205100000D03*
X93910000Y-205100000D03*
X94910000Y-205100000D03*
X95910000Y-205100000D03*
X96910000Y-205100000D03*
X97910000Y-205100000D03*
X98910000Y-205100000D03*
X99910000Y-205100000D03*
X100910000Y-205100000D03*
X101910000Y-205100000D03*
X102910000Y-205100000D03*
X103910000Y-205100000D03*
X104910000Y-205100000D03*
X105910000Y-205100000D03*
X106910000Y-205100000D03*
X107910000Y-205100000D03*
X108910000Y-205100000D03*
X109910000Y-205100000D03*
X110910000Y-205100000D03*
X89910000Y-206100000D03*
X90910000Y-206100000D03*
X91910000Y-206100000D03*
X92910000Y-206100000D03*
X93910000Y-206100000D03*
X94910000Y-206100000D03*
X95910000Y-206100000D03*
X96910000Y-206100000D03*
X97910000Y-206100000D03*
X98910000Y-206100000D03*
X99910000Y-206100000D03*
X100910000Y-206100000D03*
X101910000Y-206100000D03*
X102910000Y-206100000D03*
X103910000Y-206100000D03*
X104910000Y-206100000D03*
X105910000Y-206100000D03*
X106910000Y-206100000D03*
X107910000Y-206100000D03*
X108910000Y-206100000D03*
X109910000Y-206100000D03*
X110910000Y-206100000D03*
X89910000Y-207100000D03*
X90910000Y-207100000D03*
X91910000Y-207100000D03*
X92910000Y-207100000D03*
X93910000Y-207100000D03*
X94910000Y-207100000D03*
X95910000Y-207100000D03*
X96910000Y-207100000D03*
X97910000Y-207100000D03*
X98910000Y-207100000D03*
X99910000Y-207100000D03*
X100910000Y-207100000D03*
X101910000Y-207100000D03*
X102910000Y-207100000D03*
X103910000Y-207100000D03*
X104910000Y-207100000D03*
X105910000Y-207100000D03*
X106910000Y-207100000D03*
X107910000Y-207100000D03*
X108910000Y-207100000D03*
X109910000Y-207100000D03*
X110910000Y-207100000D03*
D33*
X57110000Y-198840000D03*
D34*
X57460000Y-198840000D03*
D33*
X57110000Y-198340000D03*
D34*
X57460000Y-198340000D03*
D33*
X57110000Y-197840000D03*
D34*
X57460000Y-197840000D03*
D33*
X57110000Y-197340000D03*
D34*
X57460000Y-197340000D03*
D33*
X57110000Y-196840000D03*
D34*
X57460000Y-196840000D03*
X54380000Y-196840000D03*
D33*
X54730000Y-196840000D03*
D34*
X54380000Y-197340000D03*
D33*
X54730000Y-197340000D03*
D34*
X54380000Y-197840000D03*
D33*
X54730000Y-197840000D03*
D34*
X54380000Y-198340000D03*
D33*
X54730000Y-198340000D03*
D34*
X54380000Y-198840000D03*
D33*
X54730000Y-198840000D03*
D35*
X55670000Y-199390000D03*
X56170000Y-199390000D03*
D36*
X55420000Y-198590000D03*
D37*
X56420000Y-198590000D03*
D38*
X55920000Y-197840000D03*
D37*
X55420000Y-197090000D03*
X56420000Y-197090000D03*
D35*
X55670000Y-196290000D03*
X56170000Y-196290000D03*
D39*
X119400000Y-161508000D03*
X119400000Y-165572000D03*
D12*
X55848101Y-152519999D03*
X57041901Y-152519999D03*
D40*
X78370000Y-212590000D03*
X80910000Y-212590000D03*
X83450000Y-212590000D03*
D25*
X52280000Y-140670000D03*
X50580000Y-140670000D03*
D41*
X113069000Y-140550000D03*
X113069000Y-132930000D03*
X96759000Y-138130000D03*
X96759000Y-130512000D03*
D42*
X99834000Y-141560000D03*
D43*
X101866000Y-141560000D03*
X103898000Y-141560000D03*
X105930000Y-141560000D03*
X107962000Y-141560000D03*
X109994000Y-141560000D03*
X98818000Y-144100000D03*
X100850000Y-144100000D03*
X102882000Y-144100000D03*
X106946000Y-144100000D03*
X108978000Y-144100000D03*
X111010000Y-144100000D03*
D44*
X97889000Y-127590000D03*
X97889000Y-125050000D03*
X111939000Y-127590000D03*
X111939000Y-125050000D03*
D45*
X113069000Y-136230000D03*
X96759000Y-134830000D03*
D11*
X137509999Y-197199999D03*
X137509999Y-198292199D03*
X131469999Y-179614999D03*
X131469999Y-180707199D03*
D46*
X57079999Y-200779299D03*
X57079999Y-201820699D03*
D47*
X113794999Y-147584999D03*
X113794999Y-148684999D03*
D13*
X109560000Y-162572000D03*
X109560000Y-161708000D03*
D48*
X55680000Y-201725000D03*
X55680000Y-200855000D03*
D15*
X67186099Y-140449399D03*
X68633899Y-140449399D03*
D18*
X135223899Y-195839999D03*
X136316099Y-195839999D03*
D12*
X59889999Y-198333099D03*
X59889999Y-199526899D03*
D49*
X91350000Y-159914998D03*
X91350000Y-158444998D03*
D11*
X128059999Y-231619999D03*
X128059999Y-232712199D03*
D12*
X61479999Y-198363099D03*
X61479999Y-199556899D03*
D50*
X69910000Y-150900000D03*
D51*
X118958799Y-223839999D03*
X117841199Y-223839999D03*
D52*
X62090000Y-153900000D03*
X63730000Y-153900000D03*
D26*
X116325000Y-168900000D03*
X116325000Y-170690000D03*
D53*
X66015000Y-153900000D03*
X67805000Y-153900000D03*
D31*
X91349999Y-131179997D03*
X91349999Y-129879999D03*
X89597399Y-130529998D03*
D48*
X108795000Y-174005000D03*
X108795000Y-173135000D03*
X105650000Y-174005000D03*
X105650000Y-173135000D03*
D54*
X53145002Y-152520000D03*
X54445002Y-152520000D03*
D48*
X111795000Y-169570000D03*
X111795000Y-168700000D03*
D11*
X114574999Y-168688899D03*
X114574999Y-169781099D03*
D55*
X73909999Y-146899999D03*
D56*
X74830000Y-142912199D03*
X72989998Y-142912199D03*
D57*
X57459999Y-130879999D03*
D58*
X57459999Y-124579999D03*
D59*
X52659999Y-127979999D03*
D51*
X122068799Y-232459999D03*
X120951199Y-232459999D03*
D48*
X107147000Y-174005000D03*
X107147000Y-173135000D03*
D21*
X129699999Y-219998799D03*
X129699999Y-218881199D03*
D60*
X68212399Y-164329999D03*
X65367599Y-164329999D03*
D31*
X91349999Y-152179997D03*
X91349999Y-150879999D03*
X89597399Y-151529998D03*
D14*
X113225000Y-168613000D03*
X113225000Y-169477000D03*
D25*
X52290000Y-138720000D03*
X50590000Y-138720000D03*
D11*
X64909999Y-143992199D03*
X64909999Y-142899999D03*
D61*
X138868799Y-211415999D03*
X138868799Y-211923999D03*
X138868799Y-212431999D03*
X138868799Y-212939999D03*
X138868799Y-213447999D03*
X138868799Y-213955999D03*
X138868799Y-214463999D03*
X140291199Y-214463999D03*
X140291199Y-213955999D03*
X140291199Y-213447999D03*
X140291199Y-212939999D03*
X140291199Y-212431999D03*
X140291199Y-211923999D03*
X140291199Y-211415999D03*
D62*
X119815000Y-175075000D03*
X119815000Y-176345000D03*
X119815000Y-177615000D03*
X119815000Y-178885000D03*
X119815000Y-180155000D03*
X119815000Y-181425000D03*
X119815000Y-182695000D03*
X119815000Y-183965000D03*
X129125000Y-183965000D03*
X129125000Y-182695000D03*
X129125000Y-181425000D03*
X129125000Y-180155000D03*
X129125000Y-178885000D03*
X129125000Y-177615000D03*
X129125000Y-176345000D03*
X129125000Y-175075000D03*
D24*
X56360000Y-233980000D03*
D48*
X100555000Y-174005000D03*
X100555000Y-173135000D03*
D18*
X126059999Y-232452754D03*
X124967799Y-232452754D03*
D63*
X138058000Y-171520000D03*
X139082000Y-171520000D03*
D64*
X67509998Y-145956899D03*
X66709997Y-145956899D03*
X65909999Y-145956899D03*
X65109998Y-145956899D03*
X64310000Y-145956899D03*
X64310000Y-149843099D03*
X65110001Y-149843099D03*
X65909999Y-149843099D03*
X66710000Y-149843099D03*
X67509998Y-149843099D03*
D65*
X65909999Y-147899999D03*
D18*
X145059999Y-220119999D03*
X143967799Y-220119999D03*
D11*
X120263199Y-222166099D03*
X120263199Y-221073899D03*
D66*
X108280000Y-235230000D03*
D67*
X108280000Y-236500000D03*
X107010000Y-235230000D03*
X107010000Y-236500000D03*
X105740000Y-235230000D03*
X105740000Y-236500000D03*
X104470000Y-235230000D03*
X104470000Y-236500000D03*
X103200000Y-235230000D03*
X103200000Y-236500000D03*
X101930000Y-235230000D03*
X101930000Y-236500000D03*
X100660000Y-235230000D03*
X100660000Y-236500000D03*
X99390000Y-235230000D03*
X99390000Y-236500000D03*
X98120000Y-235230000D03*
X98120000Y-236500000D03*
X96850000Y-235230000D03*
X96850000Y-236500000D03*
D13*
X132060000Y-235484000D03*
X132060000Y-234620000D03*
D68*
X127405000Y-203200000D03*
X125615000Y-203200000D03*
D18*
X126059999Y-231118265D03*
X124967799Y-231118265D03*
D12*
X62480399Y-195649999D03*
X62480399Y-194456199D03*
D69*
X60257499Y-134509999D03*
X57457499Y-134509999D03*
D70*
X111845000Y-161925000D03*
X111845000Y-163565000D03*
D71*
X143370000Y-174020000D03*
X143370000Y-159520000D03*
X148320000Y-174620000D03*
X148320000Y-158920000D03*
D11*
X92349999Y-181906099D03*
X92349999Y-180813899D03*
D18*
X131773399Y-199996799D03*
X132865599Y-199996799D03*
D51*
X94080399Y-212974199D03*
X95197999Y-212974199D03*
D18*
X94054999Y-217304199D03*
X95147199Y-217304199D03*
D72*
X138170000Y-224575000D03*
X138170000Y-222785000D03*
D73*
X91350000Y-143880000D03*
X92220000Y-143880000D03*
D31*
X91349999Y-163179997D03*
X91349999Y-161879999D03*
X89597399Y-162529998D03*
D47*
X96724999Y-147584999D03*
X96724999Y-148684999D03*
D74*
X120128000Y-169800000D03*
X124192000Y-169800000D03*
D51*
X87969999Y-217519999D03*
X89087599Y-217519999D03*
D75*
X149400000Y-216620000D03*
X149400000Y-214620001D03*
X149400000Y-212620000D03*
X149400000Y-210619999D03*
X149400000Y-208620001D03*
X147399999Y-216620000D03*
X147399999Y-214620001D03*
X147399999Y-212620000D03*
X147399999Y-210619999D03*
X147399999Y-208620001D03*
D76*
X148645000Y-227440000D03*
X148645000Y-226790000D03*
X148645000Y-226140000D03*
X148645000Y-225490000D03*
X148645000Y-224840000D03*
D77*
X148770000Y-229240000D03*
X148770000Y-223040000D03*
D78*
X151320000Y-229940000D03*
D79*
X151320000Y-227340000D03*
X151320000Y-224940000D03*
D78*
X151320000Y-222340000D03*
D80*
X68650000Y-202290000D03*
X67350000Y-202290000D03*
D11*
X128469999Y-192066099D03*
X128469999Y-190973899D03*
D19*
X87350000Y-128000000D03*
X87350000Y-129760000D03*
D49*
X91350000Y-127350000D03*
X91350000Y-125880000D03*
D11*
X109029999Y-148193899D03*
X109029999Y-149286099D03*
D81*
X121300000Y-164655000D03*
X121300000Y-165525000D03*
D22*
X109805000Y-218380000D03*
X111275000Y-218380000D03*
D24*
X145270000Y-234470000D03*
D21*
X133579999Y-220008799D03*
X133579999Y-218891199D03*
D82*
X133132000Y-227000000D03*
X132268000Y-227000000D03*
D12*
X60859999Y-195626899D03*
X60859999Y-194433099D03*
D83*
X113945000Y-161035000D03*
X113945000Y-163235000D03*
X115645000Y-163235000D03*
X115645000Y-161035000D03*
D11*
X69289999Y-147096099D03*
X69289999Y-146003899D03*
D84*
X117470000Y-175020000D03*
X117470000Y-176320000D03*
D49*
X91350000Y-138880000D03*
X91350000Y-137410000D03*
D85*
X138050000Y-168570000D03*
X138890000Y-168570000D03*
D19*
X87350000Y-149299998D03*
X87350000Y-151059998D03*
D73*
X50765000Y-196770000D03*
X51635000Y-196770000D03*
D21*
X130973332Y-219981333D03*
X130973332Y-218863733D03*
D48*
X102203000Y-174005000D03*
X102203000Y-173135000D03*
D86*
X141819999Y-225499999D03*
X141819999Y-227399999D03*
X143919999Y-226449999D03*
D87*
X113465699Y-167174999D03*
X114964299Y-167174999D03*
D14*
X136240000Y-223978000D03*
X136240000Y-224842000D03*
D18*
X64817799Y-151899999D03*
X65909999Y-151899999D03*
D49*
X91350000Y-148914998D03*
X91350000Y-147444998D03*
D82*
X135182000Y-199190000D03*
X134318000Y-199190000D03*
D88*
X110795000Y-173135000D03*
X110795000Y-171835000D03*
D89*
X49340000Y-198600000D03*
X51040000Y-198600000D03*
D48*
X98795000Y-168005000D03*
X98795000Y-167135000D03*
D88*
X117470000Y-182680000D03*
X117470000Y-181380000D03*
D18*
X126059999Y-235121732D03*
X124967799Y-235121732D03*
D60*
X68212399Y-157079999D03*
X65367599Y-157079999D03*
D90*
X135945000Y-197200000D03*
X135075000Y-197200000D03*
D11*
X134773199Y-224786099D03*
X134773199Y-223693899D03*
X52879999Y-195886099D03*
X52879999Y-194793899D03*
D73*
X90915000Y-154179998D03*
X91785000Y-154179998D03*
D11*
X129559999Y-231619999D03*
X129559999Y-232712199D03*
D19*
X109850000Y-220610000D03*
X109850000Y-222370000D03*
D91*
X115112499Y-214168599D03*
X113207499Y-214168599D03*
X114159999Y-216251399D03*
D92*
X53469999Y-149619997D03*
X54120000Y-149619997D03*
X54769999Y-149619997D03*
X55420000Y-149619997D03*
X55420000Y-145419998D03*
X54769999Y-145419998D03*
X54120000Y-145419998D03*
X53469999Y-145419998D03*
D93*
X128210000Y-207950000D03*
X130510000Y-207950000D03*
X130510000Y-206200000D03*
X128210000Y-206200000D03*
D11*
X110039999Y-235273899D03*
X110039999Y-236366099D03*
D94*
X146970000Y-197980000D03*
D95*
X146970000Y-195480000D03*
X146970000Y-193480000D03*
X146970000Y-190980000D03*
D96*
X149970000Y-201050000D03*
X149970000Y-187910000D03*
D97*
X77909999Y-161116399D03*
X77909999Y-152683599D03*
D98*
X62910000Y-143720000D03*
X62910000Y-142080000D03*
D51*
X118978799Y-225229999D03*
X117861199Y-225229999D03*
D40*
X78370000Y-216680000D03*
X80910000Y-216680000D03*
X83450000Y-216680000D03*
D99*
X133960000Y-235470000D03*
X136160000Y-235470000D03*
X136160000Y-233770000D03*
X133960000Y-233770000D03*
D84*
X117470000Y-184010000D03*
X117470000Y-185310000D03*
D26*
X51920000Y-200945000D03*
X51920000Y-202735000D03*
D91*
X114992499Y-220558599D03*
X113087499Y-220558599D03*
X114039999Y-222641399D03*
D60*
X68212399Y-160789999D03*
X65367599Y-160789999D03*
D11*
X91109999Y-181916099D03*
X91109999Y-180823899D03*
D51*
X119568799Y-228609999D03*
X118451199Y-228609999D03*
D98*
X62030000Y-149790000D03*
X62030000Y-148150000D03*
D84*
X131470000Y-183950000D03*
X131470000Y-185250000D03*
D13*
X55720000Y-143420000D03*
X55720000Y-142556000D03*
D100*
X66909999Y-132808299D03*
X66909999Y-126991699D03*
D15*
X67186099Y-138112599D03*
X68633899Y-138112599D03*
D73*
X98925000Y-165135000D03*
X99795000Y-165135000D03*
D14*
X138060000Y-233756000D03*
X138060000Y-234620000D03*
D18*
X126525099Y-193066399D03*
X125432899Y-193066399D03*
D11*
X131059999Y-231619999D03*
X131059999Y-232712199D03*
D72*
X139210000Y-230095000D03*
X139210000Y-228305000D03*
D48*
X103970000Y-173975000D03*
X103970000Y-173105000D03*
D26*
X132510000Y-202305000D03*
X132510000Y-204095000D03*
D13*
X137100000Y-229432000D03*
X137100000Y-228568000D03*
D88*
X112795000Y-172135000D03*
X112795000Y-170835000D03*
D51*
X131911199Y-175049999D03*
X133028799Y-175049999D03*
D15*
X67186099Y-135899999D03*
X68633899Y-135899999D03*
D90*
X91908700Y-133315000D03*
X91038700Y-133315000D03*
D101*
X129956499Y-228870000D03*
X129956499Y-228369999D03*
X129956499Y-227870000D03*
X129956499Y-227369998D03*
X129956499Y-226869999D03*
X129956499Y-226370000D03*
X129956499Y-225869999D03*
X129956499Y-225369999D03*
X129956499Y-224869998D03*
X129956499Y-224369999D03*
X129956499Y-223870000D03*
X129956499Y-223369998D03*
X129956499Y-222869999D03*
X129956499Y-222369998D03*
D102*
X129310000Y-221723499D03*
X128809999Y-221723499D03*
X128310000Y-221723499D03*
X127809998Y-221723499D03*
X127309999Y-221723499D03*
X126810000Y-221723499D03*
X126309999Y-221723499D03*
X125809999Y-221723499D03*
X125309998Y-221723499D03*
X124809999Y-221723499D03*
X124310000Y-221723499D03*
X123809998Y-221723499D03*
X123309999Y-221723499D03*
X122809998Y-221723499D03*
D101*
X122163499Y-222369998D03*
X122163499Y-222869999D03*
X122163499Y-223369998D03*
X122163499Y-223870000D03*
X122163499Y-224369999D03*
X122163499Y-224869998D03*
X122163499Y-225369999D03*
X122163499Y-225869999D03*
X122163499Y-226370000D03*
X122163499Y-226869999D03*
X122163499Y-227369998D03*
X122163499Y-227870000D03*
X122163499Y-228369999D03*
X122163499Y-228870000D03*
D102*
X122809998Y-229516499D03*
X123309999Y-229516499D03*
X123809998Y-229516499D03*
X124310000Y-229516499D03*
X124809999Y-229516499D03*
X125309998Y-229516499D03*
X125809999Y-229516499D03*
X126309999Y-229516499D03*
X126810000Y-229516499D03*
X127309999Y-229516499D03*
X127809998Y-229516499D03*
X128310000Y-229516499D03*
X128809999Y-229516499D03*
X129310000Y-229516499D03*
D103*
X126059999Y-225619999D03*
D73*
X90915000Y-164914998D03*
X91785000Y-164914998D03*
D63*
X138008000Y-170070000D03*
X139032000Y-170070000D03*
D19*
X87350000Y-160299998D03*
X87350000Y-162059998D03*
D84*
X131470000Y-176360000D03*
X131470000Y-177660000D03*
D24*
X130270000Y-125210000D03*
D104*
X40589999Y-209339999D03*
X40589999Y-210339999D03*
X40589999Y-211339999D03*
X40589999Y-212339999D03*
X40589999Y-213339999D03*
X40589999Y-214339999D03*
X40589999Y-215339999D03*
X40589999Y-216339999D03*
X40589999Y-217339999D03*
X40589999Y-218339999D03*
X40589999Y-219339999D03*
X40589999Y-222339999D03*
X40589999Y-223339999D03*
X40589999Y-224339999D03*
X40589999Y-225339999D03*
X40589999Y-226339999D03*
D105*
X41139999Y-227339999D03*
D104*
X40589999Y-228339999D03*
D48*
X58420000Y-201635000D03*
X58420000Y-200765000D03*
D106*
X60370000Y-148120000D03*
X60370000Y-149820000D03*
D11*
X135739999Y-228589999D03*
X135739999Y-229682199D03*
D107*
X107920000Y-164065000D03*
X107420000Y-164065000D03*
X106920000Y-164065000D03*
X106420000Y-164065000D03*
X105920000Y-164065000D03*
X105420000Y-164065000D03*
X104920000Y-164065000D03*
X104420000Y-164065000D03*
X103920000Y-164065000D03*
X103420000Y-164065000D03*
X102920000Y-164065000D03*
X102420000Y-164065000D03*
D108*
X101725000Y-164760000D03*
X101725000Y-165260000D03*
X101725000Y-165760000D03*
X101725000Y-166260000D03*
X101725000Y-166760000D03*
X101725000Y-167260000D03*
X101725000Y-167760000D03*
X101725000Y-168260000D03*
X101725000Y-168760000D03*
X101725000Y-169260000D03*
X101725000Y-169760000D03*
X101725000Y-170260000D03*
D107*
X102420000Y-170955000D03*
X102920000Y-170955000D03*
X103420000Y-170955000D03*
X103920000Y-170955000D03*
X104420000Y-170955000D03*
X104920000Y-170955000D03*
X105420000Y-170955000D03*
X105920000Y-170955000D03*
X106420000Y-170955000D03*
X106920000Y-170955000D03*
X107420000Y-170955000D03*
X107920000Y-170955000D03*
D108*
X108615000Y-170260000D03*
X108615000Y-169760000D03*
X108615000Y-169260000D03*
X108615000Y-168760000D03*
X108615000Y-168260000D03*
X108615000Y-167760000D03*
X108615000Y-167260000D03*
X108615000Y-166760000D03*
X108615000Y-166260000D03*
X108615000Y-165760000D03*
X108615000Y-165260000D03*
X108615000Y-164760000D03*
D109*
X105170000Y-167510000D03*
D110*
X105795000Y-166885000D03*
X105795000Y-168135000D03*
X104545000Y-166885000D03*
X104545000Y-168135000D03*
D111*
X152700000Y-235280000D02*
X152630000Y-204100000D01*
X96204000Y-119620000D02*
X45860000Y-119590000D01*
X45540000Y-228990000D02*
X50225000Y-228990000D01*
X135440000Y-119660000D02*
X135410000Y-152050000D01*
X135440000Y-119660000D02*
X113624000Y-119620000D01*
X50225000Y-228990000D02*
X50225000Y-240910000D01*
X45540000Y-208690000D02*
X45400000Y-119590000D01*
X154470000Y-186520000D02*
X152470000Y-184520000D01*
X152700000Y-235280000D02*
X148580000Y-240850000D01*
X135410000Y-152050000D02*
X152350000Y-152040000D01*
X152630000Y-204100000D02*
X154470000Y-201520000D01*
X148580000Y-240850000D02*
X50225000Y-240910000D01*
X45400000Y-119590000D02*
X45860000Y-119590000D01*
X152470000Y-184520000D02*
X152450000Y-152170000D01*
X152450000Y-152040000D02*
X152450000Y-152170000D01*
X152350000Y-152040000D02*
X152450000Y-152040000D01*
X154470000Y-201520000D02*
X154470000Y-186520000D01*
D112*
X113624000Y-119620000D02*
X113624000Y-122410000D01*
X112634000Y-123400000D02*
X109994000Y-123400000D01*
X109994000Y-123400000D02*
X109994000Y-138410000D01*
X109004000Y-139400000D02*
X100824000Y-139400000D01*
X99834000Y-138410000D02*
X99834000Y-123400000D01*
X99834000Y-123400000D02*
X97194000Y-123400000D01*
X96204000Y-122410000D02*
X96204000Y-119620000D01*
X112634000Y-123400000D02*
G75*
G03*
X113624000Y-122410000I1J989999D01*
G01*
X109004000Y-139400000D02*
G75*
G03*
X109994000Y-138410000I1J989999D01*
G01*
X99834000Y-138410000D02*
G75*
G03*
X100824000Y-139400000I990000J0D01*
G01*
X96204000Y-122410000D02*
G75*
G03*
X97194000Y-123400000I990000J0D01*
G01*
D111*
X45540000Y-208690000D02*
X37640000Y-208690000D01*
X37640000Y-208690000D02*
X37140000Y-209190000D01*
X37140000Y-209190000D02*
X37140000Y-219390000D01*
X44590000Y-219890000D02*
X37640000Y-219890000D01*
X37640000Y-219890000D02*
X37140000Y-219390000D01*
X44590000Y-221790000D02*
X37640000Y-221790000D01*
X37640000Y-221790000D02*
X37140000Y-222290000D01*
X37140000Y-222290000D02*
X37140000Y-228490000D01*
X45540000Y-228990000D02*
X37640000Y-228990000D01*
X37640000Y-228990000D02*
X37140000Y-228490000D01*
X44590000Y-221790000D02*
G75*
G03*
X44590000Y-219890000I0J950000D01*
G01*
M02*
